<?xml version="1.0" encoding="UTF-8"?>
<svg width="667px" height="421px" viewBox="0 0 667 421" version="1.1" xmlns="http://www.w3.org/2000/svg" xmlns:xlink="http://www.w3.org/1999/xlink">
    <title>Learn More - Code With Us</title>
    <g id="Illustrations" stroke="none" stroke-width="1" fill="none" fill-rule="evenodd">
        <g id="Learn-More---Code-With-Us" fill-rule="nonzero">
            <g transform="translate(0.000000, 0.000000)">
                <g id="Background-Element-2" transform="translate(425.820257, 93.437946)">
                    <path d="M5.70613409,0 L235.378031,0 C238.529442,0 241.084165,2.55472325 241.084165,5.70613409 L241.084165,185.449358 C241.084165,188.600769 238.529442,191.155492 235.378031,191.155492 L5.70613409,191.155492 C2.55472325,191.155492 0,188.600769 0,185.449358 L0,5.70613409 C0,2.55472325 2.55472325,0 5.70613409,0 Z" id="Shape" fill="#60C9FF"></path>
                    <path d="M13.6947218,11.4122682 L227.389444,11.4122682 C228.650008,11.4122682 229.671897,12.4341575 229.671897,13.6947218 L229.671897,177.46077 C229.671897,178.721335 228.650008,179.743224 227.389444,179.743224 L13.6947218,179.743224 C12.4341575,179.743224 11.4122682,178.721335 11.4122682,177.46077 L11.4122682,13.6947218 C11.4122682,12.4341575 12.4341575,11.4122682 13.6947218,11.4122682 Z" id="Shape" fill="#FFFFFF"></path>
                    <ellipse id="Shape" fill="#244C5A" cx="49.3107591" cy="49.5865136" rx="13.647421" ry="13.6378688"></ellipse>
                    <path d="M43.913965,48.8168013 C43.1665015,48.2943432 42.152154,48.4991899 41.6483564,49.2743392 C41.1445588,50.0494884 41.3420891,51.101407 42.0895526,51.623865 L47.4142514,55.3456947 C48.1056661,55.8289761 49.0371719,55.6940946 49.5744928,55.0328929 L56.6772192,46.2926141 C57.2580974,45.577813 57.1702277,44.5100156 56.4809569,43.907622 C55.7916861,43.3052283 54.762027,43.3963526 54.1811488,44.1111537 L48.0230867,51.6889733 L43.913965,48.8168013 Z" id="Shape" fill="#FFFFFF"></path>
                    <ellipse id="Shape" fill="#0097A9" cx="49.3107591" cy="95.2355863" rx="13.647421" ry="13.6378688"></ellipse>
                    <path d="M43.913965,94.4658738 C43.1665015,93.9434158 42.152154,94.1482625 41.6483564,94.9234116 C41.1445588,95.6985613 41.3420891,96.75048 42.0895526,97.2729379 L47.4142514,100.994767 C48.1056661,101.478049 49.0371719,101.343168 49.5744928,100.681966 L56.6772192,91.9416869 C57.2580974,91.2268859 57.1702277,90.1590884 56.4809569,89.5566947 C55.7916861,88.954301 54.762027,89.0454251 54.1811488,89.7602268 L48.0230867,97.3380464 L43.913965,94.4658738 Z" id="Shape" fill="#FFFFFF"></path>
                    <ellipse id="Shape" fill="#F2A900" cx="49.3107591" cy="140.884659" rx="13.647421" ry="13.6378688"></ellipse>
                    <path d="M43.913965,140.114947 C43.1665015,139.592489 42.152154,139.797335 41.6483564,140.572484 C41.1445588,141.347634 41.3420891,142.399553 42.0895526,142.922011 L47.4142514,146.64384 C48.1056661,147.127121 49.0371719,146.99224 49.5744928,146.331039 L56.6772192,137.59076 C57.2580974,136.875959 57.1702277,135.808161 56.4809569,135.205767 C55.7916861,134.603374 54.762027,134.694498 54.1811488,135.4093 L48.0230867,142.987119 L43.913965,140.114947 Z" id="Shape" fill="#FFFFFF"></path>
                    <path d="M85.5920114,38.2310984 L146.077033,38.2310984 C147.967879,38.2310984 149.500713,39.7639324 149.500713,41.6547789 C149.500713,43.5456254 147.967879,45.0784593 146.077033,45.0784593 L85.5920114,45.0784593 C83.7011648,45.0784593 82.168331,43.5456254 82.168331,41.6547789 C82.168331,39.7639324 83.7011648,38.2310984 85.5920114,38.2310984 Z" id="Shape" fill="#CCEEFF"></path>
                    <path d="M85.021398,54.2082739 L202.56776,54.2082739 C204.458607,54.2082739 205.991441,55.7411078 205.991441,57.6319544 C205.991441,59.5228009 204.458607,61.0556348 202.56776,61.0556348 L85.021398,61.0556348 C83.1305514,61.0556348 81.5977175,59.5228009 81.5977175,57.6319544 C81.5977175,55.7411078 83.1305514,54.2082739 85.021398,54.2082739 Z" id="Shape" fill="#CCEEFF"></path>
                    <path d="M85.021398,85.021398 L122.681883,85.021398 C124.57273,85.021398 126.105563,86.5542318 126.105563,88.4450785 C126.105563,90.3359251 124.57273,91.8687589 122.681883,91.8687589 L85.021398,91.8687589 C83.1305514,91.8687589 81.5977175,90.3359251 81.5977175,88.4450785 C81.5977175,86.5542318 83.1305514,85.021398 85.021398,85.021398 Z" id="Shape" fill="#CCEEFF"></path>
                    <path d="M85.021398,100.42796 L202.56776,100.42796 C204.458607,100.42796 205.991441,101.960794 205.991441,103.851641 C205.991441,105.742487 204.458607,107.275321 202.56776,107.275321 L85.021398,107.275321 C83.1305514,107.275321 81.5977175,105.742487 81.5977175,103.851641 C81.5977175,101.960794 83.1305514,100.42796 85.021398,100.42796 Z" id="Shape" fill="#CCEEFF"></path>
                    <path d="M85.021398,130.099857 L156.918688,130.099857 C158.809534,130.099857 160.342368,131.632691 160.342368,133.523538 C160.342368,135.414384 158.809534,136.947218 156.918688,136.947218 L85.021398,136.947218 C83.1305514,136.947218 81.5977175,135.414384 81.5977175,133.523538 C81.5977175,131.632691 83.1305514,130.099857 85.021398,130.099857 Z" id="Shape" fill="#CCEEFF"></path>
                    <path d="M85.021398,145.506419 L202.56776,145.506419 C204.458607,145.506419 205.991441,147.039253 205.991441,148.9301 C205.991441,150.820947 204.458607,152.35378 202.56776,152.35378 L85.021398,152.35378 C83.1305514,152.35378 81.5977175,150.820947 81.5977175,148.9301 C81.5977175,147.039253 83.1305514,145.506419 85.021398,145.506419 Z" id="Shape" fill="#CCEEFF"></path>
                </g>
                <g id="Background-Element-1" transform="translate(0.000000, 38.516405)">
                    <path d="M8.55920114,0 L398.858773,0 C403.585889,0 407.417974,3.83208488 407.417974,8.55920114 L407.417974,335.520685 C407.417974,340.247801 403.585889,344.079886 398.858773,344.079886 L8.55920114,344.079886 C3.83208488,344.079886 0,340.247801 0,335.520685 L0,8.55920114 C0,3.83208488 3.83208488,0 8.55920114,0 Z" id="Shape" fill="#CCEEFF"></path>
                    <path d="M22.253923,51.3552068 L385.164051,51.3552068 C388.000321,51.3552068 390.299572,53.6544578 390.299572,56.4907275 L390.299572,321.825963 C390.299572,324.662233 388.000321,326.961484 385.164051,326.961484 L22.253923,326.961484 C19.4176532,326.961484 17.1184023,324.662233 17.1184023,321.825963 L17.1184023,56.4907275 C17.1184023,53.6544578 19.4176532,51.3552068 22.253923,51.3552068 Z" id="Shape" fill="#FFFFFF"></path>
                    <path d="M8.55920114,0 L398.858773,0 C403.585889,0 407.417974,3.83208488 407.417974,8.55920114 L407.417974,34.2368046 L0,34.2368046 L0,8.55920114 C0,3.83208488 3.83208488,0 8.55920114,0 Z" id="Shape" fill="#62C7FC"></path>
                    <circle id="Shape" fill="#FFFFFF" cx="20.5420827" cy="17.1184023" r="6.84736091"></circle>
                    <circle id="Shape" fill="#FFFFFF" cx="42.7960057" cy="17.1184023" r="6.84736091"></circle>
                    <circle id="Shape" fill="#FFFFFF" cx="65.0499287" cy="17.1184023" r="6.84736091"></circle>
                    <path d="M65.9058488,94.1512126 L134.379458,94.1512126 C137.688439,94.1512126 140.370899,96.8336719 140.370899,100.142653 C140.370899,103.451635 137.688439,106.134094 134.379458,106.134094 L65.9058488,106.134094 C62.5968674,106.134094 59.914408,103.451635 59.914408,100.142653 C59.914408,96.8336719 62.5968674,94.1512126 65.9058488,94.1512126 Z" id="Shape" fill="#F2A900"></path>
                    <path d="M65.9058488,123.252496 L202.853067,123.252496 C206.162049,123.252496 208.844508,125.934956 208.844508,129.243937 C208.844508,132.552919 206.162049,135.235378 202.853067,135.235378 L65.9058488,135.235378 C62.5968674,135.235378 59.914408,132.552919 59.914408,129.243937 C59.914408,125.934956 62.5968674,123.252496 65.9058488,123.252496 Z" id="Shape" fill="#244C5A"></path>
                    <path d="M65.9058488,152.35378 L151.49786,152.35378 C154.806842,152.35378 157.489301,155.03624 157.489301,158.345221 C157.489301,161.654203 154.806842,164.336662 151.49786,164.336662 L65.9058488,164.336662 C62.5968674,164.336662 59.914408,161.654203 59.914408,158.345221 C59.914408,155.03624 62.5968674,152.35378 65.9058488,152.35378 Z" id="Shape" fill="#F2A900"></path>
                    <path d="M65.9058488,181.455064 L202.853067,181.455064 C206.162049,181.455064 208.844508,184.137524 208.844508,187.446505 C208.844508,190.755486 206.162049,193.437946 202.853067,193.437946 L65.9058488,193.437946 C62.5968674,193.437946 59.914408,190.755486 59.914408,187.446505 C59.914408,184.137524 62.5968674,181.455064 65.9058488,181.455064 Z" id="Shape" fill="#244C5A"></path>
                    <path d="M65.9058488,210.556348 L160.057061,210.556348 C163.366043,210.556348 166.048502,213.238807 166.048502,216.547789 C166.048502,219.85677 163.366043,222.53923 160.057061,222.53923 L65.9058488,222.53923 C62.5968674,222.53923 59.914408,219.85677 59.914408,216.547789 C59.914408,213.238807 62.5968674,210.556348 65.9058488,210.556348 Z" id="Shape" fill="#0097A9"></path>
                    <path d="M65.9058488,239.657632 L202.853067,239.657632 C206.162049,239.657632 208.844508,242.340091 208.844508,245.649073 C208.844508,248.958054 206.162049,251.640514 202.853067,251.640514 L65.9058488,251.640514 C62.5968674,251.640514 59.914408,248.958054 59.914408,245.649073 C59.914408,242.340091 62.5968674,239.657632 65.9058488,239.657632 Z" id="Shape" fill="#F2A900"></path>
                    <path d="M65.9058488,265.335235 L117.261056,265.335235 C120.570037,265.335235 123.252496,268.017695 123.252496,271.326676 C123.252496,274.635658 120.570037,277.318117 117.261056,277.318117 L65.9058488,277.318117 C62.5968674,277.318117 59.914408,274.635658 59.914408,271.326676 C59.914408,268.017695 62.5968674,265.335235 65.9058488,265.335235 Z" id="Shape" fill="#0097A9"></path>
                    <path d="M162.054208,94.1512126 L290.156919,94.1512126 C293.4659,94.1512126 296.148359,96.8336719 296.148359,100.142653 C296.148359,103.451635 293.4659,106.134094 290.156919,106.134094 L162.054208,106.134094 C158.745227,106.134094 156.062767,103.451635 156.062767,100.142653 C156.062767,96.8336719 158.745227,94.1512126 162.054208,94.1512126 Z" id="Shape" fill="#244C5A"></path>
                    <path d="M230.527817,123.252496 L358.630528,123.252496 C361.939509,123.252496 364.621969,125.934956 364.621969,129.243937 C364.621969,132.552919 361.939509,135.235378 358.630528,135.235378 L230.527817,135.235378 C227.218836,135.235378 224.536377,132.552919 224.536377,129.243937 C224.536377,125.934956 227.218836,123.252496 230.527817,123.252496 Z" id="Shape" fill="#0097A9"></path>
                    <path d="M178.459344,152.35378 L324.393723,152.35378 C327.702705,152.35378 330.385164,155.03624 330.385164,158.345221 C330.385164,161.654203 327.702705,164.336662 324.393723,164.336662 L178.459344,164.336662 C175.150362,164.336662 172.467903,161.654203 172.467903,158.345221 C172.467903,155.03624 175.150362,152.35378 178.459344,152.35378 Z" id="Shape" fill="#0097A9"></path>
                    <path d="M230.527817,181.455064 L358.630528,181.455064 C361.939509,181.455064 364.621969,184.137524 364.621969,187.446505 C364.621969,190.755486 361.939509,193.437946 358.630528,193.437946 L230.527817,193.437946 C227.218836,193.437946 224.536377,190.755486 224.536377,187.446505 C224.536377,184.137524 227.218836,181.455064 230.527817,181.455064 Z" id="Shape" fill="#F2A900"></path>
                    <path d="M187.731812,210.556348 L324.393723,210.556348 C327.702705,210.556348 330.385164,213.238807 330.385164,216.547789 C330.385164,219.85677 327.702705,222.53923 324.393723,222.53923 L187.731812,222.53923 C184.42283,222.53923 181.740371,219.85677 181.740371,216.547789 C181.740371,213.238807 184.42283,210.556348 187.731812,210.556348 Z" id="Shape" fill="#244C5A"></path>
                    <path d="M230.527817,239.657632 L358.630528,239.657632 C361.939509,239.657632 364.621969,242.340091 364.621969,245.649073 C364.621969,248.958054 361.939509,251.640514 358.630528,251.640514 L230.527817,251.640514 C227.218836,251.640514 224.536377,248.958054 224.536377,245.649073 C224.536377,242.340091 227.218836,239.657632 230.527817,239.657632 Z" id="Shape" fill="#0097A9"></path>
                    <path d="M144.935806,265.335235 L315.834522,265.335235 C319.143504,265.335235 321.825963,268.017695 321.825963,271.326676 C321.825963,274.635658 319.143504,277.318117 315.834522,277.318117 L144.935806,277.318117 C141.626825,277.318117 138.944365,274.635658 138.944365,271.326676 C138.944365,268.017695 141.626825,265.335235 144.935806,265.335235 Z" id="Shape" fill="#244C5A"></path>
                </g>
                <g id="Background-Element-4" transform="translate(363.766049, 322.396576)">
                    <path d="M5.70613409,0 L119.115549,0 C122.26696,0 124.821683,2.55472325 124.821683,5.70613409 L124.821683,92.724679 C124.821683,95.8760899 122.26696,98.4308131 119.115549,98.4308131 L5.70613409,98.4308131 C2.55472325,98.4308131 0,95.8760899 0,92.724679 L0,5.70613409 C0,2.55472325 2.55472325,0 5.70613409,0 Z" id="Shape" fill="#62C7FC"></path>
                    <path d="M7.13266762,2.85306705 L117.689016,2.85306705 C120.052573,2.85306705 121.968616,4.76910949 121.968616,7.13266762 L121.968616,91.2981455 C121.968616,93.6617033 120.052573,95.5777461 117.689016,95.5777461 L7.13266762,95.5777461 C4.76910949,95.5777461 2.85306705,93.6617033 2.85306705,91.2981455 L2.85306705,7.13266762 C2.85306705,4.76910949 4.76910949,2.85306705 7.13266762,2.85306705 Z" id="Shape" fill="#FFFFFF"></path>
                    <path d="M50.0410788,34.7585755 C51.0382519,33.9874282 51.2214822,32.5539213 50.4503349,31.5567481 C49.6791877,30.559575 48.2456807,30.3763447 47.2485075,31.147492 L25.8505046,47.6952809 C24.6689474,48.6090185 24.6689474,50.3926267 25.8505046,51.3063644 L47.2485075,67.8541533 C48.2456807,68.6253006 49.6791877,68.4420703 50.4503349,67.4448971 C51.2214822,66.447724 51.0382519,65.014217 50.0410788,64.2430698 L30.9778282,49.5008227 L50.0410788,34.7585755 Z" id="Path" fill="#244C5A"></path>
                    <path d="M99.8270989,34.7585755 C100.824272,33.9874282 101.007503,32.5539213 100.236356,31.5567481 C99.465208,30.559575 98.0317009,30.3763447 97.0345283,31.147492 L75.6365254,47.6952809 C74.4549677,48.6090185 74.4549677,50.3926267 75.6365254,51.3063644 L97.0345283,67.8541533 C98.0317009,68.6253006 99.465208,68.4420703 100.236356,67.4448971 C101.007503,66.447724 100.824272,65.014217 99.8270989,64.2430698 L80.7638486,49.5008227 L99.8270989,34.7585755 Z" id="Path" fill="#244C5A" transform="translate(87.731867, 49.500823) scale(-1, 1) translate(-87.731867, -49.500823) "></path>
                    <circle id="Oval" fill="#244C5A" cx="53.4950071" cy="49.2154066" r="2.85306705"></circle>
                    <circle id="Oval" fill="#244C5A" cx="72.0399429" cy="49.2154066" r="2.85306705"></circle>
                    <circle id="Oval" fill="#244C5A" cx="62.767475" cy="49.2154066" r="2.85306705"></circle>
                </g>
                <g id="Background-Element-3" transform="translate(425.820257, 0.000000)">
                    <path d="M6.84736091,0 L68.4736091,0 C72.2553024,0 75.32097,3.0656679 75.32097,6.84736091 L75.32097,68.4736091 C75.32097,72.2553024 72.2553024,75.32097 68.4736091,75.32097 L6.84736091,75.32097 C3.0656679,75.32097 0,72.2553024 0,68.4736091 L0,6.84736091 C0,3.0656679 3.0656679,0 6.84736091,0 Z" id="Shape" fill="#62C7FC"></path>
                    <path d="M20.8517614,24.8130897 L23.9571696,21.7076815 C24.1971265,21.4677246 24.5696012,21.4218709 24.8605917,21.5964652 L27.6023157,23.2414996 C29.3857997,22.0945146 31.3891757,21.2598071 33.5352011,20.8146201 L34.3192121,17.6785763 C34.4015166,17.3493582 34.6973195,17.1184023 35.0366698,17.1184023 L39.4283802,17.1184023 C39.7677305,17.1184023 40.0635333,17.3493582 40.1458379,17.6785763 L40.9302175,20.8160948 L40.9302175,20.854094 C43.0481919,21.3173544 45.0239562,22.1607807 46.7823901,23.309253 L46.8312575,23.2603856 L49.6044582,21.5964652 C49.8954487,21.4218709 50.2679235,21.4677246 50.5078803,21.7076815 L53.6132885,24.8130897 C53.8532454,25.0530466 53.8990991,25.4255213 53.7245049,25.7165118 L52.0605845,28.4897126 L51.9950729,28.5552241 C53.1261767,30.3114633 53.9543341,32.2812584 54.4056882,34.3907526 L54.5048752,34.3907526 L57.6423937,35.1751322 C57.9716118,35.2574367 58.2025678,35.5532396 58.2025678,35.8925899 L58.2025678,40.2843003 C58.2025678,40.6236506 57.9716118,40.9194534 57.6423937,41.001758 L54.5048752,41.7861376 L54.4118091,41.7861376 C53.9633291,43.8994754 53.1367891,45.8731088 52.0063168,47.63291 L52.0605845,47.6871776 L53.7245049,50.4603783 C53.8990991,50.7513688 53.8532454,51.1238436 53.6132885,51.3638004 L50.5078803,54.4692086 C50.2679235,54.7091655 49.8954487,54.7550193 49.6044582,54.580425 L46.8312575,52.9165046 L46.7997573,52.8850044 C45.036969,54.0392743 43.0551675,54.8867347 40.9302175,55.3515208 L40.9302175,55.3607954 L40.1458379,58.4983138 C40.0635333,58.827532 39.7677305,59.0584879 39.4283802,59.0584879 L35.0366698,59.0584879 C34.6973195,59.0584879 34.4015166,58.827532 34.3192121,58.4983138 L33.5427746,55.3925641 C31.3846228,54.9458529 29.3706001,54.1052382 27.5792291,52.9492425 L24.8605917,54.580425 C24.5696012,54.7550193 24.1971265,54.7091655 23.9571696,54.4692086 L20.8517614,51.3638004 C20.6118045,51.1238436 20.5659508,50.7513688 20.7405451,50.4603783 L22.3586148,47.7635954 C21.1802757,45.9643444 20.3215865,43.9368853 19.8632309,41.7619016 L16.8226562,41.001758 C16.4934381,40.9194534 16.2624822,40.6236506 16.2624822,40.2843003 L16.2624822,35.8925899 C16.2624822,35.5532396 16.4934381,35.2574367 16.8226562,35.1751322 L19.8696505,34.4133836 C20.3307542,32.2443509 21.1901335,30.2225956 22.3676136,28.4282927 L20.7405451,25.7165118 C20.5659508,25.4255213 20.6118045,25.0530466 20.8517614,24.8130897 Z M37.3249673,47.3542969 C42.4344238,47.3542969 46.5764568,43.2122639 46.5764568,38.1028074 C46.5764568,32.9933509 42.4344238,28.8513179 37.3249673,28.8513179 C32.2155107,28.8513179 28.0734778,32.9933509 28.0734778,38.1028074 C28.0734778,43.2122639 32.2155107,47.3542969 37.3249673,47.3542969 Z" id="Shape" fill="#FFFFFF"></path>
                </g>
            </g>
        </g>
    </g>
</svg>