<?xml version="1.0" encoding="UTF-8"?>
<svg width="1000px" height="614px" viewBox="0 0 1000 614" version="1.1" xmlns="http://www.w3.org/2000/svg" xmlns:xlink="http://www.w3.org/1999/xlink">
    <title>Source Code Review</title>
    <g id="Illustrations" stroke="none" stroke-width="1" fill="none" fill-rule="evenodd">
        <g id="Source-Code-Review">
            <g id="bg" opacity="0.5" transform="translate(0.000000, 427.246790)" fill-rule="nonzero">
                <path d="M899.318096,61.9395067 C836.081512,45.5991102 804.651241,68.2771745 733.051954,99.4290078 C661.452676,130.580841 573.037313,140.570154 472.103999,82.4321612 C371.170684,24.294168 258.07799,45.5991102 212.090524,110.474578 C181.432214,153.724891 110.735372,178.95424 0,186.162625 L1000,186.162625 C975.036455,114.24081 941.475813,72.8331041 899.318096,61.9395067 Z" id="Shape" fill="#CCEEFF" transform="translate(500.000000, 117.332382) scale(-1, 1) translate(-500.000000, -117.332382) "></path>
                <path d="M1.42653352,186.162625 C35.6491517,101.034661 102.60729,72.658674 202.300948,101.034661 C351.841436,143.598643 439.261459,111.675657 517.291063,47.8296845 C595.320667,-16.016288 687.014603,-24.5290843 794.949451,75.4962725 C866.90602,142.179844 935.256205,179.068628 1000,186.162625 L1.42653352,186.162625 Z" id="Shape" fill="#E5F6FF" transform="translate(500.713267, 93.081312) scale(-1, 1) translate(-500.713267, -93.081312) "></path>
            </g>
            <g id="Background" transform="translate(114.122682, 0.000000)" fill-rule="nonzero">
                <g id="Background-Element-2" transform="translate(425.820257, 93.437946)">
                    <path d="M5.70613409,0 L235.378031,0 C238.529442,0 241.084165,2.55472325 241.084165,5.70613409 L241.084165,185.449358 C241.084165,188.600769 238.529442,191.155492 235.378031,191.155492 L5.70613409,191.155492 C2.55472325,191.155492 0,188.600769 0,185.449358 L0,5.70613409 C0,2.55472325 2.55472325,0 5.70613409,0 Z" id="Shape" fill="#60C9FF"></path>
                    <path d="M13.6947218,11.4122682 L227.389444,11.4122682 C228.650008,11.4122682 229.671897,12.4341575 229.671897,13.6947218 L229.671897,177.46077 C229.671897,178.721335 228.650008,179.743224 227.389444,179.743224 L13.6947218,179.743224 C12.4341575,179.743224 11.4122682,178.721335 11.4122682,177.46077 L11.4122682,13.6947218 C11.4122682,12.4341575 12.4341575,11.4122682 13.6947218,11.4122682 Z" id="Shape" fill="#FFFFFF"></path>
                    <ellipse id="Shape" fill="#244C5A" cx="49.3107591" cy="49.5865136" rx="13.647421" ry="13.6378688"></ellipse>
                    <path d="M43.913965,48.8168013 C43.1665015,48.2943432 42.152154,48.4991899 41.6483564,49.2743392 C41.1445588,50.0494884 41.3420891,51.101407 42.0895526,51.623865 L47.4142514,55.3456947 C48.1056661,55.8289761 49.0371719,55.6940946 49.5744928,55.0328929 L56.6772192,46.2926141 C57.2580974,45.577813 57.1702277,44.5100156 56.4809569,43.907622 C55.7916861,43.3052283 54.762027,43.3963526 54.1811488,44.1111537 L48.0230867,51.6889733 L43.913965,48.8168013 Z" id="Shape" fill="#FFFFFF"></path>
                    <ellipse id="Shape" fill="#0097A9" cx="49.3107591" cy="95.2355863" rx="13.647421" ry="13.6378688"></ellipse>
                    <path d="M43.913965,94.4658738 C43.1665015,93.9434158 42.152154,94.1482625 41.6483564,94.9234116 C41.1445588,95.6985613 41.3420891,96.75048 42.0895526,97.2729379 L47.4142514,100.994767 C48.1056661,101.478049 49.0371719,101.343168 49.5744928,100.681966 L56.6772192,91.9416869 C57.2580974,91.2268859 57.1702277,90.1590884 56.4809569,89.5566947 C55.7916861,88.954301 54.762027,89.0454251 54.1811488,89.7602268 L48.0230867,97.3380464 L43.913965,94.4658738 Z" id="Shape" fill="#FFFFFF"></path>
                    <ellipse id="Shape" fill="#F2A900" cx="49.3107591" cy="140.884659" rx="13.647421" ry="13.6378688"></ellipse>
                    <path d="M43.913965,140.114947 C43.1665015,139.592489 42.152154,139.797335 41.6483564,140.572484 C41.1445588,141.347634 41.3420891,142.399553 42.0895526,142.922011 L47.4142514,146.64384 C48.1056661,147.127121 49.0371719,146.99224 49.5744928,146.331039 L56.6772192,137.59076 C57.2580974,136.875959 57.1702277,135.808161 56.4809569,135.205767 C55.7916861,134.603374 54.762027,134.694498 54.1811488,135.4093 L48.0230867,142.987119 L43.913965,140.114947 Z" id="Shape" fill="#FFFFFF"></path>
                    <path d="M85.5920114,38.2310984 L146.077033,38.2310984 C147.967879,38.2310984 149.500713,39.7639324 149.500713,41.6547789 C149.500713,43.5456254 147.967879,45.0784593 146.077033,45.0784593 L85.5920114,45.0784593 C83.7011648,45.0784593 82.168331,43.5456254 82.168331,41.6547789 C82.168331,39.7639324 83.7011648,38.2310984 85.5920114,38.2310984 Z" id="Shape" fill="#CCEEFF"></path>
                    <path d="M85.021398,54.2082739 L202.56776,54.2082739 C204.458607,54.2082739 205.991441,55.7411078 205.991441,57.6319544 C205.991441,59.5228009 204.458607,61.0556348 202.56776,61.0556348 L85.021398,61.0556348 C83.1305514,61.0556348 81.5977175,59.5228009 81.5977175,57.6319544 C81.5977175,55.7411078 83.1305514,54.2082739 85.021398,54.2082739 Z" id="Shape" fill="#CCEEFF"></path>
                    <path d="M85.021398,85.021398 L122.681883,85.021398 C124.57273,85.021398 126.105563,86.5542318 126.105563,88.4450785 C126.105563,90.3359251 124.57273,91.8687589 122.681883,91.8687589 L85.021398,91.8687589 C83.1305514,91.8687589 81.5977175,90.3359251 81.5977175,88.4450785 C81.5977175,86.5542318 83.1305514,85.021398 85.021398,85.021398 Z" id="Shape" fill="#CCEEFF"></path>
                    <path d="M85.021398,100.42796 L202.56776,100.42796 C204.458607,100.42796 205.991441,101.960794 205.991441,103.851641 C205.991441,105.742487 204.458607,107.275321 202.56776,107.275321 L85.021398,107.275321 C83.1305514,107.275321 81.5977175,105.742487 81.5977175,103.851641 C81.5977175,101.960794 83.1305514,100.42796 85.021398,100.42796 Z" id="Shape" fill="#CCEEFF"></path>
                    <path d="M85.021398,130.099857 L156.918688,130.099857 C158.809534,130.099857 160.342368,131.632691 160.342368,133.523538 C160.342368,135.414384 158.809534,136.947218 156.918688,136.947218 L85.021398,136.947218 C83.1305514,136.947218 81.5977175,135.414384 81.5977175,133.523538 C81.5977175,131.632691 83.1305514,130.099857 85.021398,130.099857 Z" id="Shape" fill="#CCEEFF"></path>
                    <path d="M85.021398,145.506419 L202.56776,145.506419 C204.458607,145.506419 205.991441,147.039253 205.991441,148.9301 C205.991441,150.820947 204.458607,152.35378 202.56776,152.35378 L85.021398,152.35378 C83.1305514,152.35378 81.5977175,150.820947 81.5977175,148.9301 C81.5977175,147.039253 83.1305514,145.506419 85.021398,145.506419 Z" id="Shape" fill="#CCEEFF"></path>
                </g>
                <g id="Background-Element-1" transform="translate(0.000000, 38.516405)">
                    <path d="M8.55920114,0 L398.858773,0 C403.585889,0 407.417974,3.83208488 407.417974,8.55920114 L407.417974,335.520685 C407.417974,340.247801 403.585889,344.079886 398.858773,344.079886 L8.55920114,344.079886 C3.83208488,344.079886 0,340.247801 0,335.520685 L0,8.55920114 C0,3.83208488 3.83208488,0 8.55920114,0 Z" id="Shape" fill="#CCEEFF"></path>
                    <path d="M22.253923,51.3552068 L385.164051,51.3552068 C388.000321,51.3552068 390.299572,53.6544578 390.299572,56.4907275 L390.299572,321.825963 C390.299572,324.662233 388.000321,326.961484 385.164051,326.961484 L22.253923,326.961484 C19.4176532,326.961484 17.1184023,324.662233 17.1184023,321.825963 L17.1184023,56.4907275 C17.1184023,53.6544578 19.4176532,51.3552068 22.253923,51.3552068 Z" id="Shape" fill="#FFFFFF"></path>
                    <path d="M8.55920114,0 L398.858773,0 C403.585889,0 407.417974,3.83208488 407.417974,8.55920114 L407.417974,34.2368046 L0,34.2368046 L0,8.55920114 C0,3.83208488 3.83208488,0 8.55920114,0 Z" id="Shape" fill="#62C7FC"></path>
                    <circle id="Shape" fill="#FFFFFF" cx="20.5420827" cy="17.1184023" r="6.84736091"></circle>
                    <circle id="Shape" fill="#FFFFFF" cx="42.7960057" cy="17.1184023" r="6.84736091"></circle>
                    <circle id="Shape" fill="#FFFFFF" cx="65.0499287" cy="17.1184023" r="6.84736091"></circle>
                    <path d="M65.9058488,94.1512126 L134.379458,94.1512126 C137.688439,94.1512126 140.370899,96.8336719 140.370899,100.142653 C140.370899,103.451635 137.688439,106.134094 134.379458,106.134094 L65.9058488,106.134094 C62.5968674,106.134094 59.914408,103.451635 59.914408,100.142653 C59.914408,96.8336719 62.5968674,94.1512126 65.9058488,94.1512126 Z" id="Shape" fill="#F2A900"></path>
                    <path d="M65.9058488,123.252496 L202.853067,123.252496 C206.162049,123.252496 208.844508,125.934956 208.844508,129.243937 C208.844508,132.552919 206.162049,135.235378 202.853067,135.235378 L65.9058488,135.235378 C62.5968674,135.235378 59.914408,132.552919 59.914408,129.243937 C59.914408,125.934956 62.5968674,123.252496 65.9058488,123.252496 Z" id="Shape" fill="#244C5A"></path>
                    <path d="M65.9058488,152.35378 L151.49786,152.35378 C154.806842,152.35378 157.489301,155.03624 157.489301,158.345221 C157.489301,161.654203 154.806842,164.336662 151.49786,164.336662 L65.9058488,164.336662 C62.5968674,164.336662 59.914408,161.654203 59.914408,158.345221 C59.914408,155.03624 62.5968674,152.35378 65.9058488,152.35378 Z" id="Shape" fill="#F2A900"></path>
                    <path d="M65.9058488,181.455064 L202.853067,181.455064 C206.162049,181.455064 208.844508,184.137524 208.844508,187.446505 C208.844508,190.755486 206.162049,193.437946 202.853067,193.437946 L65.9058488,193.437946 C62.5968674,193.437946 59.914408,190.755486 59.914408,187.446505 C59.914408,184.137524 62.5968674,181.455064 65.9058488,181.455064 Z" id="Shape" fill="#244C5A"></path>
                    <path d="M65.9058488,210.556348 L160.057061,210.556348 C163.366043,210.556348 166.048502,213.238807 166.048502,216.547789 C166.048502,219.85677 163.366043,222.53923 160.057061,222.53923 L65.9058488,222.53923 C62.5968674,222.53923 59.914408,219.85677 59.914408,216.547789 C59.914408,213.238807 62.5968674,210.556348 65.9058488,210.556348 Z" id="Shape" fill="#0097A9"></path>
                    <path d="M65.9058488,239.657632 L202.853067,239.657632 C206.162049,239.657632 208.844508,242.340091 208.844508,245.649073 C208.844508,248.958054 206.162049,251.640514 202.853067,251.640514 L65.9058488,251.640514 C62.5968674,251.640514 59.914408,248.958054 59.914408,245.649073 C59.914408,242.340091 62.5968674,239.657632 65.9058488,239.657632 Z" id="Shape" fill="#F2A900"></path>
                    <path d="M65.9058488,265.335235 L117.261056,265.335235 C120.570037,265.335235 123.252496,268.017695 123.252496,271.326676 C123.252496,274.635658 120.570037,277.318117 117.261056,277.318117 L65.9058488,277.318117 C62.5968674,277.318117 59.914408,274.635658 59.914408,271.326676 C59.914408,268.017695 62.5968674,265.335235 65.9058488,265.335235 Z" id="Shape" fill="#0097A9"></path>
                    <path d="M162.054208,94.1512126 L290.156919,94.1512126 C293.4659,94.1512126 296.148359,96.8336719 296.148359,100.142653 C296.148359,103.451635 293.4659,106.134094 290.156919,106.134094 L162.054208,106.134094 C158.745227,106.134094 156.062767,103.451635 156.062767,100.142653 C156.062767,96.8336719 158.745227,94.1512126 162.054208,94.1512126 Z" id="Shape" fill="#244C5A"></path>
                    <path d="M230.527817,123.252496 L358.630528,123.252496 C361.939509,123.252496 364.621969,125.934956 364.621969,129.243937 C364.621969,132.552919 361.939509,135.235378 358.630528,135.235378 L230.527817,135.235378 C227.218836,135.235378 224.536377,132.552919 224.536377,129.243937 C224.536377,125.934956 227.218836,123.252496 230.527817,123.252496 Z" id="Shape" fill="#0097A9"></path>
                    <path d="M178.459344,152.35378 L324.393723,152.35378 C327.702705,152.35378 330.385164,155.03624 330.385164,158.345221 C330.385164,161.654203 327.702705,164.336662 324.393723,164.336662 L178.459344,164.336662 C175.150362,164.336662 172.467903,161.654203 172.467903,158.345221 C172.467903,155.03624 175.150362,152.35378 178.459344,152.35378 Z" id="Shape" fill="#0097A9"></path>
                    <path d="M230.527817,181.455064 L358.630528,181.455064 C361.939509,181.455064 364.621969,184.137524 364.621969,187.446505 C364.621969,190.755486 361.939509,193.437946 358.630528,193.437946 L230.527817,193.437946 C227.218836,193.437946 224.536377,190.755486 224.536377,187.446505 C224.536377,184.137524 227.218836,181.455064 230.527817,181.455064 Z" id="Shape" fill="#F2A900"></path>
                    <path d="M187.731812,210.556348 L324.393723,210.556348 C327.702705,210.556348 330.385164,213.238807 330.385164,216.547789 C330.385164,219.85677 327.702705,222.53923 324.393723,222.53923 L187.731812,222.53923 C184.42283,222.53923 181.740371,219.85677 181.740371,216.547789 C181.740371,213.238807 184.42283,210.556348 187.731812,210.556348 Z" id="Shape" fill="#244C5A"></path>
                    <path d="M230.527817,239.657632 L358.630528,239.657632 C361.939509,239.657632 364.621969,242.340091 364.621969,245.649073 C364.621969,248.958054 361.939509,251.640514 358.630528,251.640514 L230.527817,251.640514 C227.218836,251.640514 224.536377,248.958054 224.536377,245.649073 C224.536377,242.340091 227.218836,239.657632 230.527817,239.657632 Z" id="Shape" fill="#0097A9"></path>
                    <path d="M144.935806,265.335235 L315.834522,265.335235 C319.143504,265.335235 321.825963,268.017695 321.825963,271.326676 C321.825963,274.635658 319.143504,277.318117 315.834522,277.318117 L144.935806,277.318117 C141.626825,277.318117 138.944365,274.635658 138.944365,271.326676 C138.944365,268.017695 141.626825,265.335235 144.935806,265.335235 Z" id="Shape" fill="#244C5A"></path>
                </g>
                <g id="Background-Element-4" transform="translate(363.766049, 322.396576)">
                    <path d="M5.70613409,0 L119.115549,0 C122.26696,0 124.821683,2.55472325 124.821683,5.70613409 L124.821683,92.724679 C124.821683,95.8760899 122.26696,98.4308131 119.115549,98.4308131 L5.70613409,98.4308131 C2.55472325,98.4308131 0,95.8760899 0,92.724679 L0,5.70613409 C0,2.55472325 2.55472325,0 5.70613409,0 Z" id="Shape" fill="#62C7FC"></path>
                    <path d="M7.13266762,2.85306705 L117.689016,2.85306705 C120.052573,2.85306705 121.968616,4.76910949 121.968616,7.13266762 L121.968616,91.2981455 C121.968616,93.6617033 120.052573,95.5777461 117.689016,95.5777461 L7.13266762,95.5777461 C4.76910949,95.5777461 2.85306705,93.6617033 2.85306705,91.2981455 L2.85306705,7.13266762 C2.85306705,4.76910949 4.76910949,2.85306705 7.13266762,2.85306705 Z" id="Shape" fill="#FFFFFF"></path>
                    <path d="M50.0410788,34.7585755 C51.0382519,33.9874282 51.2214822,32.5539213 50.4503349,31.5567481 C49.6791877,30.559575 48.2456807,30.3763447 47.2485075,31.147492 L25.8505046,47.6952809 C24.6689474,48.6090185 24.6689474,50.3926267 25.8505046,51.3063644 L47.2485075,67.8541533 C48.2456807,68.6253006 49.6791877,68.4420703 50.4503349,67.4448971 C51.2214822,66.447724 51.0382519,65.014217 50.0410788,64.2430698 L30.9778282,49.5008227 L50.0410788,34.7585755 Z" id="Path" fill="#244C5A"></path>
                    <path d="M99.8270989,34.7585755 C100.824272,33.9874282 101.007503,32.5539213 100.236356,31.5567481 C99.465208,30.559575 98.0317009,30.3763447 97.0345283,31.147492 L75.6365254,47.6952809 C74.4549677,48.6090185 74.4549677,50.3926267 75.6365254,51.3063644 L97.0345283,67.8541533 C98.0317009,68.6253006 99.465208,68.4420703 100.236356,67.4448971 C101.007503,66.447724 100.824272,65.014217 99.8270989,64.2430698 L80.7638486,49.5008227 L99.8270989,34.7585755 Z" id="Path" fill="#244C5A" transform="translate(87.731867, 49.500823) scale(-1, 1) translate(-87.731867, -49.500823) "></path>
                    <circle id="Oval" fill="#244C5A" cx="53.4950071" cy="49.2154066" r="2.85306705"></circle>
                    <circle id="Oval" fill="#244C5A" cx="72.0399429" cy="49.2154066" r="2.85306705"></circle>
                    <circle id="Oval" fill="#244C5A" cx="62.767475" cy="49.2154066" r="2.85306705"></circle>
                </g>
                <g id="Background-Element-3" transform="translate(425.820257, 0.000000)">
                    <path d="M6.84736091,0 L68.4736091,0 C72.2553024,0 75.32097,3.0656679 75.32097,6.84736091 L75.32097,68.4736091 C75.32097,72.2553024 72.2553024,75.32097 68.4736091,75.32097 L6.84736091,75.32097 C3.0656679,75.32097 0,72.2553024 0,68.4736091 L0,6.84736091 C0,3.0656679 3.0656679,0 6.84736091,0 Z" id="Shape" fill="#62C7FC"></path>
                    <path d="M20.8517614,24.8130897 L23.9571696,21.7076815 C24.1971265,21.4677246 24.5696012,21.4218709 24.8605917,21.5964652 L27.6023157,23.2414996 C29.3857997,22.0945146 31.3891757,21.2598071 33.5352011,20.8146201 L34.3192121,17.6785763 C34.4015166,17.3493582 34.6973195,17.1184023 35.0366698,17.1184023 L39.4283802,17.1184023 C39.7677305,17.1184023 40.0635333,17.3493582 40.1458379,17.6785763 L40.9302175,20.8160948 L40.9302175,20.854094 C43.0481919,21.3173544 45.0239562,22.1607807 46.7823901,23.309253 L46.8312575,23.2603856 L49.6044582,21.5964652 C49.8954487,21.4218709 50.2679235,21.4677246 50.5078803,21.7076815 L53.6132885,24.8130897 C53.8532454,25.0530466 53.8990991,25.4255213 53.7245049,25.7165118 L52.0605845,28.4897126 L51.9950729,28.5552241 C53.1261767,30.3114633 53.9543341,32.2812584 54.4056882,34.3907526 L54.5048752,34.3907526 L57.6423937,35.1751322 C57.9716118,35.2574367 58.2025678,35.5532396 58.2025678,35.8925899 L58.2025678,40.2843003 C58.2025678,40.6236506 57.9716118,40.9194534 57.6423937,41.001758 L54.5048752,41.7861376 L54.4118091,41.7861376 C53.9633291,43.8994754 53.1367891,45.8731088 52.0063168,47.63291 L52.0605845,47.6871776 L53.7245049,50.4603783 C53.8990991,50.7513688 53.8532454,51.1238436 53.6132885,51.3638004 L50.5078803,54.4692086 C50.2679235,54.7091655 49.8954487,54.7550193 49.6044582,54.580425 L46.8312575,52.9165046 L46.7997573,52.8850044 C45.036969,54.0392743 43.0551675,54.8867347 40.9302175,55.3515208 L40.9302175,55.3607954 L40.1458379,58.4983138 C40.0635333,58.827532 39.7677305,59.0584879 39.4283802,59.0584879 L35.0366698,59.0584879 C34.6973195,59.0584879 34.4015166,58.827532 34.3192121,58.4983138 L33.5427746,55.3925641 C31.3846228,54.9458529 29.3706001,54.1052382 27.5792291,52.9492425 L24.8605917,54.580425 C24.5696012,54.7550193 24.1971265,54.7091655 23.9571696,54.4692086 L20.8517614,51.3638004 C20.6118045,51.1238436 20.5659508,50.7513688 20.7405451,50.4603783 L22.3586148,47.7635954 C21.1802757,45.9643444 20.3215865,43.9368853 19.8632309,41.7619016 L16.8226562,41.001758 C16.4934381,40.9194534 16.2624822,40.6236506 16.2624822,40.2843003 L16.2624822,35.8925899 C16.2624822,35.5532396 16.4934381,35.2574367 16.8226562,35.1751322 L19.8696505,34.4133836 C20.3307542,32.2443509 21.1901335,30.2225956 22.3676136,28.4282927 L20.7405451,25.7165118 C20.5659508,25.4255213 20.6118045,25.0530466 20.8517614,24.8130897 Z M37.3249673,47.3542969 C42.4344238,47.3542969 46.5764568,43.2122639 46.5764568,38.1028074 C46.5764568,32.9933509 42.4344238,28.8513179 37.3249673,28.8513179 C32.2155107,28.8513179 28.0734778,32.9933509 28.0734778,38.1028074 C28.0734778,43.2122639 32.2155107,47.3542969 37.3249673,47.3542969 Z" id="Shape" fill="#FFFFFF"></path>
                </g>
            </g>
            <g id="Man-Standing-1" transform="translate(55.634807, 173.323823)">
                <g id="Head-Front/-Man/1" transform="translate(25.365193, 0.676177)">
                    <path d="M7.09717853,46.9914397 C4.44054247,46.9955257 1.95640508,45.3309647 1.0431408,42.6795567 C0.208245707,40.2556718 0.915821049,37.6737065 2.64477822,36.0016864 C2.19145572,33.0162891 1.78025007,30.2845737 1.41116129,27.8065403 C1.41116129,17.5167903 9.94044013,9.17529972 20.4618387,9.17529972 C30.9832373,9.17529972 39.5125161,17.5167903 39.5125161,27.8065403 L39.5125161,39.7203947 C39.5125161,48.0273936 35.932147,54.9085592 31.8541558,57.4909852 C32.7131422,60.8397823 33.9026668,63.6185443 35.4227296,65.8272712 C38.221555,69.8941037 38.1736558,74.3012588 35.2790323,79.0487361 L7.7613871,79.0487361 L9.87812903,48.3399514 C9.65005439,48.1262542 7.31171152,47.2061376 7.09717853,46.9914397 Z" id="Shape" fill="#944300"></path>
                    <path d="M33.867871,33.1722375 C33.867871,32.7824392 33.5519717,32.4664452 33.1622903,32.4664452 C32.7726089,32.4664452 32.4567097,32.7824392 32.4567097,33.1722375 L32.4567097,38.6785045 C32.4567097,39.0325732 32.7189678,39.3318456 33.0698815,39.3782174 C34.3802975,39.5513836 34.9141287,39.8285716 34.9141287,39.9545013 C34.9141287,40.2363427 34.2291642,40.9033615 32.805319,41.7387369 C32.4691887,41.9359458 32.3565228,42.3683845 32.5536726,42.7046156 C32.7508224,43.0408467 33.1831313,43.1535464 33.5192616,42.9563374 C35.3719751,41.8693434 36.32529,40.9410048 36.32529,39.9545013 C36.32529,38.9368819 35.4489591,38.3706902 33.867871,38.0754995 L33.867871,33.1722375 Z" id="Shape" fill="#4A2D00" fill-rule="nonzero"></path>
                    <path d="M23.9970371,44.5661441 C24.4545299,47.7238252 26.7118498,49.096773 30.4337253,48.5976354 C30.8199511,48.545839 31.0910722,48.1906579 31.0392914,47.8043163 C30.9875105,47.4179747 30.6324359,47.1467722 30.2462102,47.1985686 C27.2359108,47.6022773 25.7301339,46.6864332 25.3936081,44.3636839 C25.337717,43.9779158 24.9797753,43.7105112 24.5941228,43.7664191 C24.2084704,43.8223269 23.941146,44.180376 23.9970371,44.5661441 Z" id="Shape" fill="#4A2D00" fill-rule="nonzero"></path>
                    <path d="M22.5324995,30.3331363 C20.7872593,31.1191735 19.2351441,31.2895246 19.0657533,30.7136261 C18.8963626,30.1377276 20.1738409,29.0336606 21.9190811,28.2476234 C23.6643214,27.4615862 25.2164365,27.2912352 25.3858273,27.8671337 C25.5552181,28.4430322 24.2777397,29.5470992 22.5324995,30.3331363 Z M36.4734163,30.7104591 C34.5287554,30.2001922 33.0493508,29.3087451 33.1690736,28.7193562 C33.2887963,28.1299672 34.9623099,28.0658261 36.9069708,28.576093 C38.8516317,29.0863598 40.3310363,29.977807 40.2113135,30.5671959 C40.0915908,31.1565848 38.4180772,31.220726 36.4734163,30.7104591 Z M25.7536935,35.9954066 C25.1691714,35.9954066 24.6953226,35.5214156 24.6953226,34.9367182 C24.6953226,34.3520207 25.1691714,33.8780297 25.7536935,33.8780297 C26.3382157,33.8780297 26.8120645,34.3520207 26.8120645,34.9367182 C26.8120645,35.5214156 26.3382157,35.9954066 25.7536935,35.9954066 Z M37.0429839,35.9954066 C36.4584617,35.9954066 35.9846129,35.5214156 35.9846129,34.9367182 C35.9846129,34.3520207 36.4584617,33.8780297 37.0429839,33.8780297 C37.627506,33.8780297 38.1013548,34.3520207 38.1013548,34.9367182 C38.1013548,35.5214156 37.627506,35.9954066 37.0429839,35.9954066 Z M5.28345047,35.5356913 C4.94549658,35.3235708 3.67186395,35.0909547 2.35936744,36.3344404 C0.539950612,30.8181568 -0.133733685,26.4667657 0.0173833904,23.3485112 C0.247067466,18.6090507 1.81048232,15.6280727 4.70762796,14.4055771 C5.32439693,9.84127495 7.99226324,7.37125991 12.711227,6.99553192 C19.7896726,6.43193992 32.5305494,0.178997215 37.6259872,0.0122672124 C43.614432,-0.183683256 45.0532149,1.9678792 41.9423358,6.46695457 C50.0947015,5.20091492 54.8064515,5.88866149 56.0775857,8.53019428 C57.984287,12.4924935 52.3605663,18.197173 42.4125619,21.6575579 C37.1924983,23.4733421 28.9819613,23.4913956 17.780951,21.7117185 C17.0722683,24.4304054 16.2713393,26.2413382 15.378164,27.1445167 C14.4849887,28.0476952 13.7198829,28.4729114 13.0828466,28.420165 C12.6828015,34.9204616 11.9250648,38.2844707 10.8096365,38.5121924 C9.13649399,38.853775 7.83240837,36.1247333 5.28345047,35.5356913 Z" id="Shape" fill="#441006"></path>
                    <path d="M9.1831975,40.0978109 C6.86142061,37.8557541 4.79289714,38.1391455 3.6388346,40.9396961 C3.49032701,41.3000778 3.66199732,41.7126502 4.02227097,41.8612024 C4.38254463,42.0097545 4.79499334,41.8380327 4.94350094,41.477651 C5.69722253,39.6486032 6.56334891,39.5299424 8.20308757,41.1133793 C8.48344496,41.3841104 8.93012457,41.3762385 9.20077444,41.0957971 C9.47142438,40.8153556 9.46355489,40.368542 9.1831975,40.0978109 Z" id="Shape" fill="#4A2D00" fill-rule="nonzero"></path>
                    <path d="M30.7418807,57.219653 C28.9249792,58.585183 27.3549262,59.1012803 26.0220786,58.829469 C24.5540298,58.5300859 21.0930066,56.9678633 15.7381276,54.1696874 C15.3927342,53.9892031 14.96647,54.1229723 14.7860398,54.4684693 C14.6056097,54.8139662 14.7393389,55.2403583 15.0847322,55.4208426 C20.5712015,58.2877805 24.0899785,59.8760718 25.7401817,60.2126022 C27.5255861,60.5767047 29.4785895,59.9347264 31.5895486,58.3481915 C31.9010924,58.1140443 31.9638917,57.6715985 31.7298147,57.3599612 C31.4957377,57.0483239 31.0534246,56.9855058 30.7418807,57.219653 Z" id="Shape" fill="#4A2D00" fill-rule="nonzero"></path>
                </g>
                <g id="Front-Bottom/-Standing/-Long-Pants" transform="translate(0.000000, 182.242572)">
                    <path d="M6.69808307,216.405641 L21.4014859,219.263692 L12.4663956,249.460782 L0.709783649,247.21277 L6.69808307,216.405641 Z M97.2875464,220.002577 L112.1545,218.177145 L112.988138,249.657379 L101.112262,251.152384 L97.2875464,220.002577 Z" id="Shape" fill="#944300"></path>
                    <path d="M58.7540601,72.4156091 L17.3206091,242.057088 L1.42483182,238.554578 C4.87695306,172.776771 11.3643234,129.667118 20.8869429,124.010267 C15.7154394,87.010189 16.3259454,46.9169837 22.7184609,3.73064991 L35.866749,4.39253655 L90.3012147,-2.02722606e-14 L114.122682,122.356543 L113.625916,238.597238 L99.0921141,242.057088 C88.8639116,178.762801 84.2190399,140.443123 92.2901662,132.804188 C82.0832489,116.387364 70.9045466,96.2578381 58.7540601,72.4156091 Z" id="Shape" fill="#134DBD"></path>
                    <path d="M0.630190558,244.909718 C1.89057168,243.667994 7.79300892,247.290325 10.251313,247.297337 C11.8901824,247.302013 12.9576466,246.518332 13.4537056,244.946297 C23.6546718,249.118841 29.6849526,251.762377 31.544548,252.876905 C33.4041434,253.991434 33.9531857,255.291143 33.1916748,256.776034 L0.630190558,256.776034 C-0.210063519,249.692971 -0.210063519,245.737533 0.630190558,244.909718 Z M99.7742703,245.074034 C101.034651,243.83231 106.937088,247.454641 109.395393,247.461654 C111.034262,247.466329 112.101727,246.682648 112.597785,245.110613 C122.798752,249.283157 128.829033,251.926693 130.688628,253.041222 C132.548223,254.15575 133.097265,255.455459 132.335755,256.94035 L99.7742703,256.94035 C98.9340164,249.857288 98.9340164,245.901849 99.7742703,245.074034 Z" id="Shape" fill="#021768"></path>
                    <path d="M87.2759101,17.5127071 C87.5079964,17.1944091 87.4381091,16.748234 87.119811,16.516147 C86.8015128,16.28406 86.3553374,16.3539479 86.1232511,16.6722459 L62.8457096,48.5964647 C62.8016221,48.656929 62.7673241,48.7239543 62.744074,48.7950813 L54.5034355,74.0049779 C54.3810414,74.3794073 54.5853568,74.7821626 54.9597867,74.9045571 C55.3342164,75.0269508 55.7369718,74.8226355 55.8593658,74.4482054 L64.0649118,49.3456646 L87.2759101,17.5127071 Z" id="Shape" fill="#0E143F" fill-rule="nonzero"></path>
                </g>
                <g id="Front-body/-Man/-Pose7/-Hoodie-" transform="translate(0.000000, 60.864390)">
                    <path d="M99.2476904,130.40868 C95.2910485,138.777198 34.5595117,143.71486 23.4465624,135.666562 C19.2049511,132.594673 25.7987077,107.640419 23.4465624,96.2796398 C22.243759,90.4701412 4.55321705,56.202817 3.28847561,51.8957857 C-3.14460021,29.9881792 1.50128944,25.1081337 11.0430935,18.6071927 C12.9760286,17.2902617 18.1792815,3.84012665 28.2643678,0.811648381 C36.2352912,-1.58196211 52.5823081,17.3168627 55.5106662,16.4457083 C56.7770842,16.4457083 57.219408,13.6040447 57.3197361,12.38074 C57.3326719,12.3823377 58.0111748,1.09403377 59.8096505,1.09403377 C61.608127,1.09403377 99.2476904,18.6071927 107.293132,57.6271066 C110.976574,78.2523245 104.469758,89.3088495 94.6280036,92.8033295 C97.4783409,107.261275 103.275242,121.890183 99.2476904,130.40868 Z" id="Path" fill="#F2A900"></path>
                    <path d="M10.9775537,19.8683357 C18.412585,16.6080506 24.6458159,14.9320396 29.6648619,14.8308924 C30.0587136,14.8229553 30.3717735,14.4862315 30.3643721,14.0787988 C30.3564283,13.671366 30.0309286,13.3475109 29.637077,13.3554481 C24.4108011,13.4607715 18.0095094,15.1819712 10.4208175,18.5096369 C10.0581297,18.6686767 9.8887428,19.1017591 10.0424812,19.4769534 C10.1962197,19.8521476 10.6148659,20.0273755 10.9775537,19.8683357 Z" id="Shape" fill="#0E143F" fill-rule="nonzero"></path>
                    <path d="M43.7346783,16.1071619 C52.6317775,24.7367641 56.2494743,32.6590401 54.7031733,39.8856687 C53.0779422,47.481179 52.4972354,54.31538 52.9648673,60.3895461 C52.9961412,60.7957698 53.3398267,61.0988525 53.7325093,61.0665001 C54.1251926,61.0341477 54.4181726,60.6786116 54.386898,60.2723878 C53.9312946,54.3544573 54.4997218,47.6647705 56.0959936,40.2046019 C57.7711961,32.3755514 53.93753,23.9803318 44.7104001,15.0306215 C44.4230314,14.7518924 43.9716498,14.7669295 43.7022111,15.0642078 C43.4327732,15.3614863 43.4473088,15.8284327 43.7346783,16.1071619 Z" id="Shape" fill="#0E143F" fill-rule="nonzero"></path>
                    <path d="M63.1476113,9.50911983 C60.913786,20.1297641 62.0969971,28.0817156 66.7632154,33.301573 C71.1072461,38.1610169 72.9722004,44.1443047 72.3641177,51.3047657 C72.3296434,51.7107122 72.6198117,52.0687072 73.0122268,52.1043699 C73.4046419,52.1400326 73.750704,51.8398583 73.7851776,51.4339117 C74.427719,43.8676949 72.4341655,37.4718259 67.8105571,32.2996337 C63.5091355,27.4878552 62.39747,20.0167341 64.5415314,9.82286897 C64.6252825,9.42467553 64.3811369,9.0316408 63.9962168,8.94500136 C63.6112967,8.85836191 63.2313631,9.11092632 63.1476113,9.50911983 Z" id="Shape" fill="#0E143F" fill-rule="nonzero"></path>
                    <path d="M72.0399429,48.0348271 L73.4664765,48.0348271 C74.2543288,48.0348271 74.89301,48.6955314 74.89301,49.5105514 L74.89301,53.1998623 C74.89301,54.0148823 74.2543288,54.6755866 73.4664765,54.6755866 L72.0399429,54.6755866 C71.2520906,54.6755866 70.6134094,54.0148823 70.6134094,53.1998623 L70.6134094,49.5105514 C70.6134094,48.6955314 71.2520906,48.0348271 72.0399429,48.0348271 Z" id="Shape" fill="#0E143F"></path>
                    <path d="M52.7817404,56.1513109 L54.2082739,56.1513109 C54.9961262,56.1513109 55.6348074,56.8120152 55.6348074,57.6270352 L55.6348074,61.3163461 C55.6348074,62.1313661 54.9961262,62.7920705 54.2082739,62.7920705 L52.7817404,62.7920705 C51.993888,62.7920705 51.3552068,62.1313661 51.3552068,61.3163461 L51.3552068,57.6270352 C51.3552068,56.8120152 51.993888,56.1513109 52.7817404,56.1513109 Z" id="Shape" fill="#0E143F"></path>
                    <path d="M91.330214,73.8363181 C88.1873031,65.0396509 86.0926648,56.3974494 85.0453131,47.9092085 C84.9954358,47.5049782 84.6382318,47.2191126 84.2474757,47.2707099 C83.8567197,47.3223072 83.580383,47.6918285 83.6302603,48.0960588 C84.6916255,56.6978703 86.8125835,65.448661 89.9921505,74.3479258 C90.1287175,74.7301633 90.5389629,74.9255 90.9084593,74.784224 C91.2779551,74.6429472 91.466781,74.2185549 91.330214,73.8363181 Z" id="Path" fill="#0E143F" fill-rule="nonzero"></path>
                    <path d="M91.5870684,80.2930813 C87.4345277,77.6033495 83.7211283,75.8122974 80.4468708,74.9199244 C81.0274157,71.0946341 84.4022381,69.4916598 90.5713373,70.111 C91.6622531,70.2205214 91.7949164,80.4277111 91.5870684,80.2930813 Z" id="Path-4" fill="#944300" transform="translate(86.058164, 75.137974) scale(-1, 1) rotate(2.000000) translate(-86.058164, -75.137974) "></path>
                    <path d="M80.0244387,80.0729451 C49.2911434,101.018845 29.8690838,103.498245 21.4754451,87.9329087 C21.2835355,87.5770278 20.84908,87.4494672 20.5050616,87.6479943 C20.1610432,87.8465214 20.0377346,88.2959579 20.2296442,88.6518395 C29.2101847,105.305539 49.597428,102.647252 81.1058402,81.1028003 C81.2916113,80.9757767 81.4093745,80.7662874 81.424219,80.5364372 L82.0839822,70.3207575 C82.1132789,69.8671277 81.7428695,69.4942767 81.3053252,69.5369679 L44.2829151,73.1492532 L34.912082,44.647416 C34.7852368,44.2616105 34.3800765,44.0552273 34.0071311,44.1864465 C33.6341857,44.3176656 33.434682,44.7367969 33.5615272,45.1226026 L43.1137589,74.1761712 C43.2201063,74.499632 43.5272026,74.7052618 43.8560128,74.6731797 L80.6047432,71.0875977 L80.0244387,80.0729451 Z" id="Path-10" fill="#0E143F" fill-rule="nonzero"></path>
                    <path d="M34.3036246,71.8749622 C37.9841902,68.4305445 41.9776231,65.6761061 46.2839226,63.6116472 C52.743372,60.5149589 62.7904433,59.1996387 50.0267622,65.6031577 C53.3559783,67.0298267 55.6565924,68.5251033 56.9286045,70.0889872 C58.8366238,72.4348138 53.2868898,70.6445977 50.5646074,69.1391652 C53.8151523,71.3906462 55.6499576,73.032766 56.0690232,74.0655243 C56.6976224,75.6146612 53.8709291,74.3270963 49.464795,71.8749622 C51.964648,74.1313516 53.4235496,75.8581876 53.8415004,77.05547 C54.4684255,78.8513937 51.096852,77.1872068 48.690387,75.3473117 C47.0860774,74.1207154 42.2904897,72.9632653 34.3036246,71.8749622 Z" id="Path-5" fill="#944300" transform="translate(45.811681, 69.433301) scale(-1, 1) translate(-45.811681, -69.433301) "></path>
                    <path d="M64.7233195,91.2130271 C77.142229,95.1318409 87.2169786,95.9533324 94.9563317,93.6484636 C95.3348837,93.5357268 95.5534151,93.1268759 95.4444358,92.735271 C95.3354565,92.3436655 94.9402347,92.1175984 94.5616833,92.2303352 C87.1278146,94.4442275 77.3175086,93.6442989 65.1395278,89.8015107 C64.7627411,89.6826148 64.3641234,89.902209 64.2491904,90.2919886 C64.1342575,90.6817682 64.3465328,91.0941312 64.7233195,91.2130271 Z" id="Path" fill="#0E143F" fill-rule="nonzero"></path>
                </g>
            </g>
            <g id="Plant-8" transform="translate(824.536377, 360.199715)" fill-rule="nonzero">
                <path d="M48.5021398,136.513593 C48.5473123,136.540454 48.6552655,136.613837 48.8219519,136.742278 C49.1131417,136.966657 49.4548413,137.263121 49.8429514,137.640211 C50.9684851,138.733785 52.2299453,140.252056 53.5940817,142.263093 C57.5196807,148.050292 61.4560019,156.623136 65.1359586,168.521815 C69.4020331,182.315631 73.036995,199.710994 75.8414736,221.112696 L77.0328103,220.965861 C74.2203987,199.503618 70.572444,182.046078 66.2862482,168.187202 C62.5745998,156.186053 58.5913442,147.510991 54.5973663,141.622986 C53.1896508,139.547703 51.8772485,137.968121 50.6929056,136.817407 C49.9669395,136.112054 49.4347924,135.702004 49.1298724,135.520685 L48.5021398,136.513593 Z" id="Shape" fill="#86D7FF"></path>
                <polygon id="Shape" fill="#60C9FF" points="61.3409415 92.9508659 74.628465 222.53923 77.0328103 222.313043 63.7452865 92.724679"></polygon>
                <path d="M102.166173,75.6062767 C88.3082133,101.94892 80.4282019,151.35128 78.4593438,223.900321 L80.7032432,223.965763 C82.6627632,151.76083 90.4962625,102.650067 104.136947,76.7204422 L102.166173,75.6062767 Z" id="Shape" fill="#60C9FF"></path>
                <path d="M78.9377076,148.359486 C76.8208987,178.626655 76.4680007,203.351581 77.8805642,222.53923 L78.8283666,222.435994 C77.4213916,203.324259 77.773378,178.663139 79.8858773,148.457598 L78.9377076,148.359486 Z" id="Shape" fill="#60C9FF"></path>
                <path d="M63.4783179,98.7321362 C46.0181715,105.77981 35.7474972,98.2287311 32.6662949,76.0788994 C31.1810441,65.4018805 30.9656979,52.1846384 32.1252934,39.7782772 C32.1764108,39.2313786 35.0104278,39.563895 40.6273444,40.7758265 C35.289459,37.0403641 32.6670898,34.8180344 32.7602367,34.1088374 C35.8652763,10.4678608 44.30138,-8.08532839 58.8565145,3.5885412 C69.1135575,11.8151489 78.2418481,36.6391088 83.1670549,57.634264 C83.4271591,58.743033 79.5179294,62.1848486 71.4393673,67.9597108 C80.3747054,66.2669623 84.9281355,65.8839049 85.0996598,66.8105384 C86.8971534,76.5212489 87.522092,84.4953431 86.5873352,88.1606255 C84.5332004,96.2151098 76.8301947,99.7389465 63.4783179,98.7321362 Z" id="Shape" fill="#60C9FF"></path>
                <path d="M58.7815131,100.322857 C57.9743289,100.539438 57.1851728,100.719411 56.4140445,100.862777 C52.0035836,98.8163545 46.8433084,97.480826 40.9311797,96.8594879 C40.4115575,96.3475364 39.9138153,95.7911548 39.437953,95.1903445 C46.9981982,95.8052411 53.4472757,97.5140999 58.7815131,100.322857 L58.7815131,100.322857 Z M35.8424592,88.8238252 C35.6413417,88.3282261 35.4475051,87.8178424 35.2609494,87.292674 C46.9352758,87.4074066 56.3055786,89.7893103 63.3608791,94.4561277 C63.1565625,93.2485442 62.9294033,91.6690143 62.6735377,89.7544051 C55.6158123,85.0093987 46.0321581,82.6574715 33.9099468,82.7190335 C33.7889526,82.2220128 33.6728732,81.7150128 33.5617085,81.1980335 C45.5032158,81.0944807 55.1234812,83.2747054 62.4113989,87.7566569 C62.2912086,86.8265563 62.165183,85.8349437 62.0328346,84.7848837 L61.9315557,84.6895842 C61.943421,84.677786 61.9552895,84.6659964 61.9671611,84.6542147 C53.478123,78.799883 43.751776,76.1585799 32.7590716,76.7266983 C32.7274539,76.5121712 32.6965282,76.2962375 32.6662949,76.0788994 C32.6263531,75.7917696 32.5873296,75.5028024 32.5492266,75.2120635 C43.4681073,74.6247546 53.2159996,77.1109786 61.7670454,82.6675257 C61.5967913,81.3072475 61.4168245,79.8643723 61.2262823,78.3443224 C56.024016,70.1833147 46.1770717,65.5606034 31.59923,64.5050608 C31.5732255,63.9966184 31.5495598,63.4856551 31.5282412,62.972425 C45.2015779,63.93189 54.9873951,67.9767834 60.8214394,75.128622 C60.5517683,72.9977104 60.2628481,70.7401053 59.9527259,68.3680852 C52.2105437,60.1343119 42.7023297,55.8045501 31.3846221,55.3594521 C31.3862293,54.8522521 31.3900275,54.3441044 31.3960234,53.8352329 C42.4359988,54.257997 51.8548287,58.2564572 59.6163802,65.8145284 C59.4216897,64.3476047 59.2191594,62.8412574 59.0083705,61.2981181 C51.4702404,53.7268303 42.3162568,49.7233176 31.5084384,49.2706724 C31.5274598,48.7632569 31.5486672,48.2557852 31.5720675,47.748476 C42.0907159,48.1882086 51.1329262,51.8839979 58.6672993,58.8218665 C58.543236,57.9286498 58.4164671,57.0241372 58.2869171,56.1088031 C54.825276,52.6034243 51.359777,49.7611852 47.8919979,47.580879 C45.1068821,45.8297855 39.807257,43.6255929 32.0171367,40.9839447 C32.0517544,40.5812835 32.0878053,40.1793566 32.1252934,39.7782772 C32.1362673,39.6608691 32.2754977,39.583991 32.5429849,39.5476429 C40.4467438,42.2277172 45.8411489,44.4744434 48.7503456,46.3035506 C51.8211003,48.2342346 54.879159,50.6593573 57.9255235,53.5781658 C57.693532,51.9682072 57.4530836,50.3274144 57.2037942,48.6582217 C52.4083297,39.2013668 44.3501406,33.9017737 32.9492723,32.7226141 C33.020778,32.2171343 33.094772,31.7142519 33.171262,31.2142193 C43.5894318,32.3065105 51.4063829,36.7332618 56.5684437,44.4697513 C56.2501972,42.4041765 55.9186549,40.3002751 55.5731427,38.1622903 C49.4186976,32.0868327 42.1983727,28.3639825 33.8918286,26.9846852 C33.986752,26.4816925 34.084423,25.9825988 34.1848506,25.4876915 C42.123868,26.8109161 49.1217819,30.1996892 55.1627083,35.6469399 C54.8068807,33.4871409 54.4368743,31.2950342 54.0520189,29.074835 C48.7741182,23.8476111 42.7107881,20.3541011 35.8491617,18.5885773 C35.9903078,18.0933455 36.1348867,17.6049616 36.2829103,17.1238155 C42.7319876,18.7880117 48.5092129,21.9221071 53.6050431,26.5218534 C53.1139422,23.7446264 52.5996434,20.9267251 52.0608706,18.0761723 C48.3092773,14.0904555 44.1432817,11.0208017 39.5579438,8.86501177 C39.7983239,8.40058966 40.0441867,7.95132375 40.2955559,7.51797147 C44.3621267,9.43665749 48.110943,12.045978 51.538926,15.3445626 C51.2339348,13.7656379 50.921416,12.1776069 50.6011574,10.581805 C48.177076,7.98843274 45.5792138,5.77927034 42.8062292,3.95372058 C43.1596901,3.54967046 43.5216796,3.17354853 43.8922426,2.82678596 C46.0432616,4.26087531 48.0913285,5.91758753 50.0358791,7.79667147 C49.5218196,5.29222695 48.9885996,2.77073387 48.4354113,0.237270891 C48.9369637,0.115351009 49.450104,0.0394769725 49.9749007,0.0118328021 C50.6418778,2.52772066 51.2808127,5.0264682 51.8926995,7.50390785 C52.9997156,5.18956449 54.204909,3.14394782 55.508375,1.36877044 C55.9534909,1.59927131 56.4051045,1.86006235 56.8632436,2.152027 C55.2624296,4.31239195 53.8060913,6.9168729 52.4944394,9.96924857 C52.8841713,11.5851269 53.2624019,13.1912356 53.6294118,14.7863976 C55.6237071,10.6992058 57.9312325,7.46959936 60.552532,5.10733691 C60.9106703,5.46132867 61.267182,5.83467874 61.6219312,6.22648244 C58.7799335,8.78545785 56.3050638,12.4679823 54.1981765,17.2893835 C54.9929776,20.8312362 55.7323696,24.3152204 56.4194961,27.7281602 C59.3925061,21.358408 63.0888872,16.967996 67.5105486,14.5911782 C67.7634555,15.030374 68.0148709,15.4773631 68.2647336,15.9317387 C63.717841,18.3807111 59.9458576,23.190721 56.9514073,30.4088353 C57.3607525,32.502401 57.7502991,34.5672814 58.120799,36.6003373 C61.6237321,29.211802 66.1172748,24.534406 71.6044872,22.6230402 C71.8156919,23.0860681 72.0254058,23.5535796 72.2335856,24.0252765 C66.6480257,25.9351229 62.1063213,31.016467 58.6125799,39.342964 C59.0556806,41.8550974 59.469373,44.3149604 59.8551367,46.7163519 C62.9515233,40.4051623 68.3809014,36.0624139 76.0977154,33.7038208 C76.2710285,34.181751 76.4427596,34.6616234 76.6128723,35.1431979 C68.3912844,37.6435482 62.9791415,42.4613031 60.3123141,49.6185833 C60.5398915,51.0924928 60.7567446,52.542465 60.9632372,53.9669754 C66.3531392,46.8798404 72.3092297,42.7922943 78.8153552,41.7500728 C78.9697725,42.2410455 79.1224151,42.7326334 79.2732482,43.2245981 C72.7386748,44.2048192 66.7464769,48.4998345 61.2767029,56.1661352 C61.4573295,57.4552959 61.6293021,58.7221201 61.7929064,59.9654116 C63.6428462,58.0450686 65.8714715,56.5182574 68.4733513,55.3880506 C70.8889417,54.3387643 75.2414094,52.9332718 81.5461469,51.1649246 C81.6776205,51.6584042 81.8070549,52.1509608 81.9344144,52.6423494 C75.7267896,54.3844951 71.4497767,55.7651652 69.1185623,56.7778002 C66.2722526,58.0141827 63.9209387,59.7526602 62.0556873,61.9982865 C62.2697946,63.6851275 62.4681267,65.3254921 62.6514439,66.9161945 C68.0433579,61.9359267 74.4577817,59.5283433 81.8544073,59.7108132 C81.4160057,60.1587586 80.8687989,60.6675886 80.212786,61.2373031 C73.5221869,61.43671 67.7538558,63.9699729 62.8700515,68.8533544 C63.1270818,71.1808326 63.3509317,73.3932767 63.5441779,75.4798859 C66.2502359,71.5393559 70.271856,68.7861817 75.5891013,67.2145486 C81.7868987,66.1749677 84.9570849,66.0402976 85.0996598,66.8105384 C85.1256997,66.9512178 85.1514943,67.0915327 85.1770414,67.2314754 C74.465709,67.747591 67.3637492,71.3808581 63.7769349,78.1037896 C63.912178,79.7006612 64.0281643,81.2123395 64.126253,82.6331255 C70.5693231,76.9537054 77.8809123,73.5625342 86.0433545,72.4692026 C86.1183538,72.97997 86.1892354,73.4833088 86.2559265,73.9787332 C78.069219,75.0761006 70.7836148,78.5756006 64.3790929,84.4880999 C64.4376147,84.5317325 64.496077,84.5755185 64.5544795,84.6194565 L64.2763369,84.9653673 C64.348111,86.1730335 64.4054563,87.301393 64.4494242,88.3460385 C70.9385593,82.2168566 78.3417896,78.4921455 86.6400763,77.1822375 C86.6940007,77.7010171 86.7423281,78.208224 86.7849508,78.7031498 C78.4604187,80.0406355 71.0844782,83.9097425 64.6354737,90.322224 L64.516585,90.2103538 C64.5653347,91.8663024 64.5744444,93.2527311 64.5496987,94.345393 C71.1130567,88.1800813 78.608734,84.467495 87.0171177,83.2182803 C87.0216619,83.7600342 87.015373,84.2756091 86.997995,84.7633124 C78.586209,86.0686783 71.1394397,89.9488994 64.6354737,96.4160307 L64.4459611,96.2377068 C64.3608912,97.0319672 64.2325098,97.3723424 64.0710064,97.2161234 C63.9652708,97.1138474 63.8524366,96.8124501 63.7305977,96.3239165 L63.5985113,96.4942696 C56.828935,91.5832068 47.58101,89.0197782 35.8424592,88.8238252 L35.8424592,88.8238252 Z M86.0810963,89.7641106 C85.8464194,90.3792475 85.5730121,90.9633203 85.260873,91.5163288 C79.883229,92.829893 74.9239379,95.2638402 70.37663,98.8216291 C69.5616071,98.8715057 68.7168783,98.8975563 67.8424435,98.8997817 C73.3101348,94.2301876 79.3932011,91.1830556 86.0810963,89.7641106 L86.0810963,89.7641106 Z" id="Shape" fill="#86D7FF"></path>
                <path d="M101.706822,79.8858773 C112.430914,76.923077 119.742794,71.9850763 123.642464,65.0718753 C127.542133,58.1586744 133.879096,43.8384725 142.653352,22.1112696 C142.653352,19.1484692 140.703518,17.667069 136.803848,17.667069 C134.854014,15.6918688 132.904178,15.1980687 130.954344,16.1856688 C128.029591,17.667069 103.169198,38.4066718 94.3949422,54.702074 C88.5454379,65.5656754 90.9827311,73.9602767 101.706822,79.8858773 Z" id="Shape" fill="#60C9FF"></path>
                <path d="M91.4068531,63.4402735 C91.4633452,62.9532993 91.5418559,62.459765 91.6423852,61.9596705 C98.949766,64.2252817 103.184284,68.3274348 104.24023,74.2107004 C104.706994,72.705535 105.250076,71.1450222 105.869475,69.5291631 C105.202316,63.466929 101.070342,59.3815013 93.3337632,57.1995798 C93.2867261,57.1863141 93.2420449,57.1686741 93.2000285,57.1472133 C93.3947261,56.7018233 93.6043723,56.2519794 93.8289672,55.7976817 C101.038633,57.8548207 105.420859,61.6054566 106.882183,67.0005822 C107.071096,66.5476628 107.265604,66.0906851 107.465709,65.629649 C107.448858,65.5777705 107.437485,65.5233636 107.432286,65.4671342 C107.429412,65.4379194 107.428392,65.4087812 107.429044,65.379853 C107.422767,58.7156987 103.72152,54.1753254 96.1704601,51.67754 C96.4398203,51.2516922 96.7180813,50.8239056 97.004617,50.3945699 C103.923961,52.7882683 107.86104,56.9591628 108.715018,62.8543809 C109.598757,60.9568909 110.571034,58.9951929 111.631847,56.9692869 C110.788996,51.5990928 107.084464,47.8568453 100.413561,45.6876499 C100.733735,45.2755053 101.059295,44.8632365 101.389712,44.4511741 C107.52652,46.5731471 111.318308,50.0925852 112.694768,54.9726216 C113.342437,53.7752243 114.019797,52.5562938 114.72685,51.3158302 C114.464364,46.1266434 111.284226,42.6710345 105.033422,40.8577728 C104.867687,40.8096956 104.731716,40.7073058 104.638897,40.5750694 C104.958683,40.2087705 105.281044,39.8434787 105.605596,39.479434 C111.508526,41.2341989 114.986964,44.5004426 115.939171,49.2175063 C116.906985,47.5641854 117.925557,45.8740541 118.994888,44.147112 C118.331265,39.7215051 115.28621,36.6988822 109.747601,35.0123951 C110.131228,34.6135142 110.51562,34.2175594 110.900205,33.8248877 C115.883356,35.5118877 118.975963,38.3724474 120.108204,42.3649357 C120.734153,41.371534 121.376419,40.3662989 122.035002,39.3492302 C121.757678,35.0468395 119.178949,32.1483574 114.167334,30.5680148 C114.569476,30.1763364 114.970025,29.789442 115.368307,29.4077505 C119.78462,30.9922708 122.437991,33.7004192 123.253015,37.4830094 C123.81068,36.6351362 124.379373,35.7792668 124.959091,34.9154011 C124.693486,31.2369275 122.480897,28.7919805 118.192126,27.4856688 C118.005461,27.4288128 117.857742,27.3030419 117.767857,27.1439725 C118.134454,26.8034772 118.497777,26.4684376 118.85725,26.1392121 C122.905792,27.433875 125.367989,29.7837718 126.164672,33.1307548 C126.806317,32.1870594 127.460795,31.2340588 128.128102,30.2717532 C128.010282,30.1527359 127.932181,29.9932269 127.91575,29.815514 C127.912885,29.7863919 127.911862,29.7573459 127.912502,29.7285082 C127.906792,26.362068 126.174534,24.1692839 122.573447,23.0267309 C122.516986,23.0088171 122.464185,22.9845963 122.41556,22.9550704 C122.853556,22.5724434 123.28103,22.2025364 123.696587,21.8462178 C127.047774,23.1048422 128.948067,25.3726133 129.311359,28.5748372 C130.318669,27.1380986 131.353944,25.6810791 132.417184,24.2037787 C132.355907,24.1067934 132.316234,23.9943919 132.305063,23.8735772 C132.302202,23.8444911 132.301178,23.8154808 132.301813,23.7866782 C132.296562,21.1507242 131.039862,19.4550778 128.412731,18.5659729 C128.250645,18.5111176 128.120058,18.4042394 128.032976,18.2697178 C128.496416,17.906301 128.917378,17.5843114 129.290596,17.3070318 C131.805653,18.2795049 133.285947,20.0269489 133.666502,22.4763126 C134.417466,21.4428686 135.18183,20.3997078 135.959591,19.34683 C135.276917,20.4963734 134.608706,21.62343 133.954959,22.7279999 C137.327937,21.7026078 140.224622,21.356957 142.640704,21.7075695 C142.649136,21.838933 142.653352,21.9734997 142.653352,22.1112696 C142.512514,22.4600204 142.372303,22.8068628 142.23272,23.1517968 C139.841234,22.8502107 136.859159,23.2931286 133.280776,24.5024792 C133.239895,24.5173919 133.197328,24.5287138 133.153444,24.5360702 C133.066588,24.5507691 132.980315,24.5491989 132.897563,24.5332481 L132.888606,24.5314816 C132.114272,25.8424006 131.361255,27.1201775 130.629556,28.3648125 C134.489267,27.3264142 137.685269,27.2367704 140.210481,28.1230202 C140.021325,28.5854628 139.833433,29.0440673 139.646803,29.4988335 C137.139555,28.6514489 133.771345,28.8836116 129.532067,30.2340706 C128.671415,31.7018909 127.842081,33.1210215 127.044064,34.4914623 C131.41803,33.2182367 134.972248,33.1156281 137.696996,34.2209219 C137.505414,34.6818993 137.315302,35.1384111 137.126658,35.5904575 C134.461093,34.5230539 130.745168,34.7709323 125.965253,36.3863527 C125.955927,36.3897546 125.946514,36.3929698 125.937016,36.3959935 C125.454893,37.2269566 124.985096,38.0387569 124.527623,38.8313946 C129.198917,37.5349347 132.912454,37.6070305 135.655962,39.0947425 C135.460828,39.5569345 135.267404,40.0139275 135.075693,40.4657213 C132.442282,38.9798633 128.572007,39.0380695 123.447412,40.7072757 C122.595866,42.1895702 121.790984,43.5993144 121.032765,44.9365083 C126.154234,43.4194487 130.162096,43.4922607 133.040952,45.2139929 C132.84029,45.6773158 132.641773,46.1341196 132.445402,46.5844044 C129.742461,44.8773826 125.638625,44.9172455 120.112835,46.7847419 C120.071954,46.7996546 120.029387,46.8109765 119.985502,46.8183329 C119.979281,46.8193792 119.973655,46.8202628 119.968031,46.8210782 C119.227638,48.1365971 118.537536,49.3739271 117.897725,50.5330681 C122.655407,49.3260641 126.377382,49.6005787 129.04986,51.4094832 C129.399563,51.6461844 129.72484,51.8568182 130.026193,52.0425476 C129.817905,52.5040069 129.612558,52.9565283 129.410153,53.4001118 C129.045467,53.1791024 128.655272,52.92773 128.238276,52.6454807 C125.730078,50.9477723 121.957089,50.8261128 116.901232,52.3498095 C116.387439,53.2929473 115.912404,54.1758276 115.476127,54.9984504 C114.896358,56.0916333 114.3262,57.1893378 113.765652,58.2915638 C119.104221,56.7184899 123.229392,56.8778845 126.123651,58.8369041 C126.316983,58.9677633 126.502849,59.0906552 126.681334,59.2057765 C126.45729,59.6657539 126.238122,60.1109083 126.023832,60.5412399 C125.795767,60.3958489 125.558601,60.2397715 125.312067,60.0729016 C122.619014,58.2500707 118.467864,58.2441617 112.836248,60.1409632 C112.236103,61.3495792 111.647407,62.5635824 111.070163,63.7829726 C115.595053,62.7161541 119.153915,63.0322456 121.734337,64.7788408 C122.305392,65.165367 122.811311,65.4823821 123.25429,65.7349499 C122.998141,66.1568444 122.728802,66.5711034 122.446272,66.9777272 C121.983745,66.7104911 121.476914,66.3899302 120.922753,66.0148384 C118.526502,64.3929021 114.975839,64.2094698 110.255004,65.5249767 C109.757444,66.6007314 109.268721,67.6806438 108.788836,68.7647138 C112.827484,68.2932481 116.174063,68.9378734 118.808128,70.7207775 C118.897234,70.7810899 118.984995,70.8389365 119.071432,70.8943661 C118.70526,71.2420402 118.326381,71.5823588 117.934795,71.915321 C115.44371,70.2566916 112.170758,69.728575 108.09134,70.3576677 C107.29741,72.1909044 106.528564,74.0359415 105.784802,75.8927803 C108.659729,75.1221041 111.1658,74.8787204 113.300081,75.1738723 C112.472501,75.6566455 111.607387,76.1176912 110.704737,76.5570086 C108.771596,76.6548631 106.543581,77.1265956 104.018685,77.9799094 C103.977804,77.9948224 103.935237,78.0061441 103.891352,78.0135007 C103.804497,78.0281997 103.718224,78.0266291 103.635472,78.0106783 C103.528022,77.9901969 103.428857,77.9458638 103.343513,77.883301 C103.339255,77.8801904 103.335028,77.8770321 103.330833,77.8738267 C103.168934,77.7473573 103.062482,77.5620143 103.042972,77.3510078 C103.040098,77.3217932 103.039078,77.2926548 103.03973,77.2637261 C103.033351,70.4903744 99.209918,65.9109734 91.4068531,63.4402735 L91.4068531,63.4402735 Z" id="Path" fill="#A1E0FF"></path>
                <path d="M51.2604812,138.373752 C53.2888267,131.61004 53.2888267,125.812573 51.2604812,120.98135 C48.2179628,113.734516 23.8778162,96.3421148 8.66522454,91.9940143 C-6.54736713,87.6459137 2.58018787,105.038315 4.10144703,106.487683 C4.78072247,107.134856 10.8885236,119.145891 36.0478895,135.475019 C40.1045807,137.407507 45.1754445,138.373752 51.2604812,138.373752 Z" id="Shape" fill="#86D7FF"></path>
                <path d="M40.2950348,137.044842 C39.8895058,136.932224 39.4914898,136.812448 39.1009866,136.685515 C40.6870802,135.236409 43.517301,134.910279 47.511019,135.669785 C46.7033468,134.955496 45.6627885,133.934049 44.4610413,132.706847 C39.2237519,131.676892 36.3979402,132.571362 35.7541203,135.283987 C35.4574078,135.09067 35.163369,134.897964 34.8719815,134.705882 C35.7327329,131.878161 38.5928292,130.835204 43.2935547,131.503511 C42.5608731,130.742359 41.7837545,129.925469 40.9751781,129.0712 C37.6990582,128.576984 34.4157175,129.596626 31.100813,132.154205 C30.8134705,131.954532 30.5290578,131.755637 30.2475468,131.557533 C33.4567636,129.015452 36.6926829,127.814308 39.9368617,127.972347 C39.4534688,127.460088 38.9613204,126.937843 38.4629549,126.409201 C34.3817342,126.091891 30.5714206,127.029436 27.0168837,129.22661 C26.7285439,129.0132 26.443667,128.800845 26.162214,128.589564 C29.6804955,126.333108 33.4568284,125.257014 37.4783897,125.365327 C36.5696443,124.40253 35.6461632,123.426639 34.7227014,122.458524 C30.5785389,122.02495 27.0032685,123.495568 23.9537362,126.89988 C23.6883208,126.692845 23.4262921,126.486968 23.1675981,126.282258 C26.160279,122.924053 29.6850633,121.288476 33.7083408,121.398505 C33.1010907,120.766115 32.4961967,120.140423 31.8978819,119.527401 C27.8153811,119.039379 23.4558712,120.087001 18.8127624,122.68498 C18.5432956,122.452175 18.2784847,122.221315 18.0182566,121.992439 C22.5083039,119.4241 26.7815242,118.236892 30.8326128,118.442659 C29.8286116,117.42707 28.8510687,116.458683 27.9209056,115.56709 C23.7649657,115.061119 19.3217569,116.147734 14.5843191,118.842476 C14.3309913,118.599607 14.0833776,118.359663 13.841363,118.122704 C18.3705651,115.501001 22.679728,114.281162 26.7634262,114.475302 C26.573433,114.299267 26.3860259,114.12734 26.2014113,113.959812 C25.6515555,113.460848 25.1025807,112.96595 24.5555149,112.475705 C24.4482051,112.584944 24.2915545,112.644042 24.1272106,112.621771 C20.1092021,112.077263 15.8214847,113.028371 11.2577223,115.48924 C11.0177146,115.234018 10.785117,114.983424 10.5597309,114.737563 C15.1079665,112.24357 19.4316673,111.178849 23.525252,111.555863 C22.7922267,110.903782 22.0638374,110.26081 21.3425951,109.628379 C21.2724793,109.65116 21.196168,109.658934 21.1181216,109.648357 C17.1718076,109.113566 12.9653238,110.021491 8.49266733,112.385539 C8.26683951,112.116788 8.05147896,111.856184 7.84618245,111.603934 C12.1356178,109.305391 16.2243778,108.283796 20.1077504,108.54967 C19.3650975,107.903319 18.6317835,107.269322 17.9106556,106.649303 C14.1638224,106.188419 10.1833987,107.022565 5.96428093,109.163134 C5.74935169,108.867532 5.55568217,108.594549 5.38169862,108.344998 C9.30082803,106.335878 13.0509288,105.401637 16.6283638,105.550394 C15.4672289,104.558479 14.3437229,103.607061 13.2705387,102.703378 C13.2141011,102.715751 13.1545163,102.71861 13.0938843,102.710394 C9.8176403,102.266407 6.36207724,102.816797 2.72376045,104.369233 C2.57446511,104.092738 2.42121661,103.796648 2.26718233,103.4847 C5.62779471,102.041891 8.86010257,101.413141 11.9617131,101.603794 C10.6940745,100.541116 9.51075606,99.5554009 8.43547097,98.6601683 C8.33542204,98.7297618 8.20951484,98.7635649 8.07873602,98.7458424 C5.69024857,98.4221619 3.20645526,98.6269807 0.626025179,99.3632703 C0.531166951,99.0442083 0.444456884,98.7241619 0.367788419,98.4053638 C2.72315599,97.7353787 5.01197978,97.4860107 7.23337382,97.6592375 C6.25281103,96.8423502 5.38776846,96.119791 4.66143953,95.5047825 C4.62303811,95.5373088 4.57945709,95.5642853 4.53184786,95.5842896 C4.425643,95.7200064 4.2509705,95.7974123 4.06661735,95.7724294 C2.74064135,95.5927368 1.38529256,95.5759258 -0.000277035405,95.7225036 C-0.00281294514,95.3763288 0.0157196527,95.0409322 0.0590683599,94.7200021 C1.31363387,94.5981969 2.54798526,94.6035813 3.76197575,94.7364829 C2.71504861,93.8319394 2.12869938,93.2778488 2.12869938,93.1459201 C2.12869938,93.0205228 2.70635345,93.3806847 3.73435317,94.1330706 C3.65310653,93.1464872 3.62085115,92.2156284 3.63792255,91.3407304 C3.94853804,91.3071576 4.28258056,91.2930086 4.64134155,91.2998067 C4.61681184,92.4109023 4.67596595,93.6259465 4.81965399,94.9455392 C5.64389093,95.5735464 6.63436398,96.3485407 7.75829836,97.2464943 C7.57954529,95.1817746 7.61302689,93.3584879 7.86176976,91.778771 C8.12171733,91.843525 8.38947218,91.9151983 8.66522454,91.9940143 C8.7217005,92.0101562 8.77830221,92.0264786 8.83502825,92.0429786 C8.58291648,93.7264173 8.58503367,95.7266476 8.84593074,98.0468823 C8.84879494,98.0723545 8.84965157,98.0975906 8.84862532,98.1224358 C10.0493502,99.0921155 11.3726285,100.176618 12.7859558,101.352114 C12.5026126,98.2302803 12.6991927,95.6544622 13.3859927,93.6319301 C13.693883,93.7551405 14.0038562,93.8820036 14.3157222,94.0123759 C13.6440402,96.030831 13.4880586,98.6940528 13.861079,102.011433 C13.8696155,102.087351 13.8603189,102.161165 13.8364942,102.228794 C15.1116309,103.296405 16.4498055,104.429404 17.8291553,105.611762 C17.4265369,101.55741 17.8153904,98.4037561 19.0175453,96.1662154 C19.3155444,96.3137225 19.6143465,96.4635692 19.9138058,96.6156448 C18.7666682,98.7358538 18.4122777,101.849943 18.8762273,105.975984 C18.8939336,106.133451 18.8349177,106.281869 18.7286717,106.384811 C19.411395,106.973065 20.1028353,107.572294 20.8004359,108.180624 C20.4036568,103.647001 21.0276244,100.274585 22.7042659,98.0859215 C22.9998879,98.2471612 23.2957087,98.4102068 23.5915922,98.5749544 C21.9234007,100.658926 21.3408546,104.107337 21.8853163,108.949397 C21.891934,109.00825 21.8878345,109.065839 21.8745578,109.120262 C22.5066166,109.674947 23.1425964,110.23621 23.7806407,110.80269 C23.3987542,105.832003 24.2783034,102.295889 26.4630956,100.225286 C26.761612,100.402132 27.0597402,100.580377 27.3573389,100.759914 C25.1350343,102.685884 24.2889981,106.345575 24.8787394,111.781009 C25.3193573,112.174942 25.76045,112.570978 26.2014113,112.968675 C26.6615897,113.383703 27.140164,113.81834 27.6337695,114.269508 C27.1257218,108.730379 28.1247887,104.905964 30.6882787,102.836733 C30.9832771,103.026652 31.2771887,103.217478 31.5698672,103.409099 C31.553678,103.424934 31.5362049,103.439867 31.5174685,103.453752 C29.0155458,105.307947 28.054779,109.105451 28.705918,114.896224 C28.7109544,114.941014 28.7097835,114.985073 28.7030837,115.02756 C28.710437,115.074104 28.7111446,115.122477 28.7043347,115.171544 C28.7011217,115.194694 28.6963393,115.21725 28.6901081,115.239122 C29.7146611,116.183384 30.7897887,117.185004 31.8886837,118.219463 C31.2952123,112.345345 32.2508621,108.121785 34.7963214,105.588019 C35.0751361,105.78223 35.3522021,105.976811 35.6273772,106.171655 C33.1364852,108.547844 32.2338836,112.760588 32.968345,118.856919 C32.9821579,118.971572 32.9551869,119.081735 32.8987345,119.17322 C33.5572602,119.796951 34.2212683,120.429596 34.8851748,121.066049 C34.2829739,114.897424 35.4033813,110.564173 38.2940948,108.112288 C38.5692335,108.318193 38.8417482,108.523989 39.1114724,108.729551 C36.2621451,111.012831 35.1980379,115.361025 35.977434,121.830332 C35.9881277,121.919094 35.9743774,122.005165 35.9414277,122.081961 C36.5655777,122.684275 37.1870044,123.287561 37.8010325,123.887546 C37.4121063,117.891909 38.7828189,113.770791 41.962286,111.571551 C42.189196,111.414598 42.5019058,111.469127 42.6607428,111.693347 C42.8195798,111.917567 42.7643958,112.226569 42.5374857,112.383523 C39.5077684,114.479181 38.2739896,118.652685 38.8950948,124.960874 C39.9358302,125.9861 40.9462363,126.993889 41.902335,127.962312 C41.2659935,121.367641 42.6038452,116.876383 45.9744046,114.544964 C45.9867895,114.536398 45.99943,114.528461 46.0122872,114.521148 C46.248991,114.744904 46.4795265,114.966606 46.7036173,115.186046 C46.6676877,115.252072 46.6159969,115.311013 46.5496044,115.356937 C43.3883016,117.543612 42.182326,121.992542 42.9986417,128.768296 C43.0100781,128.863224 42.9935569,128.955073 42.9554931,129.035792 C43.6531857,129.751723 44.313817,130.439787 44.9266485,131.090165 C44.2573045,124.440282 45.5750961,119.90765 48.9391347,117.549268 C49.164482,117.810875 49.376965,118.067233 49.5759609,118.317865 C49.5703205,118.322126 49.5645644,118.326288 49.5586934,118.33035 C46.3973906,120.517025 45.1914149,124.965955 46.0077306,131.74171 C46.0250588,131.885541 45.9782031,132.022307 45.8894778,132.123996 C46.6643486,132.966878 47.3353989,133.726467 47.8737494,134.37635 C47.3794529,128.34031 48.5982596,124.129369 51.5774128,121.789081 C51.6992742,122.122494 51.8118876,122.460312 51.9152529,122.802536 C49.2432726,125.134415 48.2592902,129.418456 49.0168196,135.70626 C49.0240659,135.766408 49.0200881,135.82532 49.0065179,135.880948 C49.2924743,136.334188 49.3957874,136.633734 49.2810691,136.747219 C49.1892718,136.838029 48.987752,136.781327 48.6910603,136.597692 C48.5809101,136.768386 48.3708511,136.861436 48.15927,136.814976 C44.421885,135.994292 41.8252081,136.082369 40.2950348,137.044842 L40.2950348,137.044842 Z" id="Path" fill="#A1E0FF"></path>
                <path d="M102.613805,121.25535 C90.9765264,131.755712 84.4443937,164.918709 82.7389444,221.04089 L85.0308509,221.112696 C86.7150499,165.689831 93.1765692,132.885327 104.136947,122.995735 L102.613805,121.25535 Z" id="Path" fill="#A1E0FF"></path>
                <path d="M100.245962,126.961484 C93.4362211,117.309887 94.0767411,106.853992 102.167523,95.5937967 C106.212914,99.688413 108.235609,101.735721 108.235609,101.735721 L106.718588,90.9873531 C114.809369,84.845428 118.85476,81.7744658 118.85476,81.7744658 C119.866108,85.869082 120.371782,87.9163902 120.371782,87.9163902 C121.383129,82.7981198 121.888803,80.2389843 121.888803,80.2389843 L129.473911,74.0970599 C130.485258,79.2153302 130.990932,81.7744658 130.990932,81.7744658 L134.024975,71.0260974 C151.959541,66.3465356 162.443846,68.1013713 165.477889,76.2906041 C150.307673,84.4798374 138.677175,92.1572432 130.586393,99.3228224 C122.495611,106.488401 112.382135,115.701288 100.245962,126.961484 Z" id="Shape" fill="#86D7FF"></path>
                <path d="M99.1668887,125.324083 C99.740035,124.80375 100.325347,124.273068 100.922822,123.732037 C98.4852482,119.906061 96.7009693,116.392837 95.5777668,113.195009 C95.5800742,111.511656 95.7780107,109.807184 96.1715777,108.081592 C96.7408837,112.106541 98.7748738,116.904101 102.302295,122.484035 C103.448738,121.44778 104.637328,120.375668 105.868065,119.267701 C101.516845,112.82485 98.9183987,107.221586 98.1070128,102.469557 C98.5696455,101.460956 99.0957439,100.445503 99.6853081,99.4231983 C99.6841883,104.297424 102.182678,110.491977 107.24524,118.028752 C108.167909,117.199245 109.113114,116.350566 110.080855,115.482715 C104.930574,108.01836 102.082626,101.657088 101.58869,96.4164529 C101.7772,96.1427126 101.970145,95.8684936 102.167523,95.5937967 L103.507607,96.9501869 C104.125976,101.647174 106.760727,107.407893 111.458315,114.248122 C112.581817,113.241695 113.734407,112.210519 114.916087,111.154597 C109.628685,103.09315 106.971631,96.2885913 107.006136,90.769067 L108.947998,89.2949486 C108.337775,94.5576854 110.760663,101.419223 116.300473,109.9181 C117.585781,108.770607 118.90423,107.594919 120.255819,106.391038 C115.893345,97.3672175 114.406601,89.9066006 115.854194,84.0522746 L118.491369,82.0503252 C115.976527,87.6165628 117.010859,95.2844322 121.683747,105.119645 C122.786568,104.138086 123.910716,103.138384 125.056192,102.120539 C122.167071,95.7853096 120.754926,90.2532739 120.841294,85.5402639 L121.888803,80.2389843 L124.727359,77.9405071 C121.511434,83.3178951 122.067836,90.9279009 126.494824,100.84276 C127.528925,99.9266255 128.575076,99.0248431 129.633276,98.1374123 C126.431835,89.0713352 126.487652,81.6694772 129.850705,76.0039558 L130.432909,78.9503973 C128.471166,83.7028053 128.698301,89.6665842 131.145041,96.8860735 C131.923163,96.2503773 132.707663,95.622276 133.498539,95.001771 C131.701076,90.0663424 130.855359,85.6169301 130.969288,81.6649287 L130.990932,81.7744658 L133.754283,71.9850485 C133.98455,71.61797 134.229083,71.2583854 134.487894,70.906315 C135.521572,70.6411054 136.530142,70.3975803 137.513603,70.1757397 C132.22468,75.5840571 131.366043,83.4219422 135.026923,93.8181555 C135.846645,93.1915842 136.673078,92.5730064 137.506222,91.962423 C135.465123,82.6950107 136.460767,75.2042582 140.533048,69.5477952 C141.465252,69.3712695 142.372265,69.2165006 143.254085,69.0834888 C138.63376,74.27753 137.244832,81.4875378 139.136209,90.7841612 C140.294218,89.9585392 141.464926,89.1480421 142.648332,88.3526698 C141.13271,80.630985 142.267969,74.0692896 146.065407,68.7242738 C146.912423,68.6368882 147.732984,68.5723506 148.527089,68.5306609 C144.406883,73.5043516 142.998073,79.7219258 144.313698,87.2488331 C145.654009,86.372771 147.010287,85.5157268 148.382534,84.6777011 C148.934412,78.0790407 151.300919,72.7923317 155.481957,68.8569375 C156.253517,68.9912633 156.9842,69.1608921 157.674006,69.3658237 C153.556638,72.8052967 151.117068,77.5010991 150.355196,83.4926041 C151.790028,82.6447133 153.241936,81.8171619 154.710921,81.0099494 C155.884675,76.8355578 157.870642,73.3674365 160.667658,70.618638 C161.225643,70.9357172 161.742924,71.2879494 162.219503,71.6753345 C159.923442,73.8521348 158.197486,76.5422204 157.040862,79.7542618 C159.719665,78.3385264 162.453894,76.9888039 165.243546,75.7050942 C165.267277,75.760132 165.290643,75.8154843 165.313646,75.8711505 L163.20394,77.5288638 C149.140606,85.2548944 138.268091,92.5195471 130.586393,99.3228224 C122.495611,106.488401 112.382135,115.701288 100.245962,126.961484 C99.8626676,126.418232 99.5029765,125.872432 99.1668887,125.324083 L99.1668887,125.324083 Z" id="Path" fill="#A1E0FF"></path>
                <path d="M85.1321833,143.78667 C63.735283,140.77573 55.9545921,142.2812 61.7901103,148.303081 C70.5433876,157.335903 90.9677011,172.390606 102.638738,164.863255 C114.309775,157.335903 109.933136,134.753848 102.638738,131.742907 C97.775806,129.735614 91.9402874,133.750201 85.1321833,143.78667 Z" id="Shape" fill="#60C9FF"></path>
                <path d="M85.5449864,143.183773 C85.940699,143.361312 86.3999258,143.660812 86.9089001,144.082578 C87.1640021,144.293971 87.4987397,144.596804 87.8935813,144.97784 C94.3528146,137.772342 100.227314,134.112914 105.519351,134.094223 C105.879412,134.549608 106.223414,135.054377 106.548795,135.601772 C101.491636,135.099909 95.6161648,138.530491 88.9252603,146.013521 C89.2895207,146.391902 89.6798702,146.809799 90.0876205,147.261325 C96.6207532,141.673447 102.67709,138.992934 108.23233,139.272773 C108.402772,139.757413 108.561504,140.256577 108.707633,140.767911 C103.419436,140.29516 97.5431912,142.804621 91.0516148,148.355785 C91.612025,149.007946 92.1907418,149.709723 92.7684415,150.448022 C98.154734,146.564842 103.790883,144.917069 109.644261,145.509521 C109.700568,145.998581 109.745371,146.491639 109.778083,146.987147 C104.186274,146.34907 98.8221769,147.887755 93.6518067,151.608218 C94.3936341,152.610441 95.1170956,153.662892 95.7799501,154.736949 C100.722449,151.064285 105.413913,149.641647 109.802406,150.471204 C109.776133,150.95964 109.736942,151.446967 109.684281,151.93173 C105.607214,151.103563 101.239072,152.458997 96.5245371,156.000341 C96.743888,156.391551 96.9532489,156.784117 97.1506484,157.176701 C97.7645407,158.397601 98.2496441,159.490435 98.6194686,160.428335 C101.547902,157.240445 104.977316,155.797767 108.860561,156.090251 C108.716407,156.573715 108.555387,157.049545 108.376847,157.516021 C105.043171,157.378362 102.132352,158.714912 99.6022225,161.516685 C99.681224,161.715994 99.6713481,161.947958 99.5551819,162.147859 C99.4917825,162.256959 99.4042518,162.343551 99.3031719,162.404821 C99.8639608,164.369442 99.5187425,164.796136 98.6137553,162.996312 C98.485072,162.740388 98.3537953,162.48343 98.2200991,162.225746 C93.2217332,159.498777 88.080388,159.931679 82.7262753,163.588205 C82.2306733,163.353465 81.7358459,163.109111 81.2424736,162.856097 C86.6154943,158.95399 91.9042325,158.006635 97.0522354,160.065604 C96.3390585,158.797139 95.5795078,157.531711 94.7938267,156.305225 C86.1578545,154.872368 79.9425735,156.076896 76.0662368,159.872108 C75.6461705,159.604235 75.2291441,159.332234 74.8156312,159.056765 C78.8378823,154.92987 85.1619957,153.481313 93.7139772,154.668823 C93.1390934,153.823509 92.5555542,153.006322 91.9707275,152.230332 C91.8297211,152.311011 91.6608994,152.345659 91.4878424,152.317435 C80.0113338,150.44572 73.2149244,151.822834 70.8995345,156.274827 C70.5007576,155.973827 70.1073887,155.671429 69.7199509,155.368365 C72.4019272,150.520856 79.4848894,149.027315 90.7947076,150.735594 C90.2918609,150.132115 89.7905014,149.580063 89.3009344,149.074795 C89.1508994,149.313783 88.8676334,149.454071 88.5697639,149.40891 C75.8591541,147.481802 68.983895,148.996054 67.6442874,153.692838 C67.2321874,153.349606 66.8289322,153.007252 66.4352825,152.666839 C68.3424755,147.606406 75.6345899,146.077326 88.0606812,147.862875 C87.3016812,147.159378 86.5987775,146.571586 85.9978509,146.078809 C74.0547054,143.461382 66.8291591,144.906224 64.1535101,150.227515 C64.1089179,150.316199 64.0485667,150.391868 63.9775188,150.452843 C63.6112414,150.108586 63.2574966,149.769096 62.9171743,149.435619 C65.8303472,143.845693 72.903234,142.147279 84.0010414,144.19102 C83.9888916,144.153102 83.9826862,144.116994 83.9826862,144.082578 C83.9826862,143.913352 83.9984529,143.763753 84.0290899,143.6338 C84.3926762,143.683393 84.7603738,143.73435 85.1321833,143.78667 C85.270184,143.58323 85.4077846,143.382265 85.5449864,143.183773 Z" id="Path" fill="#86D7FF"></path>
                <path d="M88.3975271,216.882713 C88.9597782,215.894311 89.9212233,215.242889 91.0128388,215.242889 C92.7461148,215.242889 94.1512126,216.88521 94.1512126,218.911118 C94.1512126,220.937025 92.7461148,222.579347 91.0128388,222.579347 C89.9212233,222.579347 88.9597782,221.927924 88.3975271,220.939523 C87.8352767,221.927924 86.8738317,222.579347 85.7822161,222.579347 C84.6905999,222.579347 83.7291555,221.927924 83.1669044,220.939523 C82.6046534,221.927924 81.643209,222.579347 80.5515927,222.579347 C79.2051883,222.579347 78.0568103,221.588345 77.6112468,220.196352 C77.0386341,220.910442 76.2243795,221.356603 75.32097,221.356603 C74.4175606,221.356603 73.603306,220.910442 73.0306933,220.196352 C72.5851298,221.588345 71.4367518,222.579347 70.0903471,222.579347 C69.2865526,222.579347 68.5533354,222.226153 67.9980979,221.645301 C67.4428606,222.226153 66.7096432,222.579347 65.9058488,222.579347 C64.1725728,222.579347 62.767475,220.937025 62.767475,218.911118 C62.767475,216.88521 64.1725728,215.242889 65.9058488,215.242889 C66.7096432,215.242889 67.4428606,215.596082 67.9980979,216.176934 C68.5533354,215.596082 69.2865526,215.242889 70.0903471,215.242889 C70.9937563,215.242889 71.8080107,215.68905 72.3806241,216.403141 C72.8261876,215.011147 73.9745649,214.020146 75.32097,214.020146 C76.6673752,214.020146 77.8157525,215.011147 78.261316,216.403141 C78.8339294,215.68905 79.648184,215.242889 80.5515927,215.242889 C81.643209,215.242889 82.6046534,215.894311 83.1669044,216.882713 C83.7291555,215.894311 84.6905999,215.242889 85.7822161,215.242889 C86.8738317,215.242889 87.8352767,215.894311 88.3975271,216.882713 L88.3975271,216.882713 Z" id="Shape" fill="#60C9FF"></path>
                <polygon id="Shape" fill="#CCEEFF" points="59.914408 218.299746 99.8573466 218.299746 94.2653352 252.536551 66.3052782 252.536551"></polygon>
                <polygon id="Path" fill="#A1E0FF" points="97.1648966 234.784133 95.8053167 243.108093 64.5452993 243.108093 62.9914937 234.784133"></polygon>
                <polygon id="Shape" fill="#A1E0FF" points="55.6348074 216.873213 102.710414 216.873213 100.356633 225.432414 57.9885877 225.432414"></polygon>
            </g>
        </g>
    </g>
</svg>