<?xml version="1.0" encoding="UTF-8"?>
<svg width="1000px" height="588px" viewBox="0 0 1000 588" version="1.1" xmlns="http://www.w3.org/2000/svg" xmlns:xlink="http://www.w3.org/1999/xlink">
    <title>Collaboration Work</title>
    <g id="Illustrations" stroke="none" stroke-width="1" fill="none" fill-rule="evenodd">
        <g id="Collaboration-Work">
            <g id="Background" transform="translate(209.700428, 0.000000)" fill-rule="nonzero">
                <g id="Background-Element-1" transform="translate(82.030014, -0.000000)">
                    <path d="M8.55920114,0 L407.417974,0 C412.145091,0 415.977175,3.83208488 415.977175,8.55920114 L415.977175,285.877318 C415.977175,290.604434 412.145091,294.436519 407.417974,294.436519 L8.55920114,294.436519 C3.83208488,294.436519 0,290.604434 0,285.877318 L0,8.55920114 C0,3.83208488 3.83208488,0 8.55920114,0 Z" id="Shape" fill="#CCEEFF"></path>
                    <path d="M22.253923,51.3552068 L392.867332,51.3552068 C395.703602,51.3552068 398.002853,53.6544578 398.002853,56.4907275 L398.002853,272.182596 C398.002853,275.018866 395.703602,277.318117 392.867332,277.318117 L22.253923,277.318117 C19.4176532,277.318117 17.1184023,275.018866 17.1184023,272.182596 L17.1184023,56.4907275 C17.1184023,53.6544578 19.4176532,51.3552068 22.253923,51.3552068 Z" id="Shape" fill="#FFFFFF"></path>
                    <circle id="Shape" fill="#E5F6FF" cx="52.7817404" cy="89.1583452" r="17.1184023"></circle>
                    <path d="M40.9268917,101.507556 C41.3554922,100.930548 41.9110994,100.44219 42.5676363,100.086147 L47.5474168,97.3866698 C48.0213359,97.1292596 48.3160702,96.6366305 48.3160702,96.0996198 L48.3160702,94.2639087 C47.9420703,93.7773816 46.8719841,92.261214 46.3606649,90.2490884 C45.8337158,89.8291327 45.5250264,89.1994772 45.5250264,88.5243302 L45.5250264,86.3052782 C45.5250264,85.7710414 45.7259815,85.2534472 46.0832352,84.849025 L46.0832352,81.8982404 C46.0519755,81.5931213 45.9291695,79.7762718 47.2510078,78.2778573 C48.3975687,76.978602 50.2580785,76.3195435 52.7817404,76.3195435 C55.3054022,76.3195435 57.1659121,76.978602 58.3124729,78.2784116 C59.6343112,79.7768267 59.5115053,81.5931213 59.4802456,81.8982404 L59.4802456,84.849025 C59.8374992,85.2534472 60.0384544,85.7710414 60.0384544,86.3052782 L60.0384544,88.5243302 C60.0384544,89.398082 59.5271352,90.1719765 58.7395026,90.530908 C58.3364758,91.696465 57.7821745,92.7771441 57.0905539,93.7479793 C56.9515599,93.9432553 56.8170316,94.1202254 56.6892018,94.2755585 L56.6892018,96.1512126 C56.6892018,96.7104137 57.0017986,97.2130292 57.5047448,97.4632268 L62.8373131,100.112775 C63.5408984,100.46251 64.1353146,100.957091 64.5918444,101.550367 C61.5200273,104.47881 57.3608492,106.276748 52.7817404,106.276748 C48.1803598,106.276748 44.0030048,104.461278 40.9268917,101.507556 Z" id="Combined-Shape" fill="#00A7FF"></path>
                    <path d="M66.6113054,101.514092 C69.543821,98.2340478 71.3266762,93.9044009 71.3266762,89.1583452 C71.3266762,84.4122896 69.543821,80.0826427 66.6113054,76.8025984 C69.6867724,73.852734 73.8613581,72.0399429 78.4593438,72.0399429 C87.9135763,72.0399429 95.5777461,79.7041127 95.5777461,89.1583452 C95.5777461,98.6125777 87.9135763,106.276748 78.4593438,106.276748 C73.8613581,106.276748 69.6867724,104.463956 66.6113054,101.514092 Z" id="Combined-Shape" fill="#E5F6FF"></path>
                    <path d="M68.3286521,99.2721063 C68.5052123,99.2128866 68.685222,99.1602004 68.8684367,99.1143602 L73.6985892,97.9064508 L73.9772504,96.7931619 C72.2537404,96.5053673 70.9674207,96.1002817 70.1140116,95.768398 C70.8975287,93.715132 71.3266762,91.4868552 71.3266762,89.1583452 C71.3266762,88.097174 71.2375468,87.056821 71.0663657,86.0443623 C71.0669806,85.9698588 71.0672917,85.8947261 71.0672917,85.8189601 C71.0672917,78.74449 76.2631612,76.3627718 78.6322275,76.3627718 C80.457918,76.3627718 81.1374622,76.7485842 82.0427725,77.623577 L82.4146954,77.623577 C84.9250128,77.623577 86.1971633,80.3810014 86.1971633,85.8189601 C86.1971633,92.2668388 88.4502732,94.1278167 88.4729087,94.1454294 C88.6355549,94.2753338 88.7276341,94.4782867 88.7137454,94.685082 C88.6986155,94.8918766 88.5876234,95.0822418 88.4086063,95.1869101 C88.3329572,95.2310585 86.6182582,96.229632 83.2859037,96.7906797 L83.5645656,97.90651 L88.3947767,99.1143602 C89.4659971,99.382271 90.4275999,99.8840428 91.2308538,100.557208 C88.0959893,104.067124 83.535709,106.276748 78.4593438,106.276748 C73.8613581,106.276748 69.6867724,104.463956 66.6113054,101.514092 C67.2383882,100.812695 67.8129009,100.063302 68.3286521,99.2721063 Z" id="Combined-Shape" fill="#00A7FF"></path>
                    <path d="M39.3723252,126.676177 L375.74893,126.676177 C378.5852,126.676177 380.884451,128.975428 380.884451,131.811698 C380.884451,134.647967 378.5852,136.947218 375.74893,136.947218 L39.3723252,136.947218 C36.5360555,136.947218 34.2368046,134.647967 34.2368046,131.811698 C34.2368046,128.975428 36.5360555,126.676177 39.3723252,126.676177 Z" id="Shape" fill="#E4F6FF"></path>
                    <path d="M39.3723252,155.777461 L375.74893,155.777461 C378.5852,155.777461 380.884451,158.076712 380.884451,160.912981 C380.884451,163.749251 378.5852,166.048502 375.74893,166.048502 L39.3723252,166.048502 C36.5360555,166.048502 34.2368046,163.749251 34.2368046,160.912981 C34.2368046,158.076712 36.5360555,155.777461 39.3723252,155.777461 Z" id="Shape" fill="#E4F6FF"></path>
                    <path d="M39.3723252,213.980029 L375.74893,213.980029 C378.5852,213.980029 380.884451,216.27928 380.884451,219.115549 C380.884451,221.951819 378.5852,224.25107 375.74893,224.25107 L39.3723252,224.25107 C36.5360555,224.25107 34.2368046,221.951819 34.2368046,219.115549 C34.2368046,216.27928 36.5360555,213.980029 39.3723252,213.980029 Z" id="Shape" fill="#E4F6FF"></path>
                    <path d="M39.3723252,184.878745 L375.74893,184.878745 C378.5852,184.878745 380.884451,187.177996 380.884451,190.014265 C380.884451,192.850535 378.5852,195.149786 375.74893,195.149786 L39.3723252,195.149786 C36.5360555,195.149786 34.2368046,192.850535 34.2368046,190.014265 C34.2368046,187.177996 36.5360555,184.878745 39.3723252,184.878745 Z" id="Shape" fill="#E4F6FF"></path>
                    <path d="M8.55920114,0 L407.417974,0 C412.145091,0 415.977175,3.83208488 415.977175,8.55920114 L415.977175,34.2368046 L0,34.2368046 L0,8.55920114 C0,3.83208488 3.83208488,0 8.55920114,0 Z" id="Shape" fill="#62C7FC"></path>
                    <circle id="Shape" fill="#FFFFFF" cx="23.9657632" cy="17.1184023" r="6.84736091"></circle>
                    <circle id="Shape" fill="#FFFFFF" cx="46.2196862" cy="17.1184023" r="6.84736091"></circle>
                    <circle id="Shape" fill="#FFFFFF" cx="68.4736091" cy="17.1184023" r="6.84736091"></circle>
                    <path d="M70.1854494,175.463623 L148.9301,175.463623 C150.820947,175.463623 152.35378,176.996457 152.35378,178.887304 L152.35378,191.726106 C152.35378,193.616952 150.820947,195.149786 148.9301,195.149786 L70.1854494,195.149786 C68.2946029,195.149786 66.7617689,193.616952 66.7617689,191.726106 L66.7617689,178.887304 C66.7617689,176.996457 68.2946029,175.463623 70.1854494,175.463623 Z" id="Shape" fill="#244C5A"></path>
                    <polygon id="Shape" fill="#00A7FF" points="149.78602 171.880363 149.78602 155.777461 148.07418 155.777461 148.07418 171.880363"></polygon>
                    <circle id="Shape" fill="#00A7FF" cx="148.9301" cy="155.777461" r="3.42368046"></circle>
                    <path d="M297.00428,146.36234 L341.512126,146.36234 C343.402972,146.36234 344.935806,147.895173 344.935806,149.78602 L344.935806,162.624822 C344.935806,164.515668 343.402972,166.048502 341.512126,166.048502 L297.00428,166.048502 C295.113433,166.048502 293.580599,164.515668 293.580599,162.624822 L293.580599,149.78602 C293.580599,147.895173 295.113433,146.36234 297.00428,146.36234 Z" id="Shape" fill="#00A7FF"></path>
                    <path d="M228.53067,204.564907 L307.275321,204.564907 C309.166168,204.564907 310.699001,206.097741 310.699001,207.988588 L310.699001,220.827389 C310.699001,222.718236 309.166168,224.25107 307.275321,224.25107 L228.53067,224.25107 C226.639824,224.25107 225.10699,222.718236 225.10699,220.827389 L225.10699,207.988588 C225.10699,206.097741 226.639824,204.564907 228.53067,204.564907 Z" id="Shape" fill="#F2A900"></path>
                    <polygon id="Shape" fill="#00A7FF" points="310.699001 200.981647 310.699001 184.878745 308.987161 184.878745 308.987161 200.981647"></polygon>
                    <circle id="Shape" fill="#00A7FF" cx="309.843081" cy="184.878745" r="3.42368046"></circle>
                    <path d="M39.3723252,243.081312 L315.834522,243.081312 C318.670792,243.081312 320.970043,245.380563 320.970043,248.216833 C320.970043,251.053103 318.670792,253.352354 315.834522,253.352354 L39.3723252,253.352354 C36.5360555,253.352354 34.2368046,251.053103 34.2368046,248.216833 C34.2368046,245.380563 36.5360555,243.081312 39.3723252,243.081312 Z" id="Shape" fill="#E4F6FF"></path>
                    <path d="M100.998573,233.666191 L154.065621,233.666191 C155.956467,233.666191 157.489301,235.199025 157.489301,237.089872 L157.489301,249.928673 C157.489301,251.81952 155.956467,253.352354 154.065621,253.352354 L100.998573,253.352354 C99.1077268,253.352354 97.574893,251.81952 97.574893,249.928673 L97.574893,237.089872 C97.574893,235.199025 99.1077268,233.666191 100.998573,233.666191 Z" id="Shape" fill="#0097A9"></path>
                    <polygon id="Shape" fill="#00A7FF" points="157.489301 230.082931 157.489301 213.980029 155.777461 213.980029 155.777461 230.082931"></polygon>
                    <circle id="Shape" fill="#00A7FF" cx="156.633381" cy="213.980029" r="3.42368046"></circle>
                    <polygon id="Shape" fill="#00A7FF" points="344.935806 142.779079 344.935806 126.676177 343.223966 126.676177 343.223966 142.779079"></polygon>
                    <circle id="Shape" fill="#00A7FF" cx="344.079886" cy="126.676177" r="3.42368046"></circle>
                </g>
                <g id="Trello" transform="translate(473.617803, 67.047076)">
                    <path d="M14.2653352,0 L92.724679,0 C100.603206,0 106.990014,6.38680813 106.990014,14.2653352 L106.990014,92.724679 C106.990014,100.603206 100.603206,106.990014 92.724679,106.990014 L14.2653352,106.990014 C6.38680813,106.990014 0,100.603206 0,92.724679 L0,14.2653352 C0,6.38680813 6.38680813,0 14.2653352,0 Z" id="Shape" fill="#62C7FC"></path>
                    <path d="M14.2653352,2.13980029 C7.56858723,2.13980029 2.13980029,7.56858723 2.13980029,14.2653352 L2.13980029,92.724679 C2.13980029,99.4214272 7.56858723,104.850214 14.2653352,104.850214 L92.724679,104.850214 C99.4214272,104.850214 104.850214,99.4214272 104.850214,92.724679 L104.850214,14.2653352 C104.850214,7.56858723 99.4214272,2.13980029 92.724679,2.13980029 L14.2653352,2.13980029 Z" id="Path" fill="#FFFFFF"></path>
                    <g id="Background-Element-1" transform="translate(19.681769, 18.952924)">
                        <ellipse id="Shape" fill="#2E8540" cx="33.7990372" cy="33.7885686" rx="33.7990372" ry="33.7885686"></ellipse>
                        <path d="M20.1939481,32.3058357 C18.3290121,31.0492402 15.7981952,31.5419293 14.5412104,33.4062877 C13.2842256,35.2706461 13.7770674,37.8006791 15.6420034,39.0572746 L28.9272309,48.0088723 C30.6523243,49.1712416 32.9764494,48.84683 34.3170755,47.256534 L52.0385167,26.2347604 C53.487819,24.515549 53.2685826,21.9473249 51.5488385,20.4984715 C49.8290943,19.049618 47.2600746,19.2687865 45.8107723,20.987998 L30.4462871,39.2138705 L20.1939481,32.3058357 Z" id="Shape" fill="#FFFFFF"></path>
                    </g>
                </g>
                <g id="IDea" transform="translate(0.000000, 104.850214)">
                    <path d="M14.2653352,0 L92.724679,0 C100.603206,0 106.990014,6.38680813 106.990014,14.2653352 L106.990014,92.724679 C106.990014,100.603206 100.603206,106.990014 92.724679,106.990014 L14.2653352,106.990014 C6.38680813,106.990014 0,100.603206 0,92.724679 L0,14.2653352 C0,6.38680813 6.38680813,0 14.2653352,0 Z" id="Shape" fill="#62C7FC"></path>
                    <path d="M14.2653352,2.13980029 C7.56858723,2.13980029 2.13980029,7.56858723 2.13980029,14.2653352 L2.13980029,92.724679 C2.13980029,99.4214272 7.56858723,104.850214 14.2653352,104.850214 L92.724679,104.850214 C99.4214272,104.850214 104.850214,99.4214272 104.850214,92.724679 L104.850214,14.2653352 C104.850214,7.56858723 99.4214272,2.13980029 92.724679,2.13980029 L14.2653352,2.13980029 Z" id="Path" fill="#FFFFFF"></path>
                    <g id="Light-Bulb" transform="translate(29.299572, 19.149786)">
                        <path d="M13.2776513,44.2529922 C5.42741482,40.5222957 -4.09476505e-15,32.517697 -4.09476505e-15,23.2449628 C-4.09476505e-15,10.4071243 10.4030622,-2.04818197e-14 23.2358898,-2.04818197e-14 C36.0687173,-2.04818197e-14 46.4717796,10.4071243 46.4717796,23.2449628 C46.4717796,32.517697 41.044365,40.5222957 33.1941283,44.2529922 L33.1941283,56.4520524 C33.1941283,61.9539829 28.735673,66.4141793 23.2358898,66.4141793 C17.7361065,66.4141793 13.2776513,61.9539829 13.2776513,56.4520524 L13.2776513,44.2529922 Z" id="Shape" fill="#FCBA19"></path>
                        <path d="M13.2776513,44.2529922 L33.1941283,44.2529922 C33.9274327,44.2529922 34.5218934,44.847685 34.5218934,45.5812758 L34.5218934,46.9095594 C34.5218934,47.6431507 33.9274327,48.237843 33.1941283,48.237843 L13.2776513,48.237843 C12.5443469,48.237843 11.9498862,47.6431507 11.9498862,46.9095594 L11.9498862,45.5812758 C11.9498862,44.847685 12.5443469,44.2529922 13.2776513,44.2529922 Z" id="Shape" fill="#0E143F"></path>
                        <path d="M13.2776513,50.4747763 L33.1941283,50.4747763 C33.9274327,50.4747763 34.5218934,51.0694691 34.5218934,51.8030599 L34.5218934,53.1313435 C34.5218934,53.8649342 33.9274327,54.459627 33.1941283,54.459627 L13.2776513,54.459627 C12.5443469,54.459627 11.9498862,53.8649342 11.9498862,53.1313435 L11.9498862,51.8030599 C11.9498862,51.0694691 12.5443469,50.4747763 13.2776513,50.4747763 Z" id="Shape" fill="#0E143F"></path>
                    </g>
                </g>
                <g id="Background-Element-2" transform="translate(323.109843, 312.410842)">
                    <path d="M5.70613409,0 L172.610556,0 C175.761967,0 178.31669,2.55472325 178.31669,5.70613409 L178.31669,151.212553 C178.31669,154.363964 175.761967,156.918688 172.610556,156.918688 L5.70613409,156.918688 C2.55472325,156.918688 0,154.363964 0,151.212553 L0,5.70613409 C0,2.55472325 2.55472325,0 5.70613409,0 Z" id="Rectangle" fill="#A1E0FF"></path>
                    <path d="M5.70613409,2.85306705 C4.13042867,2.85306705 2.85306705,4.13042867 2.85306705,5.70613409 L2.85306705,151.212553 C2.85306705,152.788259 4.13042867,154.065621 5.70613409,154.065621 L172.610556,154.065621 C174.186262,154.065621 175.463623,152.788259 175.463623,151.212553 L175.463623,5.70613409 C175.463623,4.13042867 174.186262,2.85306705 172.610556,2.85306705 L5.70613409,2.85306705 Z" id="Path" fill="#FFFFFF"></path>
                    <path d="M74.89301,30.6704708 L113.409415,30.6704708 C115.379047,30.6704708 116.975749,32.2671728 116.975749,34.2368046 C116.975749,36.2064363 115.379047,37.8031384 113.409415,37.8031384 L74.89301,37.8031384 C72.923378,37.8031384 71.3266762,36.2064363 71.3266762,34.2368046 C71.3266762,32.2671728 72.923378,30.6704708 74.89301,30.6704708 Z" id="Rectangle" fill="#A1E0FF"></path>
                    <path d="M74.89301,44.935806 L139.087019,44.935806 C141.05665,44.935806 142.653352,46.5325081 142.653352,48.5021398 C142.653352,50.4717715 141.05665,52.0684736 139.087019,52.0684736 L74.89301,52.0684736 C72.923378,52.0684736 71.3266762,50.4717715 71.3266762,48.5021398 C71.3266762,46.5325081 72.923378,44.935806 74.89301,44.935806 Z" id="Rectangle-Copy-4" fill="#A1E0FF"></path>
                    <path d="M74.89301,68.4736091 L113.409415,68.4736091 C115.379047,68.4736091 116.975749,70.0703112 116.975749,72.0399429 C116.975749,74.0095749 115.379047,75.6062767 113.409415,75.6062767 L74.89301,75.6062767 C72.923378,75.6062767 71.3266762,74.0095749 71.3266762,72.0399429 C71.3266762,70.0703112 72.923378,68.4736091 74.89301,68.4736091 Z" id="Rectangle" fill="#A1E0FF"></path>
                    <path d="M74.89301,82.7389444 L139.087019,82.7389444 C141.05665,82.7389444 142.653352,84.3356462 142.653352,86.3052782 C142.653352,88.2749101 141.05665,89.871612 139.087019,89.871612 L74.89301,89.871612 C72.923378,89.871612 71.3266762,88.2749101 71.3266762,86.3052782 C71.3266762,84.3356462 72.923378,82.7389444 74.89301,82.7389444 Z" id="Rectangle-Copy-4" fill="#A1E0FF"></path>
                    <path d="M74.89301,106.990014 L113.409415,106.990014 C115.379047,106.990014 116.975749,108.586716 116.975749,110.556348 C116.975749,112.52598 115.379047,114.122682 113.409415,114.122682 L74.89301,114.122682 C72.923378,114.122682 71.3266762,112.52598 71.3266762,110.556348 C71.3266762,108.586716 72.923378,106.990014 74.89301,106.990014 Z" id="Rectangle" fill="#A1E0FF"></path>
                    <path d="M74.89301,121.25535 L139.087019,121.25535 C141.05665,121.25535 142.653352,122.852051 142.653352,124.821683 C142.653352,126.791315 141.05665,128.388017 139.087019,128.388017 L74.89301,128.388017 C72.923378,128.388017 71.3266762,126.791315 71.3266762,124.821683 C71.3266762,122.852051 72.923378,121.25535 74.89301,121.25535 Z" id="Rectangle-Copy-4" fill="#A1E0FF"></path>
                    <path d="M35.6633381,28.5306705 L54.2082739,28.5306705 C55.7839793,28.5306705 57.0613409,29.8080321 57.0613409,31.3837375 L57.0613409,49.9286733 C57.0613409,51.5043787 55.7839793,52.7817404 54.2082739,52.7817404 L35.6633381,52.7817404 C34.0876327,52.7817404 32.810271,51.5043787 32.810271,49.9286733 L32.810271,31.3837375 C32.810271,29.8080321 34.0876327,28.5306705 35.6633381,28.5306705 Z" id="Rectangle" fill="#F2A900"></path>
                    <path d="M35.6633381,67.0470756 L54.2082739,67.0470756 C55.7839793,67.0470756 57.0613409,68.3244372 57.0613409,69.9001427 L57.0613409,88.4450785 C57.0613409,90.0207839 55.7839793,91.2981455 54.2082739,91.2981455 L35.6633381,91.2981455 C34.0876327,91.2981455 32.810271,90.0207839 32.810271,88.4450785 L32.810271,69.9001427 C32.810271,68.3244372 34.0876327,67.0470756 35.6633381,67.0470756 Z" id="Rectangle" fill="#0097A9"></path>
                    <path d="M35.6633381,104.850214 L54.2082739,104.850214 C55.7839793,104.850214 57.0613409,106.127576 57.0613409,107.703281 L57.0613409,126.248217 C57.0613409,127.823922 55.7839793,129.101284 54.2082739,129.101284 L35.6633381,129.101284 C34.0876327,129.101284 32.810271,127.823922 32.810271,126.248217 L32.810271,107.703281 C32.810271,106.127576 34.0876327,104.850214 35.6633381,104.850214 Z" id="Rectangle" fill="#60C9FF"></path>
                </g>
            </g>
            <g id="bg" opacity="0.5" transform="translate(0.000000, 400.855920)" fill-rule="nonzero">
                <path d="M899.318096,61.9395067 C836.081512,45.5991102 804.651241,68.2771745 733.051954,99.4290078 C661.452676,130.580841 573.037313,140.570154 472.103999,82.4321612 C371.170684,24.294168 258.07799,45.5991102 212.090524,110.474578 C181.432214,153.724891 110.735372,178.95424 0,186.162625 L1000,186.162625 C975.036455,114.24081 941.475813,72.8331041 899.318096,61.9395067 Z" id="Shape" fill="#CCEEFF"></path>
                <path d="M1.42653352,186.162625 C35.6491517,101.034661 102.60729,72.658674 202.300948,101.034661 C351.841436,143.598643 439.261459,111.675657 517.291063,47.8296845 C595.320667,-16.016288 687.014603,-24.5290843 794.949451,75.4962725 C866.90602,142.179844 935.256205,179.068628 1000,186.162625 L1.42653352,186.162625 Z" id="Shape" fill="#E5F6FF"></path>
            </g>
            <g id="Man-Standing-1" transform="translate(45.649073, 154.065621)">
                <g id="Head-Front/-Man/2" transform="translate(25.677603, 0.523864)">
                    <path d="M7.17449037,40.3564204 C4.48891473,40.3605497 1.97771683,38.6783606 1.05450407,35.9988738 C0.210514194,33.5493195 0.925797382,30.9400106 2.67358864,29.2502835 C2.21532795,26.2332703 1.79964291,23.4726255 1.42653352,20.9683492 C1.42653352,10.5696288 10.0487245,2.13980029 20.6847361,2.13980029 C31.3207476,2.13980029 39.9429387,10.5696288 39.9429387,20.9683492 L39.9429387,33.0083737 C39.9429387,41.4033452 36.3235674,48.3573837 32.2011534,50.9671581 C33.069497,54.3514196 34.2719795,57.1596092 35.8086008,59.391727 C38.6379147,63.501628 38.5894937,67.9554558 35.6633381,72.7532097 L7.84593438,72.7532097 L9.98573466,41.7192131 C9.75517553,41.5032529 7.39136034,40.573392 7.17449037,40.3564204 Z" id="Shape" fill="#FFB5B9"></path>
                    <path d="M34.2368046,26.3908702 C34.2368046,25.9969439 33.9174641,25.6776034 33.5235378,25.6776034 C33.1296115,25.6776034 32.810271,25.9969439 32.810271,26.3908702 L32.810271,31.9554496 C32.810271,32.313268 33.075386,32.6157098 33.4301223,32.6625727 C34.7548131,32.8375728 35.2944595,33.1176961 35.2944595,33.2449595 C35.2944595,33.5297857 34.6020335,34.2038683 33.1626779,35.0480905 C32.822886,35.2473879 32.7089928,35.6844061 32.9082902,36.024198 C33.1075876,36.3639899 33.5446058,36.4778831 33.8843977,36.2785857 C35.7572934,35.1800801 36.720993,34.2419103 36.720993,33.2449595 C36.720993,32.2165633 35.835116,31.6443755 34.2368046,31.3460587 L34.2368046,26.3908702 Z" id="Shape" fill="#F97A80" fill-rule="nonzero"></path>
                    <path d="M24.2584445,37.9054405 C24.720921,41.096562 27.0028306,42.4840496 30.7652496,41.979626 C31.1556827,41.9272811 31.4297573,41.5683386 31.3774123,41.1779056 C31.3250674,40.7874725 30.9661249,40.5133979 30.5756919,40.5657429 C27.5326003,40.9737269 26.0104205,40.0481838 25.6702288,37.7008362 C25.6137289,37.3109827 25.251888,37.0407463 24.8620345,37.0972462 C24.472181,37.1537461 24.2019446,37.515587 24.2584445,37.9054405 Z" id="Shape" fill="#F97A80" fill-rule="nonzero"></path>
                    <path d="M22.7779533,23.5217024 C21.0137016,24.3160639 19.4446787,24.488219 19.2734427,23.9062216 C19.1022067,23.3242243 20.3936011,22.208465 22.1578527,21.4141036 C23.9221044,20.6197421 25.4911272,20.4475869 25.6623633,21.0295844 C25.8335993,21.6115817 24.5422049,22.727341 22.7779533,23.5217024 Z M36.870733,23.9030211 C34.9048882,23.3873504 33.409368,22.4864627 33.5303949,21.890832 C33.6514218,21.2952014 35.3431655,21.230381 37.3090103,21.7460516 C39.274855,22.2617223 40.7703752,23.1626101 40.6493483,23.7582407 C40.5283214,24.3538714 38.8365777,24.4186918 36.870733,23.9030211 Z M26.0342368,29.2439372 C25.4433473,29.2439372 24.9643367,28.7649266 24.9643367,28.1740371 C24.9643367,27.5831476 25.4433473,27.1041369 26.0342368,27.1041369 C26.6251263,27.1041369 27.1041369,27.5831476 27.1041369,28.1740371 C27.1041369,28.7649266 26.6251263,29.2439372 26.0342368,29.2439372 Z M37.446505,29.2439372 C36.8556155,29.2439372 36.3766049,28.7649266 36.3766049,28.1740371 C36.3766049,27.5831476 36.8556155,27.1041369 37.446505,27.1041369 C38.0373945,27.1041369 38.5164051,27.5831476 38.5164051,28.1740371 C38.5164051,28.7649266 38.0373945,29.2439372 37.446505,29.2439372 Z M5.34100479,28.7793535 C4.99936946,28.5649866 3.71186275,28.329907 2.38506879,29.5865614 C0.545832468,24.0118593 1.08518295,20.8338573 1.23794618,17.6825799 C1.58622534,10.4981015 9.94129636,-0.717816327 23.9897299,0.700549786 C38.0381634,2.11891583 39.1726538,11.4854819 38.3006091,12.9300979 C37.4285644,14.3747138 34.8024676,16.187383 31.4102471,16.3982202 C29.1254695,16.5402263 24.6469354,16.0104803 17.9746446,14.8089822 C17.258242,17.5564605 16.4485882,19.3865713 15.5456833,20.2993147 C15.1360805,20.7133807 14.0813917,21.3057585 13.7250762,21.5210134 C13.29595,21.7802541 6.33260145,19.8929292 6.32478122,20.2825964 C6.316961,20.6722638 13.1768262,22.3459675 13.1507031,22.7084555 C13.1242555,23.0754486 13.0965403,23.4313309 13.0675575,23.7761024 C13.0343947,24.1705983 6.23213623,22.3044646 6.17012289,22.6309994 C6.10810955,22.9575342 12.8514968,24.7938884 12.8151869,25.1049742 C12.3761931,28.8660697 11.7757103,31.6142382 10.9273894,31.7873763 C9.23602076,32.1325763 7.91772932,29.3746335 5.34100479,28.7793535 Z" id="Shape" fill="#732213"></path>
                    <path d="M9.28323302,33.3897868 C6.93616427,31.1239862 4.8451077,31.4103787 3.67847359,34.2405877 C3.52834826,34.6047859 3.70188863,35.0217275 4.06608686,35.1718529 C4.4302851,35.3219782 4.84722674,35.1484379 4.99735208,34.7842397 C5.75928421,32.9358219 6.63484558,32.8159044 8.29244643,34.4161102 C8.57585785,34.6897084 9.02740328,34.6817532 9.30100143,34.3983418 C9.57459964,34.1149305 9.56664444,33.663385 9.28323302,33.3897868 Z" id="Shape" fill="#F97A80" fill-rule="nonzero"></path>
                    <path d="M31.0767619,50.6929525 C29.2400683,52.0729437 27.6529122,52.5945066 26.3055455,52.3198168 C24.8215048,52.0172631 21.3227795,50.4384962 15.909568,47.6106871 C15.5604122,47.4282914 15.1295046,47.5634773 14.9471089,47.9126332 C14.7647133,48.261789 14.8998992,48.6926966 15.2490551,48.8750923 C20.7952902,51.7723917 24.3523984,53.3775032 26.0205777,53.7175976 C27.8254312,54.085556 29.7997093,53.436779 31.9336637,51.8334424 C32.2486013,51.5968155 32.3120847,51.1496842 32.0754578,50.8347466 C31.8388309,50.519809 31.3916995,50.4563256 31.0767619,50.6929525 Z" id="Shape" fill="#F97A80" fill-rule="nonzero"></path>
                </g>
                <g id="Front-Bottom/-Standing/-Long-Pants-2" transform="translate(0.000000, 175.109904)">
                    <path d="M6.69808307,216.405641 L21.4014859,219.263692 L12.4663956,249.460782 L0.709783649,247.21277 L6.69808307,216.405641 Z M97.2875464,220.002577 L112.1545,218.177145 L112.988138,249.657379 L101.112262,251.152384 L97.2875464,220.002577 Z" id="Shape" fill="#FFB5B9"></path>
                    <path d="M0.630190558,244.909718 C1.89057168,243.667994 7.79300892,247.290325 10.251313,247.297337 C11.8901824,247.302013 12.9576466,246.518332 13.4537056,244.946297 C23.6546718,249.118841 29.6849526,251.762377 31.544548,252.876905 C33.4041434,253.991434 33.9531857,255.291143 33.1916748,256.776034 L0.630190558,256.776034 C-0.210063519,249.692971 -0.210063519,245.737533 0.630190558,244.909718 Z M99.7742703,245.074034 C101.034651,243.83231 106.937088,247.454641 109.395393,247.461654 C111.034262,247.466329 112.101727,246.682648 112.597785,245.110613 C122.798752,249.283157 128.829033,251.926693 130.688628,253.041222 C132.548223,254.15575 133.097265,255.455459 132.335755,256.94035 L99.7742703,256.94035 C98.9340164,249.857288 98.9340164,245.901849 99.7742703,245.074034 Z" id="Shape" fill="#021768"></path>
                    <path d="M59.0316887,83.6781298 L29.8671878,232.613144 L0.997249936,230.606563 L13.4705561,124.83178 L22.7184609,3.73064991 L35.866749,4.39253655 L90.3012147,0 L117.670935,131.723172 L121.532963,228.319171 L95.8229836,232.08115 C91.5984465,189.197009 88.2591683,158.689518 85.8051505,140.558678 C77.4243759,124.111408 68.4998889,105.151225 59.0316887,83.6781298 Z" id="Shape" fill="#134DBD"></path>
                    <path d="M87.2759101,17.5127071 C87.5079964,17.1944091 87.4381091,16.748234 87.119811,16.516147 C86.8015128,16.28406 86.3553374,16.3539479 86.1232511,16.6722459 L62.8457096,48.5964647 C62.7765531,48.6913101 62.7318729,48.8017572 62.7156323,48.9180092 L57.9551222,82.994291 C57.9006193,83.3844287 58.1727051,83.7448809 58.5628428,83.7993837 C58.9529805,83.8538866 59.3134329,83.581801 59.3679357,83.1916633 L64.1037081,49.292457 L87.2759101,17.5127071 Z" id="Shape" fill="#0E143F" fill-rule="nonzero"></path>
                </g>
                <g id="Front-body/-Man/-Pose2/-Shirt" transform="translate(1.426534, 0.236715)">
                    <path d="M61.3746312,59.4965695 C66.5947839,58.3814898 97.6375785,61.022199 115.048944,62.3409121 C120.53884,62.7567093 126.221988,90.0443819 120.709591,91.583226 C112.434983,93.8931704 100.659745,95.9225205 89.8050086,97.261441 C90.9246805,112.690378 90.0815442,129.22684 91.6469123,140.16433 C94.3546369,159.083657 102.991029,168.254073 98.4468802,179.150482 C94.8483267,187.779449 33.1931315,193.564437 22.6457526,184.408364 C15.984915,178.626159 21.813852,164.088676 24.3140551,152.327688 C22.2736376,145.896559 19.9245902,137.976448 16.7824243,130.065332 C16.2709213,128.777507 12.8279322,131.499708 11.0271899,127.704133 C9.22644772,123.908559 -1.60907389,89.9447241 0.427391797,84.2482519 C2.36171469,78.8374972 4.35239365,74.6391827 7.34516797,72.2924862 C8.26310478,71.2014755 9.4725398,70.1599635 11.0430935,69.1507511 C13.1818575,67.7764159 20.2073897,64.8767304 32.11969,60.4516945 C32.6775631,60.2444626 33.1767994,58.9594281 33.6173987,56.596591 C37.573644,60.2843123 45.3767846,64.7334892 57.026821,69.944122 C57.744229,63.4689653 57.9777404,58.5606795 57.7273552,55.2192644 C58.8833138,57.5825004 60.099072,59.0082688 61.3746312,59.4965695 L61.3746312,59.4965695 Z" id="Shape" fill="#0097A9"></path>
                    <path d="M53.4897767,114.326757 L48.7447033,123.291511 L40.2388024,119.792651 C39.8727533,119.642078 39.4580172,119.826989 39.3124637,120.205661 C39.1669102,120.584333 39.3456574,121.01337 39.7117068,121.163943 L48.8038024,124.903931 C49.1385321,125.041621 49.5199665,124.899511 49.6929708,124.572659 L54.8625335,114.805928 C54.9411441,114.65741 54.9679857,114.485442 54.9385542,114.318878 L52.6553117,101.397158 C52.5774173,100.956327 52.1407553,100.68852 51.7295078,100.829358 L36.8657093,105.919686 C36.4917424,106.047756 36.2889434,106.465192 36.4127448,106.852054 C36.5365462,107.238916 36.9400672,107.448708 37.314034,107.320638 L51.3994593,102.496876 L53.4897767,114.326757 Z" id="Shape" fill="#0E143F" fill-rule="nonzero"></path>
                    <path d="M72.4962258,183.282004 C72.2718645,138.394915 71.1874208,111.49938 69.2270136,102.474162 C67.271174,93.4699745 63.6537924,82.9958953 58.3761063,71.0471831 C58.2123923,70.6765327 57.7892197,70.5133544 57.4309244,70.6827142 C57.0726291,70.8520739 56.9148902,71.2898386 57.0786041,71.6604889 C62.3180977,83.5227338 65.9032126,93.9033838 67.8351854,102.797697 C69.7625906,111.670981 70.8460471,138.542038 71.0696919,183.289633 C71.071729,183.697138 71.3927161,184.025777 71.7866369,184.02369 C72.1805585,184.021563 72.4982432,183.689508 72.4962258,183.282004 Z" id="Shape" fill="#0E143F" fill-rule="nonzero"></path>
                    <path d="M57.7936476,72.0885044 C58.1858688,72.05063 58.4741469,71.6910044 58.437535,71.2852582 C58.400923,70.8795121 58.0532846,70.5812932 57.6610635,70.6191676 L50.3658324,71.3236248 C50.1528752,71.3441888 49.9600777,71.4625285 49.8405756,71.6460296 L44.7933053,79.3963352 L32.8017417,60.1358743 L33.9618122,57.4435172 C34.1221879,57.0713081 33.960521,56.6350796 33.6007188,56.4691736 C33.2409166,56.3032677 32.8192291,56.4705094 32.6588534,56.8427185 L31.341744,59.8995402 C31.2437568,60.1269542 31.2632449,60.3901526 31.3935695,60.5994758 L44.1802618,81.1370456 C44.4576769,81.5826207 45.0852126,81.5893255 45.3714643,81.1497728 L50.8348702,72.7604722 L57.7936476,72.0885044 Z" id="Shape" fill="#0E143F" fill-rule="nonzero"></path>
                    <path d="M61.7384665,68.0747153 C61.5096926,67.9625854 61.240607,67.9842997 61.0314087,68.1317725 L57.3256961,70.7440882 C57.0001669,70.9735678 56.916102,71.4325912 57.1379322,71.7693456 C57.3597625,72.1061 57.803485,72.1930634 58.129015,71.9635839 L61.4969993,69.5893468 L68.3744501,72.9602207 C69.029612,73.2813381 69.6763067,72.5039387 69.2717033,71.881622 L58.4570606,55.2477238 C58.237214,54.90958 57.7940107,54.8198267 57.4671384,55.047254 C57.140266,55.2746814 57.053505,55.7331674 57.2733509,56.0713112 L66.6391041,70.4766854 L61.7384665,68.0747153 Z" id="Shape" fill="#0E143F" fill-rule="nonzero"></path>
                    <path d="M88.4685228,89.2370949 C89.4553709,93.8588196 89.8478823,99.3832796 89.3690264,103.536116 C89.322368,103.940758 89.6016362,104.307913 89.9927896,104.35618 C90.3839429,104.404448 90.7388595,104.115549 90.7855178,103.710908 C91.2848923,99.3801235 90.8807939,93.6925767 89.8614786,88.9187995 C89.7765136,88.5208813 89.3958124,88.2695577 89.0111576,88.3574525 C88.6265036,88.4453474 88.3835578,88.8391767 88.4685228,89.2370949 Z" id="Shape" fill="#0E143F" fill-rule="nonzero"></path>
                    <path d="M168.904007,16.1093219 C170.202706,11.6041455 172.082238,7.10663203 172.891526,6.12268131 C173.700813,5.13873053 174.396841,5.57679679 174.97961,7.43688003 C180.321132,2.37314194 183.39415,0.0589942939 184.198665,0.494436876 C185.802467,1.3624928 180.669171,6.46538217 180.351555,7.67305649 C181.31671,7.39763566 182.164914,6.71038659 183.196274,7.70907653 C183.883847,8.37486983 183.606248,9.44448459 182.363478,10.9179208 C183.659042,9.99247974 184.959979,9.70648887 185.525045,10.5448461 C186.090111,11.3832033 186.323225,12.1063877 184.329841,13.8353034 C183.600557,14.4678311 185.862763,13.4592051 186.197412,14.3840536 C186.532062,15.3089021 186.532062,15.930497 184.668291,17.2088327 C182.064088,18.9950213 178.977059,20.2023568 175.316181,20.750519 L174.130509,22.5756897 C174.391275,22.8955867 135.751612,84.2466968 131.200948,85.4502415 C130.174002,85.7218448 127.657169,86.5790362 122.958553,87.8971657 C122.505656,77.9098854 122.104225,73.589483 117.288357,63.9074003 C122.030173,64.2611744 124.816851,64.5162223 126.216267,64.5105672 C128.155568,55.1363349 151.491307,37.6973825 168.904007,16.1093219 Z M38.9937173,121.24259 C39.7047132,124.009813 40.9443324,128.571648 41.5473053,131.096521 C50.0314287,122.237175 84.0642703,104.47836 87.48952,101.474053 L91.907291,97.5373305 C96.9983474,93.0117732 100.166285,90.6971082 101.411103,90.5933354 C102.655923,90.4895626 101.737038,92.6136457 98.6544494,96.9655846 C107.563815,97.4680059 112.154116,98.1674159 112.425353,99.0638146 C112.966064,100.850787 105.848265,100.704122 104.798187,101.325743 C105.668914,101.836993 114.096546,103.017751 114.143816,104.47836 C114.17428,105.452099 110.794167,105.656616 104.002847,105.09191 C109.814676,106.706548 112.575632,107.933354 112.285713,108.772329 C111.850835,110.030792 105.990451,108.828798 103.399138,108.593186 C102.451101,108.506986 108.982647,110.982961 108.587112,111.881721 C108.191577,112.78048 105.921359,112.127397 101.332529,111.226204 C98.2733074,110.625408 95.2620364,109.179867 92.2987154,106.889581 C56.4573973,148.4498 39.0432497,164.668926 34.5485959,161.039351 C30.801761,158.013663 22.5851214,144.546151 16.4051355,129.408899 C29.3250778,129.408899 40.3602967,119.560054 38.9937173,121.24259 Z" id="Shape" fill="#FFB5B9"></path>
                    <path d="M40.1564615,120.365658 C41.9860563,119.045398 42.6387175,117.213485 42.0501883,115.029993 C41.3580742,112.462193 40.5133673,110.751124 38.7114516,107.827341 C38.6866041,107.787024 38.3559439,107.251353 38.2590825,107.09385 C36.7294234,104.606526 35.931632,103.040579 35.2248118,100.861405 C35.0995009,100.475064 34.6951643,100.266959 34.3217005,100.396591 C33.9482368,100.526223 33.7470692,100.944502 33.8723801,101.330844 C34.6235579,103.646775 35.4690293,105.306312 37.0554755,107.885975 C37.1531126,108.044739 37.484315,108.581288 37.5085857,108.62067 C39.2409797,111.431647 40.0303217,113.030567 40.6760713,115.426351 C41.1005763,117.001298 40.6767439,118.190927 39.3403157,119.155311 C39.0172287,119.388455 38.9380153,119.848401 39.1633878,120.182629 C39.3887603,120.516857 39.8333745,120.598802 40.1564615,120.365658 Z" id="Shape" fill="#0E143F" fill-rule="nonzero"></path>
                </g>
            </g>
            <g id="Man-Standing-1" transform="translate(835.659058, 365.793153) scale(-1, 1) translate(-835.659058, -365.793153) translate(732.659058, 144.793153)">
                <g id="Head-Back/-Man/1-" transform="translate(57.645725, 1.206847)">
                    <path d="M31.5651205,58.738594 C31.1256194,63.6594024 31.1054058,66.5236866 31.5044797,67.3314465 C32.359108,69.0612879 36.0238462,75.42824 31.3619088,80.7963251 C26.6999715,86.1644103 8.95986962,89.252898 3.56126248,80.608125 C3.83904328,74.1357731 5.68130514,63.153542 9.08804803,47.6614317 C6.82279794,45.7009469 5.26334852,43.6932974 4.97628385,41.8287472 C4.19890602,36.7795018 3.01393735,32.1441398 1.42137784,27.9226611 C1.42137784,17.5899409 10.0375717,9.21361602 20.6661856,9.21361602 C31.2947993,9.21361602 39.9109933,17.5899409 39.9109933,27.9226611 L39.9109933,39.8862682 C39.9109933,50.2189885 38.6635387,58.4254663 33.4832338,58.8815532 C32.9879934,58.9251554 32.3375623,58.8737883 31.5651205,58.738594 L31.5651205,58.738594 Z" id="Shape" fill="#944300"></path>
                    <path d="M31.8368082,62.630789 C31.8657514,58.1000616 31.80945,55.4589152 31.6575737,54.5923237 C31.6439884,54.5148076 31.6304288,54.4526955 31.6122422,54.3941888 C31.5918831,54.3278158 31.5918831,54.3278158 31.5185946,54.1922949 C31.3239764,53.9029094 31.3239764,53.9029094 30.5389542,53.9695698 C30.2406156,54.2755795 30.2406156,54.2755795 30.2193792,54.3908522 C30.1985945,54.4740163 30.1985945,54.4740163 30.1907093,54.5281893 C30.1830591,54.5836692 30.1781465,54.6466363 30.1745959,54.7234002 C30.1630299,54.9734508 30.1648018,55.4287043 30.1791904,56.1036848 C30.2074292,57.4283911 30.2849845,59.6114924 30.4118929,62.6556417 C30.4503256,63.5775251 31.8309141,63.5534455 31.8368082,62.630789 Z" id="Shape" fill="#4A2D00" fill-rule="nonzero"></path>
                    <path d="M8.35883617,51.229805 C17.4369423,52.5437908 22.5575968,52.3136023 23.7207994,50.5392393 C25.4656035,47.8776947 23.3036227,35.9344333 28.8492455,33.5534922 C34.3948684,31.1725512 34.384154,38.3839672 36.0743461,38.0409582 C37.7645382,37.6979492 33.7861118,23.4925805 38.9375608,22.6868099 C40.3837152,22.4606078 41.6847253,22.1476713 42.8405911,21.7480004 C52.8899676,18.2731649 58.5709952,12.5446625 56.6448642,8.5658166 C55.3607768,5.9132527 50.6010132,5.22263408 42.3655733,6.49396075 C45.5081528,1.97609711 44.0547085,-0.18445032 38.0052401,0.0123184416 C32.8578788,0.179744714 19.9871699,6.45879987 12.8365935,7.02474545 C8.06954259,7.40204251 5.37449015,9.88237238 4.75143618,14.4657351 C1.82476804,15.6933359 0.245421665,18.6867626 0.0133970598,23.4460152 C-0.218627545,28.2052679 2.5631855,37.4665311 8.35883617,51.229805 Z" id="Shape" fill="#441006"></path>
                    <path d="M33.8412106,37.8037228 C31.4957743,35.552303 29.4061721,35.8368779 28.2403495,38.6491237 C28.0903286,39.0110104 28.2637483,39.4253057 28.6276932,39.5744782 C28.9916381,39.7236507 29.4082897,39.5512118 29.5583106,39.1893251 C30.3197128,37.3526392 31.1946652,37.2334829 32.8511131,38.8235322 C33.1343274,39.0953938 33.5855588,39.0874891 33.8589666,38.8058766 C34.1323745,38.524264 34.1244249,38.0755845 33.8412106,37.8037228 Z" id="Shape" fill="#4A2D00" fill-rule="nonzero"></path>
                </g>
                <g id="Back-Bottom/-Standing/-Long-Pants" transform="translate(32.810271, 184.382372)" fill-rule="nonzero">
                    <path d="M6.69808307,216.405641 L21.4014859,219.263692 L12.4663956,249.460782 L0.709783649,247.21277 L6.69808307,216.405641 Z M97.2875464,220.002577 L112.1545,218.177145 L112.988138,249.657379 L101.112262,251.152384 L97.2875464,220.002577 Z" id="Shape" fill="#944300"></path>
                    <path d="M58.7540601,72.4156091 L20.8869429,234.664765 L1.42483182,231.162254 C4.87695306,165.384448 11.3643234,129.667118 20.8869429,124.010267 C15.7154394,87.010189 16.3259454,46.9169837 22.7184609,3.73064991 L35.866749,4.39253655 L90.3012147,-2.02722606e-14 L114.122682,122.356543 L113.625916,235.744171 L95.5257803,239.204021 C85.2975777,175.909734 84.2190399,140.443123 92.2901662,132.804188 C82.0832489,116.387364 70.9045466,96.2578381 58.7540601,72.4156091 Z" id="Shape" fill="#134DBD"></path>
                    <path d="M0.630190558,244.360767 C1.89057168,243.119044 7.79300892,246.741374 10.251313,246.748387 C11.8901824,246.753062 12.9576466,245.969382 13.4537056,244.397347 C23.6546718,248.56989 29.6849526,251.213427 31.544548,252.327955 C33.4041434,253.442483 33.9531857,254.742193 33.1916748,256.227083 L0.630190558,256.227083 C-0.210063519,249.144021 -0.210063519,245.188582 0.630190558,244.360767 Z M99.7742703,245.074034 C101.034651,243.83231 106.937088,247.454641 109.395393,247.461654 C111.034262,247.466329 112.101727,246.682648 112.597785,245.110613 C122.798752,249.283157 128.829033,251.926693 130.688628,253.041222 C132.548223,254.15575 133.097265,255.455459 132.335755,256.94035 L99.7742703,256.94035 C98.9340164,249.857288 98.9340164,245.901849 99.7742703,245.074034 Z" id="Shape" fill="#021768"></path>
                </g>
                <g id="Back-body/-Man/-Pose1/-Vest" transform="translate(0.000000, 0.236715)">
                    <path d="M187.903678,15.269965 C188.817871,10.66484 189.636623,7.83569108 190.359932,6.78251833 C191.083242,5.72934558 191.813529,6.10299016 192.550792,7.90345214 C197.445366,2.37738552 200.311723,-0.205022896 201.149862,0.156226819 C202.820695,0.876378959 198.136854,6.42267397 197.922194,7.6543893 C198.860472,7.29299708 199.647548,6.53188816 200.759123,7.4337893 C201.500173,8.0350567 201.313745,9.12562989 200.199842,10.7055088 C201.412507,9.66677981 202.236296,9.5319311 202.671209,10.3009626 C203.323579,11.4545098 204.244651,11.5324379 202.404514,13.4345003 C201.731296,14.1303741 203.899917,12.9216233 204.311211,13.81278 C204.722506,14.7039369 206.642884,13.7074892 203.025898,16.7646773 C200.614573,18.8028028 197.608529,20.259938 194.007764,21.1360831 L187.98979,32.4125989 L180.706606,27.4372067 L187.903678,15.269965 Z" id="Shape" fill="#944300"></path>
                    <path d="M118.651471,103.123971 C120.758708,123.045247 119.319425,143.02381 121.149663,155.811989 C122.69499,166.609451 128.350237,168.426534 130.133103,173.255404 C131.474177,176.887688 112.423816,196.957823 93.4264586,202.297211 C74.4291013,207.636598 62.9813695,201.843489 51.8896898,193.794684 C51.0933252,193.216793 50.7645655,191.74113 50.7400407,189.650277 C40.0762283,183.602552 1.19474222,161.689717 0.03977903,152.592005 C-1.25047053,142.428634 29.1968898,81.1922002 40.4005588,78.3659134 C40.490174,78.3433067 40.579458,78.3223716 40.6684108,78.3031083 C43.3114307,76.7450315 50.3952713,73.6623277 61.9199322,69.0549968 C61.9199322,68.3772899 61.8915044,63.7488221 63.1387868,64.0835213 C68.076018,65.4083916 87.2993902,64.3249958 89.123112,64.0835213 C90.9468345,63.8420468 90.3279693,70.0530579 90.2023973,68.3772899 C98.1931726,68.8669028 104.055345,69.8927571 107.788916,71.4548528 C125.095004,67.912336 145.492601,65.3952181 149.098172,67.6194294 C150.987434,54.1190244 166.730877,46.6253688 184.543596,18.4483301 C186.682926,15.0642316 190.526305,16.309857 196.073731,22.1852062 C180.841347,58.528772 160.093673,90.2290153 159.676754,90.6051836 C154.798328,95.0067754 135.723912,100.474774 118.651471,103.123971 L118.651471,103.123971 Z M43.350829,126.336214 C36.6099537,135.396241 30.4659936,141.825871 24.9189486,145.625103 C33.7925372,154.353476 36.8014312,157.298839 52.458729,174.987225 C53.8632971,166.196478 55.4425267,156.497387 54.289624,150.917877 C52.9423049,144.397484 47.863951,135.84757 43.350829,126.336214 L43.350829,126.336214 Z" id="Shape" fill="#89D8FF"></path>
                    <path d="M62.203333,67.1407297 C65.0871982,68.6042994 76.215868,70.7219949 90.2935549,66.7600899 C90.7118146,67.0180727 101.034335,68.4437807 107.679092,71.4670182 C101.805593,77.3543734 102.710414,113.255034 110.792947,117.64688 C118.875481,122.038725 119.023236,106.927691 119.17787,109.011162 C120.506677,126.914956 119.499879,144.284672 121.149663,155.811989 C122.69499,166.609451 128.350237,168.426534 130.133103,173.255404 C131.474177,176.887688 112.423816,196.957823 93.4264586,202.297211 C74.4291013,207.636598 62.9813695,201.843489 51.8896898,193.794684 C47.6561966,190.722601 56.6372674,162.279371 54.289624,150.917877 C51.9419805,139.556383 38.2663522,122.032956 35.9915266,103.998119 C34.458835,91.846928 30.8398726,84.6076619 40.2870307,78.5370707 C43.7205411,76.3307524 59.62128,67.5362757 62.203333,67.1407297 Z" id="Shape" fill="#134DBD"></path>
                    <path d="M117.310847,102.351689 C114.607767,103.789205 113.059068,104.922934 112.581332,105.912004 C111.348498,108.464373 111.216607,110.798245 111.745032,112.731011 C111.854671,113.132029 111.968553,113.423003 112.053648,113.593517 C112.234355,113.955619 112.664605,114.097618 113.014637,113.910679 C113.36467,113.72374 113.501935,113.278654 113.321228,112.916552 C113.278291,112.830516 113.200126,112.630798 113.117719,112.329386 C112.681618,110.734306 112.792233,108.776926 113.85743,106.57162 C114.146319,105.973525 115.542668,104.951324 117.963062,103.664142 C118.313406,103.477827 118.451412,103.032986 118.271307,102.670562 C118.091203,102.308138 117.66119,102.165374 117.310847,102.351689 Z" id="Shape" fill="#0E143F" fill-rule="nonzero"></path>
                    <path d="M51.7925224,194.977073 C54.3897611,198.748546 63.7920058,202.05079 80.1883245,205.08852 C80.5760813,205.160359 80.9467161,204.893418 81.0161612,204.49229 C81.0856056,204.091163 80.8275628,203.707747 80.439806,203.635907 C64.4620733,200.675728 55.2372407,197.435796 52.9543757,194.120827 C50.6752259,190.811252 50.6752259,185.615666 53.047684,178.505049 L53.0692683,178.426511 C56.6962121,161.776101 56.098609,148.965096 51.2270977,139.998617 C46.478369,131.258132 42.4238468,121.790112 39.0637668,111.594013 C38.936657,111.208301 38.5313552,111.002215 38.1584999,111.133708 C37.7856447,111.265201 37.5864286,111.684479 37.7135384,112.070191 C41.1013046,122.350303 45.19122,131.900973 49.9835202,140.721655 C54.6492538,149.30938 55.2332501,161.754598 51.686268,178.062419 C49.1915762,185.558874 49.1960521,191.206715 51.7925224,194.977073 Z" id="Shape" fill="#0E143F" fill-rule="nonzero"></path>
                    <path d="M187.173888,24.6435006 C190.030929,25.7935681 191.714368,27.1840972 192.278128,28.7663325 C192.414367,29.1486954 192.824444,29.3444106 193.194061,29.2034745 C193.563678,29.0625384 193.752869,28.6383207 193.616631,28.2559577 C192.885154,26.2030109 190.892036,24.5566855 187.691197,23.2682261 C187.324085,23.1204493 186.910678,23.3085183 186.767827,23.6882898 C186.624976,24.0680614 186.806776,24.4957238 187.173888,24.6435006 Z" id="Shape" fill="#0E143F" fill-rule="nonzero"></path>
                </g>
            </g>
            <g id="Woman-Kneeling-1" transform="translate(237.000000, 263.000000)">
                <g id="Back-Bottom/-Sit/-Pants1" transform="translate(0.000000, 162.006948)">
                    <path d="M258.39808,118.155635 C257.572865,125.481083 256.146133,137.292922 254.117887,153.591154 L243.757538,154.244491 C241.969042,140.227596 239.986345,128.19579 238.081014,117.685752 C231.442438,81.0665531 266.08905,49.8828802 258.39808,118.155635 Z M47.1319988,152.425854 C39.0756206,151.004115 25.8774694,148.586073 7.53754516,145.171728 L8.33052983,134.851611 C21.5975469,134.258434 34.0417145,133.027659 45.5025716,131.759717 C75.4888006,128.442268 108.086959,163.182802 47.1319988,152.425854 Z" id="Shape" fill="#F79474"></path>
                    <path d="M155.434691,75.7030077 C152.255804,125.819003 148.777759,152.535159 145.000559,155.851475 C140.267906,160.006661 97.5267832,163.626618 23.8571224,150.111898 C17.4943924,148.944654 17.8666005,133.724531 23.8571224,133.210068 C62.8442274,129.861873 98.8715626,120.674311 115.225292,128.974668 C109.725014,115.023585 89.4039862,34.9524507 88.2764525,22.7791966 C86.8386373,7.25603356 110.333805,3.74470488 158.761957,12.2452107 C158.705282,13.5272009 158.648497,14.8006287 158.591604,16.0654942 C219.190308,1.90032426 252.857353,-2.89762502 259.592737,1.67164645 C267.056134,6.73480034 266.983837,55.2960491 257.35555,134.882151 C256.657911,140.648734 238.738196,138.103422 238.606606,133.338406 C237.230572,83.5106986 227.367573,62.8506741 235.301428,40.1227358 C214.096531,52.1044276 186.486873,62.6070742 155.434691,75.7030077 L155.434691,75.7030077 Z" id="Shape" fill="#021768"></path>
                    <path d="M154.924844,74.5687309 C141.950117,80.0430005 133.978359,82.3536748 131.358873,81.5195652 C130.986394,81.4009585 130.588005,81.6058702 130.469047,81.9772482 C130.350088,82.3486261 130.555608,82.7458372 130.928087,82.8644438 C134.030295,83.8522642 142.096723,81.514149 155.476671,75.8689096 C155.836771,75.7169773 156.005158,75.302757 155.852775,74.9437226 C155.700392,74.5846882 155.284944,74.4167987 154.924844,74.5687309 Z" id="Shape" fill="#0E143F" fill-rule="nonzero"></path>
                    <path d="M11.7785838,133.117942 C13.0111263,134.365306 9.41557693,140.206782 9.4086163,142.639696 C9.4039759,144.261639 10.181862,145.318079 11.7422744,145.809015 C9.90687158,149.786792 8.61677136,152.644315 7.87197371,154.381582 C10.5257819,156.331258 12.4390511,158.388261 11.7422744,159.547399 C10.6359864,161.387789 9.34588611,161.93116 7.87197371,161.177514 L0,158.167539 L0,133.117942 C7.03069421,132.286366 10.9568888,132.286366 11.7785838,133.117942 Z M242.051232,146.868802 C243.302295,145.639904 249.161093,149.224823 251.601222,149.231763 C253.227974,149.23639 254.287546,148.460803 254.779937,146.905004 C264.905483,151.034453 270.89118,153.650687 272.737026,154.753705 C274.582873,155.856721 275.127855,157.143008 274.371975,158.612562 L242.051232,158.612562 C241.217191,151.602655 241.217191,147.688068 242.051232,146.868802 Z" id="Shape" fill="#191844"></path>
                </g>
                <g id="Back-body/-Woman/-Pose1/-Shirt" transform="translate(44.603575, 0.234271)">
                    <path d="M37.9778795,77.5565413 C26.8570442,80.3536379 -0.572716909,141.05573 0.707993259,151.114133 C1.98870343,161.172534 47.2111531,186.960789 50.7024233,189.102888 C54.1936935,191.244987 61.4001646,186.132596 57.9603325,182.235849 C35.1782225,156.427582 30.3775894,155.848637 20.2320176,145.898601 C27.4670206,137.547616 38.5129298,121.960525 53.3697452,99.1373263 C50.5223917,82.8854052 45.3917698,75.6918102 37.9778795,77.5565413 Z" id="Shape" fill="#F79474"></path>
                    <path d="M179.748603,6.71246771 C180.466565,5.67017224 181.191452,6.03995778 181.923265,7.82182439 C186.781651,2.35283161 189.626815,-0.202905396 190.458758,0.15461329 C192.117237,0.867327617 187.468027,6.35633986 187.254954,7.5753339 C188.186295,7.21767417 188.967551,6.46442607 190.070908,7.35701228 C190.806479,7.95206972 190.62143,9.03137934 189.515762,10.5949411 C190.719461,9.56694021 191.537159,9.43348423 191.968857,10.194573 C192.616404,11.3362063 193.530666,11.4133296 191.704134,13.2957472 C191.035893,13.984434 193.18848,12.7881673 193.596734,13.6701201 C194.004988,14.5520729 195.911168,13.5659167 192.320924,16.5915298 C190.112957,18.4522535 187.402637,19.8236723 184.189964,20.7057864 C184.590192,21.0959051 149.706116,89.2971198 149.292279,89.6694029 C140.97449,97.1519947 90.4374241,101.87075 80.454664,96.0936912 C70.4719038,90.3166326 66.0832306,90.9763956 72.6577926,78.7356413 C75.4452789,73.5457992 133.628859,65.9140133 139.879656,69.7586157 C141.75495,56.3976445 156.663092,48.8679223 176.515339,16.4525804 C178.192207,10.6540356 179.269961,7.40733138 179.748603,6.71246771 Z" id="Shape" fill="#F79474"></path>
                    <path d="M110.793939,101.70086 C113.120281,105.485655 113.79559,109.226743 112.957121,116.046499 C112.079368,123.185781 107.358698,134.42839 108.787889,147.035479 C110.217079,159.642569 118.197373,166.687005 119.967058,171.466003 C121.298217,175.060771 102.388704,194.92362 83.5318023,200.207862 C64.674901,205.492104 53.3118074,199.758827 42.3021335,191.79315 C38.0999405,188.752797 54.0945428,160.603331 51.7642565,149.35918 C50.4330648,142.935883 44.6513597,134.958009 39.517387,125.970484 C36.792015,129.478189 34.4589644,132.195032 32.5182351,134.121012 C30.0683718,136.552256 9.34357331,129.801133 8.80975636,119.647016 C8.79016302,119.273553 31.1177,79.2820039 37.9778795,77.5565413 C38.0577989,77.5364401 38.137453,77.5176743 38.2168417,77.500244 C40.6128107,75.9601356 45.2932695,72.9073172 52.2582179,68.3417889 C52.9754473,69.0083609 52.4955873,65.2577281 53.580176,65.7320505 C59.8508709,68.4744089 75.0278078,65.9189848 79.4744473,64.5161713 C80.5751864,64.168913 81.1045373,67.8052558 81.0395712,66.94084 C88.7886742,67.7272788 94.4561468,68.9687174 98.0419875,70.6651558 C109.119093,68.4147969 121.427526,66.5924555 129.70265,66.1791036 C134.219337,65.9534899 139.256413,94.9541589 130.36933,97.403501 C124.279968,99.0817717 117.439626,100.589607 110.793939,101.70086 L110.793939,101.70086 Z" id="Shape" fill="#F2A900"></path>
                    <path d="M33.7747964,120.042758 C39.1553321,127.865176 44.2072121,136.110236 48.9304191,144.778043 C51.363306,149.242763 50.9876152,156.050342 48.4107633,165.636475 C47.7885467,167.95118 47.0662021,170.346029 46.0986067,173.364675 C45.7817552,174.353169 44.3906884,178.62496 44.0435609,179.713673 C43.3055709,182.028266 42.7905684,183.759576 42.399966,185.283769 C41.4040684,189.169919 41.2552204,191.58723 42.2056845,192.963327 C44.7837206,196.695849 54.1164504,199.963986 70.3915437,202.970342 C70.7764336,203.04144 71.1443282,202.777255 71.2132598,202.380271 C71.2821907,201.983286 71.0260558,201.60383 70.6411659,201.532732 C54.7815637,198.603126 45.6249345,195.396657 43.3589477,192.115925 C42.7529687,191.238578 42.8840371,189.110009 43.7689376,185.656989 C44.1509394,184.166357 44.6586954,182.459408 45.3886772,180.169931 C45.7340446,179.086738 47.1246318,174.81642 47.4430228,173.823123 C48.4172362,170.783831 49.1458668,168.368141 49.7752746,166.026684 C52.4462954,156.090235 52.8392168,148.970433 50.1648024,144.062473 C45.4175217,135.350486 40.3391491,127.062189 34.9296674,119.197688 C34.7034176,118.868757 34.2614791,118.791282 33.9425703,119.024642 C33.6236614,119.258001 33.5485465,119.713827 33.7747964,120.042758 Z" id="Shape" fill="#0E143F" fill-rule="nonzero"></path>
                    <path d="M53.6875104,69.8983379 C59.2819684,72.7574205 65.7714983,72.9164806 73.1196421,70.4001703 C73.4907375,70.2730918 73.6916907,69.8597884 73.5684843,69.4770314 C73.4452772,69.0942744 73.0445658,68.8870061 72.6734704,69.0140847 C65.6600913,71.4157578 59.5531446,71.2660749 54.3161728,68.5896879 C53.965809,68.4106323 53.5410522,68.5584303 53.3674518,68.919804 C53.1938515,69.2811778 53.3371466,69.7192823 53.6875104,69.8983379 Z" id="Shape" fill="#0E143F" fill-rule="nonzero"></path>
                    <path d="M107.239602,101.294589 C104.556507,102.717258 103.019259,103.839278 102.545055,104.818132 C101.321336,107.344141 101.19042,109.653908 101.714938,111.566713 C101.823767,111.963588 101.936806,112.251558 102.021272,112.42031 C102.200644,112.778673 102.627712,112.919205 102.975156,112.734197 C103.322601,112.549189 103.458852,112.108699 103.27948,111.750337 C103.236861,111.665189 103.159274,111.467534 103.077476,111.169235 C102.6446,109.590629 102.754397,107.653466 103.811718,105.470937 C104.098471,104.879019 105.484497,103.867375 107.886996,102.593487 C108.234749,102.409096 108.371734,101.96885 108.192962,101.610169 C108.014189,101.251488 107.587355,101.110198 107.239602,101.294589 Z" id="Shape" fill="#0E143F" fill-rule="nonzero"></path>
                </g>
                <g id="Head-Back/-Women/-4" transform="translate(62.303407, 3.342054)">
                    <path d="M50.9713791,7.05900061 C61.5287538,7.05900061 70.0871971,15.4017649 70.0871971,25.6930861 L70.0871971,37.6087599 C70.0871971,47.9000812 64.9570046,56.602977 63.7025201,56.5284202 C63.5253242,56.5177529 62.856349,56.3217278 61.8347933,55.9716621 C61.362148,61.1262685 61.3295978,64.1170627 61.7370288,64.9439765 L61.8381593,65.1459913 C62.8353918,67.1185783 66.0607221,73.1992789 61.5954135,78.3549068 C56.9647231,83.7014842 39.3435256,86.7775976 33.981103,78.1674607 C35.9913059,71.889043 39.0131717,61.6113245 43.0467005,47.3343042 C38.9510249,44.8119332 35.77535,42.0750683 35.3866401,39.5434562 C34.6144727,34.514441 33.4374463,29.897651 31.8555611,25.6930861 C31.8555611,15.4017649 40.4140043,7.05900061 50.9713791,7.05900061 Z" id="Shape" fill="#F79474"></path>
                    <path d="M62.0671299,60.2621526 C62.095879,55.749578 62.039955,53.1190136 61.8890966,52.2558942 C61.8756024,52.1786886 61.8621337,52.1168254 61.844069,52.0585532 C61.8238463,51.9924461 61.8238463,51.9924461 61.7510491,51.8574682 C61.5577353,51.5692421 61.5577353,51.5692421 60.7779748,51.6356354 C60.4816358,51.940419 60.4816358,51.940419 60.4605417,52.0552299 C60.4398964,52.1380608 60.4398964,52.1380608 60.4320641,52.1920167 C60.4244651,52.2472744 60.4195855,52.3099891 60.4160586,52.3864455 C60.4045701,52.6354943 60.4063302,53.0889237 60.4206223,53.7611999 C60.4486719,55.0805986 60.5257074,57.2549531 60.6517651,60.2869057 C60.6899402,61.2050955 62.0612753,61.1811124 62.0671299,60.2621526 Z" id="Shape" fill="#F97A80" fill-rule="nonzero"></path>
                    <path d="M13.2664695,84.0704038 C1.29671868,89.0751972 -0.127278072,74.7290074 6.18202035,71.60501 C-0.596878885,71.60501 -4.38523392,62.4823024 8.81416887,56.9022528 C7.01841682,53.4225333 7.04136961,47.3601796 16.6179532,45.3735172 C14.3793007,43.8065853 11.9412011,37.2751337 24.4756835,36.507172 C27.2605167,35.1838477 24.7660318,26.6107564 27.4836544,18.2056561 C29.6765879,11.4233216 36.2577609,4.45550777 40.1697756,4.92678844 C40.5437115,4.63797171 40.9581314,4.38003917 41.4130352,4.15299081 C41.6581488,4.03065149 41.9058798,3.91729039 42.1560329,3.81263134 C50.2575258,-5.02281279 60.5873554,4.26617784 69.9398657,4.26617784 C78.4357849,4.26617784 76.04176,13.2679128 75.1047655,14.4994501 C77.0297723,17.1654189 75.346082,21.1821544 70.0536946,26.5496564 C69.8975834,25.6257057 69.8195279,23.8753732 69.8195279,21.2986591 C69.1082749,21.365033 68.3137027,21.4559679 67.4668737,21.5216211 C64.9974503,24.9637912 67.7206319,35.4769267 66.2762654,35.7708433 C64.5974019,36.112478 64.6080444,28.9299552 59.0995915,31.3013568 C53.5911386,33.6727584 56.5039412,43.8832496 61.5368231,46.9835407 C61.6109475,47.0292018 61.6748511,47.0741391 61.7288219,47.1183241 C66.1375975,49.0379925 64.6224699,52.9523666 63.2072637,54.0672954 C70.8464278,55.8510011 70.864737,61.2940275 69.43228,64.4182604 C79.9613379,69.4282546 76.9393975,77.6189905 71.5319238,77.6189905 C74.0472244,83.5125578 69.43228,92.8921618 63.2072637,85.6160836 C62.9221236,91.7200444 56.7576986,95.6135456 51.3340274,90.568864 C51.0747711,90.3277236 45.9823358,100.191296 38.9214012,92.4824998 C33.4300512,104.714055 24.5594506,94.4924112 24.1311331,92.8119342 C13.7736112,96.8418774 10.1520567,93.9280335 13.2664695,84.0704038 Z" id="Shape" fill="#000000"></path>
                    <path d="M64.0580976,35.5345584 C61.7283817,33.2921592 59.6527853,33.5755939 58.4947767,36.3765721 C58.3457613,36.7370089 58.5180186,37.1496443 58.8795241,37.2982191 C59.2410297,37.4467939 59.6548887,37.2750459 59.803904,36.9146092 C60.5602029,35.0852821 61.4292908,34.9666032 63.0746363,36.5502819 C63.3559523,36.8210542 63.8041593,36.8131812 64.0757346,36.532697 C64.34731,36.2522127 64.3394136,35.8053308 64.0580976,35.5345584 Z" id="Shape" fill="#E2643B" fill-rule="nonzero"></path>
                </g>
            </g>
        </g>
    </g>
</svg>