<?xml version="1.0" encoding="UTF-8"?>
<svg width="1000px" height="622px" viewBox="0 0 1000 622" version="1.1" xmlns="http://www.w3.org/2000/svg" xmlns:xlink="http://www.w3.org/1999/xlink">
    <title>Consultation</title>
    <g id="Illustrations" stroke="none" stroke-width="1" fill="none" fill-rule="evenodd">
        <g id="Consultation" transform="translate(0.000000, -1.000000)">
            <g id="bg" opacity="0.5" transform="translate(499.857469, 528.720068) scale(-1, 1) translate(-499.857469, -528.720068) translate(0.285063, 435.718358)" fill-rule="nonzero">
                <path d="M898.549009,61.8865368 C835.366505,45.5601144 803.963113,68.2187846 732.425057,99.3439773 C660.88701,130.46917 572.547258,140.44994 471.700261,82.3616662 C370.853263,24.273392 257.857285,45.5601144 211.909147,110.380102 C181.277055,153.593427 110.640673,178.8012 0,186.003421 L999.144812,186.003421 C974.202615,114.143113 940.670674,72.7708181 898.549009,61.8865368 Z" id="Shape" fill="#CCEEFF"></path>
                <path d="M1.42531357,186.003421 C35.618665,100.948258 102.519542,72.5965372 202.127943,100.948258 C351.540545,143.47584 438.885808,111.580153 516.848682,47.7887811 C594.811556,-16.0025911 686.427076,-24.5081073 794.269619,75.431709 C866.164652,142.058253 934.456385,178.91549 999.144812,186.003421 L1.42531357,186.003421 Z" id="Shape" fill="#E5F6FF"></path>
            </g>
            <g id="Group-2" transform="translate(631.698974, 416.476625)" fill-rule="nonzero">
                <path d="M54.3397296,0 L134.942906,0 C136.449693,0 137.696246,1.17265041 137.788218,2.67662747 L145.197019,123.828281 C145.293116,125.399703 144.097128,126.751495 142.525706,126.847593 C142.467774,126.851135 142.409747,126.852908 142.351707,126.852908 L61.7485301,126.852908 C60.2417434,126.852908 58.9951912,125.680257 58.9032183,124.17628 L51.4944178,3.0246268 C51.3983205,1.45320449 52.5943076,0.101412708 54.16573,0.0053153456 C54.2236623,0.00177260818 54.2816892,0 54.3397296,0 Z" id="Shape" fill="#86D8FF" transform="translate(98.345718, 63.426454) scale(-1, 1) translate(-98.345718, -63.426454) "></path>
                <path d="M17.4868807,131.841505 L133.596358,131.841505 C135.170715,131.841505 136.446985,133.117774 136.446985,134.692132 L136.446985,141.956005 C136.446985,143.530363 135.170715,144.806632 133.596358,144.806632 L17.4868807,144.806632 L17.4868807,144.806632 L17.4868807,131.841505 Z" id="Shape" fill="#A1E0FF" transform="translate(76.966933, 138.324069) rotate(90.000000) translate(-76.966933, -138.324069) "></path>
                <path d="M70.9093501,114.051875 L80.1738883,114.051875 C81.7482462,114.051875 83.0245154,115.328144 83.0245154,116.902502 L83.0245154,138.41951 C83.0245154,139.993868 81.7482462,141.270138 80.1738883,141.270138 L70.9093501,141.270138 L70.9093501,141.270138 L70.9093501,114.051875 Z" id="Shape" fill="#00A7FF" transform="translate(76.966933, 127.661006) rotate(90.000000) translate(-76.966933, -127.661006) "></path>
                <path d="M54.1601729,0 L127.636781,0 C129.143568,0 130.390121,1.17265041 130.482094,2.67662747 L138.075859,126.852908 L138.075859,126.852908 L61.5689734,126.852908 C60.0621867,126.852908 58.8156345,125.680257 58.7236616,124.17628 L51.3148611,3.0246268 C51.2187638,1.45320449 52.4147509,0.101412708 53.9861733,0.0053153456 C54.0441056,0.00177260818 54.1021325,0 54.1601729,0 Z" id="Shape" fill="#CCEEFF" transform="translate(94.692656, 63.426454) scale(-1, 1) translate(-94.692656, -63.426454) "></path>
                <path d="M0.337218501,112.599772 L130.699831,112.599772 C132.274189,112.599772 133.550458,113.876041 133.550458,115.450399 L133.550458,124.002281 C133.550458,125.576638 132.274189,126.852908 130.699831,126.852908 L0.337218501,126.852908 L0.337218501,126.852908 L0.337218501,112.599772 Z" id="Shape" fill="#86D8FF" transform="translate(66.943838, 119.726340) scale(-1, 1) translate(-66.943838, -119.726340) "></path>
                <path d="M70.9093501,176.026226 L80.1738883,176.026226 C81.7482462,176.026226 83.0245154,177.302495 83.0245154,178.876853 L83.0245154,200.393861 C83.0245154,201.968219 81.7482462,203.244488 80.1738883,203.244488 L70.9093501,203.244488 L70.9093501,203.244488 L70.9093501,176.026226 Z" id="Shape" fill="#00A7FF" transform="translate(76.966933, 189.635357) scale(-1, 1) rotate(-90.000000) translate(-76.966933, -189.635357) "></path>
                <path d="M47.7480046,195.267959 L106.185861,195.267959 C108.940987,195.267959 111.174458,197.50143 111.174458,200.256556 C111.174458,203.011683 108.940987,205.245154 106.185861,205.245154 L47.7480046,205.245154 C44.9928783,205.245154 42.7594071,203.011683 42.7594071,200.256556 C42.7594071,197.50143 44.9928783,195.267959 47.7480046,195.267959 Z" id="Shape" fill="#86D7FF"></path>
            </g>
            <g id="Man-Sitting-1" transform="translate(671.180160, 455.102623) scale(-1, 1) translate(-671.180160, -455.102623) translate(570.267959, 287.485747)">
                <g id="Head-Front/-Man/1" transform="translate(24.230331, 0.000000)">
                    <path d="M7.16835483,47.4484759 C4.48507586,47.4526017 1.97602551,45.7718512 1.05360227,43.0946558 C0.210334165,40.6471963 0.925005651,38.0401189 2.67130222,36.3518369 C2.21343343,33.3374038 1.79810388,30.5791199 1.42531357,28.0769852 C1.42531357,17.6871576 10.040131,9.2645382 20.6670468,9.2645382 C31.2939625,9.2645382 39.9087799,17.6871576 39.9087799,28.0769852 L39.9087799,40.1067132 C39.9087799,48.4945054 36.2925039,55.4425969 32.1736153,58.0501395 C33.0412164,61.4315068 34.2426705,64.2372948 35.7779777,66.4675037 C38.604872,70.57389 38.5564924,75.0239089 35.6328392,79.8175599 L7.83922463,79.8175599 L9.97719498,48.8101032 C9.74683302,48.5943276 7.38503934,47.665262 7.16835483,47.4484759 Z" id="Shape" fill="#F79474"></path>
                    <path d="M34.2075257,33.4948689 C34.2075257,33.1012794 33.8884583,32.7822121 33.4948689,32.7822121 C33.1012794,32.7822121 32.7822121,33.1012794 32.7822121,33.4948689 L32.7822121,39.0546896 C32.7822121,39.4122019 33.0471003,39.714385 33.4015333,39.7612079 C34.7250912,39.9360583 35.2642761,40.2159421 35.2642761,40.3430966 C35.2642761,40.6276792 34.5724422,41.3011854 33.1343176,42.1446856 C32.7948163,42.3438126 32.6810205,42.7804571 32.8801474,43.1199584 C33.0792744,43.4594597 33.5159189,43.5732555 33.8554202,43.3741285 C35.7267142,42.2765624 36.6895897,41.3391948 36.6895897,40.3430966 C36.6895897,39.31558 35.8044703,38.7438815 34.2075257,38.4458198 L34.2075257,33.4948689 Z" id="Shape" fill="#E2643B" fill-rule="nonzero"></path>
                    <path d="M24.237699,44.9995921 C24.6997799,48.1879845 26.9797381,49.5742856 30.7389396,49.0702934 C31.1290388,49.0179932 31.4028789,48.6593577 31.3505787,48.2692586 C31.2982786,47.8791594 30.939643,47.6053192 30.5495439,47.6576194 C27.5090547,48.0652545 25.9881767,47.1405029 25.6482759,44.7951628 C25.5918243,44.4056427 25.2302929,44.1356373 24.8407728,44.1920889 C24.4512527,44.2485406 24.1812474,44.610072 24.237699,44.9995921 Z" id="Shape" fill="#E2643B" fill-rule="nonzero"></path>
                    <path d="M22.7584738,30.6281548 C20.9957309,31.4218369 19.4280499,31.5938449 19.2569603,31.0123451 C19.0858707,30.4308455 20.3761607,29.3160404 22.1389036,28.5223583 C23.9016465,27.7286762 25.4693275,27.5566683 25.6404171,28.138168 C25.8115067,28.7196676 24.5212167,29.8344727 22.7584738,30.6281548 Z M36.8392015,31.0091474 C34.875038,30.4939177 33.3807967,29.5938004 33.5017201,28.9986791 C33.6226435,28.4035578 35.3129405,28.3387928 37.277104,28.8540225 C39.2412676,29.3692522 40.7355089,30.2693695 40.6145854,30.8644908 C40.4936621,31.4596121 38.8033651,31.5243771 36.8392015,31.0091474 Z M26.0119726,36.345496 C25.4215884,36.345496 24.9429875,35.866895 24.9429875,35.2765108 C24.9429875,34.6861266 25.4215884,34.2075257 26.0119726,34.2075257 C26.6023568,34.2075257 27.0809578,34.6861266 27.0809578,35.2765108 C27.0809578,35.866895 26.6023568,36.345496 26.0119726,36.345496 Z M37.4144812,36.345496 C36.824097,36.345496 36.345496,35.866895 36.345496,35.2765108 C36.345496,34.6861266 36.824097,34.2075257 37.4144812,34.2075257 C38.0048654,34.2075257 38.4834664,34.6861266 38.4834664,35.2765108 C38.4834664,35.866895 38.0048654,36.345496 37.4144812,36.345496 Z M5.33643723,35.8813096 C4.99509406,35.667126 3.70868841,35.4322474 2.3830291,36.6878272 C0.545365678,31.1178925 -0.135074876,26.72418 0.0175577252,23.5755976 C0.249545261,18.7900413 1.82863932,15.7800705 4.7548399,14.5456849 C5.37779433,9.93699066 8.07241619,7.44295239 12.8387056,7.06357009 C19.9881396,6.49449662 32.8567923,0.180738132 38.0033313,0.0123865227 C44.0518332,-0.18546975 45.5050453,1.98701869 42.3629678,6.52985182 C50.5970921,5.25149874 55.3560954,5.94593429 56.6399776,8.61315849 C58.5658008,12.6139948 52.8856809,18.3741578 42.8379098,21.8681981 C37.5654951,23.7016425 29.2726161,23.7198717 17.9592729,21.9228855 C17.243483,24.6680143 16.4345216,26.49656 15.5323888,27.4085228 C14.630256,28.3204856 13.8574771,28.7498374 13.2140521,28.696578 C12.809995,35.2600961 12.0446591,38.6568234 10.9180444,38.88676 C9.22812222,39.2316648 7.91095817,36.4760805 5.33643723,35.8813096 Z" id="Shape" fill="#000000"></path>
                    <path d="M9.27529411,40.4878001 C6.93023254,38.2239371 4.84096422,38.5100848 3.67532781,41.3378734 C3.52533086,41.7017602 3.69872282,42.1183452 4.06260959,42.2683422 C4.42649637,42.4183392 4.84308145,42.2449472 4.99307841,41.8810604 C5.75435894,40.0342234 6.62917154,39.9144085 8.28535483,41.5132458 C8.56852387,41.78661 9.01968315,41.7786616 9.29304732,41.4954926 C9.56641156,41.2123236 9.55846316,40.7611643 9.27529411,40.4878001 Z" id="Shape" fill="#E2643B" fill-rule="nonzero"></path>
                    <path d="M31.0501854,57.7761683 C29.2150625,59.1549793 27.6292638,59.6760962 26.2830493,59.4016413 C24.8002777,59.0993464 21.3045445,57.5219297 15.8959624,54.6965388 C15.5471051,54.5142992 15.116566,54.6493694 14.9343263,54.9982267 C14.7520867,55.347084 14.887157,55.7776231 15.2360143,55.9598627 C20.7775063,58.8546844 24.3315725,60.4584232 25.9983253,60.7982268 C27.8016352,61.1658705 29.7742249,60.5176484 31.9063544,58.9156829 C32.2210227,58.6792584 32.2844518,58.2325094 32.0480272,57.9178411 C31.8116027,57.6031729 31.3648537,57.5397438 31.0501854,57.7761683 Z" id="Shape" fill="#E2643B" fill-rule="nonzero"></path>
                </g>
                <g id="Front-Bottom/-Sit/-Pants-2" transform="translate(17.816420, 178.712677)">
                    <path d="M153.609396,109.567822 C152.320362,117.724092 150.1192,131.087459 147.005911,149.657925 L136.611486,149.039929 C135.782591,135.660263 134.32677,123.122349 132.850778,111.577528 C128.988984,81.3716156 163.36229,47.8570744 153.609396,109.567822 Z M116.669815,107.895683 C115.664411,116.092258 113.928007,129.524795 111.460605,148.193293 L101.051081,147.94075 C99.7587087,134.598347 97.8689816,122.119202 95.9935348,110.633253 C91.0866078,80.5813763 124.276749,45.8799853 116.669815,107.895683 Z" id="Shape" fill="#F79474"></path>
                    <path d="M121.049234,42.3484521 C122.142063,60.9525943 119.196851,92.3249302 113.172509,136.327677 C110.837674,137.612836 108.563003,138.255416 106.348498,138.255416 C104.133992,138.255416 101.188966,137.612836 97.51342,136.327677 C92.7344085,89.5581307 86.450826,75.9675459 88.2392866,56.9189106 C75.8071715,60.6695125 61.7495061,62.538621 41.8313446,62.538621 C0.153412272,62.538621 0.832320838,18.4246708 0.0248360889,8.6208111 C-0.765929019,-0.980051026 17.3264101,-2.56166598 54.3018536,3.87596628 C112.008467,-0.398909635 145.093553,0.335424957 153.557111,6.07896998 C162.02067,11.822515 161.645171,54.5893125 152.430615,134.379362 C149.85535,136.42497 146.956891,137.548803 143.735235,137.750863 C140.51358,137.952923 137.206514,137.218294 133.814036,135.546978 C129.681854,64.7084886 125.167247,68.8917768 128.685472,37.8741315 C125.869324,39.4658995 123.655202,40.9113781 121.049234,42.3484521 Z" id="Shape" fill="#021768"></path>
                    <path d="M98.2904247,143.518245 C99.6033153,142.204604 105.751658,146.036733 108.312379,146.044152 C110.019526,146.049098 111.131462,145.220028 111.648188,143.556943 C122.274143,147.971153 128.555655,150.767798 130.492724,151.946877 C132.429793,153.125956 133.00171,154.500943 132.208473,156.071836 L98.2904247,156.071836 C97.4151646,148.578536 97.4151646,144.394006 98.2904247,143.518245 Z M134.635921,143.518245 C135.948811,142.204604 142.097154,146.036733 144.657875,146.044152 C146.365022,146.049098 147.476958,145.220028 147.993684,143.556943 C158.619639,147.971153 164.901151,150.767798 166.83822,151.946877 C168.775289,153.125956 169.347206,154.500943 168.553969,156.071836 L134.635921,156.071836 C133.760661,148.578536 133.760661,144.394006 134.635921,143.518245 Z" id="Shape" fill="#021768"></path>
                    <path d="M121.872024,48.5273194 C122.816928,38.4348214 123.289624,31.0302481 123.289624,26.3033251 C123.289624,21.0120475 111.765641,16.9532427 88.4688305,13.5480045 C88.0809507,13.4913091 87.7207412,13.7610868 87.6642788,14.1505699 C87.6078171,14.540053 87.8764838,14.9017521 88.2643636,14.9584475 C110.585296,18.221044 121.870185,22.1956385 121.870185,26.3033251 C121.870185,30.9753662 121.39989,38.3423201 120.458816,48.3939123 C120.422128,48.7857724 120.708744,49.133302 121.098991,49.1701413 C121.489237,49.2069807 121.835336,48.9191795 121.872024,48.5273194 Z" id="Shape" fill="#0E143F" fill-rule="nonzero"></path>
                </g>
                <g id="Front-body/-Man/-Pose6/-Long-sleeve-shirt-Tie" transform="translate(0.000000, 57.438297)">
                    <path d="M107.323402,83.7922548 C113.262985,80.5701746 117.837778,78.7481934 119.072201,78.9365985 C120.306625,79.1250036 118.950564,80.9792275 115.004019,84.499271 C123.568455,87.0599038 127.885324,88.8080915 127.954625,89.7438334 C128.092778,91.6092375 121.195203,89.8115009 120.037856,90.17252 C120.774464,90.8726924 128.722535,93.9817032 128.450599,95.4145047 C128.269308,96.369705 124.934209,95.7829027 118.445301,93.6540978 C123.752524,96.5773097 126.173871,98.4135975 125.709344,99.1629625 C125.012552,100.287009 119.568406,97.7542318 117.096858,96.9223511 C116.192637,96.618006 122.01339,100.547102 121.433052,101.330111 C120.852713,102.113121 118.784466,100.949475 114.512869,99.0051853 C111.665138,97.7089923 109.047623,95.6015579 106.660324,92.6828813 C103.255496,92.8568151 101.148084,93.1805537 100.338089,93.6540978 C98.2586887,94.8697684 97.0753029,85.8776454 98.7085469,85.3767382 C100.61591,84.7917595 103.487528,84.2635989 107.323402,83.7922548 Z M165.674749,19.747366 C169.833913,13.7118168 173.19547,9.88237856 175.75942,8.25905131 C180.72976,3.0286738 183.098965,1.14092478 184.288295,0.750466592 C185.477625,0.360008404 185.04455,2.64153037 182.989068,7.59503251 C184.555578,7.31279564 185.339286,8.5197758 188.177625,7.91445247 C192.30509,7.0342018 199.299229,4.62139361 200.803947,6.07874857 C201.882722,7.12356755 193.903373,12.8508831 191.070303,13.98777 C188.237233,15.124657 182.300051,15.2628512 177.770968,15.9213214 L171.97193,24.0174266 L165.674749,19.747366 Z" id="Shape" fill="#F79474"></path>
                    <path d="M90.3839282,56.0470655 C90.2631528,66.0654938 89.1807725,75.8236916 89.1155594,83.9330466 C92.9268771,83.9458481 96.8307355,83.8674779 100.787356,83.650744 C104.249395,83.4611018 105.256948,86.9913875 103.810016,94.2416013 C99.4937365,95.2535911 95.0020104,96.3094078 90.4348703,97.3692496 C93.4077288,112.70137 98.2768415,120.361181 94.1742175,130.198858 C92.7882618,133.522238 73.1910925,140.39423 69.741178,135.452244 C68.099142,143.101447 25.2482322,140.39423 18.4379137,135.452244 C15.6100484,133.400171 18.6834345,120.018059 20.3305814,107.980382 C18.6555406,107.506088 17.5920134,106.759632 17.2569818,105.694467 C13.8173061,94.7587194 -6.95563434,30.3442082 2.40076425,23.3879833 C3.59673952,22.4988087 4.75022342,21.6820805 5.86930837,20.9576726 C6.17791968,20.7345274 6.50296879,20.5130951 6.8451771,20.2931975 C7.19232269,20.0701274 7.68607155,19.8041449 8.32642375,19.4952501 C9.41358495,18.9120347 10.4716016,18.4390296 11.5089108,18.0969552 C15.8847572,16.292961 22.9803684,13.6928632 32.7957446,10.2966618 C33.4758853,7.94953706 32.0837958,5.60280636 33.9428433,6.74869531 C38.1541873,9.34450449 51.9849786,18.5060934 54.3947491,17.6720324 C56.8045204,16.8379714 56.8045204,8.46602088 57.2593493,5.68545254 C57.4320973,4.62936808 60.6732305,11.6513399 60.5777416,10.3770249 C65.7699665,11.2293983 69.3217503,11.8780212 71.2330929,12.3228937 C72.430042,12.3030269 74.4930366,12.9660846 77.1601618,14.1422214 C77.4504247,14.2633697 77.7025442,14.3773182 77.9165828,14.4820892 C91.9123796,20.8818487 120.639528,39.9164728 130.560678,49.837948 C134.494247,38.2189599 148.595782,34.6778742 168.636789,13.1858665 C171.04374,10.6046488 174.108012,12.4756917 177.829606,18.7989952 C153.722522,55.4533535 137.966213,73.71998 130.560678,73.5994726 C125.080379,73.5095567 107.368379,65.4978796 90.3839282,56.0470655 L90.3839282,56.0470655 Z" id="Shape" fill="#F2A900"></path>
                    <path d="M100.050094,94.36749 C98.6033167,94.7067802 97.4793579,94.9701589 96.3807989,95.2272377 C93.5820282,95.88219 91.1920111,96.4390194 88.891555,96.9714054 C85.6690493,97.7171772 82.7054625,98.3955516 79.8675748,99.0358495 C61.7610113,103.121135 48.2927865,105.752904 37.9581517,107.047764 C25.7459636,108.577869 18.736948,108.017047 17.9346668,105.466358 C17.8128848,105.079176 17.4107511,104.867432 17.036476,104.993414 C16.6622009,105.119395 16.4575149,105.535396 16.5792969,105.922576 C18.5861472,112.302948 39.2040718,109.719661 80.1713006,100.476445 C83.0118515,99.8355473 85.9778763,99.1566149 89.2027231,98.4103007 C91.5044135,97.8776297 93.8954875,97.3205537 96.6952786,96.6653627 C97.7940849,96.4082262 98.9182397,96.1448012 100.365212,95.8054654 C100.601687,95.7500093 103.210237,95.1381535 103.967541,94.9605972 C104.240131,94.8966861 104.451442,94.673832 104.507955,94.3906613 C106.036115,86.7334329 104.881596,82.6882077 100.749672,82.9145439 C91.0419826,83.4463077 82.3908794,83.2425862 68.3886716,82.4422078 C50.2878385,81.4075485 45.1434029,81.3181827 40.7114952,82.6709086 C39.9530559,74.3423425 38.833682,66.35039 37.4145963,58.8084982 C37.339396,58.4088375 36.9652446,58.1479125 36.5789059,58.225706 C36.1925672,58.3034994 35.9403398,58.6905525 36.0155401,59.0902132 C37.4772532,66.8586528 38.6192823,75.1097499 39.3736025,83.7173062 C39.4152467,84.1925086 39.8756668,84.5022285 40.312433,84.3488476 C44.7225064,82.8001468 49.3424829,82.8302223 68.3100349,83.9144242 C82.3600983,84.7175385 91.0528485,84.9222406 100.825039,84.3869434 C103.553213,84.2375014 104.437328,87.112815 103.202459,93.6281357 C102.167747,93.8707889 100.251146,94.3203406 100.050094,94.36749 Z" id="Shape" fill="#0E143F" fill-rule="nonzero"></path>
                    <path d="M82.6917802,21.4445304 C82.4959507,21.0913438 82.6139702,20.6408038 82.9553834,20.4382213 C83.2967973,20.2356388 83.7323197,20.3577276 83.9281492,20.7109143 C88.3739766,28.7291385 90.4390807,38.2907801 90.8444584,50.0787492 C91.0443394,55.8911012 90.8873439,60.9773602 90.3643999,70.3863218 L90.2757732,71.9774749 C90.2414054,72.5954119 90.2146166,73.0809528 90.1892239,73.5476147 C90.1671045,73.9541327 89.83061,74.2651311 89.4376425,74.2422484 C89.044675,74.2193664 88.7440436,73.8712685 88.7661631,73.4647506 C88.7915935,72.9973824 88.8184136,72.5112771 88.8528129,71.8927818 L88.9414367,70.301686 C89.4619463,60.9365212 89.6178905,55.8843116 89.4200456,50.1311699 C89.0222021,38.5622765 87.0054119,29.2243344 82.6917802,21.4445304 Z M91.1235041,103.765066 C91.0259151,103.370619 91.2559079,102.969016 91.6372071,102.868062 C92.0185063,102.767108 92.4067218,103.005031 92.5043101,103.399479 C92.5985155,103.780249 92.6953428,104.165425 92.7955274,104.558272 C93.173264,106.039466 94.71564,111.757734 95.0593066,113.134118 C95.8082782,116.133742 96.2304133,118.402936 96.3919007,120.563557 C96.4222413,120.969507 96.1287201,121.324039 95.736302,121.355426 C95.3438833,121.386814 95.0011695,121.083171 94.9708281,120.677221 C94.8169071,118.617831 94.4091783,116.42608 93.6792859,113.502866 C93.339948,112.14382 91.7989068,106.430502 91.417366,104.93439 C91.3163063,104.538112 91.2185989,104.149433 91.1235041,103.765066 Z" id="Shape" fill="#0E143F" fill-rule="nonzero"></path>
                    <path d="M98.6485191,95.8678798 L97.6601468,88.5470054 C97.6057055,88.1437571 97.2455723,87.8625157 96.8557661,87.9188348 C96.4659599,87.9751532 96.1940928,88.3477052 96.2485341,88.7509535 L97.2369064,96.071828 C97.2913476,96.4750755 97.6514816,96.756317 98.0412878,96.6999986 C98.4310939,96.6436794 98.7029604,96.2711274 98.6485191,95.8678798 Z" id="Shape" fill="#0E143F" fill-rule="nonzero"></path>
                    <path d="M174.646351,23.4489952 L170.129661,19.5900658 C169.826189,19.3307886 169.376998,19.3750983 169.126363,19.6890343 C168.875728,20.0029703 168.91856,20.4676514 169.222032,20.7269287 L173.738723,24.585858 C174.042194,24.8451353 174.491386,24.8008256 174.74202,24.4868896 C174.992655,24.1729535 174.949823,23.7082724 174.646351,23.4489952 Z" id="Shape" fill="#0E143F" fill-rule="nonzero"></path>
                    <path d="M70.2962008,134.733682 C70.3007148,135.140817 69.9853271,135.474649 69.5917638,135.479417 C69.1981998,135.483988 68.8754946,135.157725 68.8709813,134.750591 C68.6984906,119.191342 68.5660084,108.554064 68.4735519,102.839812 C68.4669648,102.432707 68.7806478,102.09716 69.1741819,102.090139 C69.5677166,102.083532 69.8920788,102.408032 69.8986659,102.815136 C69.9911766,108.532765 70.1236823,119.171928 70.2962008,134.733682 Z M69.464519,83.3041163 C69.4783253,83.7110269 69.1706471,84.0524722 68.7772997,84.0676506 C68.3839524,84.0810376 68.053889,83.7627494 68.0400827,83.3558388 C67.4933281,67.2419086 66.6895418,56.6618287 65.6381514,51.6619562 C63.7071594,42.4791489 60.1242617,31.7629785 54.8882768,19.5179571 C54.7290557,19.1455988 54.8917759,18.7102179 55.2517225,18.5455067 C55.611669,18.3807955 56.0325371,18.5491267 56.1917581,18.921485 C61.4639588,31.2512028 65.0773974,42.058717 67.030893,51.3485396 C68.1066648,56.4643592 68.9147306,67.1007656 69.464519,83.3041163 Z" id="Shape" fill="#0E143F" fill-rule="nonzero"></path>
                    <path d="M78.2052174,83.8223682 L63.0328806,83.4128342 C63.4716291,75.5001026 63.5694627,68.8635569 63.3263804,63.5031982 C62.9306542,54.7767776 60.7453912,42.4262948 56.7705922,26.45175 L49.148683,20.1584972 L55.6158438,19.2197211 L59.2376133,16.8379714 L61.0115807,17.6720324 L59.9517809,25.1537506 C67.2560063,39.4250104 71.9275385,50.8470144 73.9663754,59.4197625 C75.3554076,65.260262 76.7683552,73.3944641 78.2052174,83.8223682 L78.2052174,83.8223682 Z M80.2084842,99.7137529 C80.2181414,99.7967795 80.2277986,99.8799074 80.237458,99.9631357 L71.8250135,113.408476 L64.0852808,102.921405 L80.2084849,99.7137529 L80.2084842,99.7137529 Z" id="Shape" fill="#021768"></path>
                    <path d="M55.6062529,19.9537612 C55.9981385,19.9159191 56.2861702,19.5566011 56.2495895,19.1512019 C56.2130088,18.7458027 55.8656678,18.4478389 55.4737821,18.4856809 L48.1847898,19.1895356 C47.9720147,19.2100821 47.7793821,19.3283205 47.6599822,19.5116648 L42.6705388,27.173175 L33.3352639,9.31025392 L34.1493552,7.00131412 C34.2842221,6.6188022 34.0938024,6.19561373 33.7240409,6.05609622 C33.3542794,5.9165787 32.9451972,6.11356458 32.8103302,6.4960765 L31.8864002,9.1165429 C31.8165449,9.31466769 31.8320544,9.53425463 31.9290066,9.71977117 L41.9767439,28.945979 C42.2314659,29.433387 42.895434,29.4668056 43.1946928,29.0072805 L48.6534265,20.6251543 L55.6062529,19.9537612 Z" id="Shape" fill="#0E143F" fill-rule="nonzero"></path>
                    <path d="M59.5476981,15.9434046 C59.3191199,15.8313706 59.0502644,15.8530663 58.841245,16.0004129 L55.1387015,18.6104947 C54.8134507,18.839778 54.7294577,19.2984088 54.9510982,19.6348752 C55.1727387,19.9713417 55.6160818,20.0582308 55.9413334,19.8289475 L59.3064374,17.4567408 L66.1780067,20.824732 C66.8187457,21.1387802 67.4615101,20.3975214 67.0903578,19.7725763 L58.4948724,5.29953155 C58.2888391,4.95261286 57.8499565,4.84416239 57.5146023,5.05730067 C57.1792474,5.27043895 57.0744121,5.72445483 57.2804454,6.07137353 L64.6198546,18.429442 L59.5476981,15.9434046 Z" id="Shape" fill="#0E143F" fill-rule="nonzero"></path>
                    <path d="M54.9167624,54.0108223 L57.0073168,65.8420475 L52.2663013,74.7991348 L44.0997078,71.4398473 L42.661751,65.9107026 C42.5594969,65.5175219 42.168492,65.2845375 41.7884172,65.3903174 C41.4083424,65.4960974 41.1831243,65.9005849 41.2853784,66.2937657 L42.8161659,72.1798582 C42.8745874,72.4044962 43.0320717,72.5874323 43.2410298,72.6733865 L52.3253499,76.4101767 C52.6597933,76.547748 53.0409015,76.4057611 53.2137578,76.0791883 L58.3788997,66.3208091 C58.457443,66.1724184 58.4842617,66.0005971 58.4548553,65.8341752 L56.1735654,52.9235061 C56.0964446,52.4870518 55.6668344,52.2194318 55.2578585,52.3530785 L39.6941141,57.439053 C39.3374098,57.5556179 39.1285383,57.9376515 39.2157707,58.3139603 L40.1303278,62.2592385 C40.2221102,62.6551748 40.6067852,62.8991747 40.9895232,62.8042277 C41.372262,62.7092806 41.6081286,62.3113409 41.5163462,61.9154046 L40.7566363,58.6381174 L54.9167624,54.0108223 Z" id="Shape" fill="#0E143F" fill-rule="nonzero"></path>
                </g>
            </g>
            <g id="Group-3" transform="translate(512.685291, 457.098062)" fill-rule="nonzero">
                <path d="M-54.3555037,69.0390692 L93.8771074,96.4895526 C95.2283018,96.7397742 96.208666,97.9183553 96.208666,99.2925229 L96.208666,103.471529 C96.208666,105.045887 94.9323968,106.322157 93.3580389,106.322157 C93.183924,106.322157 93.0101747,106.306204 92.8389703,106.2745 L-55.3936409,78.8240166 C-56.7448354,78.573795 -57.7251994,77.3952139 -57.7251994,76.0210463 L-57.7251994,71.8420397 C-57.7251994,70.2676816 -56.4489302,68.9914124 -54.8745723,68.9914124 C-54.7004571,68.9914124 -54.5267081,69.0073646 -54.3555037,69.0390692 Z" id="Shape" fill="#86D7FF" transform="translate(19.241733, 87.656784) rotate(90.000000) translate(-19.241733, -87.656784) "></path>
                <path d="M-18.7226645,69.0390692 L129.509947,96.4895526 C130.861141,96.7397742 131.841505,97.9183553 131.841505,99.2925229 L131.841505,103.471529 C131.841505,105.045887 130.565236,106.322157 128.990878,106.322157 C128.816763,106.322157 128.643014,106.306204 128.47181,106.2745 L-19.7608016,78.8240166 C-21.1119962,78.573795 -22.0923602,77.3952139 -22.0923602,76.0210463 L-22.0923602,71.8420397 C-22.0923602,70.2676816 -20.816091,68.9914124 -19.2417331,68.9914124 C-19.0676179,68.9914124 -18.8938688,69.0073646 -18.7226645,69.0390692 Z" id="Shape" fill="#86D7FF" transform="translate(54.874573, 87.656784) rotate(90.000000) translate(-54.874573, -87.656784) "></path>
                <path d="M256.362854,69.0390692 L404.595465,96.4895526 C405.94666,96.7397742 406.927024,97.9183553 406.927024,99.2925229 L406.927024,103.471529 C406.927024,105.045887 405.650755,106.322157 404.076397,106.322157 C403.902282,106.322157 403.728533,106.306204 403.557328,106.2745 L255.324717,78.8240166 C253.973523,78.573795 252.993158,77.3952139 252.993158,76.0210463 L252.993158,71.8420397 C252.993158,70.2676816 254.269428,68.9914124 255.843786,68.9914124 C256.0179,68.9914124 256.19165,69.0073646 256.362854,69.0390692 Z" id="Shape" fill="#86D7FF" transform="translate(329.960091, 87.656784) scale(-1, 1) rotate(90.000000) translate(-329.960091, -87.656784) "></path>
                <path d="M213.603447,69.0390692 L361.836058,96.4895526 C363.187253,96.7397742 364.167617,97.9183553 364.167617,99.2925229 L364.167617,103.471529 C364.167617,105.045887 362.891348,106.322157 361.31699,106.322157 C361.142875,106.322157 360.969125,106.306204 360.797921,106.2745 L212.56531,78.8240166 C211.214115,78.573795 210.233751,77.3952139 210.233751,76.0210463 L210.233751,71.8420397 C210.233751,70.2676816 211.510021,68.9914124 213.084378,68.9914124 C213.258493,68.9914124 213.432243,69.0073646 213.603447,69.0390692 Z" id="Shape" fill="#86D7FF" transform="translate(287.200684, 87.656784) scale(-1, 1) rotate(90.000000) translate(-287.200684, -87.656784) "></path>
                <polygon id="Shape" fill="#60C9FF" points="0 1.61406426e-13 349.201824 1.61406426e-13 349.201824 17.1037628 0 17.1037628"></polygon>
            </g>
            <g id="Man-Standing-1" transform="translate(211.231471, 289.623717)">
                <g id="Back-Bottom/-Sit/-Pants2" transform="translate(48.460661, 171.396869)">
                    <path d="M153.60362,109.310352 C152.310021,117.443612 150.101062,130.76928 146.976745,149.287356 L136.545502,148.671105 C135.713672,135.329184 134.252694,122.826641 132.771473,111.314389 C128.896002,81.19369 163.39106,47.7736968 153.60362,109.310352 Z M102.280061,107.64293 C101.271095,115.816383 99.5285419,129.211025 97.0523995,147.826856 L86.6060048,147.575026 C85.3090543,134.270263 83.412634,121.826323 81.5305438,110.372778 C76.6062365,80.4056801 109.91394,45.8021854 102.280061,107.64293 Z" id="Shape" fill="#FFB5B9"></path>
                    <path d="M106.7061,49.7964511 C106.912727,68.8872177 104.363791,97.8183302 99.059293,136.589788 C96.7215707,137.877418 94.4440878,138.521233 92.2268444,138.521233 C90.0096009,138.521233 87.0609343,137.877418 83.3808438,136.589788 C78.8811082,92.5231756 73.0491591,77.8548221 73.8591669,60.390748 C64.8424523,61.9038821 54.5455459,62.658861 41.8830624,62.658861 C0.153601981,62.658861 0.833349914,18.460095 0.0248668044,8.63738591 C-0.766875998,-0.981935291 17.3478315,-2.56659115 54.3689895,3.88341841 C112.146948,-0.399676596 145.272938,0.33606984 153.74696,6.09065773 C162.220982,11.8452456 161.845019,54.6942687 152.619071,134.637727 C150.040622,136.687268 147.138579,137.813262 143.912941,138.01571 C140.687303,138.218158 137.376147,137.482117 133.979475,135.807588 C129.842184,64.8329004 122.0733,65.8040133 128.84457,37.9469502 C120.726204,42.5388316 113.625177,46.4878503 106.7061,49.7964511 L106.7061,49.7964511 Z" id="Shape" fill="#134DBD"></path>
                    <path d="M106.548742,45.7017747 C93.8753235,52.8409782 86.5030858,56.1301767 76.8007013,58.4575147 C76.4179689,58.5493218 76.1821273,58.9340121 76.2739346,59.3167446 C76.3657412,59.6994771 76.7504319,59.9353186 77.1331642,59.8435115 C86.9904133,57.4790257 94.4696251,54.1420998 107.248293,46.9436073 C107.591216,46.7504317 107.71261,46.3158384 107.519434,45.9729158 C107.326259,45.6299932 106.891665,45.5085992 106.548742,45.7017747 Z" id="Shape" fill="#0E143F" fill-rule="nonzero"></path>
                    <path d="M84.0372891,143.518245 C85.3501796,142.204604 91.4985219,146.036733 94.0592432,146.044152 C95.7663904,146.049098 96.8783267,145.220028 97.3950527,143.556943 C108.021008,147.971153 114.302519,150.767798 116.239589,151.946877 C118.176658,153.125956 118.748574,154.500943 117.955337,156.071836 L84.0372891,156.071836 C83.1620289,148.578536 83.1620289,144.394006 84.0372891,143.518245 Z M134.635921,143.518245 C135.948811,142.204604 142.097154,146.036733 144.657875,146.044152 C146.365022,146.049098 147.476958,145.220028 147.993684,143.556943 C158.619639,147.971153 164.901151,150.767798 166.83822,151.946877 C168.775289,153.125956 169.347206,154.500943 168.553969,156.071836 L134.635921,156.071836 C133.760661,148.578536 133.760661,144.394006 134.635921,143.518245 Z" id="Shape" fill="#021768"></path>
                </g>
                <g id="Back-body/-Woman/-Pose4/--Long-sleeve-T-shirt" transform="translate(30.644242, 50.122488)">
                    <path d="M143.371389,11.0093187 C146.134258,4.68741649 148.058125,1.20760126 149.142991,0.569873005 C150.227858,-0.0678551881 150.262789,2.25695639 149.247786,7.54430783 C157.520587,4.10750059 161.962742,2.73571566 162.574248,3.42895302 C163.79329,4.8109233 157.288023,7.78729169 156.590877,8.80888288 C157.588033,8.89148671 165.701493,6.27936516 166.339921,7.58162141 C166.765539,8.44979225 163.788216,10.1114811 157.407952,12.5666879 C163.329818,11.4900871 166.330713,11.3949671 166.410637,12.2813278 C166.530522,13.610869 160.733121,15.0823423 158.29043,16.0009181 C157.396766,16.3369812 164.321942,15.7259647 164.330629,16.7125971 C164.339317,17.6992296 162.016984,18.0995125 157.493796,19.2879336 C154.478337,20.0802143 151.16149,20.0866053 147.543253,19.3071067 L143.193895,30.1547112 L137.469698,24.5572008 L143.371389,11.0093187 Z" id="Shape" fill="#FFB5B9"></path>
                    <path d="M74.8133046,21.6487988 C83.7497912,28.7144148 99.8783053,46.3619995 110.383962,59.8418532 C112.545372,49.5431365 124.121017,45.2415489 136.676149,20.7825534 C138.302094,17.6150048 141.7462,18.5398136 147.008466,23.55698 C135.496311,59.7149276 123.917972,101.870093 115.5906,99.8850592 C110.321476,98.6290344 96.0926169,86.9855438 82.7579369,73.9896848 C82.9684521,85.1694284 82.8985362,95.3305416 83.9879041,102.942139 C85.5319099,113.730367 91.1823204,115.545895 92.9636616,120.370636 C94.3035889,123.999813 75.2695197,144.052785 56.2884086,149.387607 C37.3072976,154.722428 25.2542892,150.614681 14.7871616,140.892351 C11.2645613,137.620405 14.7533976,128.340829 18.3690633,118.694681 C12.2053585,117.994761 7.52756157,116.777643 5.93334721,114.77572 C0.425348275,107.859093 -1.60423639,54.8581124 3.36445268,35.9984048 C3.16569562,31.3102127 4.39840493,27.6066599 9.60833602,24.2588423 C11.8953853,22.7892214 17.43732,20.1227205 26.2341398,16.2593397 C32.1634328,21.7861911 52.7297042,20.5900487 52.3544477,15.5822124 C65.0810747,16.3351538 72.5673603,18.3573493 74.8133046,21.6487988 Z" id="Shape" fill="#0097A9"></path>
                    <path d="M82.8164367,72.6856027 L76.6091405,66.2475682 C76.3311923,65.959288 75.8799629,65.958682 75.601292,66.2462147 C75.3226212,66.5337474 75.3220353,67.000536 75.5999836,67.2888161 L81.8072805,73.7268507 C82.0852288,74.0151308 82.5364574,74.0157368 82.8151283,73.7282041 C83.0937992,73.4406715 83.094385,72.9738828 82.8164367,72.6856027 Z" id="Shape" fill="#0E143F" fill-rule="nonzero"></path>
                    <path d="M21.251704,87.1422898 C19.3122538,83.5725485 17.0974391,79.8845361 14.6073021,76.0780457 C13.0783223,73.740806 11.4965967,69.7339064 9.88288127,64.0780738 C9.77146244,63.6875671 9.37512365,63.4644364 8.99763391,63.5796973 C8.62014417,63.6949582 8.40445111,64.1049638 8.51587001,64.4954704 C10.1676201,70.2846092 11.7977067,74.4140188 13.426886,76.9044262 C15.8955463,80.6780872 18.0896336,84.3315842 20.0091899,87.8647099 C24.6313228,96.3721836 22.8785556,108.756721 14.6391765,125.033249 L14.5968486,125.134722 C12.0913476,132.64409 12.0913476,138.30009 14.6900773,142.073729 C17.2850948,145.841977 26.6792989,149.141396 43.0615956,152.176529 C43.4490208,152.248307 43.8193387,151.981594 43.8887243,151.580809 C43.9581093,151.180024 43.7002872,150.796936 43.312862,150.725158 C27.3487933,147.767511 18.1318497,144.530349 15.8509369,141.218215 C13.5793088,137.919563 13.5737499,132.745723 15.9268059,125.667914 C24.3455013,109.018882 26.1575944,96.1720468 21.251704,87.1422898 Z" id="Shape" fill="#0E143F" fill-rule="nonzero"></path>
                </g>
                <g id="Head-Back/-Women/-3" transform="translate(0.000000, 0.523416)">
                    <path d="M71.9741725,7.12656784 C82.6010882,7.12656784 91.2159056,15.5491873 91.2159056,25.9390148 L91.2159056,37.9687428 C91.2159056,48.3585704 86.0519208,57.1447685 84.789173,57.069498 C84.6108099,57.0587287 83.9374282,56.8608272 82.9091436,56.5074108 C82.433385,61.711356 82.4006204,64.7307774 82.8107351,65.5656063 C83.6652268,67.3050081 87.3293796,66.5805816 82.668187,71.9783352 C78.0069944,77.3760889 60.2697267,80.4816462 54.871982,71.7890949 C56.8376291,65.631633 59.7642594,57.5591668 63.6518729,47.571696 C59.6969558,45.0855206 56.6670372,42.4058794 56.2867773,39.9219576 C55.5095237,34.8448058 54.3247443,30.1838249 52.7324392,25.9390148 C52.7324392,15.5491873 61.3472566,7.12656784 71.9741725,7.12656784 Z" id="Shape" fill="#FFB5B9"></path>
                    <path d="M83.1430105,60.8389689 C83.171949,56.2832009 83.1156566,53.6274573 82.9638046,52.7560763 C82.9502215,52.6781318 82.9366641,52.6156765 82.9184803,52.5568464 C82.8981245,52.4901065 82.8981245,52.4901065 82.8248477,52.3538367 C82.6302606,52.0628518 82.6302606,52.0628518 81.8453638,52.1298806 C81.5470729,52.4375815 81.5470729,52.4375815 81.5258399,52.5534913 C81.5050585,52.637115 81.5050585,52.637115 81.4971746,52.6915874 C81.4895256,52.747374 81.4846138,52.8106891 81.4810637,52.8878773 C81.4694996,53.1393099 81.4712712,53.5970795 81.4856575,54.2757905 C81.5138918,55.6078182 81.5914347,57.8029852 81.7183228,60.863959 C81.7567494,61.7909375 83.1371174,61.7667248 83.1430105,60.8389689 Z" id="Shape" fill="#F97A80" fill-rule="nonzero"></path>
                    <path d="M7.74163255,101.170291 C32.6583667,131.742269 82.9141956,102.85642 89.1825562,84.5102245 C95.4509168,66.1640296 86.9310389,61.3776318 81.8650056,58.2476655 C76.7989723,55.1176992 74.6111882,33.9950668 80.1559251,31.6009666 C85.700662,29.2068665 85.6899493,36.4581389 87.3798714,36.1132341 C89.0697935,35.7683293 85.0920027,21.4844498 90.2426287,20.6742259 C91.6885521,20.4467737 99.3434922,11.2703754 94.4409376,4.83900443 C89.5383829,-1.59236656 75.2188888,-1.54604135 61.4963528,5.32336245 C59.7811114,6.18200006 58.2754419,7.95468593 56.9793442,10.64142 C54.4171952,10.4255258 52.1211233,11.8725123 50.0911287,14.9823794 C47.0461366,19.6471802 48.209167,32.6858336 35.3219443,47.0337903 C27.7373114,55.478122 -17.1751017,70.5983117 7.74163255,101.170291 Z" id="Shape" fill="#732213"></path>
                    <path d="M85.1470926,35.8746875 C82.8020311,33.6108245 80.7127628,33.8969722 79.5471264,36.7247608 C79.3971294,37.0886476 79.5705214,37.5052327 79.9344081,37.6552296 C80.2982949,37.8052266 80.71488,37.6318346 80.8648769,37.2679478 C81.6261575,35.4211109 82.5009701,35.301296 84.1571534,36.9001333 C84.4403224,37.1734974 84.8914817,37.165549 85.1648459,36.8823801 C85.4382101,36.599211 85.4302617,36.1480517 85.1470926,35.8746875 Z" id="Shape" fill="#F97A80" fill-rule="nonzero"></path>
                </g>
            </g>
            <g id="Group-2" transform="translate(217.645382, 404.361460)" fill-rule="nonzero">
                <path d="M26.0846616,112.599772 L142.194138,112.599772 C143.768496,112.599772 145.044766,113.876041 145.044766,115.450399 L145.044766,124.002281 C145.044766,125.576638 143.768496,126.852908 142.194138,126.852908 L26.0846616,126.852908 L26.0846616,126.852908 L26.0846616,112.599772 Z" id="Shape" fill="#60C9FF"></path>
                <path d="M17.4868807,138.968073 L133.596358,138.968073 C135.170715,138.968073 136.446985,140.244342 136.446985,141.8187 L136.446985,149.082573 C136.446985,150.656931 135.170715,151.9332 133.596358,151.9332 L17.4868807,151.9332 L17.4868807,151.9332 L17.4868807,138.968073 Z" id="Shape" fill="#A1E0FF" transform="translate(76.966933, 145.450636) rotate(90.000000) translate(-76.966933, -145.450636) "></path>
                <path d="M70.9093501,114.051875 L80.1738883,114.051875 C81.7482462,114.051875 83.0245154,115.328144 83.0245154,116.902502 L83.0245154,138.41951 C83.0245154,139.993868 81.7482462,141.270138 80.1738883,141.270138 L70.9093501,141.270138 L70.9093501,141.270138 L70.9093501,114.051875 Z" id="Shape" fill="#00A7FF" transform="translate(76.966933, 127.661006) rotate(90.000000) translate(-76.966933, -127.661006) "></path>
                <path d="M70.9093501,183.152794 L80.1738883,183.152794 C81.7482462,183.152794 83.0245154,184.429063 83.0245154,186.003421 L83.0245154,207.520429 C83.0245154,209.094787 81.7482462,210.371056 80.1738883,210.371056 L70.9093501,210.371056 L70.9093501,210.371056 L70.9093501,183.152794 Z" id="Shape" fill="#00A7FF" transform="translate(76.966933, 196.761925) scale(-1, 1) rotate(-90.000000) translate(-76.966933, -196.761925) "></path>
                <path d="M3.03027713,0 L83.6334535,0 C85.1402402,0 86.3867923,1.17265041 86.4787657,2.67662747 L93.8875663,123.828281 C93.9836631,125.399703 92.787676,126.751495 91.2162536,126.847593 C91.1583217,126.851135 91.1002943,126.852908 91.0422541,126.852908 L10.4390776,126.852908 C8.93229091,126.852908 7.68573867,125.680257 7.59376582,124.17628 L0.184965337,3.0246268 C0.0888679753,1.45320449 1.28485515,0.101412708 2.85627747,0.0053153456 C2.91420971,0.00177260818 2.97223665,0 3.03027713,0 Z" id="Shape" fill="#60C9FF"></path>
                <path d="M3.03027713,0 L76.5068857,0 C78.0136723,0 79.2602245,1.17265041 79.3521978,2.67662747 L86.9459635,126.852908 L86.9459635,126.852908 L10.4390776,126.852908 C8.93229091,126.852908 7.68573867,125.680257 7.59376582,124.17628 L0.184965337,3.0246268 C0.0888679753,1.45320449 1.28485515,0.101412708 2.85627747,0.0053153456 C2.91420971,0.00177260818 2.97223665,0 3.03027713,0 Z" id="Shape" fill="#A1E0FF"></path>
                <path d="M47.7480046,202.394527 L106.185861,202.394527 C108.940987,202.394527 111.174458,204.627998 111.174458,207.383124 C111.174458,210.13825 108.940987,212.371722 106.185861,212.371722 L47.7480046,212.371722 C44.9928783,212.371722 42.7594071,210.13825 42.7594071,207.383124 C42.7594071,204.627998 44.9928783,202.394527 47.7480046,202.394527 Z" id="Shape" fill="#86D7FF"></path>
            </g>
            <g id="Window-3" transform="translate(51.596351, 0.997719)" fill-rule="nonzero">
                <polygon id="Shape" fill="#F2FBFF" points="12.1151653 0 168.187001 0 168.187001 216.647662 12.1151653 216.647662"></polygon>
                <path d="M47.7480046,62.0011403 L47.7480046,161.77309 L131.841505,161.77309 L131.841505,62.0011403 L47.7480046,62.0011403 Z M47.7480046,57.7251995 L131.841505,57.7251995 L131.841505,9.97719498 L136.830103,9.97719498 L136.830103,57.7251995 L158.922463,57.7251995 L158.922463,62.0011403 L136.830103,62.0011403 L136.830103,161.77309 L158.922463,161.77309 L158.922463,166.049031 L136.830103,166.049031 L136.830103,206.670468 L131.841505,206.670468 L131.841505,166.049031 L47.7480046,166.049031 L47.7480046,206.670468 L43.4720639,206.670468 L43.4720639,166.049031 L22.0923603,166.049031 L22.0923603,161.77309 L43.4720639,161.77309 L43.4720639,62.0011403 L22.0923603,62.0011403 L22.0923603,57.7251995 L43.4720639,57.7251995 L43.4720639,9.97719498 L47.7480046,9.97719498 L47.7480046,57.7251995 Z" id="Shape" fill="#CCEEFF"></path>
                <path d="M156.071836,101.197263 L156.071836,12.1151653 L24.2303307,12.1151653 L24.2303307,101.197263 L156.071836,101.197263 Z M156.071836,113.312429 L24.2303307,113.312429 L24.2303307,204.532497 L156.071836,204.532497 L156.071836,113.312429 Z M12.1151653,0 L168.187001,0 L168.187001,216.647662 L12.1151653,216.647662 L12.1151653,0 Z" id="Shape" fill="#CCEEFF"></path>
                <polygon id="Shape" fill="#A1E0FF" points="0 216.647662 180.302166 216.647662 180.302166 230.900798 0 230.900798"></polygon>
                <path d="M150.495172,202.394527 C150.041275,191.70841 150.827578,183.875606 152.854082,178.896114 C154.880587,173.916622 159.991559,167.258739 168.187001,158.922463 C168.187001,180.854315 162.289725,195.345003 150.495172,202.394527 Z" id="Shape" fill="#60C9FF"></path>
                <path d="M149.657925,201.68187 C142.531357,197.405929 138.968073,188.616496 138.968073,175.313569 C143.919967,180.369999 147.008146,184.408387 148.232611,187.428734 C149.457076,190.449081 149.932181,195.200127 149.657925,201.68187 Z" id="Shape" fill="#60C9FF"></path>
                <path d="M143.95667,197.405929 L156.784493,197.405929 C159.146029,197.405929 161.060433,199.320334 161.060433,201.68187 L161.060433,214.509692 C161.060433,216.871229 159.146029,218.785633 156.784493,218.785633 L143.95667,218.785633 C141.595134,218.785633 139.68073,216.871229 139.68073,214.509692 L139.68073,201.68187 C139.68073,199.320334 141.595134,197.405929 143.95667,197.405929 Z" id="Shape" fill="#86D7FF"></path>
                <path d="M161.001313,200.969213 L139.73985,200.969213 C140.079131,198.946898 141.837945,197.405929 143.95667,197.405929 L156.784493,197.405929 C158.903218,197.405929 160.662032,198.946898 161.001313,200.969213 Z M161.060433,203.81984 L161.060433,208.095781 L139.68073,208.095781 L139.68073,203.81984 L161.060433,203.81984 Z M161.060433,210.946408 L161.060433,214.509692 C161.060433,214.752503 161.040195,214.990587 161.001313,215.222349 L139.73985,215.222349 C139.700969,214.990587 139.68073,214.752503 139.68073,214.509692 L139.68073,210.946408 L161.060433,210.946408 Z" id="Shape" fill="#A1E0FF"></path>
                <polygon id="Shape" fill="#A1E0FF" points="135.404789 217.360319 163.91106 217.360319 163.91106 221.63626 135.404789 221.63626"></polygon>
            </g>
            <g id="Electronics-5" transform="translate(658.067275, 0.997719)" fill-rule="nonzero">
                <path d="M8.55188141,0 L228.762828,0 C233.485902,0 237.314709,3.82880773 237.314709,8.55188141 L237.314709,45.6100342 C237.314709,60.9600237 224.871084,73.4036488 209.521095,73.4036488 L27.7936146,73.4036488 C12.4436251,73.4036488 0,60.9600237 0,45.6100342 L0,8.55188141 C0,3.82880773 3.82880773,0 8.55188141,0 Z" id="Shape" fill="#CCEEFF"></path>
                <path d="M236.570987,52.0239453 C233.675475,64.2817845 222.663548,73.4036488 209.521095,73.4036488 L27.7936146,73.4036488 C14.6511618,73.4036488 3.6392345,64.2817845 0.743722228,52.0239453 L236.570987,52.0239453 L236.570987,52.0239453 Z" id="Shape" fill="#A1E0FF"></path>
                <path d="M25.5941952,0 L84.8676062,0 C85.2868436,0.985003763 85.5188141,2.06888987 85.5188141,3.20695553 C85.5188141,7.73323446 81.8495403,11.4025086 77.3232611,11.4025086 L33.1385405,11.4025086 C28.6122615,11.4025086 24.9429875,7.73323446 24.9429875,3.20695553 C24.9429875,2.06888987 25.1749577,0.985003763 25.5941952,0 Z M152.182371,0 L211.985246,0 C212.236246,0.786489702 212.371722,1.62457318 212.371722,2.49429875 C212.371722,7.02057769 208.702448,10.6898518 204.176169,10.6898518 L159.991448,10.6898518 C155.465169,10.6898518 151.795895,7.02057769 151.795895,2.49429875 C151.795895,1.62457318 151.931371,0.786489702 152.182371,0 Z" id="Shape" fill="#A1E0FF"></path>
                <path d="M11.4025086,55.5872292 L226.113889,55.5872292 C227.142882,55.5872292 227.977045,56.4213927 227.977045,57.4503855 C227.977045,57.7995777 227.878914,58.1417419 227.693843,58.4378563 L226.958917,59.6137362 C226.307769,60.655574 225.165844,61.2884835 223.937259,61.2884835 L13.8968073,61.2884835 C12.7752377,61.2884835 11.7191219,60.7604256 11.0461802,59.8631699 L9.97719498,58.4378563 C9.38681079,57.6506774 9.54634443,56.5339418 10.3335234,55.9435576 C10.6419188,55.712261 11.0170143,55.5872292 11.4025086,55.5872292 Z" id="Shape" fill="#60C9FF"></path>
                <path d="M21.6669927,64.1391106 L214.99781,64.1391106 C215.947074,64.1391106 216.716603,64.9086407 216.716603,65.8579042 C216.716603,66.2742358 216.56549,66.6764163 216.291334,66.9897377 L214.861775,68.6235198 C214.18515,69.3968057 213.207648,69.8403649 212.18013,69.8403649 L25.4802632,69.8403649 C24.671143,69.8403649 23.8861141,69.5649916 23.2542974,69.0595382 L20.6670468,66.9897377 C19.9767281,66.4374828 19.8648053,65.4301779 20.4170602,64.7398593 C20.7208275,64.3601501 21.1807278,64.1391106 21.6669927,64.1391106 Z" id="Shape" fill="#60C9FF"></path>
                <path d="M33.4948689,3.56328392 L78.3922463,3.56328392 C79.1794249,3.56328392 79.8175599,4.20141854 79.8175599,4.98859749 C79.8175599,5.77577644 79.1794249,6.41391106 78.3922463,6.41391106 L33.4948689,6.41391106 C32.7076899,6.41391106 32.0695553,5.77577644 32.0695553,4.98859749 C32.0695553,4.20141854 32.7076899,3.56328392 33.4948689,3.56328392 Z" id="Shape" fill="#86D7FF"></path>
                <circle id="Shape" fill="#60C9FF" cx="161.77309" cy="4.98859749" r="2.13797035"></circle>
                <circle id="Shape" fill="#86D7FF" cx="169.612315" cy="4.98859749" r="2.13797035"></circle>
                <circle id="Shape" fill="#86D7FF" cx="177.451539" cy="4.98859749" r="2.13797035"></circle>
                <ellipse id="Shape" fill="#A1E0FF" cx="118.657355" cy="30.2879133" rx="20.3107184" ry="8.19555302"></ellipse>
                <path d="M4.98859749,49.1733181 L232.326112,49.1733181 C232.719701,49.1733181 233.038769,49.4923855 233.038769,49.8859749 C233.038769,50.2795644 232.719701,50.5986317 232.326112,50.5986317 L4.98859749,50.5986317 C4.59500802,50.5986317 4.27594071,50.2795644 4.27594071,49.8859749 C4.27594071,49.4923855 4.59500802,49.1733181 4.98859749,49.1733181 Z" id="Shape" fill="#86D7FF"></path>
            </g>
            <g id="Standing-Lamp-3" transform="translate(883.979475, 253.278221)" fill-rule="nonzero">
                <polygon id="Shape" fill="#60C9FF" points="12.1151653 359.891676 91.2200684 359.891676 91.2200684 368.443558 12.1151653 368.443558"></polygon>
                <polygon id="Shape" fill="#86D7FF" points="47.0353478 44.1847206 53.4492588 44.1847206 53.4492588 360.604333 47.0353478 360.604333"></polygon>
                <polygon id="Shape" fill="#60C9FF" points="26.1692349 0 73.7619676 0 99.7719498 74.1163056 0.712656784 74.1163056"></polygon>
                <polygon id="Shape" fill="#A1E0FF" points="0 65.5644242 99.7719498 65.5644242 99.7719498 79.8175599 0 79.8175599"></polygon>
            </g>
            <g id="Plant-13" transform="translate(72.976055, 358.038769)" fill-rule="nonzero">
                <path d="M15.4097246,128.648134 C10.0887646,121.324461 11.7122844,111.07396 19.0359576,105.753 C26.3596308,100.43204 36.6101313,102.055559 41.9310913,109.379232 C47.2520514,116.702906 45.6285316,126.953406 38.3048584,132.274366 C30.9811852,137.595326 20.7306846,135.971807 15.4097246,128.648134 Z" id="Shape" fill="#D8F4FF"></path>
                <polygon id="Shape" fill="#CCEEFF" points="27.4995499 107.73451 30.350177 107.73451 30.702245 184.049009 27.4995499 184.701443"></polygon>
                <polygon id="Shape" fill="#CCEEFF" points="37.5519889 117.777198 39.2275455 120.083404 28.8496194 127.623408 27.1740628 125.317202"></polygon>
                <polygon id="Shape" fill="#CCEEFF" points="21.7264227 114.707491 23.1386133 112.071697 28.9967362 115.014666 27.5845457 117.65046"></polygon>
                <circle id="Shape" fill="#CCEEFF" cx="43.4720639" cy="43.4720639" r="43.4720639"></circle>
                <polygon id="Shape" fill="#A1E0FF" points="41.5872428 32.725343 23.396396 20.0510646 25.5757049 16.9522684 41.5872428 28.1081365 41.5872428 12.8278221 45.3875078 12.8278221 45.3875078 48.2076229 68.7962829 26.5721551 71.3821772 29.3439926 45.3875078 53.3694631 45.3875078 209.521095 41.5872428 209.521095 41.5872428 76.1326525 9.97719498 50.2221073 12.393051 47.3022326 41.5872428 71.2325167"></polygon>
                <path d="M80.6911666,147.248203 C72.9369947,157.173091 58.6052853,158.932804 48.6803977,151.178631 C38.7555101,143.424459 36.9957975,129.092749 44.7499695,119.167862 C52.5041415,109.242975 66.8358511,107.483262 76.760739,115.237434 C86.6856264,122.991606 88.4453392,137.323315 80.6911666,147.248203 Z" id="Shape" fill="#CCEEFF"></path>
                <polygon id="Shape" fill="#A1E0FF" points="59.580957 119.28185 63.3701916 119.245583 63.7229318 189.448953 59.9336973 189.48522"></polygon>
                <polygon id="Shape" fill="#A1E0FF" points="47.3253052 125.087434 49.6649819 122.092784 63.0781331 132.572286 60.7384564 135.566936"></polygon>
                <polygon id="Shape" fill="#A1E0FF" points="76.9121857 133.339006 79.4676896 136.128416 62.4489289 151.767536 59.8934247 148.978126"></polygon>
                <path d="M18.6072414,168.187001 L71.7011517,168.187001 C74.8498674,168.187001 77.4024059,170.73954 77.4024059,173.888255 C77.4024059,174.029832 77.3971323,174.171359 77.3865964,174.312542 L70.7171583,263.68301 L22.2564969,263.68301 L12.9368509,174.480684 C12.6096615,171.349014 14.8831424,168.545054 18.0148126,168.217865 C18.2116194,168.197303 18.4093633,168.187001 18.6072414,168.187001 Z" id="Shape" fill="#A1E0FF"></path>
                <path d="M76.9917047,179.604092 L76.4724558,186.562028 L28.0453183,263.68301 L24.1954203,263.68301 L76.9917047,179.604092 Z M21.8485884,259.778742 L20.7565909,249.326767 L69.0143003,171.037628 L74.4330993,174.470174 L21.8485884,259.778742 Z" id="Shape" fill="#CCEEFF"></path>
                <polygon id="Shape" fill="#60C9FF" points="9.42867481 163.91106 82.1196665 163.91106 82.1196665 177.127605 9.42867481 177.127605"></polygon>
                <polygon id="Shape" fill="#60C9FF" points="13.7046155 259.40707 86.3956072 259.40707 86.3956072 263.68301 13.7046155 263.68301"></polygon>
            </g>
        </g>
    </g>
</svg>