<?xml version="1.0" encoding="UTF-8"?>
<svg width="350px" height="215px" viewBox="0 0 350 215" version="1.1" xmlns="http://www.w3.org/2000/svg" xmlns:xlink="http://www.w3.org/1999/xlink">
    <title>Welcome Screen</title>
    <g id="Samples" stroke="none" stroke-width="1" fill="none" fill-rule="evenodd">
        <g id="Sample:-Dashboard---Empty-State" transform="translate(-545.000000, -215.000000)">
            <g id="Welcome-Screen" transform="translate(545.000000, 215.000000)">
                <g id="bg" opacity="0.5" transform="translate(0.000000, 149.037090)" fill-rule="nonzero">
                    <path d="M314.761333,21.6788273 C292.628529,15.9596886 281.627934,23.8970111 256.568184,34.8001527 C231.508437,45.7032943 200.56306,49.1995539 165.2364,28.8512564 C129.909739,8.50295882 90.3272965,15.9596886 74.2316835,38.6661025 C63.5012749,53.8037118 38.7573803,62.6339839 0,65.1569187 L350,65.1569187 C341.262759,39.9842836 329.516535,25.4915864 314.761333,21.6788273 Z" id="Shape" fill="#CCEEFF"></path>
                    <path d="M0.499286733,65.1569187 C12.4772031,35.3621314 35.9125516,25.4305359 70.8053318,35.3621314 C123.144503,50.2595252 153.741511,39.0864799 181.051872,16.7403896 C208.362233,-5.60570081 240.455111,-8.58517951 278.232308,26.4236954 C303.417107,49.7629453 327.339672,62.6740197 350,65.1569187 L0.499286733,65.1569187 Z" id="Shape" fill="#E5F6FF"></path>
                </g>
                <g id="Man-Standing-1" transform="translate(235.346291, 138.435485) scale(-1, 1) translate(-235.346291, -138.435485) translate(188.096291, 62.660485)">
                    <g id="Head-Front/-Women/-4" transform="translate(28.459344, 0.183353)">
                        <path d="M11.0613092,13.0326016 C10.7659127,12.1752576 11.0162619,11.2619995 11.6279888,10.670595 C11.4675976,9.61464042 11.3221078,8.64841475 11.1915195,7.77191803 C11.1915195,4.1323659 14.2092863,1.18192591 17.9318904,1.18192591 C21.6544945,1.18192591 24.6722613,4.1323659 24.6722613,7.77191803 L24.6722613,11.2369965 C24.6722613,14.1493836 22.9386995,17.3595765 21.7234724,18.5913711 C22.0006471,19.4459149 22.3489524,20.177826 22.7683883,20.7871044 C22.8600609,20.9202693 22.9431017,21.0544658 23.0175108,21.1896939 C25.0058567,21.4407122 25.996671,26.3746187 24.5149788,27.5521386 C22.7692658,28.9394794 20.9026607,29.6601509 18.9151635,29.7141532 C15.2407573,29.8139908 11.8488635,27.6163061 8.73948227,23.1210999 C10.2216392,22.4297252 11.815705,21.9047329 13.5216799,21.5461231 L14.3520923,15.524296 C13.951562,15.2056808 13.5786726,14.881004 13.2502785,14.5571794 C12.2927593,14.5786871 11.3898108,13.9860285 11.0613092,13.0326016 Z" id="Shape" fill="#F79474"></path>
                        <path d="M21.3289424,18.6551395 C20.6377653,19.2463184 19.7623842,18.9308655 16.8316144,16.7746636 C16.7205581,16.6929581 16.5642937,16.7167517 16.4825882,16.8278081 C16.4008828,16.9388644 16.4246764,17.0951288 16.5357327,17.1768343 C19.6537434,19.4707915 20.701871,19.8484954 21.6534754,19.0345674 C21.7582515,18.9449501 21.7705402,18.787363 21.6809228,18.6825869 C21.5913055,18.5778108 21.4337185,18.5655221 21.3289424,18.6551395 Z" id="Shape" fill="#E2643B" fill-rule="nonzero"></path>
                        <path d="M20.8424168,14.699522 C20.7510268,14.5962884 20.7606279,14.4385149 20.8638615,14.3471249 C20.9670951,14.2557348 21.1248686,14.265336 21.2162586,14.3685695 C21.4789633,14.6653191 21.7535102,14.7493949 22.0834842,14.6428048 C22.2146832,14.6004242 22.3553973,14.6724257 22.397778,14.8036247 C22.4401586,14.9348238 22.3681571,15.0755379 22.2369581,15.1179185 C21.712271,15.2874059 21.2328956,15.1406044 20.8424168,14.699522 Z" id="Shape" fill="#E2643B" fill-rule="nonzero"></path>
                        <path d="M22.425471,10.1690871 C22.425471,10.0312129 22.3137019,9.91944374 22.1758276,9.91944374 C22.0379534,9.91944374 21.9261843,10.0312129 21.9261843,10.1690871 L21.9261843,12.1166899 C21.9261843,12.2419264 22.0189745,12.347781 22.1431322,12.364183 C22.606774,12.425433 22.7956502,12.5234762 22.7956502,12.5680184 C22.7956502,12.6677075 22.5533011,12.9036364 22.0495267,13.1991142 C21.9305995,13.2688683 21.8907369,13.4218247 21.960491,13.5407518 C22.0302451,13.659679 22.1832015,13.6995416 22.3021286,13.6297875 C22.9576421,13.2453106 23.294937,12.9169511 23.294937,12.5680184 C23.294937,12.2080797 22.98488,12.007814 22.425471,11.9034031 L22.425471,10.1690871 Z" id="Shape" fill="#E2643B" fill-rule="nonzero"></path>
                        <path d="M24.6721317,8.29991735 C24.6729605,8.09186821 24.6722613,7.88604215 24.6722613,7.67265344 C23.3314054,7.79815278 21.15076,8.17194017 19.8042157,6.10013327 C19.4297506,7.67265344 17.1389369,6.16187827 16.6836736,4.70289855 C16.6836736,9.46253 15.8715361,9.04316142 15.2169929,9.99305229 C14.5321216,10.9869561 14.8195106,11.4967997 14.516819,11.5585775 C13.92484,11.6793975 13.4489121,9.71996793 12.7393278,9.86881142 C12.0297434,10.0176549 10.4897923,11.3869506 11.1367806,13.051183 C11.7837688,14.7154155 13.8426421,14.3333761 14.2010781,15.3165824 C14.3062228,15.6049989 14.3734072,15.4585629 14.3521386,15.9212043 C14.3424189,16.1326291 14.0204905,18.1729993 13.602432,21.4313281 C13.574328,21.6503701 9.15689196,22.5795033 8.93615142,23.1856711 C8.71541087,23.7918392 12.7037626,26.9481322 12.5105246,27.5837294 C12.0052657,29.2456235 11.2589662,30.3610383 10.3254695,30.4564907 C9.03495362,30.588449 7.72174105,30.199203 5.91301461,28.6136179 C3.16134577,31.4796101 1.12138345,27.7850553 2.23323182,25.4636234 C-0.157055385,25.4636234 -1.49285582,22.2373545 3.16134577,20.2639556 C2.52815106,19.0333439 2.53624437,16.889377 5.91301461,16.1867887 C5.1236501,15.6326392 4.26395913,13.3227747 8.68370519,13.051183 C9.6656568,12.583186 8.786084,9.5512903 9.74433671,6.57880503 C10.5778585,3.99323318 13.2093502,1.33144054 14.5218083,1.9709178 C17.4326037,-1.9509425 21.2624721,1.64907278 24.7146933,1.64907278 C27.7104137,1.64907278 26.8662638,4.83255942 26.535873,5.26809572 C27.5540293,6.68233586 27.0519785,8.58290343 25.3587138,9.42283963 C25.0671253,9.56748082 24.3644827,14.6619761 26.535873,15.518904 C28.7072633,16.3758319 27.211127,18.3257868 26.2862296,18.8717059 C27.3523959,20.880455 26.6584799,21.7728459 25.6929853,21.6954078 C24.0766651,21.5776434 23.2395575,21.4762262 22.9044934,21.1014742 C22.5694294,20.7267223 21.7033926,18.6899656 21.7009497,18.6311233 C21.701994,18.4907264 23.747456,16.0888401 24.1729746,13.4144509 C24.5718045,10.9078003 24.6529899,9.69175476 24.668844,8.65763675 C24.424936,8.68988558 24.029957,8.66504456 23.5969893,8.5798641 C22.9089437,8.44450055 22.3855116,8.20801754 22.427871,8.05166447 C22.4702304,7.89531143 23.0623407,7.87829607 23.7503864,8.01365961 C24.130363,8.08841482 24.4601349,8.19401 24.6721317,8.29991735 L24.6721317,8.29991735 Z M18.6645164,8.46700403 C18.0470283,8.68942524 17.4978703,8.73762867 17.4379377,8.5746694 C17.3780051,8.41171015 17.8299931,8.09929755 18.4474812,7.87687632 C19.0649693,7.65445511 19.6141273,7.6062517 19.6740599,7.76921095 C19.7339925,7.93217023 19.2820045,8.24458282 18.6645164,8.46700403 Z M19.8042157,10.6683738 C19.5974043,10.6683738 19.4297506,10.5007201 19.4297506,10.2939088 C19.4297506,10.0870975 19.5974043,9.91944374 19.8042157,9.91944374 C20.011027,9.91944374 20.1786807,10.0870975 20.1786807,10.2939088 C20.1786807,10.5007201 20.011027,10.6683738 19.8042157,10.6683738 Z M23.7985095,10.6683738 C23.5916982,10.6683738 23.4240445,10.5007201 23.4240445,10.2939088 C23.4240445,10.0870975 23.5916982,9.91944374 23.7985095,9.91944374 C24.0053209,9.91944374 24.1729746,10.0870975 24.1729746,10.2939088 C24.1729746,10.5007201 24.0053209,10.6683738 23.7985095,10.6683738 Z" id="Shape" fill="#0E143F"></path>
                        <path d="M13.9413643,12.1194212 C13.1198903,11.326391 12.3880205,11.4266284 11.9796985,12.4172015 C11.9271547,12.5446709 11.9878938,12.6906005 12.1153632,12.7431443 C12.2428326,12.7956882 12.3887621,12.7349491 12.441306,12.6074797 C12.7079822,11.9605335 13.0144287,11.9185624 13.594589,12.4786344 C13.693783,12.5743938 13.8518239,12.5716094 13.9475833,12.4724155 C14.0433427,12.3732215 14.0405583,12.2151805 13.9413643,12.1194212 Z" id="Shape" fill="#E2643B" fill-rule="nonzero"></path>
                    </g>
                    <g id="Front-Bottom/-Standing/-Long-Pants" transform="translate(29.707561, 61.288467)">
                        <path d="M2.34432908,75.7419742 L7.49052008,76.7422922 L4.36323848,87.3112739 L0.248424277,86.5244696 L2.34432908,75.7419742 Z M34.0506412,77.000902 L39.254075,76.3620007 L39.5458484,87.3800826 L35.3892916,87.9033346 L34.0506412,77.000902 Z" id="Shape" fill="#F79474"></path>
                        <path d="M20.563921,25.3454632 L6.06221317,84.7199807 L0.498691137,83.4941022 C1.70693357,60.4718699 3.97751319,45.3834914 7.31043,43.4035934 C5.50040381,30.4535662 5.7140809,16.4209443 7.95146132,1.30572747 L12.5533622,1.53738779 L31.6054251,-7.09529122e-15 L39.9429387,42.82479 L39.7690705,83.5090334 L34.6822399,84.7199807 C31.102369,62.5669803 29.476664,49.1550932 32.3015582,46.4814659 C28.7291371,40.7355776 24.8165913,33.6902433 20.563921,25.3454632 Z" id="Shape" fill="#1A6EE3"></path>
                        <path d="M0.220566695,85.7184011 C0.661700087,85.283798 2.72755312,86.5516138 3.58795954,86.5540681 C4.16156383,86.5557045 4.5351763,86.2814163 4.70879697,85.7312041 C8.27913514,87.1915943 10.3897334,88.1168321 11.0405918,88.5069168 C11.6914502,88.8970018 11.883615,89.3519002 11.6170862,89.871612 L0.220566695,89.871612 C-0.0735222317,87.39254 -0.0735222317,86.0081365 0.220566695,85.7184011 Z M34.9209946,85.7759117 C35.3621279,85.3413086 37.427981,86.6091244 38.2883876,86.6115789 C38.8619919,86.6132151 39.2356044,86.3389269 39.4092249,85.7887147 C42.9795631,87.2491049 45.0901615,88.1743427 45.7410197,88.5644276 C46.3918781,88.9545124 46.5840429,89.4094108 46.3175141,89.9291226 L34.9209946,89.9291226 C34.6269057,87.4500509 34.6269057,86.0656471 34.9209946,85.7759117 Z" id="Shape" fill="#021768"></path>
                        <path d="M30.5465685,6.12944747 C30.6277988,6.01804317 30.6033382,5.86188188 30.4919338,5.78065145 C30.3805295,5.699421 30.2243681,5.72388175 30.1431379,5.83528605 L21.9959984,17.0087626 C21.9805677,17.0299251 21.9685634,17.053384 21.9604259,17.0782785 L19.0762024,25.9017423 C19.0333645,26.0327925 19.1048749,26.1737569 19.2359253,26.216595 C19.3669757,26.2594328 19.5079401,26.1879224 19.550778,26.0568719 L22.4227191,17.2709826 L30.5465685,6.12944747 Z" id="Shape" fill="#0E143F" fill-rule="nonzero"></path>
                    </g>
                    <g id="Front-body/-Woman/-Pose5/-Shirt" transform="translate(0.000000, 19.555033)">
                        <path d="M60.7658913,32.0202835 C58.621488,28.221934 46.362577,12.6784014 47.4951024,8.67076841 C48.6276275,4.6631354 50.7448179,4.92620511 55.5238927,7.20006607 C57.518635,8.149155 64.5247373,18.9266269 65.6657897,25.0162268 C69.0512329,22.4997744 72.8046746,24.5519468 85.4812761,22.0667303 C87.1595119,20.1727884 87.9666286,19.4819506 88.3783824,19.3302153 C88.7901364,19.17848 88.665485,19.9826863 88.0044286,21.7428343 C88.5495067,21.6242157 89.3614393,22.7993081 90.3479493,22.5514967 C91.7825149,22.1911338 93.6792488,20.4955324 94.2232526,20.9867023 C94.6132642,21.3388359 93.5301463,22.4028587 90.9738988,24.1787706 C88.5215222,25.0681364 86.8945419,25.3472883 86.0929583,25.0162268 C69.960987,31.0189148 61.5186312,33.3536002 60.7658913,32.0202835 Z M27.0249509,25.176575 C27.6365111,21.399165 29.3333973,14.6155058 32.8795013,7.42046588 C39.8838794,5.33128782 43.6265262,5.65607949 44.1074416,8.3948408 C44.8288146,12.5029828 32.1001353,30.7763168 28.7751343,31.7963811 C26.558467,32.4764236 19.1513735,27.9313406 6.55385395,18.1611319 C5.2879906,18.4071122 4.13068063,18.3781343 3.08192408,18.0741982 C1.50878924,17.618294 0.700191801,17.4583009 0.707479765,17.1101307 C0.714767728,16.7619604 3.12851212,17.0334165 2.81813856,16.9076004 C1.96978093,16.5637018 -0.0467402282,15.9976263 0.000827168331,15.5293194 C0.0325387411,15.2171149 1.0792216,15.2748649 3.14087573,15.7025697 C0.925222079,14.7845813 -0.106477015,14.1740875 0.0457784272,13.8710883 C0.274161591,13.4165895 3.09389685,14.4039258 3.44218766,14.3828036 C3.20334235,14.0166079 0.946320663,12.9136641 1.37763934,12.4357073 C1.5940016,12.1959499 3.13807059,12.7159211 6.00984631,13.9956208 C5.67849606,12.1212284 5.70071475,11.3009481 6.07650238,11.5347798 C6.45228999,11.7686115 6.9872782,13.047136 7.681467,15.3703533 C18.1657287,19.8074888 24.6135566,23.0762294 27.0249509,25.176575 Z" id="Shape" fill="#F79474"></path>
                        <path d="M36.6845431,24.3307196 C36.0755949,25.1497912 35.4527073,25.9259232 34.8255495,26.6370343 C32.8795013,28.8435866 26.608448,21.1410798 26.9900199,19.8655811 C28.0007837,16.4868528 30.2288836,12.7742457 32.7669343,7.64833291 C33.0817747,6.91350616 33.6598725,6.24854668 34.6388888,5.61944659 C35.4400412,5.10463898 37.6845259,3.94676197 41.3723427,2.14581555 C41.6531367,1.97140461 41.9255988,1.51818621 42.189729,0.786160411 C46.7586549,3.83358832 49.3346846,5.20992782 49.9178176,4.91517892 C50.7925175,4.47305555 50.7925175,2.0211432 50.661065,0.266900279 C51.3888206,1.65852618 51.8745884,2.39003676 52.1183682,2.46143202 C54.6511876,3.20321293 56.2818965,4.03554471 57.0104952,4.95842736 C58.374565,5.64962798 60.9443327,9.03257505 63.7251895,14.7483617 C64.4829682,16.3059038 62.4922618,19.1925867 60.1281309,20.8428667 C59.8692036,23.6795259 59.5311178,26.3398946 59.8858897,28.8187456 C60.8335934,35.44051 64.3242327,40.3056093 62.7337806,44.1193526 C62.2866763,45.191463 57.27905,47.390141 55.580523,45.5063404 C53.8978805,48.5248775 39.2713093,49.6984527 36.2033859,45.9596114 C33.1354624,42.2207699 40.3614717,34.9292518 39.5397965,30.9527288 C39.1639101,29.133615 37.9583003,26.8631678 36.6845431,24.3307196 L36.6845431,24.3307196 Z" id="Shape" fill="#0097A9"></path>
                        <path d="M56.715237,9.24012158 C57.8978291,10.9605454 59.0406909,12.8958783 60.143646,15.0461187 C60.3546096,15.4573979 60.5125495,15.8679229 60.621371,16.2798836 C61.0284028,17.8207651 60.8091603,19.0442708 60.010458,21.203214 C59.6747623,22.1106206 59.5946708,22.3402584 59.493542,22.7314913 C58.5210775,26.4936252 59.5701468,32.0353757 62.6237937,39.3732887 C62.6783108,39.5042935 62.8251663,39.5647751 62.9518041,39.508378 C63.0784422,39.451981 63.1369077,39.3000616 63.0823903,39.169057 C60.0691859,31.9283269 59.0393351,26.4880981 59.9758819,22.8649169 C60.0705667,22.4986142 60.1486469,22.2747433 60.4767624,21.387826 C61.3108296,19.1332895 61.5460124,17.820828 61.102999,16.1437336 C60.9844019,15.6947661 60.8128018,15.2487348 60.5846867,14.8040181 C59.4718976,12.6346063 58.3177736,10.6802016 57.1221382,8.94080223 C57.0422386,8.82456505 56.8863792,8.79734112 56.7740165,8.87999587 C56.661654,8.96265061 56.6353374,9.12388438 56.715237,9.24012158 Z" id="Shape" fill="#0E143F" fill-rule="nonzero"></path>
                        <path d="M55.8301697,44.9347705 C55.7516433,29.2242895 55.372088,19.8108523 54.6859455,16.652026 C54.0014016,13.5005602 52.7353181,9.83463252 50.8881279,5.65258326 C50.830828,5.52285563 50.6827176,5.46574322 50.5573143,5.52501912 C50.4319109,5.58429504 50.3767023,5.73751265 50.4340022,5.8672403 C52.2678249,10.019026 53.5226151,13.6522535 54.1988056,16.7652631 C54.8733974,19.8709124 55.2526072,29.2757825 55.3308829,44.9374407 C55.3315959,45.0800674 55.4439414,45.1950913 55.5818137,45.1943609 C55.7196862,45.1936164 55.8308759,45.077397 55.8301697,44.9347705 Z" id="Shape" fill="#0E143F" fill-rule="nonzero"></path>
                        <path d="M50.6842674,6.01704572 C50.8215448,6.00378966 50.9224422,5.8779207 50.909628,5.73590954 C50.8968138,5.59389839 50.7751403,5.48952178 50.6378629,5.50277784 L48.0845321,5.74933784 C48.009997,5.75653525 47.9425179,5.79795411 47.9006922,5.86217953 L46.1341476,8.57478648 L41.9371003,1.83362516 L42.343125,0.891300179 C42.3992565,0.761026986 42.3426731,0.608347023 42.2167423,0.550279933 C42.0908115,0.492212844 41.9432209,0.550747455 41.8870894,0.681020646 L41.4261011,1.7509082 C41.3918056,1.83050312 41.3986265,1.9226226 41.4442401,1.99588568 L45.9195823,9.18403515 C46.0166776,9.33998641 46.2363151,9.34233308 46.3365032,9.18848966 L48.2486953,6.25223444 L50.6842674,6.01704572 Z" id="Shape" fill="#0E143F" fill-rule="nonzero"></path>
                        <path d="M52.064954,4.61221951 C51.9848831,4.57297405 51.8907032,4.58057407 51.8174838,4.63218951 L50.5204844,5.54650003 C50.4065491,5.62681789 50.3771264,5.78747605 50.454767,5.9053401 C50.5324076,6.02320415 50.6877105,6.05364137 50.801646,5.97332351 L51.9804405,5.14234052 L54.3875483,6.32214641 C54.6168549,6.4345375 54.8431981,6.16244773 54.7015869,5.94463686 L50.9164619,0.122772478 C50.8395156,0.00442216262 50.6843945,-0.0269915082 50.5699892,0.0526080781 C50.4555838,0.132207664 50.4252175,0.292677766 50.5021636,0.411028082 L53.7801772,5.45290903 L52.064954,4.61221951 Z" id="Shape" fill="#0E143F" fill-rule="nonzero"></path>
                        <path d="M38.4093188,20.5862314 C38.5998624,20.3112631 39.0011693,20.5979281 38.8201086,20.8796702 C37.6304945,22.7307858 36.4062133,24.4980757 35.2558243,26.0230989 C35.0551731,26.2890939 34.6660935,25.9879768 34.856118,25.7137576 L38.4093188,20.5862314 Z M38.8151102,20.8871584 L35.2619094,26.0146847 L34.8622031,25.7053433 C36.0045009,24.1910461 37.2214599,22.4343262 38.4043204,20.5937196 L38.8151102,20.8871584 Z" id="Shape" fill="#0E143F" fill-rule="nonzero"></path>
                    </g>
                </g>
                <g id="Decoration-2" transform="translate(263.373752, 130.563481)" fill-rule="nonzero">
                    <path d="M14.6790869,0.62912357 C16.1846734,0.62912357 17.4051924,1.8496426 17.4051924,3.35522914 L17.4051924,11.7432463 C17.4051924,13.2488328 16.1846734,14.4693518 14.6790869,14.4693518 C13.1735003,14.4693518 11.9529813,13.2488328 11.9529813,11.7432463 L11.9529813,3.35522914 C11.9529813,1.8496426 13.1735003,0.62912357 14.6790869,0.62912357 Z" id="Shape" fill="#60C9FF"></path>
                    <path d="M17.4051924,5.66193385 C18.3317072,5.66193385 19.0827958,6.41302249 19.0827958,7.33953727 L19.0827958,12.7917484 C19.0827958,13.7182632 18.3317072,14.4693518 17.4051924,14.4693518 C16.4786776,14.4693518 15.727589,13.7182632 15.727589,12.7917484 L15.727589,7.33953727 C15.727589,6.41302249 16.4786776,5.66193385 17.4051924,5.66193385 Z" id="Shape" fill="#86D7FF"></path>
                    <path d="M18.4396576,10.9072151 C18.6049594,10.6166251 18.8876242,10.425107 19.2085592,10.425107 C19.7181423,10.425107 20.1312411,10.9079497 20.1312411,11.5035663 C20.1312411,12.099183 19.7181423,12.5820257 19.2085592,12.5820257 C18.8876242,12.5820257 18.6049594,12.3905076 18.4396576,12.0999175 C18.2743559,12.3905076 17.9916911,12.5820257 17.6707561,12.5820257 C17.349821,12.5820257 17.0671563,12.3905076 16.9018545,12.0999175 C16.7365527,12.3905076 16.4538879,12.5820257 16.1329529,12.5820257 C15.7371099,12.5820257 15.3994869,12.2906712 15.2684911,11.8814252 C15.1001429,12.0913678 14.8607521,12.2225392 14.5951498,12.2225392 C14.3295475,12.2225392 14.0901566,12.0913678 13.9218084,11.8814252 C13.7908127,12.2906712 13.4531897,12.5820257 13.0573466,12.5820257 C12.8210311,12.5820257 12.6054652,12.4781867 12.4422254,12.3074163 C12.2789856,12.4781867 12.0634197,12.5820257 11.8271041,12.5820257 C11.317521,12.5820257 10.9044223,12.099183 10.9044223,11.5035663 C10.9044223,10.9079497 11.317521,10.425107 11.8271041,10.425107 C12.0634197,10.425107 12.2789856,10.5289459 12.4422254,10.6997163 C12.6054652,10.5289459 12.8210311,10.425107 13.0573466,10.425107 C13.3229489,10.425107 13.5623398,10.5562784 13.730688,10.7662211 C13.8616838,10.356975 14.1993067,10.0656205 14.5951498,10.0656205 C14.9909928,10.0656205 15.3286158,10.356975 15.4596116,10.7662211 C15.6279598,10.5562784 15.8673506,10.425107 16.1329529,10.425107 C16.4538879,10.425107 16.7365527,10.6166251 16.9018545,10.9072151 C17.0671563,10.6166251 17.349821,10.425107 17.6707561,10.425107 C17.9916911,10.425107 18.2743559,10.6166251 18.4396576,10.9072151 L18.4396576,10.9072151 Z" id="Shape" fill="#00A7FF"></path>
                    <polygon id="Shape" fill="#CCEEFF" points="9.64621969 11.743224 21.3894437 11.743224 19.7453923 21.8088445 11.5251355 21.8088445"></polygon>
                    <polygon id="Shape" fill="#60C9FF" points="10.0656205 20.4814807 20.9700428 20.4814807 20.9700428 22.1590841 10.0656205 22.1590841"></polygon>
                    <polygon id="Shape" fill="#86D7FF" points="8.38801712 11.3238231 22.2282454 11.3238231 21.536234 13.8402282 9.08002853 13.8402282"></polygon>
                    <path d="M12.4386952,3.36599027 L11.1804927,2.94658941 C11.0706215,2.90996571 10.951864,2.96934448 10.9152403,3.0792156 C10.8786166,3.18908674 10.9379953,3.30784428 11.0478665,3.34446799 L12.3060691,3.76386884 C12.4159402,3.80049257 12.5346977,3.7411138 12.5713214,3.63124266 C12.6079451,3.52137152 12.5485664,3.40261397 12.4386952,3.36599027 Z" id="Shape" fill="#86D7FF"></path>
                    <path d="M15.8758696,1.19680502 L16.2952704,0.777404165 C16.3771636,0.695511053 16.3771636,0.562736086 16.2952704,0.480842974 C16.2133773,0.398949864 16.0806024,0.398949864 15.9987093,0.480842974 L15.5793084,0.90024383 C15.4974153,0.982136942 15.4974153,1.11491191 15.5793084,1.19680502 C15.6612015,1.27869813 15.7939765,1.27869813 15.8758696,1.19680502 Z" id="Shape" fill="#86D7FF"></path>
                    <path d="M17.4071977,3.09692709 C17.4938503,3.02008776 17.6263868,3.028043 17.7032261,3.11469563 C17.7800655,3.20134827 17.7721102,3.33388471 17.6854576,3.41072404 L16.9837863,4.03293202 C16.8971336,4.10977137 16.7645972,4.10181611 16.6877578,4.01516348 C16.6109185,3.92851084 16.6188738,3.7959744 16.7055264,3.71913507 L17.4071977,3.09692709 Z" id="Shape" fill="#86D7FF"></path>
                    <path d="M14.8907926,8.96853908 C14.9774452,8.89169975 15.1099816,8.89965498 15.186821,8.98630762 C15.2636603,9.07296025 15.2557051,9.20549669 15.1690524,9.28233602 L14.4673811,9.904544 C14.3807285,9.98138336 14.2481921,9.9734281 14.1713527,9.88677546 C14.0945134,9.80012282 14.1024686,9.66758639 14.1891213,9.59074706 L14.8907926,8.96853908 Z" id="Shape" fill="#86D7FF"></path>
                    <path d="M15.1873137,5.73643949 C15.2850611,5.79855555 15.313946,5.92815051 15.25183,6.02589792 C15.1897139,6.12364534 15.0601189,6.15253025 14.9623715,6.09041418 L14.17086,5.58742821 C14.0731126,5.52531215 14.0442277,5.39571718 14.1063437,5.29796975 C14.1684598,5.20022234 14.2980548,5.17133743 14.3958022,5.23345349 L15.1873137,5.73643949 Z" id="Shape" fill="#86D7FF"></path>
                    <path d="M12.4386952,8.39880054 L11.1804927,7.97939968 C11.0706215,7.94277598 10.951864,8.00215475 10.9152403,8.11202587 C10.8786166,8.22189701 10.9379953,8.34065455 11.0478665,8.37727826 L12.3060691,8.79667912 C12.4159402,8.83330285 12.5346977,8.77392407 12.5713214,8.66405293 C12.6079451,8.55418179 12.5485664,8.43542424 12.4386952,8.39880054 Z" id="Shape" fill="#86D7FF"></path>
                    <path d="M14.8772828,3.42546827 C14.8804459,3.54123941 14.789159,3.63765468 14.6733879,3.64081778 C14.5576168,3.64398089 14.4612015,3.55269405 14.4580384,3.43692289 L14.439927,2.77403929 C14.4367639,2.65826815 14.5280507,2.56185289 14.6438219,2.55868978 C14.759593,2.55552667 14.8560083,2.64681351 14.8591714,2.76258465 L14.8772828,3.42546827 Z" id="Shape" fill="#86D7FF"></path>
                    <path d="M13.3856651,1.35160441 L12.5468634,0.093401845 C12.4826212,-0.00296151764 12.3524246,-0.029000831 12.2560613,0.0352414109 C12.1596979,0.0994836525 12.1336586,0.229680219 12.1979008,0.326043581 L13.0367025,1.58424615 C13.1009448,1.68060951 13.2311414,1.70664883 13.3275047,1.64240658 C13.4238681,1.57816434 13.4499074,1.44796777 13.3856651,1.35160441 Z" id="Shape" fill="#86D7FF"></path>
                    <path d="M12.8245635,6.50464552 C12.9189261,6.57179218 12.9409889,6.70272126 12.8738423,6.79708381 C12.8066957,6.89144635 12.6757666,6.91350921 12.581404,6.84636258 L11.5007999,6.07742471 C11.4064373,6.01027806 11.3843745,5.879349 11.4515211,5.78498643 C11.5186678,5.69062389 11.6495968,5.66856103 11.7439594,5.73570768 L12.8245635,6.50464552 Z" id="Shape" fill="#86D7FF"></path>
                    <path d="M18.7571759,7.52709903 L19.5959776,7.10769817 C19.6995651,7.05590441 19.7415522,6.92994303 19.6897584,6.82635551 C19.6379647,6.72276802 19.5120033,6.6807809 19.4084158,6.73257464 L18.5696141,7.15197549 C18.4660266,7.20376925 18.4240395,7.32973066 18.4758332,7.43331815 C18.527627,7.53690564 18.6535884,7.57889279 18.7571759,7.52709903 Z" id="Shape" fill="#A1E0FF"></path>
                    <path d="M18.7571759,10.462905 L19.5959776,10.0435042 C19.6995651,9.9917104 19.7415522,9.86574902 19.6897584,9.7621615 C19.6379647,9.65857401 19.5120033,9.61658689 19.4084158,9.66838063 L18.5696141,10.0877815 C18.4660266,10.1395752 18.4240395,10.2655366 18.4758332,10.3691241 C18.527627,10.4727116 18.6535884,10.5146988 18.7571759,10.462905 Z" id="Shape" fill="#A1E0FF"></path>
                    <path d="M17.5408899,6.01487447 C17.4695018,6.10607039 17.3377014,6.12212775 17.2465054,6.05073959 C17.1553095,5.97935142 17.1392522,5.84755101 17.2106403,5.75635509 L17.5608352,5.3089932 C17.6322234,5.2177973 17.7640238,5.20173994 17.8552197,5.27312808 C17.9464156,5.34451625 17.962473,5.47631669 17.8910848,5.56751259 L17.5408899,6.01487447 Z" id="Shape" fill="#A1E0FF"></path>
                    <path d="M15.8022173,6.86258156 C15.9053592,6.91525714 15.9462702,7.04157211 15.8935947,7.14471402 C15.8409191,7.2478559 15.7146041,7.28876695 15.6114622,7.23609138 L15.1054993,6.97769124 C15.0023574,6.9250157 14.9614464,6.7987007 15.0141219,6.69555882 C15.0667975,6.59241691 15.1931125,6.55150588 15.2962544,6.60418143 L15.8022173,6.86258156 Z" id="Shape" fill="#A1E0FF"></path>
                    <path d="M17.4715059,8.69280031 C17.5427225,8.78413022 17.5264175,8.91590025 17.4350876,8.98711689 C17.3437577,9.05833352 17.2119877,9.04202849 17.140771,8.95069859 L16.7914175,8.50267937 C16.7202009,8.41134944 16.7365059,8.27957943 16.8278358,8.20836279 C16.9191657,8.13714613 17.0509357,8.15345116 17.1221524,8.24478107 L17.4715059,8.69280031 Z" id="Shape" fill="#A1E0FF"></path>
                    <path d="M15.7939025,9.95100288 C15.8651191,10.0423328 15.8488141,10.1741028 15.7574842,10.2453195 C15.6661543,10.3165361 15.5343842,10.3002311 15.4631676,10.2089012 L15.1138141,9.76088193 C15.0425975,9.669552 15.0589025,9.537782 15.1502324,9.46656536 C15.2415623,9.3953487 15.3733323,9.41165373 15.444549,9.50298363 L15.7939025,9.95100288 Z" id="Shape" fill="#A1E0FF"></path>
                    <path d="M49.6857771,14.6080279 C50.7971953,14.5123882 51.6694298,13.5808131 51.6694298,12.4457204 C51.6694298,11.3106277 50.7971953,10.3790526 49.6857771,10.2834129 L49.6857771,14.6080279 L49.6857771,14.6080279 Z M49.6801114,9.52603475 C51.211973,9.62052926 52.425107,10.8915952 52.425107,12.4457204 C52.425107,13.9979291 51.214963,15.2677762 49.6857771,15.3650511 L49.6857771,18.4536377 C49.6857771,19.1485237 49.1224606,19.7118402 48.4275745,19.7118402 L43.1982882,19.7118402 C42.5034021,19.7118402 41.9400856,19.1485237 41.9400856,18.4536377 L41.9400856,9.64621969 C41.9400856,8.95133361 42.5034021,8.38801712 43.1982882,8.38801712 L48.4275745,8.38801712 C49.0819227,8.38801712 49.6196044,8.88752566 49.6801114,9.52603475 L49.6801114,9.52603475 Z" id="Shape" fill="#A1E0FF"></path>
                    <path d="M42.0025187,18.84615 C46.4952592,16.4701914 48.5622853,12.9841471 48.2035967,8.38801712 L48.4275745,8.38801712 C49.0819227,8.38801712 49.6196044,8.88752566 49.6801114,9.52603475 C51.211973,9.62052926 52.425107,10.8915952 52.425107,12.4457204 C52.425107,13.9979291 51.214963,15.2677762 49.6857771,15.3650511 L49.6857771,18.4536377 C49.6857771,19.1485237 49.1224606,19.7118402 48.4275745,19.7118402 L43.1982882,19.7118402 C42.6404626,19.7118402 42.1674231,19.3488272 42.0025187,18.84615 L42.0025187,18.84615 Z M49.6857771,14.6080279 C50.7971953,14.5123882 51.6694298,13.5808131 51.6694298,12.4457204 C51.6694298,11.3106277 50.7971953,10.3790526 49.6857771,10.2834129 L49.6857771,14.6080279 Z" id="Shape" fill="#86D7FF"></path>
                    <polygon id="Shape" fill="#A1E0FF" points="23.0670471 36.9072753 39.8430813 36.9072753 39.8430813 38.5848787 23.0670471 38.5848787"></polygon>
                    <polygon id="Shape" fill="#A1E0FF" points="22.2282454 65.8459344 40.681883 65.8459344 40.681883 67.5235378 22.2282454 67.5235378"></polygon>
                    <polygon id="Shape" fill="#86D7FF" points="52.425107 21.3948559 13.7389936 83.4607703 10.4850214 83.4553581 49.7687503 19.7118402"></polygon>
                    <polygon id="Shape" fill="#A1E0FF" points="10.4850214 21.3948559 13.1413781 19.7118402 52.425107 83.4553581 48.8095823 83.4607703"></polygon>
                    <circle id="Shape" fill="#60C9FF" cx="31.4550642" cy="52.425107" r="1.25820257"></circle>
                    <circle id="Shape" fill="#00A7FF" cx="31.4550642" cy="52.425107" r="1"></circle>
                    <polygon id="Shape" fill="#60C9FF" points="0 19.7118402 62.9101284 19.7118402 62.9101284 23.4864479 0 23.4864479"></polygon>
                </g>
                <g id="Background" transform="translate(72.646220, 0.000000)" fill-rule="nonzero">
                    <g id="Background-Element-3" transform="translate(197.218260, 58.166904)" fill="#F2A900">
                        <path d="M12.606232,6.80700096 L6.96957511,12.4821683 L1.1241532,6.59680959 C-0.374717731,5.08769813 -0.374717731,2.64094505 1.1241532,1.13183359 C2.62302412,-0.377277862 5.05317405,-0.377277862 6.55204499,1.13183359 L6.96957511,1.55221636 L7.17834018,1.34202497 C8.67721111,-0.167086478 11.107361,-0.167086478 12.606232,1.34202497 C14.1051029,2.85113642 14.1051029,5.29788951 12.606232,6.80700096 Z" id="Shape"></path>
                    </g>
                    <g id="Background-Element-2" transform="translate(0.000000, 54.422254)">
                        <circle id="Shape" fill="#0097A9" cx="9.98573466" cy="9.98573466" r="9.98573466"></circle>
                        <path d="M9.76841749,12.9735511 L7.52935053,14.1537692 C7.30106171,14.2741009 7.01870283,14.1861015 6.89868429,13.9572171 C6.85089229,13.8660741 6.83440045,13.7616772 6.85176192,13.660188 L7.27938565,11.1604459 C7.30536838,11.0085598 7.25514361,10.8535805 7.14507897,10.7460141 L5.33363575,8.97568694 C5.14894621,8.79518949 5.14516714,8.49875637 5.32519493,8.31358502 C5.39688294,8.23984881 5.4908158,8.19186279 5.59245156,8.17705572 L8.09580454,7.81234825 C8.24791012,7.79018836 8.37940033,7.69440592 8.447424,7.55621531 L9.56695749,5.28187486 C9.68110188,5.04998965 9.96112517,4.95478329 10.192407,5.06922547 C10.2845047,5.11479695 10.3590502,5.18953695 10.4045031,5.28187486 L11.5240366,7.55621531 C11.5920602,7.69440592 11.7235504,7.79018836 11.875656,7.81234825 L14.379009,8.17705572 C14.6342436,8.21424022 14.8110866,8.4518326 14.7739989,8.70773311 C14.7592303,8.80963403 14.7113692,8.90381192 14.6378248,8.97568694 L12.8263816,10.7460141 C12.716317,10.8535805 12.6660922,11.0085598 12.6920749,11.1604459 L13.1196986,13.660188 C13.1632979,13.9150545 12.9925696,14.157101 12.7383663,14.200814 C12.6371412,14.2182208 12.5330158,14.2016859 12.44211,14.1537692 L10.203043,12.9735511 C10.0669957,12.9018402 9.90446486,12.9018402 9.76841749,12.9735511 Z" id="Shape" fill="#FFFFFF"></path>
                    </g>
                    <g id="Background-Element-1" transform="translate(1.997147, 0.000000)">
                        <polygon id="Shape" fill="#244C5A" points="6.10905326 2.64801058 12.6458907 28.9328117 32.4053486 7.90038598"></polygon>
                        <polygon id="Shape" fill="#244C5A" transform="translate(180.149383, 15.790411) scale(-1, 1) translate(-180.149383, -15.790411) " points="167.001236 2.64801058 173.538073 28.9328117 193.297531 7.90038598"></polygon>
                        <polygon id="Shape" fill="#0097A9" points="32.5133613 7.98046231 39.0501988 34.2652634 58.8096567 13.2328377"></polygon>
                        <polygon id="Shape" fill="#0097A9" transform="translate(154.146530, 21.122863) scale(-1, 1) translate(-154.146530, -21.122863) " points="140.998383 7.98046231 147.53522 34.2652634 167.294678 13.2328377"></polygon>
                        <polygon id="Shape" fill="#244C5A" points="58.795815 12.733672 70.1216899 36.2049399 85.297815 14.5422535"></polygon>
                        <polygon id="Shape" fill="#244C5A" transform="translate(127.407728, 25.028507) scale(-1, 1) translate(-127.407728, -25.028507) " points="114.156728 13.2928732 125.482603 36.764141 140.658728 15.1014546"></polygon>
                        <polygon id="Shape" fill="#0097A9" points="85.3578692 14.4112754 99.646229 37.9565606 113.934589 14.4112754"></polygon>
                        <path d="M0.927105491,2.47228911 C66.0114085,20.2431784 131.107625,20.2431784 196.191929,2.47228911 C196.862276,2.28925477 197.257321,1.5974525 197.074286,0.927105491 C196.891252,0.256758485 196.19945,-0.138286485 195.529103,0.0447478552 C130.878741,17.697152 66.240293,17.697152 1.58993147,0.0447478552 C0.919584463,-0.138286485 0.227782195,0.256758485 0.0447478552,0.927105491 C-0.138286485,1.5974525 0.256758485,2.28925477 0.927105491,2.47228911 Z" id="Shape" fill="#F2A900"></path>
                    </g>
                </g>
                <g id="Man-Standing-1" transform="translate(70.399429, 62.410842)">
                    <g id="Head-Front/-Man/3" transform="translate(41.191155, 0.183353)">
                        <path d="M2.51107163,14.3743905 C1.57112016,14.3758358 0.692200892,13.7870696 0.369076425,12.8492492 C0.0736799679,11.9919052 0.324029084,11.0786471 0.935756023,10.4872426 C0.775364784,9.43128798 0.629875019,8.4650623 0.499286733,7.58856559 C0.499286733,3.94901345 3.51705359,0.998573466 7.23965763,0.998573466 C10.9622617,0.998573466 13.9800285,3.94901345 13.9800285,7.58856559 L13.9800285,11.8025742 C13.9800285,14.7408142 12.7132486,17.1747277 11.2704037,18.0881487 C11.574324,19.2726402 11.9951928,20.2555066 12.5330103,21.0367478 C13.5232701,22.4752132 13.5063228,24.0340529 12.4821683,25.7132668 L2.74607703,25.7132668 L3.49500713,14.851368 C3.41431144,14.7757819 2.58697612,14.4503306 2.51107163,14.3743905 Z" id="Shape" fill="#FFB5B9"></path>
                        <path d="M11.9828816,9.48644793 C11.9828816,9.34857372 11.8711124,9.23680456 11.7332382,9.23680456 C11.595364,9.23680456 11.4835949,9.34857372 11.4835949,9.48644793 L11.4835949,11.4340507 C11.4835949,11.5592872 11.5763851,11.6651418 11.7005428,11.6815438 C12.1641846,11.7427938 12.3530608,11.840837 12.3530608,11.8853792 C12.3530608,11.9850683 12.1107117,12.2209973 11.6069373,12.516475 C11.4880101,12.5862291 11.4481475,12.7391855 11.5179016,12.8581127 C11.5876557,12.9770398 11.740612,13.0169025 11.8595392,12.9471483 C12.5150527,12.5626714 12.8523476,12.234312 12.8523476,11.8853792 C12.8523476,11.5254405 12.5422906,11.3251748 11.9828816,11.2207639 L11.9828816,9.48644793 Z" id="Shape" fill="#F97A80" fill-rule="nonzero"></path>
                        <path d="M7.97228365,8.48223922 C7.35479555,8.76026573 6.80563756,8.82052003 6.74570495,8.61682093 C6.68577235,8.41312185 7.13776037,8.02260611 7.75524845,7.74457961 C8.37273655,7.4665531 8.92189454,7.4062988 8.98182714,7.6099979 C9.04175975,7.81369698 8.58977172,8.20421272 7.97228365,8.48223922 Z M12.9047565,8.61570076 C12.2167109,8.43521602 11.6932788,8.11990531 11.7356382,7.91143458 C11.7779976,7.70296384 12.3701079,7.6802767 13.0581536,7.86076144 C13.7461992,8.04124618 14.2696313,8.35655689 14.2272719,8.56502762 C14.1849125,8.77349836 13.5928022,8.7961855 12.9047565,8.61570076 Z M9.11198288,10.4850214 C8.90517155,10.4850214 8.73751783,10.3173677 8.73751783,10.1105563 C8.73751783,9.90374502 8.90517155,9.7360913 9.11198288,9.7360913 C9.31879421,9.7360913 9.48644793,9.90374502 9.48644793,10.1105563 C9.48644793,10.3173677 9.31879421,10.4850214 9.11198288,10.4850214 Z M13.1062767,10.4850214 C12.8994654,10.4850214 12.7318117,10.3173677 12.7318117,10.1105563 C12.7318117,9.90374502 12.8994654,9.7360913 13.1062767,9.7360913 C13.3130881,9.7360913 13.4807418,9.90374502 13.4807418,10.1105563 C13.4807418,10.3173677 13.3130881,10.4850214 13.1062767,10.4850214 Z M1.86935168,10.3224171 C1.74977931,10.2473887 1.29915196,10.1651108 0.834774076,10.6049399 C0.191041364,8.65379414 -0.0473166713,7.11467852 0.00615046362,6.01173144 C0.0874155981,4.33535314 0.64057157,3.28096164 1.66561838,2.84855691 C1.88383905,1.23413328 2.82776394,0.360472739 4.49739308,0.22757528 C7.00183675,0.0282290877 9.55363028,1.71650587 12.7318117,1.61254242 C15.9099931,1.50857896 17.4997584,4.7877706 13.9800285,6.01173144 C12.1331039,6.65398623 9.57013628,6.46100479 6.2911256,5.43278713 C6.0403847,6.39440454 5.75700588,7.03494333 5.44098916,7.35440351 C5.12497241,7.67386369 4.85426831,7.82426543 4.62887679,7.80560871 C4.97093761,10.9971526 5.61221165,12.8128072 6.5526989,13.2525727 C7.6368936,13.7595347 9.30693633,13.0470941 10.5246471,13.2525727 C11.7407964,13.4577877 12.368617,13.5276529 13.1062767,13.8173191 C13.8431352,14.1066706 13.9800285,13.0934078 13.9800285,11.8025742 C15.0061015,12.8926881 13.6034972,18.5972063 11.5449726,20.1173439 C9.48644793,21.6374815 5.02864892,18.876642 4.36919704,17.9096542 C3.04402874,15.9664925 3.79117821,13.1534636 3.63607004,12.0049403 C3.48096187,10.8564169 2.77120526,10.5307651 1.86935168,10.3224171 Z M10.8190362,16.8958477 C11.4955611,16.4483452 12.3562351,14.2437418 9.98517891,14.1193649 C7.61412268,13.9949879 7.30345539,14.4248881 7.51853294,15.1410288 C7.73361051,15.8571695 10.1425114,17.3433503 10.8190362,16.8958477 Z" id="Shape" fill="#732213"></path>
                        <path d="M8.49045558,14.7647644 C8.65232234,15.8816569 9.45099071,16.3672775 10.7678374,16.1907293 C10.904489,16.1724086 11.000415,16.0467787 10.9820943,15.9101271 C10.9637736,15.7734756 10.8381437,15.6775495 10.7014922,15.6958702 C9.6364101,15.8386646 9.10364719,15.5147245 8.98458009,14.6931529 C8.96480511,14.5567042 8.83816081,14.4621214 8.70171208,14.4818964 C8.56526336,14.5016714 8.4706806,14.6283157 8.49045558,14.7647644 Z" id="Shape" fill="#F97A80" fill-rule="nonzero"></path>
                        <path d="M3.24913156,11.9360687 C2.42765749,11.1430385 1.6957877,11.2432759 1.28746576,12.233849 C1.23492189,12.3613184 1.29566102,12.507248 1.4231304,12.5597919 C1.55059978,12.6123358 1.69652936,12.5515966 1.74907323,12.4241272 C2.01574947,11.777181 2.32219595,11.7352099 2.90235625,12.2952819 C3.00155025,12.3910413 3.15959115,12.388257 3.2553505,12.289063 C3.35110988,12.189869 3.34832555,12.0318281 3.24913156,11.9360687 Z" id="Shape" fill="#F97A80" fill-rule="nonzero"></path>
                    </g>
                    <g id="Front-Bottom/-Standing/-Long-Pants" transform="translate(32.203994, 61.538110)">
                        <path d="M2.34432908,75.7419742 L7.49052008,76.7422922 L4.36323848,87.3112739 L0.248424277,86.5244696 L2.34432908,75.7419742 Z M34.0506412,77.000902 L39.254075,76.3620007 L39.5458484,87.3800826 L35.3892916,87.9033346 L34.0506412,77.000902 Z" id="Shape" fill="#FFB5B9"></path>
                        <path d="M20.563921,25.3454632 L6.06221317,84.7199807 L0.498691137,83.4941022 C1.70693357,60.4718699 3.97751319,45.3834914 7.31043,43.4035934 C5.50040381,30.4535662 5.7140809,16.4209443 7.95146132,1.30572747 L12.5533622,1.53738779 L31.6054251,-7.09529122e-15 L39.9429387,42.82479 L39.7690705,83.5090334 L34.6822399,84.7199807 C31.102369,62.5669803 29.476664,49.1550932 32.3015582,46.4814659 C28.7291371,40.7355776 24.8165913,33.6902433 20.563921,25.3454632 Z" id="Shape" fill="#021768"></path>
                        <path d="M0.220566695,85.7184011 C0.661700087,85.283798 2.72755312,86.5516138 3.58795954,86.5540681 C4.16156383,86.5557045 4.5351763,86.2814163 4.70879697,85.7312041 C8.27913514,87.1915943 10.3897334,88.1168321 11.0405918,88.5069168 C11.6914502,88.8970018 11.883615,89.3519002 11.6170862,89.871612 L0.220566695,89.871612 C-0.0735222317,87.39254 -0.0735222317,86.0081365 0.220566695,85.7184011 Z M34.9209946,85.7759117 C35.3621279,85.3413086 37.427981,86.6091244 38.2883876,86.6115789 C38.8619919,86.6132151 39.2356044,86.3389269 39.4092249,85.7887147 C42.9795631,87.2491049 45.0901615,88.1743427 45.7410197,88.5644276 C46.3918781,88.9545124 46.5840429,89.4094108 46.3175141,89.9291226 L34.9209946,89.9291226 C34.6269057,87.4500509 34.6269057,86.0656471 34.9209946,85.7759117 Z" id="Shape" fill="#021768"></path>
                        <path d="M30.5465685,6.12944747 C30.6277988,6.01804317 30.6033382,5.86188188 30.4919338,5.78065145 C30.3805295,5.699421 30.2243681,5.72388175 30.1431379,5.83528605 L21.9959984,17.0087626 C21.9805677,17.0299251 21.9685634,17.053384 21.9604259,17.0782785 L19.0762024,25.9017423 C19.0333645,26.0327925 19.1048749,26.1737569 19.2359253,26.216595 C19.3669757,26.2594328 19.5079401,26.1879224 19.550778,26.0568719 L22.4227191,17.2709826 L30.5465685,6.12944747 Z" id="Shape" fill="#0E143F" fill-rule="nonzero"></path>
                    </g>
                    <g id="Front-body/-Man/-Pose5/-Long-sleeve-shirt" transform="translate(0.000000, 19.804676)">
                        <path d="M86.6969245,25.8194161 C88.3097604,25.5611234 89.5688333,25.3432351 90.4741435,25.1657514 C92.1523792,23.2718095 92.959496,22.5809717 93.3712498,22.4292364 C93.7830038,22.2775011 93.6583524,23.0817074 92.997296,24.8418554 C93.542374,24.7232368 94.3543066,25.8983291 95.3408166,25.6505179 C96.7753822,25.290155 98.6721161,23.5945535 99.2161199,24.0857233 C99.6061315,24.437857 98.5230136,25.5018797 95.9667661,27.2777917 C93.5143895,28.1671575 91.8874093,28.4463094 91.0858256,28.1152479 L87.9699249,29.2639716 L86.6969245,25.8194161 Z M7.681467,15.3703533 L11.6544429,18.2420756 L10.028672,20.9184248 L6.55385395,18.1611319 C5.2879906,18.4071122 4.13068063,18.3781343 3.08192408,18.0741982 C1.50878924,17.618294 0.700191801,17.4583009 0.707479765,17.1101307 C0.714767728,16.7619604 3.12851212,17.0334165 2.81813856,16.9076004 C1.96978093,16.5637018 -0.0467402282,15.9976263 0.000827168331,15.5293194 C0.0325387411,15.2171149 1.0792216,15.2748649 3.14087573,15.7025697 C0.925222079,14.7845813 -0.106477015,14.1740875 0.0457784272,13.8710883 C0.274161591,13.4165895 3.09389685,14.4039258 3.44218766,14.3828036 C3.20334235,14.0166079 0.946320663,12.9136641 1.37763934,12.4357073 C1.5940016,12.1959499 3.13807059,12.7159211 6.00984631,13.9956208 C5.67849606,12.1212284 5.70071475,11.3009481 6.07650238,11.5347798 C6.45228999,11.7686115 6.9872782,13.047136 7.681467,15.3703533 Z" id="Shape" fill="#FFB5B9"></path>
                        <path d="M36.5789088,24.1203833 C33.6115769,28.5430772 30.5815988,32.2353081 29.1715301,32.6678976 C25.8465291,33.6879616 9.2688927,20.7286223 8.09918558,19.8733525 C6.92947845,19.0180829 8.9148,16.0191612 9.1987519,16.0191612 C17.9447588,20.7286223 23.0259136,20.7286223 26.643005,23.8791407 C27.2478824,20.1430079 29.2881401,14.7352019 32.763778,7.65572268 C33.0779047,6.91796325 33.6565918,6.25065484 34.6388888,5.61944659 C35.4400412,5.10463898 38.5127081,3.83572187 43.8568894,1.81269524 C44.1870048,1.63504587 44.3841354,1.26764168 44.4482812,0.710482712 C48.7617189,3.59490919 51.1251858,4.92516615 51.5386816,4.7012536 C52.1589252,4.36538476 52.4879697,2.11863221 52.8294541,0.30990211 C53.566108,1.61622181 54.0099512,2.29030985 54.1609837,2.33216618 C55.0190441,2.56996437 55.7816884,2.81734008 56.4489164,3.07429338 C57.5334726,3.28687254 58.8663966,3.83231347 60.51676,4.6175485 C62.5115024,5.56663741 70.4606649,20.7654444 71.6017173,26.8550442 C74.9871605,24.3385918 78.4933821,27.1831062 88.4184305,25.1815673 C89.6104416,24.94118 90.1263249,26.1149881 89.9660803,28.702992 C75.929352,34.210204 67.8602448,36.1768071 65.7587587,34.6028012 C65.2868321,34.2493296 64.6333801,33.4524053 63.8671337,32.3392833 C64.9020388,37.8978053 66.6921096,40.6138754 65.2302142,44.1193526 C64.7323607,45.3131544 57.9541803,48.218634 56.6228659,45.6167195 C54.6746751,49.2504357 41.0473934,47.6631553 38.6998195,45.9596114 C37.2180969,44.8843822 40.3614717,34.9292518 39.5397965,30.9527288 C39.153533,29.0833945 37.8911009,26.7374624 36.5789088,24.1203833 L36.5789088,24.1203833 Z" id="Shape" fill="#F2A900"></path>
                        <path d="M56.8069557,44.6994606 C57.5072223,39.6113301 57.597783,33.4758206 57.2288712,26.9709568 C56.9749255,22.4932398 56.4719188,17.8664863 56.1841741,16.4981197 C55.4998655,13.2438987 54.2340795,9.45803115 52.3872299,5.13893631 C52.3314548,5.00849935 52.1840249,4.94953299 52.0579358,5.00723124 C51.9318466,5.06492951 51.8748458,5.21744323 51.9306209,5.3478802 C53.7647842,9.63730597 55.0198717,13.3911759 55.6962974,16.6079094 C55.9774624,17.9449856 56.4778833,22.5479562 56.7304415,27.0012076 C57.0975678,33.4745894 57.0074802,39.5780554 56.3126536,44.6266586 C56.2932201,44.7678632 56.3881193,44.8986294 56.524617,44.9187331 C56.6611148,44.9388369 56.7875222,44.8406654 56.8069557,44.6994606 Z" id="Shape" fill="#0E143F" fill-rule="nonzero"></path>
                        <path d="M52.1821276,5.50054221 C52.319405,5.48728612 52.4203024,5.36141718 52.4074882,5.21940603 C52.394674,5.07739488 52.2730005,4.97301824 52.1357231,4.98627433 L49.5823923,5.2328343 C49.5078572,5.24003172 49.4403781,5.2814506 49.3985524,5.34567602 L47.6507525,8.02949976 L44.3806097,1.77212617 L44.6657855,0.963305534 C44.7130294,0.829311771 44.6463254,0.681069029 44.5167981,0.632196103 C44.3872708,0.583323179 44.2439695,0.652327249 44.1967257,0.786321012 L43.8730734,1.70426928 C43.8486031,1.77367231 43.8540361,1.85059352 43.8879984,1.91557988 L47.4077164,8.65051225 C47.4969455,8.82125104 47.7295332,8.83295759 47.8343634,8.67198615 L49.7465555,5.73573092 L52.1821276,5.50054221 Z" id="Shape" fill="#0E143F" fill-rule="nonzero"></path>
                        <path d="M53.5628142,4.09571598 C53.4827433,4.05647052 53.3885634,4.06407053 53.315344,4.115686 L52.0183446,5.02999652 C51.9044093,5.11031438 51.8749866,5.27097254 51.9526272,5.38883659 C52.0302678,5.50670063 52.1855707,5.53713785 52.2995062,5.45681999 L53.4783007,4.62583701 L55.8854085,5.8056429 C56.1098591,5.91565384 56.3350192,5.65599121 56.2050046,5.43707318 L53.1940098,0.367171826 C53.1218364,0.245646357 52.968096,0.207656206 52.8506216,0.282318453 C52.7331469,0.3569807 52.6964231,0.51602227 52.7685965,0.63754774 L55.3395884,4.96657384 L53.5628142,4.09571598 Z" id="Shape" fill="#0E143F" fill-rule="nonzero"></path>
                        <path d="M51.9405994,17.4307161 L52.6729197,21.5751893 L51.012144,24.7128532 L48.1513898,23.536096 L47.6476741,21.5992391 C47.6118546,21.4615081 47.4748857,21.3798937 47.3417457,21.4169484 C47.2086056,21.4540031 47.1297118,21.5956949 47.1655314,21.7334259 L47.7017656,23.7953217 C47.7222306,23.8740123 47.7773973,23.9380947 47.8505953,23.9682045 L51.0328287,25.2772002 C51.1499841,25.3253916 51.2834861,25.2756534 51.3440376,25.1612551 L53.1533846,21.7428992 C53.1808983,21.690918 53.1902929,21.6307291 53.1799918,21.5724316 L52.380857,17.0498297 C52.3538415,16.89694 52.2033493,16.8031928 52.0600852,16.8500092 L46.6081122,18.6316238 C46.4831589,18.6724565 46.4099913,18.8062827 46.4405487,18.9381035 L46.7609177,20.3201328 C46.793069,20.4588291 46.9278205,20.5443022 47.0618935,20.5110423 C47.1959667,20.4777823 47.2785907,20.3383842 47.2464393,20.1996879 L46.9803133,19.0516556 L51.9405994,17.4307161 Z" id="Shape" fill="#0E143F" fill-rule="nonzero"></path>
                        <path d="M37.4107453,22.3939937 C37.6012889,22.1190254 38.0025959,22.4056904 37.8215351,22.6874325 C36.6319211,24.5385482 35.4076398,26.305838 34.2572508,27.8308614 C34.0565997,28.0968564 33.66752,27.7957391 33.8575445,27.52152 L37.4107453,22.3939937 Z M37.8165368,22.6949207 L34.2633359,27.8224469 L33.8636296,27.5131056 C35.0059275,25.9988083 36.2228865,24.2420884 37.405747,22.4014819 L37.8165368,22.6949207 Z" id="Shape" fill="#0E143F" fill-rule="nonzero"></path>
                        <path d="M61.8331829,10.387484 C61.8575815,10.4622427 61.8816219,10.53717 61.9053071,10.6122682 C63.1114987,14.4367193 63.321997,17.6084566 63.1848804,23.989704 C63.1049026,27.7117673 63.1247832,29.1470431 63.3674039,30.8422746 C63.5820894,32.3423197 63.8681648,33.715134 64.2644903,35.2692199 C64.3541705,35.620877 64.4460362,35.9693614 64.5657629,36.4150665 C64.5525398,36.3658405 64.789235,37.2438922 64.8508352,37.4754916 C65.0676228,38.2905532 65.205003,38.8549275 65.3112218,39.3913756 C65.3388882,39.531103 65.4708123,39.6211731 65.6058821,39.5925525 C65.7409519,39.5639318 65.8280195,39.4274588 65.800353,39.2877314 C65.6914353,38.7376525 65.5517137,38.16366 65.3322317,37.3384688 C65.2703624,37.1058566 65.0333809,36.2267438 65.0468212,36.2767773 C64.927629,35.8330627 64.836294,35.4865909 64.7472597,35.1374661 C64.3553168,33.6005662 64.0730101,32.2458368 63.8613066,30.7666284 C63.6244145,29.1114235 63.6047473,27.6915422 63.6840438,24.0011821 C63.8223667,17.563799 63.6090072,14.3489535 62.379969,10.4520625 C62.3557568,10.375293 62.3311802,10.2986949 62.3062366,10.2222658 C62.2621336,10.0871312 62.1204845,10.0145683 61.9898543,10.060192 C61.8592242,10.1058157 61.7890799,10.2523493 61.8331829,10.387484 Z" id="Shape" fill="#0E143F" fill-rule="nonzero"></path>
                        <path d="M9.84232172,20.5062192 L11.2020627,17.9973167 C11.2694884,17.8729072 11.2266558,17.7155092 11.1063933,17.6457584 C10.9861308,17.5760076 10.8339794,17.6203172 10.7665536,17.7447267 L9.40681267,20.2536293 C9.33938692,20.3780387 9.38221955,20.5354367 9.50248205,20.6051875 C9.62274455,20.6749383 9.77489594,20.6306287 9.84232172,20.5062192 Z" id="Shape" fill="#0E143F" fill-rule="nonzero"></path>
                        <path d="M87.0631199,26.8299859 L87.7292393,29.3325309 C87.7658415,29.4700417 87.9032719,29.550821 88.036199,29.5129566 C88.1691259,29.4750922 88.2472126,29.3329228 88.2106106,29.1954123 L87.5444912,26.6928671 C87.507889,26.5553565 87.3704583,26.4745772 87.2375315,26.5124413 C87.1046044,26.5503057 87.0265177,26.6924751 87.0631199,26.8299859 Z" id="Shape" fill="#0E143F" fill-rule="nonzero"></path>
                    </g>
                </g>
                <g id="Plant-10" transform="translate(45.934379, 132.810271)" fill-rule="nonzero">
                    <path d="M13.2387529,48.9101346 C11.6720523,53.9012966 13.5783384,55.2004971 15.8303455,57.4926838 C17.3316835,59.0208083 17.6373355,61.3329136 16.7473013,64.4289996 L10.8481323,66.4674335 C9.92328802,66.3420304 8.19468313,61.3770989 9.2963321,58.5935392 C10.3979811,55.8099795 9.93643544,54.9905096 7.33870738,51.7053367 C4.74097932,48.4201636 2.89304378,46.6558211 4.69139368,41.3176256 C6.48974356,35.9794301 4.17850943,34.9091538 1.17758629,30.3393688 C-1.82333683,25.7695838 1.76898049,18.8770333 2.520526,18.8843159 C3.27207154,18.8916216 7.60278695,23.3578859 6.03608637,28.3490481 C4.46938579,33.3402104 7.2412891,35.9867244 10.8796861,39.223784 C14.5180831,42.4608437 14.8054535,43.9189724 13.2387529,48.9101346 Z" id="Shape" fill="#60C9FF"></path>
                    <path d="M14.7073885,65.1338831 L13.7601042,65.4612135 C13.5698737,65.0774614 13.1813329,64.297134 12.9647252,63.833704 C11.6856458,61.0971274 10.7768226,58.3525088 10.45462,55.5504295 C10.3983405,55.0609874 10.3618651,54.5770388 10.3461131,54.0990706 C10.0721484,45.7860808 9.12652988,41.1634955 5.51972266,34.9452337 C2.81899629,30.2890874 1.57923182,25.1834521 1.80089736,19.6393316 C2.10436537,19.1593902 2.36967303,18.8828587 2.520526,18.8843102 C2.59361955,18.8850317 2.70056867,18.9279192 2.8326552,19.0093651 C2.48759124,24.6270007 3.67103229,29.7678083 6.38350685,34.444209 C10.089525,40.8335139 11.0652372,45.6032101 11.3441447,54.0661794 C11.3589854,54.5164953 11.3934226,54.9734016 11.4466566,55.4363582 C11.7545086,58.1136353 12.6319128,60.7633694 13.8693608,63.410876 C14.0606686,63.8201773 14.4956915,64.6911496 14.7073885,65.1338831 L14.7073885,65.1338831 Z" id="Shape" fill="#A1E0FF"></path>
                    <path d="M13.945593,43.7239143 C9.85117654,37.8040003 11.025971,30.2915718 14.5399868,24.5801114 C18.0540027,18.868651 19.6329768,13.0249897 15.5385603,7.10507572 C11.4441438,1.18516173 15.0207803,0.321128832 16.0139974,0.00928265239 C17.0072145,-0.302563526 24.5552372,7.29788807 22.4249656,14.5019283 C20.294694,21.7059685 16.037847,32.568699 19.0335674,35.5644194 C22.0292878,38.5601398 25.1430304,43.1898337 23.0278613,48.5458745 C20.9126921,53.9019153 20.4423306,55.8210369 23.0278613,59.0308959 C25.6133919,62.2407549 25.3873786,65.2668022 24.2122036,65.8033475 L15.5688402,65.500915 C13.1374582,61.7958068 12.6078848,58.6386305 13.9801201,56.0293863 C16.038473,52.11552 18.0400096,49.6438282 13.945593,43.7239143 Z" id="Shape" fill="#86D7FF"></path>
                    <path d="M14.2614929,0.913119326 C14.5152182,0.656993041 14.8146603,0.473654935 15.1031756,0.338227535 C20.2143939,5.33636292 21.6442014,11.5933243 19.380817,19.030159 C15.9146527,30.4189843 15.9146527,33.3134973 19.380817,44.7023228 C20.8774631,49.6198745 20.7043534,51.8826657 19.3464065,54.5015634 C19.3300187,54.5331682 19.1593381,54.860209 19.110839,54.9545061 C18.1220311,56.8770553 18.065857,58.292827 19.3685,61.6424803 C19.9829105,63.222393 20.5048249,64.5710686 20.9342972,65.6886531 L19.8498011,65.6507065 C19.4515626,64.6163325 18.9808914,63.4008663 18.4378248,62.0044095 C17.0331665,58.392431 17.1011645,56.678656 18.2228327,54.4977855 C18.2729673,54.4003083 18.4447568,54.0711428 18.4599183,54.0419028 C19.6952219,51.6595317 19.8477268,49.6660745 18.4255078,44.9930692 C14.9016578,33.4147047 14.9016578,30.3177769 18.4255078,18.7394127 C20.6029061,11.585104 19.2189391,5.67006668 14.2614929,0.913119326 Z" id="Shape" fill="#D8F4FF"></path>
                    <path d="M23.9837978,49.0020496 C22.2155779,44.0610262 22.4504364,42.5933686 25.9978697,39.2377935 C29.5453032,35.8822184 32.241107,33.1453884 30.4728871,28.204365 C28.7046673,23.2633415 32.9039935,18.6559249 33.6616796,18.6240222 C34.419366,18.5925608 38.3021684,25.3695098 35.4478887,30.0373116 C32.5936087,34.7051133 30.3029893,35.8505364 32.3179175,41.131125 C34.3328458,46.4117136 32.5356433,48.2362668 30.0395763,51.6061934 C27.5435091,54.9761197 27.108914,55.810681 28.3248954,58.5588832 C29.5408765,61.3070854 27.9846716,66.3288036 27.0566594,66.4842345 L21.0302918,64.6369365 C20.0159508,61.5692976 20.2370557,59.2469505 21.6936064,57.6698952 C23.8784325,55.3043123 25.7520177,53.9430732 23.9837978,49.0020496 Z" id="Shape" fill="#A1E0FF"></path>
                    <path d="M33.1781978,18.8858942 C33.3881449,18.7194382 33.5574663,18.628505 33.6616796,18.6239172 C33.7783824,18.6192694 33.9692243,18.7759298 34.1981685,19.061528 C34.5952904,23.2939615 34.5070647,26.4903836 33.9240299,28.6662994 C33.6070894,29.8491371 33.5776911,29.9308536 31.5238776,35.4896687 C31.1310893,36.552783 30.8209321,37.4036115 30.5278283,38.2266325 C29.2706211,41.7568082 28.4944888,44.3333896 28.188625,46.2033565 L24.9756914,65.8463433 L24.0121588,65.550986 L27.2031471,46.0421655 C27.521548,44.0955516 28.3106582,41.4758862 29.5871289,37.8916199 C29.8817573,37.064318 30.1931589,36.2100751 30.587192,35.1435919 C32.6157993,29.6529996 32.6551633,29.5435826 32.9594818,28.4078496 C33.5179043,26.3237893 33.5941648,23.1443056 33.1781978,18.8858942 Z" id="Shape" fill="#CCEEFF"></path>
                    <path d="M10.1689103,64.3198785 L27.6555581,64.3198785 C29.0343002,64.3198785 30.1519917,65.43757 30.1519917,66.8163121 C30.1519917,67.0287646 30.1248717,67.2403481 30.0712895,67.4459327 L26.9605392,79.3812772 C26.6682365,80.5027858 25.6425113,81.2756317 24.483882,81.2473469 L13.2145665,80.9722366 C12.1062864,80.9451808 11.148612,80.1904832 10.8632059,79.1192408 L7.75662401,67.4590065 C7.40167381,66.1267375 8.19394716,64.7589762 9.52621612,64.404026 C9.73588035,64.348166 9.9519324,64.3198785 10.1689103,64.3198785 Z" id="Shape" fill="#60C9FF"></path>
                    <path d="M8.91742772,64.3198785 L28.8888971,64.3198785 C30.2676393,64.3198785 31.3853308,65.43757 31.3853308,66.8163121 L6.42099405,66.8163121 C6.42099405,65.43757 7.53868547,64.3198785 8.91742772,64.3198785 Z" id="Shape" fill="#00A7FF"></path>
                    <path d="M11.6635048,78.7991937 L26.1428201,78.7991937 C26.832191,78.7991937 27.3910369,79.3580396 27.3910369,80.0474106 C27.3910369,80.7367817 26.832191,81.2956274 26.1428201,81.2956274 L11.6635048,81.2956274 C10.9741336,81.2956274 10.4152879,80.7367817 10.4152879,80.0474106 C10.4152879,79.3580396 10.9741336,78.7991937 11.6635048,78.7991937 Z" id="Shape" fill="#00A7FF"></path>
                </g>
            </g>
        </g>
    </g>
</svg>