<?xml version="1.0" encoding="UTF-8"?>
<svg width="584px" height="685px" viewBox="0 0 584 685" version="1.1" xmlns="http://www.w3.org/2000/svg" xmlns:xlink="http://www.w3.org/1999/xlink">
    <title>Learn More - Sprint With Us</title>
    <g id="Illustrations" stroke="none" stroke-width="1" fill="none" fill-rule="evenodd">
        <g id="Learn-More---Sprint-With-Us" fill-rule="nonzero">
            <g transform="translate(0.000000, 0.000000)">
                <g id="Background-Element-2" transform="translate(26.390870, 205.461617)">
                    <polygon id="Shape" fill="#A1E0FF" points="219.686163 384.527124 319.543509 384.527124 326.676177 465.142272 212.553495 465.142272"></polygon>
                    <path d="M204.707561,458.008188 L334.522111,458.008188 C346.339902,458.008188 355.920114,467.590303 355.920114,479.41044 L183.309558,479.41044 C183.309558,467.590303 192.88977,458.008188 204.707561,458.008188 Z" id="Shape" fill="#60C9FF"></path>
                    <path d="M21.3980029,0 L518.544936,0 C530.362726,0 539.942939,9.58211451 539.942939,21.4022518 L539.942939,380.960082 C539.942939,392.780219 530.362726,402.362334 518.544936,402.362334 L21.3980029,402.362334 C9.5802122,402.362334 0,392.780219 0,380.960082 L0,21.4022518 C0,9.58211451 9.5802122,0 21.3980029,0 Z" id="Shape" fill="#A1E0FF"></path>
                    <polygon id="Shape" fill="#FFFFFF" points="21.3980029 21.4022518 518.527056 21.4022518 518.527056 331.021494 21.3980029 331.021494"></polygon>
                    <path d="M55.6348074,49.9385875 L484.290251,49.9385875 C487.441662,49.9385875 489.996385,52.493818 489.996385,55.6458547 L489.996385,296.777892 C489.996385,299.929928 487.441662,302.485159 484.290251,302.485159 L55.6348074,302.485159 C52.4833966,302.485159 49.9286733,299.929928 49.9286733,296.777892 L49.9286733,55.6458547 C49.9286733,52.493818 52.4833966,49.9385875 55.6348074,49.9385875 Z" id="Shape" fill="#F2FBFF"></path>
                    <path d="M3.2435617e-13,352.423746 L539.942939,352.423746 L539.942939,380.960082 C539.942939,392.780219 530.362726,402.362334 518.544936,402.362334 L21.3980029,402.362334 C9.5802122,402.362334 3.2435617e-13,392.780219 3.2435617e-13,380.960082 L3.2435617e-13,352.423746 Z" id="Shape" fill="#00A7FF"></path>
                </g>
                <g id="Background-Element-1" transform="translate(162.624822, 0.000000)">
                    <path d="M40.9768551,480.954006 C40.5647199,486.020443 36.333534,489.922126 31.2513648,489.922126 C26.0154717,489.922126 21.5023431,486.2375 20.4537182,481.106671 L0.404994262,383.01002 C-0.958244451,376.339812 1.16895184,369.434441 6.04900902,364.688241 L87.6110999,285.363357 L87.6110999,379.153545 L55.4023384,393.839575 C50.6967854,395.985137 47.5206803,400.509831 47.1013054,405.665267 L40.9768551,480.954006 Z" id="Shape" fill="#60C9FF"></path>
                    <path d="M226.734451,480.954006 L220.610001,405.665267 C220.190626,400.509831 217.014521,395.985137 212.308968,393.839575 L180.100206,379.153545 L180.100206,285.363357 L261.662297,364.688241 C266.542354,369.434441 268.669551,376.339812 267.306312,383.01002 L247.257588,481.106671 C246.208963,486.2375 241.695835,489.922126 236.459942,489.922126 C231.377772,489.922126 227.146586,486.020443 226.734451,480.954006 Z" id="Shape" fill="#60C9FF"></path>
                    <path d="M49.5723886,190.931844 C49.5723886,70.6634841 123.627583,0 134.807767,0 C145.987949,0 220.043145,70.6634841 220.043145,190.931844 C220.043145,271.11075 205.77781,349.435073 177.247139,425.904811 L92.3683944,425.904811 C63.8377238,349.435073 49.5723886,271.11075 49.5723886,190.931844 Z" id="Shape" fill="#CCEEFF"></path>
                    <path d="M92.3683944,425.904811 L177.247139,425.904811 L174.078143,444.922563 C173.848857,446.298551 172.658586,447.307062 171.263894,447.307062 L98.3516384,447.307062 C96.9569479,447.307062 95.7666762,446.298551 95.5373902,444.922563 L92.3683944,425.904811 Z" id="Shape" fill="#0097A9"></path>
                    <path d="M62.9313971,105.212841 C67.4969364,91.1420764 72.9326748,78.3604847 78.7506769,66.9431068 C96.445301,71.0302932 115.130998,73.2096126 134.807767,73.4810645 C155.117718,73.7612513 173.884457,71.7413832 191.107983,67.4214585 C196.73591,78.5231347 201.998428,90.9050928 206.451403,104.499031 C185.199536,111.881135 161.318317,115.57216 134.807767,115.57216 C109.165931,115.57216 85.2071405,112.119072 62.9313971,105.212896 L62.9313971,105.212841 Z" id="Shape" fill="#0097A9"></path>
                    <path d="M134.451133,307.479017 C137.996471,307.479017 140.870534,310.353652 140.870534,313.899693 L140.870534,483.69089 C140.870534,487.236932 137.996471,490.111566 134.451133,490.111566 C130.905796,490.111566 128.031733,487.236932 128.031733,483.69089 L128.031733,313.899693 C128.031733,310.353652 130.905796,307.479017 134.451133,307.479017 Z" id="Shape" fill="#60C9FF"></path>
                    <ellipse id="Shape" fill="#0097A9" cx="134.451133" cy="194.760491" rx="45.6490728" ry="45.6581372"></ellipse>
                    <ellipse id="Shape" fill="#F2FBFF" cx="134.451133" cy="194.760491" rx="37.0898716" ry="37.0972364"></ellipse>
                </g>
                <g id="Background-Element-4" transform="translate(410.128388, 102.730809)">
                    <ellipse id="Shape" fill="#244C5A" cx="34.2368046" cy="34.2436029" rx="34.2368046" ry="34.2436029"></ellipse>
                    <path d="M20.6265673,32.7784874 C18.7579086,31.5181913 16.2220398,32.0123314 14.9625459,33.8821803 C13.7030519,35.7520291 14.1968775,38.2895129 16.0655362,39.549809 L29.3772832,48.5277687 C31.1058201,49.6935612 33.4345845,49.3681942 34.7778867,47.7732148 L52.5347027,26.6895331 C53.9868981,24.9652586 53.767224,22.3894712 52.044047,20.936351 C50.32087,19.4832308 47.7467221,19.7030447 46.2945267,21.4273192 L30.8993717,39.7068661 L20.6265673,32.7784874 Z" id="Shape" fill="#FFFFFF"></path>
                </g>
                <g id="Background-Element-3" transform="translate(0.000000, 160.516888)">
                    <path d="M6.41940086,0.356704197 L167.617689,0.356704197 C170.966063,0.356704197 173.680456,3.07163664 173.680456,6.42067554 L173.680456,84.1821904 C173.680456,87.531229 170.966063,90.2461617 167.617689,90.2461617 L6.41940086,90.2461617 C3.07102684,90.2461617 0.356633381,87.531229 0.356633381,84.1821904 L0.356633381,6.42067554 C0.356633381,3.07163664 3.07102684,0.356704197 6.41940086,0.356704197 Z" id="Path" fill="#00A7FF"></path>
                    <path d="M6.41940086,3.92374616 C5.04065862,3.92374616 3.92296719,5.04165952 3.92296719,6.42067554 L3.92296719,84.1821904 C3.92296719,85.5612067 5.04065862,86.6791198 6.41940086,86.6791198 L167.617689,86.6791198 C168.996432,86.6791198 170.114123,85.5612067 170.114123,84.1821904 L170.114123,6.42067554 C170.114123,5.04165952 168.996432,3.92374616 167.617689,3.92374616 L6.41940086,3.92374616 Z" id="Path" fill="#FFFFFF"></path>
                    <ellipse id="Oval" fill="#0097A9" cx="45.6490728" cy="46.3715455" rx="19.9714693" ry="19.975435"></ellipse>
                    <path d="M90.5848787,26.3961105 L112.659976,26.3961105 C114.629607,26.3961105 116.22631,27.9931297 116.22631,29.9631525 C116.22631,31.9331754 114.629607,33.5301945 112.659976,33.5301945 L90.5848787,33.5301945 C88.6152468,33.5301945 87.0185449,31.9331754 87.0185449,29.9631525 C87.0185449,27.9931297 88.6152468,26.3961105 90.5848787,26.3961105 Z" id="bg" fill="#CCEEFF"></path>
                    <path d="M90.5848787,42.0910952 L144.043713,42.0910952 C146.013345,42.0910952 147.610047,43.6881143 147.610047,45.6581372 C147.610047,47.62816 146.013345,49.2251791 144.043713,49.2251791 L90.5848787,49.2251791 C88.6152468,49.2251791 87.0185449,47.62816 87.0185449,45.6581372 C87.0185449,43.6881143 88.6152468,42.0910952 90.5848787,42.0910952 Z" id="bg" fill="#CCEEFF"></path>
                    <path d="M90.5848787,57.7860798 L129.778378,57.7860798 C131.748009,57.7860798 133.344712,59.383099 133.344712,61.3531218 C133.344712,63.3231446 131.748009,64.9201638 129.778378,64.9201638 L90.5848787,64.9201638 C88.6152468,64.9201638 87.0185449,63.3231446 87.0185449,61.3531218 C87.0185449,59.383099 88.6152468,57.7860798 90.5848787,57.7860798 Z" id="bg" fill="#CCEEFF"></path>
                </g>
                <g id="Background-Element-5" transform="translate(410.128388, 251.119754)">
                    <path d="M6.41940086,0.356704197 L167.617689,0.356704197 C170.966063,0.356704197 173.680456,3.07163664 173.680456,6.42067554 L173.680456,84.1821904 C173.680456,87.531229 170.966063,90.2461617 167.617689,90.2461617 L6.41940086,90.2461617 C3.07102684,90.2461617 0.356633381,87.531229 0.356633381,84.1821904 L0.356633381,6.42067554 C0.356633381,3.07163664 3.07102684,0.356704197 6.41940086,0.356704197 Z" id="Path" fill="#00A7FF"></path>
                    <path d="M6.41940086,3.92374616 C5.04065862,3.92374616 3.92296719,5.04165952 3.92296719,6.42067554 L3.92296719,84.1821904 C3.92296719,85.5612067 5.04065862,86.6791198 6.41940086,86.6791198 L167.617689,86.6791198 C168.996432,86.6791198 170.114123,85.5612067 170.114123,84.1821904 L170.114123,6.42067554 C170.114123,5.04165952 168.996432,3.92374616 167.617689,3.92374616 L6.41940086,3.92374616 Z" id="Path" fill="#FFFFFF"></path>
                    <ellipse id="Oval" fill="#F2A900" cx="45.6490728" cy="46.3715455" rx="19.9714693" ry="19.975435"></ellipse>
                    <path d="M90.5848787,26.3961105 L112.659976,26.3961105 C114.629607,26.3961105 116.22631,27.9931297 116.22631,29.9631525 C116.22631,31.9331754 114.629607,33.5301945 112.659976,33.5301945 L90.5848787,33.5301945 C88.6152468,33.5301945 87.0185449,31.9331754 87.0185449,29.9631525 C87.0185449,27.9931297 88.6152468,26.3961105 90.5848787,26.3961105 Z" id="bg" fill="#CCEEFF"></path>
                    <path d="M90.5848787,42.0910952 L144.043713,42.0910952 C146.013345,42.0910952 147.610047,43.6881143 147.610047,45.6581372 C147.610047,47.62816 146.013345,49.2251791 144.043713,49.2251791 L90.5848787,49.2251791 C88.6152468,49.2251791 87.0185449,47.62816 87.0185449,45.6581372 C87.0185449,43.6881143 88.6152468,42.0910952 90.5848787,42.0910952 Z" id="bg" fill="#CCEEFF"></path>
                    <path d="M90.5848787,57.7860798 L129.778378,57.7860798 C131.748009,57.7860798 133.344712,59.383099 133.344712,61.3531218 C133.344712,63.3231446 131.748009,64.9201638 129.778378,64.9201638 L90.5848787,64.9201638 C88.6152468,64.9201638 87.0185449,63.3231446 87.0185449,61.3531218 C87.0185449,59.383099 88.6152468,57.7860798 90.5848787,57.7860798 Z" id="bg" fill="#CCEEFF"></path>
                </g>
            </g>
        </g>
    </g>
</svg>