<?xml version="1.0" encoding="UTF-8"?>
<svg width="1000px" height="697px" viewBox="0 0 1000 697" version="1.1" xmlns="http://www.w3.org/2000/svg" xmlns:xlink="http://www.w3.org/1999/xlink">
    <title>Website Launch</title>
    <g id="Illustrations" stroke="none" stroke-width="1" fill="none" fill-rule="evenodd">
        <g id="Website-Launch">
            <g id="bg" opacity="0.5" transform="translate(0.000000, 498.672467)" fill-rule="nonzero">
                <path d="M899.318096,61.9518058 C836.081512,45.6081647 804.651241,68.2907321 733.051954,99.4487512 C661.452676,130.60677 573.037313,140.598067 472.103999,82.4485295 C371.170684,24.2989921 258.07799,45.6081647 212.090524,110.496515 C181.432214,153.755416 110.735372,178.989774 0,186.199591 L1000,186.199591 C975.036455,114.263495 941.475813,72.8475664 899.318096,61.9518058 Z" id="Shape" fill="#CCEEFF"></path>
                <path d="M1.42653352,186.199591 C35.6491517,101.054723 102.60729,72.6731017 202.300948,101.054723 C351.841436,143.627157 439.261459,111.697832 517.291063,47.8391818 C595.320667,-16.0194683 687.014603,-24.533955 794.949451,75.5112635 C866.90602,142.208076 935.256205,179.104185 1000,186.199591 L1.42653352,186.199591 Z" id="Shape" fill="#E5F6FF"></path>
            </g>
            <g id="Background" transform="translate(203.994294, 0.000000)" fill-rule="nonzero">
                <g id="Background-Element-2" transform="translate(26.390870, 205.461617)">
                    <polygon id="Shape" fill="#A1E0FF" points="219.686163 384.527124 319.543509 384.527124 326.676177 465.142272 212.553495 465.142272"></polygon>
                    <path d="M204.707561,458.008188 L334.522111,458.008188 C346.339902,458.008188 355.920114,467.590303 355.920114,479.41044 L183.309558,479.41044 C183.309558,467.590303 192.88977,458.008188 204.707561,458.008188 Z" id="Shape" fill="#60C9FF"></path>
                    <path d="M21.3980029,0 L518.544936,0 C530.362726,0 539.942939,9.58211451 539.942939,21.4022518 L539.942939,380.960082 C539.942939,392.780219 530.362726,402.362334 518.544936,402.362334 L21.3980029,402.362334 C9.5802122,402.362334 0,392.780219 0,380.960082 L0,21.4022518 C0,9.58211451 9.5802122,0 21.3980029,0 Z" id="Shape" fill="#A1E0FF"></path>
                    <polygon id="Shape" fill="#FFFFFF" points="21.3980029 21.4022518 518.527056 21.4022518 518.527056 331.021494 21.3980029 331.021494"></polygon>
                    <path d="M55.6348074,49.9385875 L484.290251,49.9385875 C487.441662,49.9385875 489.996385,52.493818 489.996385,55.6458547 L489.996385,296.777892 C489.996385,299.929928 487.441662,302.485159 484.290251,302.485159 L55.6348074,302.485159 C52.4833966,302.485159 49.9286733,299.929928 49.9286733,296.777892 L49.9286733,55.6458547 C49.9286733,52.493818 52.4833966,49.9385875 55.6348074,49.9385875 Z" id="Shape" fill="#F2FBFF"></path>
                    <path d="M3.2435617e-13,352.423746 L539.942939,352.423746 L539.942939,380.960082 C539.942939,392.780219 530.362726,402.362334 518.544936,402.362334 L21.3980029,402.362334 C9.5802122,402.362334 3.2435617e-13,392.780219 3.2435617e-13,380.960082 L3.2435617e-13,352.423746 Z" id="Shape" fill="#00A7FF"></path>
                </g>
                <g id="Background-Element-1" transform="translate(162.624822, 0.000000)">
                    <path d="M40.9768551,480.954006 C40.5647199,486.020443 36.333534,489.922126 31.2513648,489.922126 C26.0154717,489.922126 21.5023431,486.2375 20.4537182,481.106671 L0.404994262,383.01002 C-0.958244451,376.339812 1.16895184,369.434441 6.04900902,364.688241 L87.6110999,285.363357 L87.6110999,379.153545 L55.4023384,393.839575 C50.6967854,395.985137 47.5206803,400.509831 47.1013054,405.665267 L40.9768551,480.954006 Z" id="Shape" fill="#60C9FF"></path>
                    <path d="M226.734451,480.954006 L220.610001,405.665267 C220.190626,400.509831 217.014521,395.985137 212.308968,393.839575 L180.100206,379.153545 L180.100206,285.363357 L261.662297,364.688241 C266.542354,369.434441 268.669551,376.339812 267.306312,383.01002 L247.257588,481.106671 C246.208963,486.2375 241.695835,489.922126 236.459942,489.922126 C231.377772,489.922126 227.146586,486.020443 226.734451,480.954006 Z" id="Shape" fill="#60C9FF"></path>
                    <path d="M49.5723886,190.931844 C49.5723886,70.6634841 123.627583,0 134.807767,0 C145.987949,0 220.043145,70.6634841 220.043145,190.931844 C220.043145,271.11075 205.77781,349.435073 177.247139,425.904811 L92.3683944,425.904811 C63.8377238,349.435073 49.5723886,271.11075 49.5723886,190.931844 Z" id="Shape" fill="#CCEEFF"></path>
                    <path d="M92.3683944,425.904811 L177.247139,425.904811 L174.078143,444.922563 C173.848857,446.298551 172.658586,447.307062 171.263894,447.307062 L98.3516384,447.307062 C96.9569479,447.307062 95.7666762,446.298551 95.5373902,444.922563 L92.3683944,425.904811 Z" id="Shape" fill="#0097A9"></path>
                    <path d="M62.9313971,105.212841 C67.4969364,91.1420764 72.9326748,78.3604847 78.7506769,66.9431068 C96.445301,71.0302932 115.130998,73.2096126 134.807767,73.4810645 C155.117718,73.7612513 173.884457,71.7413832 191.107983,67.4214585 C196.73591,78.5231347 201.998428,90.9050928 206.451403,104.499031 C185.199536,111.881135 161.318317,115.57216 134.807767,115.57216 C109.165931,115.57216 85.2071405,112.119072 62.9313971,105.212896 L62.9313971,105.212841 Z" id="Shape" fill="#0097A9"></path>
                    <path d="M134.451133,307.479017 C137.996471,307.479017 140.870534,310.353652 140.870534,313.899693 L140.870534,483.69089 C140.870534,487.236932 137.996471,490.111566 134.451133,490.111566 C130.905796,490.111566 128.031733,487.236932 128.031733,483.69089 L128.031733,313.899693 C128.031733,310.353652 130.905796,307.479017 134.451133,307.479017 Z" id="Shape" fill="#60C9FF"></path>
                    <ellipse id="Shape" fill="#0097A9" cx="134.451133" cy="194.760491" rx="45.6490728" ry="45.6581372"></ellipse>
                    <ellipse id="Shape" fill="#F2FBFF" cx="134.451133" cy="194.760491" rx="37.0898716" ry="37.0972364"></ellipse>
                </g>
                <g id="Background-Element-4" transform="translate(410.128388, 102.730809)">
                    <ellipse id="Shape" fill="#244C5A" cx="34.2368046" cy="34.2436029" rx="34.2368046" ry="34.2436029"></ellipse>
                    <path d="M20.6265673,32.7784874 C18.7579086,31.5181913 16.2220398,32.0123314 14.9625459,33.8821803 C13.7030519,35.7520291 14.1968775,38.2895129 16.0655362,39.549809 L29.3772832,48.5277687 C31.1058201,49.6935612 33.4345845,49.3681942 34.7778867,47.7732148 L52.5347027,26.6895331 C53.9868981,24.9652586 53.767224,22.3894712 52.044047,20.936351 C50.32087,19.4832308 47.7467221,19.7030447 46.2945267,21.4273192 L30.8993717,39.7068661 L20.6265673,32.7784874 Z" id="Shape" fill="#FFFFFF"></path>
                </g>
                <g id="Background-Element-3" transform="translate(0.000000, 160.516888)">
                    <path d="M6.41940086,0.356704197 L167.617689,0.356704197 C170.966063,0.356704197 173.680456,3.07163664 173.680456,6.42067554 L173.680456,84.1821904 C173.680456,87.531229 170.966063,90.2461617 167.617689,90.2461617 L6.41940086,90.2461617 C3.07102684,90.2461617 0.356633381,87.531229 0.356633381,84.1821904 L0.356633381,6.42067554 C0.356633381,3.07163664 3.07102684,0.356704197 6.41940086,0.356704197 Z" id="Path" fill="#00A7FF"></path>
                    <path d="M6.41940086,3.92374616 C5.04065862,3.92374616 3.92296719,5.04165952 3.92296719,6.42067554 L3.92296719,84.1821904 C3.92296719,85.5612067 5.04065862,86.6791198 6.41940086,86.6791198 L167.617689,86.6791198 C168.996432,86.6791198 170.114123,85.5612067 170.114123,84.1821904 L170.114123,6.42067554 C170.114123,5.04165952 168.996432,3.92374616 167.617689,3.92374616 L6.41940086,3.92374616 Z" id="Path" fill="#FFFFFF"></path>
                    <ellipse id="Oval" fill="#0097A9" cx="45.6490728" cy="46.3715455" rx="19.9714693" ry="19.975435"></ellipse>
                    <path d="M90.5848787,26.3961105 L112.659976,26.3961105 C114.629607,26.3961105 116.22631,27.9931297 116.22631,29.9631525 C116.22631,31.9331754 114.629607,33.5301945 112.659976,33.5301945 L90.5848787,33.5301945 C88.6152468,33.5301945 87.0185449,31.9331754 87.0185449,29.9631525 C87.0185449,27.9931297 88.6152468,26.3961105 90.5848787,26.3961105 Z" id="bg" fill="#CCEEFF"></path>
                    <path d="M90.5848787,42.0910952 L144.043713,42.0910952 C146.013345,42.0910952 147.610047,43.6881143 147.610047,45.6581372 C147.610047,47.62816 146.013345,49.2251791 144.043713,49.2251791 L90.5848787,49.2251791 C88.6152468,49.2251791 87.0185449,47.62816 87.0185449,45.6581372 C87.0185449,43.6881143 88.6152468,42.0910952 90.5848787,42.0910952 Z" id="bg" fill="#CCEEFF"></path>
                    <path d="M90.5848787,57.7860798 L129.778378,57.7860798 C131.748009,57.7860798 133.344712,59.383099 133.344712,61.3531218 C133.344712,63.3231446 131.748009,64.9201638 129.778378,64.9201638 L90.5848787,64.9201638 C88.6152468,64.9201638 87.0185449,63.3231446 87.0185449,61.3531218 C87.0185449,59.383099 88.6152468,57.7860798 90.5848787,57.7860798 Z" id="bg" fill="#CCEEFF"></path>
                </g>
                <g id="Background-Element-5" transform="translate(410.128388, 251.119754)">
                    <path d="M6.41940086,0.356704197 L167.617689,0.356704197 C170.966063,0.356704197 173.680456,3.07163664 173.680456,6.42067554 L173.680456,84.1821904 C173.680456,87.531229 170.966063,90.2461617 167.617689,90.2461617 L6.41940086,90.2461617 C3.07102684,90.2461617 0.356633381,87.531229 0.356633381,84.1821904 L0.356633381,6.42067554 C0.356633381,3.07163664 3.07102684,0.356704197 6.41940086,0.356704197 Z" id="Path" fill="#00A7FF"></path>
                    <path d="M6.41940086,3.92374616 C5.04065862,3.92374616 3.92296719,5.04165952 3.92296719,6.42067554 L3.92296719,84.1821904 C3.92296719,85.5612067 5.04065862,86.6791198 6.41940086,86.6791198 L167.617689,86.6791198 C168.996432,86.6791198 170.114123,85.5612067 170.114123,84.1821904 L170.114123,6.42067554 C170.114123,5.04165952 168.996432,3.92374616 167.617689,3.92374616 L6.41940086,3.92374616 Z" id="Path" fill="#FFFFFF"></path>
                    <ellipse id="Oval" fill="#F2A900" cx="45.6490728" cy="46.3715455" rx="19.9714693" ry="19.975435"></ellipse>
                    <path d="M90.5848787,26.3961105 L112.659976,26.3961105 C114.629607,26.3961105 116.22631,27.9931297 116.22631,29.9631525 C116.22631,31.9331754 114.629607,33.5301945 112.659976,33.5301945 L90.5848787,33.5301945 C88.6152468,33.5301945 87.0185449,31.9331754 87.0185449,29.9631525 C87.0185449,27.9931297 88.6152468,26.3961105 90.5848787,26.3961105 Z" id="bg" fill="#CCEEFF"></path>
                    <path d="M90.5848787,42.0910952 L144.043713,42.0910952 C146.013345,42.0910952 147.610047,43.6881143 147.610047,45.6581372 C147.610047,47.62816 146.013345,49.2251791 144.043713,49.2251791 L90.5848787,49.2251791 C88.6152468,49.2251791 87.0185449,47.62816 87.0185449,45.6581372 C87.0185449,43.6881143 88.6152468,42.0910952 90.5848787,42.0910952 Z" id="bg" fill="#CCEEFF"></path>
                    <path d="M90.5848787,57.7860798 L129.778378,57.7860798 C131.748009,57.7860798 133.344712,59.383099 133.344712,61.3531218 C133.344712,63.3231446 131.748009,64.9201638 129.778378,64.9201638 L90.5848787,64.9201638 C88.6152468,64.9201638 87.0185449,63.3231446 87.0185449,61.3531218 C87.0185449,59.383099 88.6152468,57.7860798 90.5848787,57.7860798 Z" id="bg" fill="#CCEEFF"></path>
                </g>
            </g>
            <g id="Woman-Standing-1" transform="translate(837.364559, 467.875000) scale(-1, 1) translate(-837.364559, -467.875000) translate(701.000000, 251.000000)">
                <g id="Front-Bottom/-Standing/-Skirt" transform="translate(91.197330, 180.598436)">
                    <path d="M66.5214059,6.66831853 L75.4241392,7.02327251 C79.1520503,82.6864488 81.8151327,125.187518 83.4133872,134.526482 C85.0116416,143.865444 83.968361,177.102293 80.2835444,234.237026 L95.9052996,249.091529 C84.4557335,248.009122 76.4002608,245.649042 71.738881,242.011287 C67.1709474,171.324095 55.6786131,166.090112 61.256838,137.790617 C56.9375631,126.352686 54.4138958,113.697712 52.0152591,99.8699082 L46.4625289,135.546044 L14.8333355,233.640175 C20.8123093,240.976587 24.5536089,245.317702 26.0572342,246.663521 C27.5608595,248.009339 23.1924905,247.666417 12.952127,245.634754 C10.4549032,246.745192 6.60368842,246.007348 1.3984827,243.42122 C19.6351304,171.337949 6.57537742,155.103316 24.1776482,132.656823 C19.0954262,96.224223 16.7450451,46.1974088 23.0271993,3.67343221 L66.5905192,6.22426824 L66.5214059,6.66831853 Z" id="Shape" fill="#FFB5B9"></path>
                    <path d="M14.2177725,115.085025 C9.13555059,78.6524243 -7.53246917,33.3960332 9.00814267,3.67343221 L21.929437,4.32516737 C48.1662167,4.82711359 65.9977843,3.38539114 75.4241392,-7.98453644e-14 C87.1389711,28.5642686 87.1389711,78.6524243 84.8152928,113.456664 C60.1374808,121.08755 36.3709238,123.118533 14.2177725,115.085025 Z" id="Shape" fill="#1A6EE3"></path>
                    <path d="M51.8649714,94.5740946 C53.8575404,78.7862865 57.7743515,64.00543 63.6150438,50.2297052 C63.7664089,49.8726993 63.6002705,49.4603428 63.2439629,49.308681 C62.8876559,49.1570193 62.4761062,49.3234836 62.324741,49.6804896 C56.4327505,63.5772056 52.4826711,78.4836059 50.4741422,94.3978701 C50.4255744,94.78269 50.6975501,95.1340973 51.0816169,95.1827609 C51.4656838,95.2314237 51.8164035,94.9589151 51.8649714,94.5740946 Z" id="Shape" fill="#0E143F" fill-rule="nonzero"></path>
                    <path d="M3.11325103,235.70124 C3.46882863,235.372967 14.3019463,243.129272 16.7949269,244.234456 C19.2879075,245.33964 21.3060418,246.587391 23.461391,244.575488 C25.5529945,246.011702 30.7212516,247.869652 31.7009117,248.457952 C33.5284029,249.555386 34.0679664,250.835162 33.3196023,252.297279 L21.9014713,252.297279 L4.92473717,245.799593 L4.55749712,252.297279 L2.72216939,252.297279 C1.57245022,248.829074 0.898711394,246.409152 0.700952833,245.037511 C0.0303835015,240.386485 2.50981903,236.258335 3.11325103,235.70124 Z" id="Shape" fill="#021768"></path>
                    <path d="M71.2197357,235.70124 C71.575313,235.372967 82.4084311,243.129272 84.9014119,244.234456 C87.394392,245.33964 89.4125263,246.587391 91.5678757,244.575488 C93.659479,246.011702 98.827736,247.869652 99.8073961,248.457952 C101.634887,249.555386 102.174451,250.835162 101.426087,252.297279 L90.0079556,252.297279 L73.0312215,245.799593 L72.6639818,252.297279 L70.8286538,252.297279 C69.6789349,248.829074 69.0051958,246.409152 68.8074374,245.037511 C68.1368681,240.386485 70.6163037,236.258335 71.2197357,235.70124 Z" id="Shape" fill="#021768"></path>
                </g>
                <g id="Head-Front/-Women/-1" transform="translate(0.898112, 0.000000)">
                    <path d="M136.721076,89.4610961 C133.128766,91.4594835 129.367287,92.512776 125.436638,92.6209715 C115.166474,92.9036708 105.685948,86.6807274 96.9950598,73.9521435 C101.137768,71.9944533 105.593268,70.5078903 110.36156,69.492454 L112.682608,52.441105 C109.049748,49.5134493 106.230446,46.4050498 105.834504,43.7848812 C105.07349,38.748829 104.411534,34.31705 103.848636,30.4895441 C103.848636,20.1838223 112.283457,11.8293841 122.688337,11.8293841 C133.093216,11.8293841 141.528037,20.1838223 141.528037,30.4895441 L141.528037,40.3012278 C141.528037,48.5479158 136.682638,57.6378679 133.286013,61.1258061 C134.060731,63.5455241 135.034263,65.6179967 136.206609,67.3432239 C136.462839,67.7202923 136.694943,68.1002818 136.90292,68.4831924 C142.460454,69.1939736 142.514902,86.2380121 136.721076,89.4610961 Z" id="Shape" fill="#FFB5B9"></path>
                    <path d="M132.18328,61.3063718 C130.251403,62.9803485 127.804666,62.0871152 119.613006,55.981634 C119.302597,55.7502776 118.86583,55.8176512 118.637459,56.1321174 C118.409088,56.4465836 118.475592,56.8890603 118.786001,57.1204167 C127.501009,63.6159646 130.430582,64.6854674 133.090368,62.3807564 C133.383222,62.1269968 133.41757,61.6807749 133.167085,61.3840917 C132.916599,61.0874087 132.476135,61.0526123 132.18328,61.3063718 Z" id="Shape" fill="#F97A80" fill-rule="nonzero"></path>
                    <path d="M130.823415,50.1056825 C130.567975,49.8133673 130.594811,49.3666171 130.883354,49.1078381 C131.171898,48.849059 131.612883,48.8762454 131.868323,49.1685606 C132.602597,50.0088339 133.36997,50.2469022 134.292265,49.9450827 C134.658974,49.8250781 135.052277,50.0289569 135.170734,50.4004589 C135.28919,50.7719608 135.087942,51.1704055 134.721233,51.2904102 C133.254705,51.770329 131.914824,51.3546474 130.823415,50.1056825 Z" id="Shape" fill="#F97A80" fill-rule="nonzero"></path>
                    <path d="M135.248137,37.2773456 C135.248137,36.8869422 134.935736,36.5704577 134.55037,36.5704577 C134.165004,36.5704577 133.852604,36.8869422 133.852604,37.2773456 L133.852604,42.7921594 C133.852604,43.1467777 134.111957,43.4465147 134.458985,43.4929585 C135.754889,43.6663935 136.282808,43.9440116 136.282808,44.0701368 C136.282808,44.3524157 135.605429,45.0204698 134.197352,45.8571419 C133.864944,46.054657 133.753526,46.4877668 133.948493,46.8245198 C134.143459,47.1612728 134.570981,47.2741475 134.903388,47.0766325 C136.735584,45.9879511 137.678341,45.0581716 137.678341,44.0701368 C137.678341,43.0509379 136.811715,42.4838673 135.248137,42.1882184 L135.248137,37.2773456 Z" id="Shape" fill="#F97A80" fill-rule="nonzero"></path>
                    <path d="M124.736066,32.4577431 C123.010153,33.0875489 121.475227,33.2240413 121.307712,32.7626073 C121.140197,32.3011734 122.403528,31.4165488 124.129441,30.786743 C125.855353,30.1569372 127.39028,30.0204448 127.557795,30.4818787 C127.725309,30.9433127 126.461978,31.8279373 124.736066,32.4577431 Z M138.522594,32.7773166 C136.599469,32.3940224 135.136448,31.7243993 135.254845,31.2816715 C135.373242,30.8389437 137.028222,30.7907631 138.951347,31.1740573 C140.874472,31.5573514 142.337493,32.2269746 142.219096,32.6697024 C142.100699,33.1124303 140.445719,33.1606107 138.522594,32.7773166 Z M127.921587,38.6911212 C127.343538,38.6911212 126.874937,38.2163946 126.874937,37.6307895 C126.874937,37.0451844 127.343538,36.5704577 127.921587,36.5704577 C128.499636,36.5704577 128.968237,37.0451844 128.968237,37.6307895 C128.968237,38.2163946 128.499636,38.6911212 127.921587,38.6911212 Z M139.085854,38.6911212 C138.507805,38.6911212 138.039204,38.2163946 138.039204,37.6307895 C138.039204,37.0451844 138.507805,36.5704577 139.085854,36.5704577 C139.663903,36.5704577 140.132504,37.0451844 140.132504,37.6307895 C140.132504,38.2163946 139.663903,38.6911212 139.085854,38.6911212 Z M104.604545,24.6666524 C101.776072,23.2234719 99.631554,21.4212855 95.4998185,23.9439228 C89.4811261,27.6186444 80.5782599,47.4814608 70.6209919,47.4814608 C63.9828133,47.4814608 58.2556374,43.6166979 53.4394644,35.8871722 C51.1716899,46.0112524 44.7147805,53.8404252 34.0687359,59.3746907 C18.0996694,67.6760889 6.31940003,63.2085607 1.69288176,52.2850001 C-2.93363652,41.3614395 2.4222175,24.2204892 11.7015264,21.3085649 C20.9808359,18.3966406 19.9319886,31.7343964 24.8692775,29.2244295 C29.8065664,26.7144626 35.6597575,6.19600077 51.3854432,1.1344744 C61.8692336,-2.23987651 69.2182168,1.91320825 73.4323926,13.5937287 C78.9713359,4.16479378 84.1528429,0.0117090241 88.9769135,1.1344744 C93.3154446,2.14423415 99.846652,7.99888379 108.570536,18.6984233 C108.640692,18.665399 108.71227,18.6323192 108.785302,18.5991689 C117.061804,7.56134317 126.60825,12.9458452 132.225737,12.4347555 C140.342916,11.696239 145.896567,6.9100353 150.832082,11.5298836 C157.515105,17.7854722 149.565142,24.5388166 144.746064,26.1857771 C139.926985,27.8327377 125.565889,27.4305218 120.043855,21.2279919 C122.418096,29.2054881 116.929535,34.0891849 115.100052,36.778887 C113.185799,39.5932156 113.989067,41.036884 113.143028,41.2118136 C111.488415,41.5539264 109.917298,35.0030572 108.174844,36.4270877 C107.10647,37.3002221 109.517763,42.1217288 112.884377,51.477219 C113.0803,52.0216707 112.970359,52.9682687 112.554552,54.3170131 C108.871062,51.2142518 106.39526,48.4973216 105.127148,46.1662224 C102.687415,41.6814003 102.752304,31.6445328 103.571495,29.0592944 C104.13482,27.2815304 104.400963,25.852609 104.604545,24.6666524 L104.604545,24.6666524 Z" id="Shape" fill="#D5561D"></path>
                    <path d="M111.520714,49.3537673 C108.219307,50.5046549 104.621457,48.7280667 103.484691,45.3856465 C102.347926,42.0432262 104.102714,38.4006806 107.404122,37.2497928 C110.705529,36.0989054 114.822122,48.2028797 111.520714,49.3537673 Z" id="Shape" fill="#FFB5B9"></path>
                    <path d="M111.534601,42.7998933 C109.238537,40.5543563 107.192921,40.8381876 106.051639,43.6430852 C105.904776,44.0040263 106.074545,44.4172392 106.430829,44.5660219 C106.787113,44.7148046 107.194994,44.5428162 107.341857,44.1818751 C108.087231,42.3499884 108.943766,42.2311433 110.565345,43.817038 C110.842598,44.0881893 111.284331,44.0803052 111.551983,43.7994285 C111.819636,43.5185518 111.811854,43.0710445 111.534601,42.7998933 Z" id="Shape" fill="#F97A80" fill-rule="nonzero"></path>
                </g>
                <g id="Front-body/-Woman/-Pose6/-Long-sleeve-shirt" transform="translate(85.177382, 51.169557)">
                    <path d="M100.799514,89.0444807 C106.691017,85.8888254 111.228777,84.1044054 112.453208,84.2889264 C113.677638,84.4734474 112.332555,86.2894455 108.417958,89.7369213 C116.913064,92.2447653 121.194987,93.9569131 121.263728,94.8733642 C121.400762,96.7003119 114.559024,94.9396366 113.411046,95.2932131 C114.14169,95.9789511 122.025422,99.023868 121.755687,100.427131 C121.575864,101.36264 118.267762,100.787935 111.831382,98.7030163 C117.095642,101.565965 119.497389,103.364396 119.036622,104.098313 C118.345471,105.199186 112.945395,102.718624 110.493855,101.903893 C109.596953,101.605822 115.370587,105.453917 114.794947,106.220784 C114.219306,106.987652 112.167802,105.847996 107.930783,103.943788 C105.106105,102.674317 102.509779,100.610328 100.141805,97.751822 C96.7645387,97.9221701 94.6741859,98.2392346 93.8707478,98.7030163 C91.8081806,99.8936252 90.6343743,91.0868798 92.2543972,90.596299 C94.1463202,90.0233801 96.9946922,89.5061078 100.799514,89.0444807 Z M151.609629,19.0995856 C155.735124,13.1884625 159.06947,9.43797028 161.612664,7.84810881 C166.542769,2.72555843 168.892795,0.87672641 170.072497,0.494317706 C171.252201,0.111909051 170.82263,2.34639619 168.783788,7.19777912 C170.337617,6.92136072 171.114981,8.10345833 173.930344,7.51061407 C178.024397,6.64851026 184.961918,4.28544345 186.454456,5.71275422 C187.524498,6.73603368 179.609742,12.3452774 176.799605,13.4587268 C173.989469,14.5721763 168.100349,14.7075215 163.607928,15.3524169 L157.855834,23.2816164 L151.609629,19.0995856 Z" id="Shape" fill="#FFB5B9"></path>
                    <path d="M82.1295815,59.0804713 C81.8831724,60.9150107 81.5926458,62.7902223 81.2768627,64.7137317 C80.0853439,71.9715499 76.3147223,80.4145724 77.0144331,89.0992109 C82.5713228,89.2379741 88.3840613,89.2267431 94.3163783,88.9058872 C97.750392,88.7201545 98.7497893,92.1776615 97.3145702,99.2784081 C92.1635409,100.470867 86.7606043,101.72546 81.2785614,102.974297 C90.0934433,125.547339 91.8463716,124.811728 87.7567733,134.494386 C86.3820369,137.749253 66.943507,144.479574 63.5215196,139.639471 C61.8927758,147.130981 19.3887448,144.479574 12.633556,139.639471 C8.24949923,136.498286 14.5149507,124.445156 18.8175737,113.331642 C14.6658413,113.1352 12.0255775,112.263752 11.4621838,110.495167 C8.05035225,99.7848655 -5.48555274,36.6982952 3.79510566,29.8854768 C4.9813995,29.0146329 6.12554592,28.2147421 7.23557186,27.5052683 C7.54168497,27.2867233 7.86410279,27.0698559 8.20354092,26.8544916 C10.4720765,25.4151678 16.6959496,22.1516839 26.87516,17.0640401 C27.549795,14.7653026 26.1689745,12.4669511 28.0129729,13.5892169 C32.190226,16.131512 45.9090569,25.1042297 48.2993203,24.2873634 C50.6895844,23.470497 50.6895844,15.2711389 51.1407315,12.5478935 C51.3120811,11.5135808 54.5269772,18.3907907 54.4322613,17.1427464 C59.7256677,18.0007613 63.3001612,18.6479739 65.1557403,19.0843842 C69.5243141,20.1118213 71.9426812,21.1996755 72.4333483,21.6384392 C83.9368823,27.0150198 105.113709,41.6013161 116.779807,48.5698335 C120.681534,37.1903773 134.668917,33.722293 154.547691,12.673355 C156.935158,10.1453505 159.974625,11.9778208 163.666092,18.1707659 C139.754155,54.0694743 124.125394,71.9595242 116.779807,71.8415014 C111.498143,71.7559379 96.6073275,66.1316833 82.129578,59.0804696 L82.1295815,59.0804713 Z" id="Shape" fill="#0097A9"></path>
                    <path d="M69.4058051,37.6993822 C69.1795621,37.3744007 69.2540801,36.9236155 69.5722446,36.6925254 C69.8904099,36.4614353 70.3317397,36.5375492 70.5579827,36.8625307 C73.9435329,41.7256273 77.2115396,47.1898463 80.3625026,53.2551924 C81.0084313,54.498553 81.4943325,55.7455887 81.8301509,57.0008339 C83.0845834,61.6897354 82.4186421,65.3591784 80.0569051,71.6625203 C79.1278163,74.1422066 78.9067251,74.7681155 78.6386167,75.7922424 C77.7877578,79.0423754 77.5094815,82.8198337 77.8084865,87.1248391 C77.8361138,87.5226072 77.542819,87.8679379 77.1533938,87.8961566 C76.7639693,87.9243761 76.4258825,87.6247969 76.3982552,87.2270295 C76.0887366,82.7706544 76.3786942,78.8346394 77.2728274,75.4192045 C77.5591828,74.3253768 77.7859693,73.6833445 78.7365221,71.1463732 C80.9981199,65.1102956 81.618925,61.6895593 80.4663777,57.3814885 C80.1582396,56.2297091 79.7110185,55.0819432 79.1136559,53.9320692 C75.9905386,47.9203233 72.7544217,42.509426 69.4058051,37.6993822 Z M80.6024324,105.471273 C80.4854912,105.090815 80.6926447,104.685562 81.0651222,104.566115 C81.4375998,104.446669 81.8343519,104.658261 81.9512931,105.038718 C82.9202709,108.191204 84.7543676,113.65359 87.4519046,121.420234 C87.5824349,121.796053 87.3899798,122.208796 87.0220447,122.342124 C86.6541089,122.475451 86.2500221,122.278873 86.1194917,121.903054 C83.4164877,114.120668 81.5780273,108.645288 80.6024324,105.471273 Z" id="Shape" fill="#0E143F" fill-rule="nonzero"></path>
                    <path d="M93.5850845,99.4017016 C92.1500188,99.7339971 91.0351585,99.9919461 89.9454923,100.243725 C87.1693778,100.885175 84.7987079,101.430525 82.516874,101.951936 C79.3204545,102.682333 76.380858,103.346722 73.5659431,103.97382 C55.6059524,107.974886 42.2467531,110.552399 31.9957773,111.820565 C19.8824471,113.319126 12.9301696,112.769865 12.1343828,110.27176 C12.0135867,109.89256 11.6147082,109.685182 11.2434629,109.808566 C10.8722176,109.93195 10.6691885,110.339374 10.7899847,110.718573 C12.7805895,116.96741 33.2316117,114.437379 73.8672102,105.384717 C76.6847668,104.757032 79.6267815,104.092096 82.8255231,103.361167 C85.1085813,102.839478 87.4802995,102.293886 90.2574264,101.652202 C91.3473378,101.400367 92.4623926,101.142372 93.8976519,100.810032 C94.1322122,100.755719 96.7196457,100.156477 97.4708193,99.9825815 C97.7412032,99.919988 97.9508032,99.7017281 98.0068587,99.4243952 C99.5226481,91.9250247 98.377475,87.9631941 94.2789995,88.1848643 C84.6498939,88.7056655 76.0688215,88.5061438 62.1799617,87.7222657 C44.2256552,86.7089364 39.1228639,86.621413 34.7268325,87.9462517 C33.9745327,79.7893836 32.8642202,71.9621896 31.456622,64.5757781 C31.3820304,64.1843566 31.0109078,63.9288107 30.6276966,64.0050004 C30.2444853,64.0811901 29.9942997,64.4602639 30.0688912,64.8516854 C31.5187717,72.4599743 32.6515561,80.5409704 33.39977,88.9710771 C33.4410772,89.436483 33.8977701,89.7398179 34.3310007,89.589599 C38.7053745,88.0728255 43.2879522,88.1022811 62.1019616,89.1641315 C76.0382896,89.9506891 84.6606718,90.1511712 94.3537565,89.6269095 C97.0598453,89.4805483 97.9368033,92.2965857 96.7119307,98.6775894 C95.6855946,98.9152402 93.7845089,99.3555242 93.5850845,99.4017016 Z" id="Shape" fill="#0E143F" fill-rule="nonzero"></path>
                    <path d="M64.0720495,138.935722 C64.0765269,139.334463 63.7636923,139.661414 63.3733149,139.666083 C62.9829368,139.67056 62.6628439,139.351023 62.6583672,138.952282 C62.4872727,123.713796 62.355863,113.295811 62.2641549,107.699362 C62.2576212,107.30065 62.5687649,106.97202 62.9591133,106.965144 C63.3494624,106.958673 63.6711989,107.276483 63.6777326,107.675195 C63.7694944,113.274952 63.9009275,123.694782 64.0720495,138.935722 Z M63.2471001,88.5664054 C63.2607946,88.9649274 62.9556071,89.2993336 62.5654439,89.3141991 C62.1752807,89.3273101 61.8478892,89.0155836 61.8341946,88.6170616 C61.2918661,72.8353291 60.4945864,62.4733633 59.451707,57.5765661 C57.5363464,48.5830673 53.9824524,38.0878168 48.7888528,26.0952333 C48.6309207,25.7305513 48.7923237,25.304146 49.1493564,25.1428305 C49.5063892,24.9815149 49.9238503,25.1463759 50.0817825,25.5110578 C55.3113046,37.5865916 58.8954923,48.1713029 60.8331743,57.2696107 C61.9002378,62.2799648 62.7017623,72.6970958 63.2471001,88.5664054 Z" id="Shape" fill="#0E143F" fill-rule="nonzero"></path>
                    <path d="M49.5010169,26.522053 C49.8897302,26.4849911 50.1754303,26.1330806 50.1391457,25.7360389 C50.1028612,25.3389973 49.7583318,25.0471761 49.3696184,25.0842381 L42.1396306,25.7735824 C41.928578,25.7937053 41.7375048,25.9095061 41.6190714,26.0890707 L36.6700176,33.5926346 L27.4103119,16.0979676 L28.2178131,13.8366278 C28.3515883,13.4620016 28.16271,13.0475374 27.7959418,12.9108961 C27.4291734,12.7742548 27.0234028,12.9671798 26.8896276,13.341806 L25.9731767,15.90825 C25.903887,16.1022903 25.919271,16.3173504 26.0154382,16.4990424 L35.981839,35.3288913 C36.234499,35.8062511 36.8930923,35.8389807 37.1899286,35.388929 L42.6044737,27.179605 L49.5010169,26.522053 Z" id="Shape" fill="#0E143F" fill-rule="nonzero"></path>
                    <path d="M53.4105561,22.5943721 C53.1838282,22.4846478 52.9171491,22.5058963 52.7098217,22.6502052 L49.0372504,25.2064787 C48.7146324,25.4310352 48.6313194,25.8802111 48.8511657,26.2097411 C49.0710121,26.5392711 49.5107663,26.6243689 49.8333849,26.3998124 L53.1712484,24.0765101 L59.9871922,27.3750683 C60.6227444,27.6826422 61.2603056,26.9566649 60.8921578,26.3446033 L52.366253,12.1699285 C52.1618875,11.8301617 51.7265577,11.723947 51.3939182,11.9326913 C51.061278,12.1414356 50.9572913,12.5860917 51.1616568,12.9258585 L58.4416534,25.0291585 L53.4105561,22.5943721 Z" id="Shape" fill="#0E143F" fill-rule="nonzero"></path>
                </g>
            </g>
            <g id="Man-Standing-1" transform="translate(706.007846, 533.545548) scale(-1, 1) translate(-706.007846, -533.545548) translate(567.507846, 369.545548)">
                <g id="Head-Back/-Man/1-" transform="translate(93.447846, 0.454452)">
                    <path d="M31.5863483,59.112397 C31.1465517,64.0645206 31.1263245,66.9470326 31.5256668,67.7599331 C32.3808698,69.5007828 36.0480725,75.9082532 31.383,81.3105 C26.7179275,86.7127468 8.96589522,89.8208892 3.56365746,81.1211022 C3.84162507,74.6075612 5.68512587,63.555441 9.09415982,47.9647414 C6.82738633,45.9917804 5.26688817,43.9713545 4.97963044,42.0949386 C4.20172982,37.0135606 3.01596425,32.3486999 1.42233373,28.1003565 C1.42233373,17.7018804 10.0443221,9.27225 20.6800838,9.27225 C31.3158454,9.27225 39.9378338,17.7018804 39.9378338,28.1003565 L39.9378338,40.140098 C39.9378338,50.5385741 38.6895403,58.7972766 33.5057515,59.256266 C33.0101782,59.3001456 32.3593097,59.2484516 31.5863483,59.112397 L31.5863483,59.112397 Z" id="Shape" fill="#944300"></path>
                    <path d="M31.8582188,63.0293613 C31.8871814,58.469801 31.8308421,55.8118468 31.6788637,54.9397405 C31.6652693,54.861731 31.6517005,54.7992237 31.6335017,54.7403447 C31.6131289,54.6735493 31.6131289,54.6735493 31.5397911,54.537166 C31.345042,54.2459389 31.345042,54.2459389 30.5594919,54.3130235 C30.2609527,54.6209806 30.2609527,54.6209806 30.239702,54.7369868 C30.2189033,54.8206802 30.2189033,54.8206802 30.2110128,54.8751979 C30.2033575,54.9310309 30.1984416,54.9943987 30.1948885,55.0716511 C30.1833148,55.323293 30.1850879,55.7814437 30.1994862,56.4607196 C30.227744,57.7938561 30.3053514,59.9908504 30.4323452,63.0543721 C30.4708037,63.9821223 31.8523207,63.9578895 31.8582188,63.0293613 Z" id="Shape" fill="#4A2D00" fill-rule="nonzero"></path>
                    <path d="M8.36445757,51.5558232 C17.4486688,52.8781711 22.572767,52.6465177 23.7367519,50.8608629 C25.4827293,48.1823807 23.3192946,36.1631143 28.8686469,33.7670213 C34.4179992,31.3709283 34.4072776,38.6282367 36.0986064,38.2830448 C37.7899352,37.9378529 33.8088333,23.6420835 38.9637467,22.8311851 C40.4108736,22.6035436 41.7127587,22.2886156 42.8694018,21.8864012 C52.9255366,18.3894524 58.6103847,12.6244947 56.6829584,8.62032809 C55.3980075,5.95088369 50.6350429,5.25587009 42.3940645,6.53528727 C45.5387575,1.98867268 44.0843357,-0.185624133 38.030799,0.0123968342 C32.879976,0.180888581 20.0006114,6.49990264 12.8452262,7.06944981 C8.07496943,7.44914792 5.37810455,9.94526222 4.75463157,14.5577928 C1.82599521,15.7932058 0.245586713,18.8056822 0.0134060694,23.5952219 C-0.218774574,28.3847617 2.56490927,37.7049621 8.36445757,51.5558232 Z" id="Shape" fill="#441006"></path>
                    <path d="M33.8639691,38.0442996 C31.5169555,35.7785522 29.4259481,36.064938 28.2593414,38.8950805 C28.1092196,39.2592702 28.2827559,39.676202 28.6469455,39.8263238 C29.0111352,39.9764456 29.4280671,39.8029093 29.5781888,39.4387197 C30.3401031,37.5903454 31.2156439,37.4704308 32.8732058,39.0705989 C33.1566105,39.3441907 33.6081454,39.3362356 33.8817371,39.052831 C34.1553289,38.7694262 34.1473738,38.3178914 33.8639691,38.0442996 Z" id="Shape" fill="#4A2D00" fill-rule="nonzero"></path>
                </g>
                <g id="Back-Bottom/-Sit/-Pants" transform="translate(0.000000, 163.730141)">
                    <path d="M260.322764,119.412402 C259.491402,126.815767 258.054043,138.753243 256.01069,155.224832 L245.573171,155.885118 C243.771354,141.719132 241.773889,129.559349 239.854366,118.93752 C233.166342,81.9288205 268.07102,50.4134612 260.322764,119.412402 Z M47.4830625,154.047137 C39.3666762,152.610276 26.0702183,150.166514 7.59368873,146.715853 L8.39257996,136.285965 C21.7584167,135.686479 34.2952749,134.442612 45.8414984,133.161184 C76.0510805,129.808449 108.892047,164.918502 47.4830625,154.047137 Z" id="Shape" fill="#944300"></path>
                    <path d="M156.59245,76.5082255 C153.389884,127.157281 149.885934,154.157605 146.080598,157.509195 C141.312695,161.708578 98.2532136,165.367039 24.0348227,151.708569 C17.6246997,150.528909 17.9996802,135.146897 24.0348227,134.626962 C63.312324,131.243153 99.6080096,121.957867 116.08355,130.346511 C110.542303,116.247038 90.0699137,35.3242237 88.9339815,23.0214884 C87.4854568,7.33321262 111.155629,3.78453557 159.944499,12.3754573 C159.887402,13.6710834 159.830194,14.9580561 159.772877,16.2363754 C220.822951,1.92053713 254.740766,-2.92844571 261.526319,1.68942698 C269.045307,6.80643529 268.972472,55.8842075 259.272468,136.316829 C258.569633,142.14475 240.516442,139.572364 240.383872,134.756664 C238.997589,84.3989632 229.061125,63.5191876 237.054076,40.5495027 C215.691234,52.6586383 187.875924,63.2729966 156.59245,76.5082255 L156.59245,76.5082255 Z" id="Shape" fill="#134DBD"></path>
                    <path d="M156.078805,75.3618839 C143.007436,80.8943808 134.9763,83.2296327 132.337302,82.386651 C131.962049,82.2667828 131.560693,82.4738741 131.440848,82.8492021 C131.321004,83.2245303 131.528054,83.6259663 131.903307,83.7458345 C135.028623,84.7441619 143.155133,82.3811772 156.634743,76.675892 C156.997524,76.5223437 157.167165,76.1037175 157.013648,75.7408642 C156.86013,75.3780109 156.441587,75.2083356 156.078805,75.3618839 Z" id="Shape" fill="#0E143F" fill-rule="nonzero"></path>
                    <path d="M11.8663168,134.533856 C13.1080399,135.794487 9.48570906,141.698097 9.47869658,144.156889 C9.47402161,145.796084 10.2577018,146.86376 11.829737,147.359918 C9.98066312,151.380005 8.68095357,154.267922 7.93060827,156.023668 C10.6041834,157.994082 12.5317036,160.072964 11.829737,161.244431 C10.7152088,163.104396 9.41549914,163.653547 7.93060827,162.891885 L0,159.849894 L0,134.533856 C7.08306248,133.693435 11.0385014,133.693435 11.8663168,134.533856 Z M243.854156,148.430978 C245.114537,147.189008 251.016974,150.812058 253.475279,150.819072 C255.114148,150.823748 256.181613,150.039912 256.677671,148.467565 C266.878638,152.640937 272.908919,155.284998 274.768514,156.399748 C276.628109,157.514497 277.177151,158.814465 276.415641,160.299651 L243.854156,160.299651 C243.013902,153.215182 243.013902,149.258957 243.854156,148.430978 Z" id="Shape" fill="#191844"></path>
                </g>
                <g id="Back-body/-Man/-Pose1/-Long-sleeve-T-shirt-Copy" transform="translate(35.663338, 0.236762)">
                    <path d="M187.903678,15.2729971 C188.817871,10.6669577 189.636623,7.83724699 190.359932,6.78386512 C191.083242,5.73048324 191.813529,6.10420201 192.550792,7.9050215 C197.445366,2.37785759 200.311723,-0.205063607 201.149862,0.15625784 C202.820695,0.876552979 198.136854,6.4239493 197.922194,7.65590921 C198.860472,7.29444522 199.647548,6.53318518 200.759123,7.43526541 C201.500173,8.0366522 201.313745,9.12744194 200.199842,10.7076345 C201.412507,9.66869932 202.236296,9.53382383 202.671209,10.303008 C203.323579,11.4567843 204.244651,11.5347279 202.404514,13.4371679 C201.731296,14.1331799 203.899917,12.9241891 204.311211,13.8155228 C204.722506,14.7068566 206.642884,13.7102111 203.025898,16.7680062 C200.614573,18.8065364 197.608529,20.263961 194.007764,21.14028 L187.98979,32.4190349 L180.706606,27.4426548 L187.903678,15.2729971 Z" id="Shape" fill="#944300"></path>
                    <path d="M118.651471,103.144448 C120.758708,123.06968 119.319425,143.05221 121.149663,155.842928 C122.69499,166.642535 128.350237,168.459977 130.133103,173.289807 C131.474177,176.922812 112.423816,196.996932 93.4264586,202.337381 C74.4291013,207.677828 62.9813695,201.883569 51.8896898,193.833165 C51.0933252,193.25516 50.7645655,191.779203 50.7400407,189.687936 C40.0762283,183.639009 1.19474222,161.721823 0.03977903,152.622305 C-1.25047053,142.456916 29.1968898,81.2083223 40.4005588,78.3814743 C40.4920947,78.3583785 40.583285,78.3370271 40.6741297,78.3174201 C43.3643014,76.7586399 50.9217467,73.6757361 63.3464658,69.0687088 C69.2808337,74.6013891 89.8647083,73.4039853 89.4891305,68.3908674 C97.7923787,68.8822073 103.866897,69.9134713 107.712685,71.4846594 C125.035053,67.9332264 145.487305,65.4049361 149.098172,67.6328564 C150.987434,54.1297707 166.730877,46.634627 184.543596,18.4519933 C186.682926,15.0672229 190.526305,16.3130956 196.073731,22.1896115 C180.841347,58.5403939 160.093673,90.2469318 159.676754,90.6231748 C154.798328,95.0256406 135.723912,100.494725 118.651471,103.144448 L118.651471,103.144448 Z M43.350829,126.3613 C36.6099537,135.423126 30.4659936,141.854033 24.9189486,145.65402 C33.7925372,154.384125 36.8014312,157.330073 52.458729,175.021971 C53.8632971,166.229479 55.4425267,156.528462 54.289624,150.947844 C52.9423049,144.426157 47.863951,135.874545 43.350829,126.3613 L43.350829,126.3613 Z" id="Shape" fill="#244C5A"></path>
                    <path d="M117.310847,102.372012 C114.607767,103.809814 113.059068,104.943768 112.581332,105.933034 C111.348498,108.485911 111.216607,110.820246 111.745032,112.753396 C111.854671,113.154493 111.968553,113.445526 112.053648,113.616073 C112.234355,113.978247 112.664605,114.120274 113.014637,113.933298 C113.36467,113.746322 113.501935,113.301148 113.321228,112.938973 C113.278291,112.85292 113.200126,112.653162 113.117719,112.35169 C112.681618,110.756294 112.792233,108.798526 113.85743,106.592782 C114.146319,105.994568 115.542668,104.972164 117.963062,103.684726 C118.313406,103.498375 118.451412,103.053445 118.271307,102.690949 C118.091203,102.328453 117.66119,102.18566 117.310847,102.372012 Z" id="Shape" fill="#0E143F" fill-rule="nonzero"></path>
                    <path d="M39.3466408,114.580803 C41.6867378,122.6931 43.9237656,128.515749 46.0747437,132.068084 C46.2838877,132.413485 46.7240483,132.518062 47.0578696,132.301662 C47.391691,132.085263 47.4927618,131.629835 47.2836177,131.284434 C45.2156961,127.869266 43.0200127,122.15423 40.7135867,114.158659 C40.600923,113.768093 40.2035898,113.545978 39.8261181,113.662549 C39.4486464,113.779121 39.2339771,114.190237 39.3466408,114.580803 Z" id="Shape" fill="#0E143F" fill-rule="nonzero"></path>
                    <path d="M51.699214,178.058917 C49.1915684,185.576205 49.1915684,191.23817 51.7925224,195.015789 C54.3897611,198.788011 63.7920058,202.09091 80.1883245,205.129244 C80.5760813,205.201098 80.9467161,204.934103 81.0161612,204.532896 C81.0856056,204.131688 80.8275628,203.748196 80.439806,203.676343 C64.4620733,200.715576 55.2372407,197.475 52.9543757,194.159373 C50.6752259,190.849141 50.6752259,185.652523 53.047684,178.540494 C53.1762094,178.155208 52.9785345,177.735066 52.6061648,177.602083 C52.2337951,177.469099 51.8277394,177.673631 51.699214,178.058917 Z" id="Shape" fill="#0E143F" fill-rule="nonzero"></path>
                </g>
            </g>
            <g id="Woman-Standing-1" transform="translate(96.000000, 251.000000)">
                <g id="Head-Front/-Women/-3" transform="translate(0.000000, 0.520275)">
                    <path d="M50.5134127,37.6892249 C49.6752063,35.2564561 50.385588,32.6650275 52.1214026,30.9868791 C51.6662821,27.99054 51.2534456,25.2488125 50.8828929,22.7616966 C50.8828929,12.4342333 59.4460005,4.06216994 70.0091291,4.06216994 C80.5722576,4.06216994 89.1353652,12.4342333 89.1353652,22.7616966 L89.1353652,32.5940798 C89.1353652,40.8581656 84.2162719,49.9672945 80.767987,53.4625911 C81.5544881,55.8874139 82.5428268,57.9642587 83.7330031,59.6931256 C83.9931299,60.0709894 84.8162138,61.1804779 85.0273543,61.5641964 C105.781127,63.0281343 93.3164435,76.7708227 86.2375857,80.6647997 C81.9066848,83.0471651 77.5189348,84.8959616 72.7992298,85.0242009 C62.3728656,85.3074966 52.7481488,79.0714248 43.9250795,66.3159878 C48.130795,64.3541676 52.6540595,62.8644684 57.4948731,61.8468898 L59.8512215,44.7595681 C58.7146912,43.8554769 57.6565935,42.9341857 56.724754,42.0153123 C54.0077318,42.0763418 51.4455573,40.3946348 50.5134127,37.6892249 Z" id="Shape" fill="#F79474"></path>
                    <path d="M79.6484826,53.6435377 C77.6872231,55.3210459 75.203273,54.4259282 66.8870252,48.3075665 C66.5718956,48.0757219 66.1284855,48.1432378 65.8966409,48.4583674 C65.6647964,48.773497 65.7323122,49.2169071 66.0474418,49.4487516 C74.8949977,55.958003 77.8691274,57.0297621 80.5693659,54.7201889 C80.8666749,54.465894 80.9015447,54.0187307 80.6472498,53.7214216 C80.3929549,53.4241126 79.9457915,53.3892428 79.6484826,53.6435377 Z" id="Shape" fill="#E2643B" fill-rule="nonzero"></path>
                    <path d="M78.267935,42.4192186 C78.00861,42.1262867 78.0358537,41.6785941 78.3287857,41.4192691 C78.6217176,41.159944 79.0694103,41.1871879 79.3287352,41.4801197 C80.0741767,42.3221657 80.853221,42.5607363 81.7895436,42.2582801 C82.1618292,42.1380223 82.5611146,42.3423312 82.6813725,42.7146169 C82.8016302,43.0869026 82.5973213,43.4861879 82.2250356,43.6064457 C80.7362024,44.087377 79.3759438,43.6708184 78.267935,42.4192186 Z" id="Shape" fill="#E2643B" fill-rule="nonzero"></path>
                    <path d="M82.7599532,29.5638181 C82.7599532,29.1725912 82.442801,28.855439 82.0515741,28.855439 C81.660347,28.855439 81.3431949,29.1725912 81.3431949,29.5638181 L81.3431949,35.0902664 C81.3431949,35.4456329 81.6064932,35.7460021 81.9587987,35.7925439 C83.2744121,35.9663449 83.8103605,36.2445487 83.8103605,36.3709399 C83.8103605,36.6538144 83.1226793,37.3232778 81.6931869,38.1617151 C81.3557235,38.3596468 81.2426107,38.7936703 81.4405424,39.1311338 C81.6384741,39.4685972 82.0724977,39.58171 82.4099612,39.3837783 C84.2700229,38.2928002 85.2271188,37.3610591 85.2271188,36.3709399 C85.2271188,35.3495909 84.3473123,34.781324 82.7599532,34.4850513 L82.7599532,29.5638181 Z" id="Shape" fill="#E2643B" fill-rule="nonzero"></path>
                    <path d="M89.1349975,24.2599287 C89.1373491,23.6695759 89.1353652,23.0855312 89.1353652,22.480027 C82.738043,23.0787936 74.9677829,23.0787936 71.7800769,12.863171 C71.7800769,26.3689316 64.1627411,26.3689316 62.3054326,29.064308 C60.3620662,31.884574 61.177551,33.331288 60.3186443,33.5065866 C58.6388658,33.8494211 57.2883898,28.2894136 55.2748984,28.7117666 C53.261407,29.1341195 48.8916969,33.0195842 50.7275677,37.7419508 C52.5634384,42.4643174 58.8424973,41.1904679 59.8911037,44.1813901 C60.0833431,44.729711 59.8911037,45.579318 59.7212186,46.6394338 C58.4109986,55.873327 57.7049295,60.8703993 57.6030113,61.6306508 C57.4501342,62.7710281 46.0913497,64.1464428 44.7167032,66.8637015 C43.8439278,68.5889135 54.9454852,76.7708149 54.4290899,78.4845745 C50.8604405,90.3278438 45.7714335,97.7105625 39.1620687,100.632732 C22.8046016,107.864787 -2.2295275,91.4152972 0.570785611,69.1003895 C3.37109865,46.7854818 44.6039955,51.9710112 44.5212221,37.9271531 C44.4306722,22.5638865 51.9166847,6.14338375 60.3328017,6.30098521 C68.7351828,-4.76012667 89.9673699,2.90575194 94.4234833,9.09538562 C98.8795968,15.2850193 87.7181929,24.9367787 92.4408174,42.2921812 C97.1634419,59.6475839 89.2157237,61.1408546 85.0273543,61.5641964 C83.610976,61.7073576 80.7819906,53.7999096 80.767987,53.4625911 C80.7709501,53.0642059 86.5111706,46.3614983 87.718607,38.7727467 C88.8503126,31.6599643 89.0806813,28.2093569 89.1256684,25.2749805 C88.4335638,25.3664886 87.3127855,25.2960006 86.0842117,25.0542956 C84.1318379,24.6701928 82.6465657,23.999157 82.7667633,23.5554952 C82.8869609,23.1118334 84.567112,23.0635512 86.5194858,23.4476539 C87.597694,23.6597766 88.533443,23.9594097 89.1349975,24.2599287 Z M72.0880025,24.7340479 C70.3358403,25.3651824 68.7775692,25.5019627 68.6075066,25.0395553 C68.4374439,24.5771479 69.719989,23.6906571 71.4721512,23.0595225 C73.2243134,22.428388 74.7825845,22.2916078 74.9526472,22.7540151 C75.1227098,23.2164226 73.8401647,24.1029134 72.0880025,24.7340479 Z M75.3219725,30.9805764 C74.735132,30.9805764 74.2594038,30.5048482 74.2594038,29.9180077 C74.2594038,29.3311672 74.735132,28.855439 75.3219725,28.855439 C75.9088129,28.855439 76.3845411,29.3311672 76.3845411,29.9180077 C76.3845411,30.5048482 75.9088129,30.9805764 75.3219725,30.9805764 Z M86.6560383,30.9805764 C86.0691979,30.9805764 85.5934696,30.5048482 85.5934696,29.9180077 C85.5934696,29.3311672 86.0691979,28.855439 86.6560383,28.855439 C87.2428788,28.855439 87.718607,29.3311672 87.718607,29.9180077 C87.718607,30.5048482 87.2428788,30.9805764 86.6560383,30.9805764 Z" id="Shape" fill="#000000"></path>
                    <path d="M58.6857546,35.0980166 C56.354769,32.8477423 54.2780414,33.1321724 53.1194016,35.9429874 C52.970305,36.30469 53.1426562,36.7187746 53.5043588,36.8678712 C53.8660613,37.0169677 54.2801459,36.8446166 54.4292425,36.482914 C55.1859535,34.6471626 56.0555151,34.5280667 57.7017573,36.1173072 C57.9832267,36.3890305 58.4316779,36.3811298 58.7034012,36.0996606 C58.9751246,35.8181912 58.9672239,35.3697399 58.6857546,35.0980166 Z" id="Shape" fill="#E2643B" fill-rule="nonzero"></path>
                </g>
                <g id="Front-Bottom/-Standing/-Long-Pants" transform="translate(22.668132, 174.618347)">
                    <path d="M6.65218461,214.922726 L21.2548327,217.761192 L12.3809699,247.751358 L0.704919872,245.51875 L6.65218461,214.922726 Z M96.6208856,218.495014 L111.385964,216.682091 L112.21389,247.946607 L100.419392,249.431368 L96.6208856,218.495014 Z" id="Shape" fill="#F79474"></path>
                    <path d="M58.3514492,71.9193827 L17.20192,240.398397 L1.41506819,236.919888 C4.84353384,171.592822 11.2864496,128.778577 20.7438155,123.160489 C15.6077497,86.4139536 16.2140722,46.5954861 22.5627832,3.70508572 L35.6209729,4.36243679 L89.6824276,-2.01333454e-14 L113.340659,121.518097 L112.847297,236.962256 L98.4130876,240.398397 C88.2549735,177.537833 83.6419308,139.48074 91.6577498,131.89415 C81.5207752,115.589823 70.4186747,95.5982333 58.3514492,71.9193827 Z" id="Shape" fill="#021768"></path>
                    <path d="M0.625872191,243.231479 C1.87761657,241.998265 7.73960749,245.595774 10.1810661,245.602738 C11.8087052,245.607381 12.8688546,244.829071 13.3615144,243.267808 C23.4925787,247.411759 29.4815371,250.037181 31.3283897,251.144072 C33.1752423,252.250963 33.7205222,253.541766 32.9642295,255.016482 L0.625872191,255.016482 C-0.208624064,247.981956 -0.208624064,244.053622 0.625872191,243.231479 Z M99.0905693,243.394669 C100.342313,242.161455 106.204304,245.758964 108.645763,245.765928 C110.273403,245.770571 111.333552,244.992261 111.826211,243.430998 C121.957276,247.574949 127.946235,250.200371 129.793087,251.307262 C131.639939,252.414153 132.185219,253.704956 131.428927,255.179672 L99.0905693,255.179672 C98.2560732,248.145147 98.2560732,244.216812 99.0905693,243.394669 Z" id="Shape" fill="#021768"></path>
                    <path d="M86.6778538,17.3927016 C86.9083498,17.0765847 86.8389414,16.633467 86.5228244,16.4029705 C86.2067074,16.1724738 85.7635893,16.2418828 85.5330934,16.5579997 L62.4150608,48.2634585 C62.3712754,48.3235084 62.3372124,48.3900744 62.3141216,48.4607141 L54.1299519,73.4978604 C54.0083965,73.869724 54.2113119,74.2697195 54.5831759,74.3912752 C54.9550399,74.5128302 55.3550354,74.309915 55.4765907,73.9380507 L63.6259084,49.0075245 L86.6778538,17.3927016 Z" id="Shape" fill="#0E143F" fill-rule="nonzero"></path>
                </g>
                <g id="Front-body/-Woman/-Pose1/-Long-sleeve-shirt-Tie" transform="translate(0.000000, 55.488664)">
                    <path d="M58.991833,129.870143 C57.1173165,132.46669 52.78838,134.40009 50.537788,133.015126 C47.0446151,130.865504 1.32091461,97.7729062 0.039506445,87.6791796 C-1.08565107,78.8162489 22.0910593,30.8460615 35.2926861,17.3789542 C35.6257969,17.0111737 36.0032572,16.6464605 36.4291797,16.283537 C37.7066128,15.1288316 38.8709194,14.3518227 39.8862619,14.0294723 C42.7940176,12.5714243 48.3477689,10.1084779 55.519725,5.0041494 C56.2460804,4.48719748 56.9158561,3.52824901 57.5290521,2.12730401 C61.4581874,5.78975522 68.6078032,10.3435075 78.9779004,15.788561 C79.8255929,7.84076587 80.4310395,3.04492931 80.794239,1.40105134 C81.2757228,-0.778192004 83.9643432,6.36057803 83.9169349,5.72791366 L97.7651388,13.6442824 C106.240668,17.1833178 130.478854,44.3714476 143.902554,55.0739449 C153.907318,46.3670818 157.936829,43.3486178 179.581582,23.8629805 C182.181145,21.5227304 185.058743,23.6500852 188.214377,30.2450449 C165.996092,64.3802695 151.225484,81.05608 143.902554,80.2724759 C138.227568,79.6652137 122.295957,69.7068647 107.846283,58.6345082 C105.473611,62.2973337 102.714972,66.1162613 102.714972,75.6011506 C102.714972,90.7832006 121.013259,110.324535 116.657068,120.770239 C114.045411,127.032727 80.9320895,131.199672 58.991833,129.870143 L58.991833,129.870143 Z M46.3481254,110.820317 C50.0905474,103.316966 54.1265938,94.7241289 52.949103,89.0256248 C51.4770949,81.9017954 46.0929367,70.9762666 41.7546325,59.3815562 C35.1270424,67.4319562 29.4582289,74.5581105 24.748192,80.7600186 C30.9114833,91.8049283 34.4565013,96.9920833 46.3481254,110.820317 L46.3481254,110.820317 Z" id="Shape" fill="#F2A900"></path>
                    <path d="M99.2974755,26.9179349 C101.28689,29.9153478 102.766293,32.2222939 103.733932,33.8355947 C105.534748,36.8380128 107.300957,40.0270537 109.032482,43.4027092 C109.327318,43.9774985 109.56918,44.560322 109.760188,45.1519558 C111.132462,49.40246 110.04726,53.5394981 106.796008,59.7514321 C106.74726,59.8445711 105.138579,62.8593561 104.73428,63.6648159 C104.026024,65.0758326 103.575589,66.1563145 103.325716,67.1229885 C100.555545,77.8398348 104.841037,92.9547877 116.11221,112.518035 C116.312507,112.865688 116.747315,112.979545 117.08338,112.772341 C117.419445,112.565137 117.529506,112.115336 117.329209,111.767683 C106.235896,92.5131459 102.047614,77.7410534 104.694386,67.5015927 C104.911982,66.6597913 105.326841,65.6646476 105.991635,64.3402182 C106.386102,63.554345 107.98545,60.55705 108.041872,60.4492484 C111.466723,53.9056304 112.638185,49.4397491 111.103981,44.6876768 C110.888135,44.0191115 110.615369,43.3618159 110.283964,42.7157329 C108.537777,39.3114967 106.755744,36.0938825 104.937785,33.0628822 C103.956379,31.4266286 102.466181,29.1028489 100.465435,26.0883645 C100.243992,25.7547197 99.8030195,25.6699528 99.4804966,25.8990323 C99.157973,26.1281118 99.0760319,26.5842901 99.2974755,26.9179349 Z" id="Shape" fill="#0E143F" fill-rule="nonzero"></path>
                    <path d="M183.903226,19.5376757 C183.689405,12.7056607 183.984365,8.80104906 184.788107,7.82384078 C185.591849,6.84663257 186.388491,9.00584288 187.178034,14.3014718 C193.775807,8.18185134 197.474195,5.33827043 198.273196,5.77072922 C199.866008,6.63283681 194.767888,11.7007587 194.452448,12.9001574 C195.41099,12.626624 202.130951,7.33334173 203.155243,8.32518817 C203.838104,8.98641913 201.603218,11.5856186 196.450584,16.1227864 C201.628109,13.0345226 204.399841,11.8902901 204.765783,12.690089 C205.314696,13.8897874 200.383198,17.3031094 198.403473,19.0201777 C197.679186,19.6483711 203.946861,16.6421333 204.279217,17.5606443 C204.611573,18.4791553 202.573941,19.6697819 198.739604,22.3705901 C196.183379,24.1711288 193.087371,25.3436011 189.451579,25.888007 L187.323571,29.1637667 L181.302691,23.178219 L183.903226,19.5376757 Z M64.0432964,129.070728 C70.6512509,128.131521 74.471203,128.021581 75.5031513,128.740909 C76.5351003,129.460237 74.5225421,130.503033 69.4654767,131.869297 C76.0906406,137.974705 79.2349378,141.458972 78.8983678,142.322098 C78.2274159,144.042741 72.7788811,139.360849 71.5820994,139.164573 C71.9472631,140.11649 77.7832091,146.434055 76.9272115,147.58668 C76.3565463,148.355097 73.6016485,146.342488 68.6625191,141.548851 C72.1981349,146.520741 73.5968889,149.236067 72.8587827,149.69483 C71.751623,150.382974 67.9261434,145.69709 66.0538613,143.852537 C65.3688827,143.177703 68.938296,149.273663 68.0814902,149.71058 C67.2246844,150.147497 65.8572691,148.18818 62.8373857,144.549757 C60.8241299,142.124142 59.3642376,139.080001 58.4577089,135.417334 L53.5837803,132.791549 L61.0745678,127.579962 L64.0432964,129.070728 Z" id="Shape" fill="#F79474"></path>
                    <path d="M61.4048184,126.035904 C61.1861314,125.779909 60.5148118,124.998355 59.7766018,124.141504 C58.679323,122.867877 57.4913157,121.493543 56.269655,120.085999 C52.8713585,116.17063 49.7878315,112.65998 47.343829,109.941295 C47.0774041,109.644926 46.6291783,109.6281 46.3426886,109.903712 C46.0561989,110.179323 46.0399333,110.643005 46.3063582,110.939374 C48.743607,113.650547 51.8222249,117.155607 55.2154694,121.065155 C56.4359088,122.471292 57.6227696,123.8443 58.7189428,125.116644 C59.4559436,125.972091 60.126065,126.752251 60.3432008,127.006429 C60.6022706,127.309696 61.0499394,127.338282 61.343097,127.070279 C61.6362546,126.802276 61.6638882,126.33917 61.4048184,126.035904 Z" id="Shape" fill="#0E143F" fill-rule="nonzero"></path>
                    <path d="M102.249542,124.023174 C93.9668348,97.7893293 89.6329473,80.0290131 89.2500641,70.8064681 C89.0692872,66.4520672 89.4278212,64.0065353 90.3960763,60.8969515 C90.435538,60.7702193 90.6975504,59.9403469 90.7720606,59.6983825 C91.9214043,55.9660014 92.018827,52.9978233 90.7134351,46.7900492 C88.7716653,37.5559881 85.1799161,26.8133451 79.9393614,14.5576356 C79.781096,14.1875123 79.3627542,14.0201915 79.0049682,14.183914 C78.6471822,14.3476365 78.4854387,14.7804041 78.6437041,15.1505274 C83.8482604,27.322049 87.409652,37.9738963 89.3290534,47.1015846 C90.5829759,53.06462 90.494104,55.7724344 89.4221415,59.2535278 C89.3495425,59.4892843 89.0885183,60.3160282 89.047552,60.447593 C88.0299689,63.7155953 87.6462704,66.3327722 87.8346107,70.8693552 C88.2248823,80.2698677 92.580216,98.1180696 100.902796,124.478206 C101.024262,124.862923 101.424208,125.072936 101.796101,124.947282 C102.167995,124.821628 102.371007,124.407891 102.249542,124.023174 Z" id="Shape" fill="#0E143F" fill-rule="nonzero"></path>
                    <path d="M57.1863527,5.09970053 L58.0292663,2.70901457 C58.1633237,2.32879865 57.9740469,1.90815033 57.6065049,1.76947026 C57.2389628,1.63079019 56.8323361,1.82659368 56.6982787,2.2068096 L55.7798945,4.81154685 C55.7307752,4.95085981 55.7236684,5.10231076 55.759513,5.24589036 C58.6386674,16.7786691 60.8879599,22.9908295 62.7918276,24.271114 C64.8750802,25.6720283 70.2812036,22.7187449 79.7149901,15.4415408 C80.02862,15.1996073 80.0932794,14.7404669 79.8594102,14.416022 C79.6255409,14.0915772 79.1817053,14.0246885 78.8680754,14.2666221 C70.1667345,20.9788187 64.8304402,23.8939553 63.5639857,23.0423088 C62.1278206,22.0765379 59.909021,15.9686714 57.1863527,5.09970053 Z" id="Shape" fill="#0E143F" fill-rule="nonzero"></path>
                    <path d="M81.0715368,1.85832053 C86.3104488,8.64518887 88.7985596,13.0599598 88.509803,14.7246537 C88.2900022,15.9918172 85.3288868,15.9918172 79.4980851,14.1531195 C79.1238583,14.0351102 78.7280118,14.2532761 78.6139359,14.6404067 C78.4998606,15.0275373 78.7107543,15.4370341 79.0849804,15.5550434 C85.78921,17.6691699 89.438437,17.6691699 89.9042891,14.9835093 C90.3011861,12.6953789 87.7346549,8.1414631 82.1786285,0.943782168 C81.9345041,0.627525234 81.4887707,0.57587472 81.1830562,0.828417514 C80.877341,1.08096031 80.8274123,1.54206359 81.0715368,1.85832053 Z" id="Shape" fill="#0E143F" fill-rule="nonzero"></path>
                    <path d="M47.3394298,130.186971 L52.3125894,124.754579 C52.5816033,124.460724 52.569406,123.996908 52.2853459,123.718618 C52.0012859,123.440328 51.5529309,123.452946 51.283917,123.746801 L46.3107575,129.179193 C46.0417435,129.473048 46.0539409,129.936864 46.3380009,130.215154 C46.622061,130.493444 47.0704159,130.480826 47.3394298,130.186971 Z" id="Shape" fill="#0E143F" fill-rule="nonzero"></path>
                    <path d="M76.4370451,17.5212292 L79.2915324,15.3298512 L83.9169349,16.0947466 C92.3919402,17.2977729 97.3205098,19.0902503 98.7026446,21.472179 C100.775846,25.045072 98.0847935,30.0554408 96.0060791,28.8057176 C94.6202699,27.9725688 90.9345089,24.9146295 84.9487975,19.6318996 C92.7854738,28.7203758 97.5115505,34.3068283 99.127026,36.3912571 C101.55024,39.5179004 97.4368115,43.1279117 96.5685278,42.3176739 C95.9896723,41.7775153 91.2863268,34.6356527 82.4584914,20.8920862 C84.4159278,37.2315939 84.8027878,45.2040107 83.61907,44.8093368 C82.2779475,44.3621811 79.35709,42.9099065 78.1613199,41.2211552 C77.7354331,40.6196875 78.5407178,33.7525001 80.5771739,20.6195933 C78.8633229,29.8580919 77.4832799,34.9854078 76.4370451,36.0015408 C74.8676927,37.5257404 66.0418613,33.1975478 66.6142756,29.7697252 C66.9958844,27.4845101 70.2701416,23.4016781 76.4370451,17.5212292 Z M77.9217028,20.6407018 C73.0795625,26.4468536 70.9956351,29.7073865 71.6699199,30.4223005 C72.6813472,31.4946715 73.9923437,32.7981838 74.7339968,32.2260784 C75.228432,31.8446747 76.2910007,27.9828826 77.9217028,20.6407018 Z M85.9167628,18.6001651 C92.2734807,24.2973203 95.8954345,26.9128566 96.7826234,26.4467739 C98.1134078,25.7476499 98.5110656,24.4772027 95.1404044,22.352248 C92.8932962,20.9356115 89.8187495,19.6849172 85.9167628,18.6001651 Z" id="Shape" fill="#021768"></path>
                    <path d="M177.568451,31.379471 L182.913345,36.7256127 C183.194601,37.0069343 183.643058,36.9991253 183.915002,36.7081709 C184.186946,36.4172165 184.179398,35.9532951 183.898142,35.6719736 L178.553248,30.3258319 C178.271992,30.0445103 177.823535,30.0523192 177.55159,30.3432737 C177.279646,30.6342281 177.287195,31.0981495 177.568451,31.379471 Z" id="Shape" fill="#0E143F" fill-rule="nonzero"></path>
                </g>
            </g>
        </g>
    </g>
</svg>