<?xml version="1.0" encoding="UTF-8"?>
<svg width="44px" height="45px" viewBox="0 0 44 45" version="1.1" xmlns="http://www.w3.org/2000/svg" xmlns:xlink="http://www.w3.org/1999/xlink">
    <title>avatar/user/colour</title>
    <defs>
        <circle id="path-1" cx="22" cy="22" r="22"></circle>
    </defs>
    <g id="Navigation" stroke="none" stroke-width="1" fill="none" fill-rule="evenodd">
        <g id="nav/header/desktop/signed-in" transform="translate(-1198.000000, -10.000000)">
            <g id="user-settings-menu" transform="translate(1019.000000, 10.500000)">
                <g id="avatar" transform="translate(179.000000, 0.000000)">
                    <mask id="mask-2" fill="white">
                        <use xlink:href="#path-1"></use>
                    </mask>
                    <use id="Mask" fill="#0097A9" xlink:href="#path-1"></use>
                    <path d="M22,28.043956 C27.1277065,28.043956 31.2835165,23.888146 31.2835165,18.7604396 C31.2835165,13.6327331 27.1277065,9.47692308 22,9.47692308 C16.8722935,9.47692308 12.7164835,13.6327331 12.7164835,18.7604396 C12.7164835,23.888146 16.8722935,28.043956 22,28.043956 Z M34.7648352,46.610989 C36.6868132,46.610989 38.2461538,45.0516484 38.2461538,43.1296703 L38.2461538,40.1125558 C38.2461538,34.7310032 33.8799858,30.3648352 28.4984332,30.3648352 L27.2872811,30.3648352 C25.677157,31.1046296 23.8857143,31.5252747 22,31.5252747 C20.1142857,31.5252747 18.3301382,31.1046296 16.7127189,30.3648352 L15.5015668,30.3648352 C10.1200142,30.3648352 5.75384615,34.7310032 5.75384615,40.1125558 L5.75384615,43.1296703 C5.75384615,45.0516484 7.31318681,46.610989 9.23516484,46.610989 L34.7648352,46.610989 Z" id="icons/user" fill="#BFE5EA" fill-rule="nonzero" mask="url(#mask-2)"></path>
                </g>
            </g>
        </g>
    </g>
</svg>