<svg width="44" height="45" viewBox="0 0 44 45" fill="none" xmlns="http://www.w3.org/2000/svg">
<circle cx="22" cy="22.5" r="22" fill="#244C5A"/>
<mask id="mask0" mask-type="alpha" maskUnits="userSpaceOnUse" x="0" y="0" width="44" height="45">
<circle cx="22" cy="22.5" r="22" fill="white"/>
</mask>
<g mask="url(#mask0)">
<path fill-rule="evenodd" clip-rule="evenodd" d="M31.2836 19.2604C31.2836 24.3882 27.1278 28.544 22.0001 28.544C16.8723 28.544 12.7165 24.3882 12.7165 19.2604C12.7165 14.1327 16.8723 9.97693 22.0001 9.97693C27.1278 9.97693 31.2836 14.1327 31.2836 19.2604ZM38.2462 43.6297C38.2462 45.5517 36.6869 47.111 34.7649 47.111H9.23523C7.31325 47.111 5.75391 45.5517 5.75391 43.6297V40.6126C5.75391 35.231 10.1201 30.8648 15.5016 30.8648H16.7128C18.3302 31.6046 20.1143 32.0253 22.0001 32.0253C23.8858 32.0253 25.6772 31.6046 27.2873 30.8648H28.4985C33.88 30.8648 38.2462 35.231 38.2462 40.6126V43.6297Z" fill="#BFE5EA"/>
</g>
</svg>
