<?xml version="1.0" encoding="utf-8"?>
<!-- Generator: Adobe Illustrator 22.0.1, SVG Export Plug-In . SVG Version: 6.00 Build 0)  -->
<svg version="1.1" id="Layer_1" xmlns="http://www.w3.org/2000/svg" xmlns:xlink="http://www.w3.org/1999/xlink" x="0px" y="0px"
	 viewBox="0 0 149 53.5" style="enable-background:new 0 0 149 53.5;" xml:space="preserve">
<style type="text/css">
	.st0{fill:none;}
	.st1{fill:#F2A900;}
</style>
<g id="White_Box">
	<rect class="st0" width="149" height="53.5"/>
</g>
<g id="Wordmark">
	<g>
		<path d="M119,31.9c2.3,0,3.6,1.5,3.6,4.3v11.5h5.8V34.3c0-4.8-2.6-7.7-7-7.7c-3.1,0-4.8,1.7-6,3.3l-0.1,0.1v-3h-5.8v20.7h5.8V36.1
			C115.2,33.4,116.6,31.9,119,31.9"/>
		<path d="M101.6,37.5c0,1.5-0.5,3-1.4,4c-1,1.1-2.4,1.7-4,1.7s-3-0.6-4-1.7c-1-1.1-1.5-2.5-1.5-4.1v-0.1c0-1.5,0.5-3,1.4-4
			c1-1.1,2.4-1.7,4-1.7s3,0.6,4,1.7C101,34.4,101.6,35.9,101.6,37.5L101.6,37.5z M96.1,26.6c-3.1,0-5.9,1.1-8,3.2
			c-2.1,2-3.2,4.7-3.2,7.6v0.1c0,2.9,1.1,5.6,3.2,7.6s4.9,3.1,8,3.1s5.9-1.1,8-3.2c2.1-2,3.2-4.7,3.2-7.6v-0.1
			c0-2.9-1.1-5.6-3.2-7.6C102.1,27.7,99.2,26.6,96.1,26.6"/>
		<polygon points="79.8,47.7 86.4,47.7 78.3,35.1 78.3,35.1 86.1,27 79.2,27 72.3,34.7 72.3,20.1 66.5,20.1 66.5,47.7 72.3,47.7 
			72.3,41.4 72.3,41.4 74.4,39.2 		"/>
		<path d="M51.6,48.1c3.1,0,4.8-1.7,6-3.3l0.1-0.1v3h5.8V27h-5.8v11.5c0,2.7-1.4,4.3-3.7,4.3s-3.6-1.5-3.6-4.3V27h-5.8v13.4
			C44.6,45.2,47.2,48.1,51.6,48.1"/>
		<polygon points="40.7,20.7 34,31.3 34,31.2 27.5,20.7 20.7,20.7 31.1,36.7 31.1,47.7 36.9,47.7 36.9,36.6 36.9,36.6 47.3,20.7 		
			"/>
	</g>
	<polygon class="st1" points="96.1,5.8 94,12.4 89.5,7.1 90.2,14 84,10.9 87.2,17 80.3,16.4 85.6,20.9 79,23 84.7,24.8 89.6,19.5 
		91.6,21.7 96.2,16.8 100.7,21.7 102.7,19.5 107.6,24.7 113.3,22.9 106.7,20.8 112,16.3 105.1,17 108.2,10.8 102.1,14 102.7,7.1 
		98.2,12.4 	"/>
</g>
</svg>
